<?xml version="1.0" encoding="UTF-8" standalone="no"?>
<!DOCTYPE svg PUBLIC "-//W3C//DTD SVG 1.1//EN"
 "http://www.w3.org/Graphics/SVG/1.1/DTD/svg11.dtd">
<!-- Generated by graphviz version 9.0.0 (20230911.1827)
 -->
<!-- Title: dependency&#45;cruiser output Pages: 1 -->
<svg width="740pt" height="304pt"
 viewBox="0.00 0.00 739.50 304.00" xmlns="http://www.w3.org/2000/svg" xmlns:xlink="http://www.w3.org/1999/xlink">
<g id="graph0" class="graph" transform="scale(1 1) rotate(0) translate(4 300)">
<title>dependency&#45;cruiser output</title>
<polygon fill="white" stroke="none" points="-4,4 -4,-300 735.5,-300 735.5,4 -4,4"/>
<g id="clust1" class="cluster">
<title>cluster_src</title>
<path fill="#ffffff" stroke="black" stroke-width="2" d="M20,-8C20,-8 711.5,-8 711.5,-8 717.5,-8 723.5,-14 723.5,-20 723.5,-20 723.5,-276 723.5,-276 723.5,-282 717.5,-288 711.5,-288 711.5,-288 20,-288 20,-288 14,-288 8,-282 8,-276 8,-276 8,-20 8,-20 8,-14 14,-8 20,-8"/>
<text text-anchor="middle" x="365.75" y="-275.45" font-family="Helvetica,sans-Serif" font-weight="bold" font-size="9.00">src</text>
</g>
<g id="clust2" class="cluster">
<title>cluster_src/ConfigApp</title>
<path fill="#ffffff" stroke="black" stroke-width="2" d="M402.38,-16C402.38,-16 565.25,-16 565.25,-16 571.25,-16 577.25,-22 577.25,-28 577.25,-28 577.25,-86 577.25,-86 577.25,-92 571.25,-98 565.25,-98 565.25,-98 402.38,-98 402.38,-98 396.38,-98 390.38,-92 390.38,-86 390.38,-86 390.38,-28 390.38,-28 390.38,-22 396.38,-16 402.38,-16"/>
<text text-anchor="middle" x="483.81" y="-85.45" font-family="Helvetica,sans-Serif" font-weight="bold" font-size="9.00">ConfigApp</text>
</g>
<g id="clust3" class="cluster">
<title>cluster_src/DynoApp</title>
<path fill="#ffffff" stroke="black" stroke-width="2" d="M228.75,-106C228.75,-106 456,-106 456,-106 462,-106 468,-112 468,-118 468,-118 468,-250 468,-250 468,-256 462,-262 456,-262 456,-262 228.75,-262 228.75,-262 222.75,-262 216.75,-256 216.75,-250 216.75,-250 216.75,-118 216.75,-118 216.75,-112 222.75,-106 228.75,-106"/>
<text text-anchor="middle" x="342.38" y="-249.45" font-family="Helvetica,sans-Serif" font-weight="bold" font-size="9.00">DynoApp</text>
</g>
<g id="clust4" class="cluster">
<title>cluster_src/clients</title>
<path fill="#ffffff" stroke="black" stroke-width="2" d="M627.38,-38C627.38,-38 673.38,-38 673.38,-38 679.38,-38 685.38,-44 685.38,-50 685.38,-50 685.38,-78 685.38,-78 685.38,-84 679.38,-90 673.38,-90 673.38,-90 627.38,-90 627.38,-90 621.38,-90 615.38,-84 615.38,-78 615.38,-78 615.38,-50 615.38,-50 615.38,-44 621.38,-38 627.38,-38"/>
<text text-anchor="middle" x="650.38" y="-77.45" font-family="Helvetica,sans-Serif" font-weight="bold" font-size="9.00">clients</text>
</g>
<g id="clust5" class="cluster">
<title>cluster_src/common</title>
<path fill="#ffffff" stroke="black" stroke-width="2" d="M597.25,-98C597.25,-98 703.5,-98 703.5,-98 709.5,-98 715.5,-104 715.5,-110 715.5,-110 715.5,-228 715.5,-228 715.5,-234 709.5,-240 703.5,-240 703.5,-240 597.25,-240 597.25,-240 591.25,-240 585.25,-234 585.25,-228 585.25,-228 585.25,-110 585.25,-110 585.25,-104 591.25,-98 597.25,-98"/>
<text text-anchor="middle" x="650.38" y="-227.45" font-family="Helvetica,sans-Serif" font-weight="bold" font-size="9.00">common</text>
</g>
<!-- src/App.tsx -->
<g id="node1" class="node">
<title>src/App.tsx</title>
<g id="a_node1"><a xlink:href="src/App.tsx" xlink:title="App.tsx">
<path fill="#bbfeff" stroke="black" d="M184.71,-109.88C184.71,-109.88 142.54,-109.88 142.54,-109.88 139.58,-109.88 136.62,-106.92 136.62,-103.96 136.62,-103.96 136.62,-98.04 136.62,-98.04 136.62,-95.08 139.58,-92.12 142.54,-92.12 142.54,-92.12 184.71,-92.12 184.71,-92.12 187.67,-92.12 190.62,-95.08 190.62,-98.04 190.62,-98.04 190.62,-103.96 190.62,-103.96 190.62,-106.92 187.67,-109.88 184.71,-109.88"/>
<text text-anchor="start" x="148.62" y="-97.33" font-family="Helvetica,sans-Serif" font-size="9.00">App.tsx</text>
</a>
</g>
</g>
<!-- src/ConfigApp/index.tsx -->
<g id="node2" class="node">
<title>src/ConfigApp/index.tsx</title>
<g id="a_node2"><a xlink:href="src/ConfigApp/index.tsx" xlink:title="index.tsx">
<path fill="#bbfeff" stroke="black" d="M446.46,-71.88C446.46,-71.88 404.29,-71.88 404.29,-71.88 401.33,-71.88 398.38,-68.92 398.38,-65.96 398.38,-65.96 398.38,-60.04 398.38,-60.04 398.38,-57.08 401.33,-54.12 404.29,-54.12 404.29,-54.12 446.46,-54.12 446.46,-54.12 449.42,-54.12 452.38,-57.08 452.38,-60.04 452.38,-60.04 452.38,-65.96 452.38,-65.96 452.38,-68.92 449.42,-71.88 446.46,-71.88"/>
<text text-anchor="start" x="407.38" y="-59.33" font-family="Helvetica,sans-Serif" font-size="9.00">index.tsx</text>
</a>
</g>
</g>
<!-- src/App.tsx&#45;&gt;src/ConfigApp/index.tsx -->
<g id="edge1" class="edge">
<title>src/App.tsx&#45;&gt;src/ConfigApp/index.tsx</title>
<path fill="none" stroke="#000000" stroke-width="2" stroke-opacity="0.200000" d="M190.96,-97.15C238.02,-90.26 336.56,-75.85 389.3,-68.13"/>
<polygon fill="#000000" fill-opacity="0.200000" stroke="#000000" stroke-width="2" stroke-opacity="0.200000" points="389.34,-70.25 394.97,-67.3 388.73,-66.09 389.34,-70.25"/>
</g>
<!-- src/DynoApp/DynoApp.tsx -->
<g id="node3" class="node">
<title>src/DynoApp/DynoApp.tsx</title>
<g id="a_node3"><a xlink:href="src/DynoApp/DynoApp.tsx" xlink:title="DynoApp.tsx">
<path fill="#bbfeff" stroke="black" d="M286.58,-176.88C286.58,-176.88 230.67,-176.88 230.67,-176.88 227.71,-176.88 224.75,-173.92 224.75,-170.96 224.75,-170.96 224.75,-165.04 224.75,-165.04 224.75,-162.08 227.71,-159.12 230.67,-159.12 230.67,-159.12 286.58,-159.12 286.58,-159.12 289.54,-159.12 292.5,-162.08 292.5,-165.04 292.5,-165.04 292.5,-170.96 292.5,-170.96 292.5,-173.92 289.54,-176.88 286.58,-176.88"/>
<text text-anchor="start" x="232.75" y="-164.32" font-family="Helvetica,sans-Serif" font-size="9.00">DynoApp.tsx</text>
</a>
</g>
</g>
<!-- src/App.tsx&#45;&gt;src/DynoApp/DynoApp.tsx -->
<g id="edge2" class="edge">
<title>src/App.tsx&#45;&gt;src/DynoApp/DynoApp.tsx</title>
<path fill="none" stroke="#000000" stroke-width="2" stroke-opacity="0.200000" d="M191.07,-105.15C197.66,-107.38 204.15,-110.78 208.75,-116 220.45,-129.27 204.92,-141.85 216.75,-155 217.02,-155.3 217.3,-155.6 217.59,-155.89"/>
<polygon fill="#000000" fill-opacity="0.200000" stroke="#000000" stroke-width="2" stroke-opacity="0.200000" points="215.98,-157.31 222.04,-159.22 218.49,-153.94 215.98,-157.31"/>
</g>
<!-- src/ConfigApp/ConfigForm.tsx -->
<g id="node4" class="node">
<title>src/ConfigApp/ConfigForm.tsx</title>
<g id="a_node4"><a xlink:href="src/ConfigApp/ConfigForm.tsx" xlink:title="ConfigForm.tsx">
<path fill="#bbfeff" stroke="black" d="M555.46,-41.88C555.46,-41.88 489.79,-41.88 489.79,-41.88 486.83,-41.88 483.88,-38.92 483.88,-35.96 483.88,-35.96 483.88,-30.04 483.88,-30.04 483.88,-27.08 486.83,-24.12 489.79,-24.12 489.79,-24.12 555.46,-24.12 555.46,-24.12 558.42,-24.12 561.38,-27.08 561.38,-30.04 561.38,-30.04 561.38,-35.96 561.38,-35.96 561.38,-38.92 558.42,-41.88 555.46,-41.88"/>
<text text-anchor="start" x="491.88" y="-29.32" font-family="Helvetica,sans-Serif" font-size="9.00">ConfigForm.tsx</text>
</a>
</g>
</g>
<!-- src/ConfigApp/index.tsx&#45;&gt;src/ConfigApp/ConfigForm.tsx -->
<g id="edge5" class="edge">
<title>src/ConfigApp/index.tsx&#45;&gt;src/ConfigApp/ConfigForm.tsx</title>
<path fill="none" stroke="#000000" stroke-width="2" stroke-opacity="0.200000" d="M452.65,-54.72C462.21,-51.71 473.2,-48.25 483.56,-44.99"/>
<polygon fill="#000000" fill-opacity="0.200000" stroke="#000000" stroke-width="2" stroke-opacity="0.200000" points="484.1,-47.02 489.19,-43.22 482.83,-43.02 484.1,-47.02"/>
</g>
<!-- src/ConfigApp/contextProvider.tsx -->
<g id="node5" class="node">
<title>src/ConfigApp/contextProvider.tsx</title>
<g id="a_node5"><a xlink:href="src/ConfigApp/contextProvider.tsx" xlink:title="contextProvider.tsx">
<path fill="#bbfeff" stroke="black" d="M563.33,-71.88C563.33,-71.88 481.92,-71.88 481.92,-71.88 478.96,-71.88 476,-68.92 476,-65.96 476,-65.96 476,-60.04 476,-60.04 476,-57.08 478.96,-54.12 481.92,-54.12 481.92,-54.12 563.33,-54.12 563.33,-54.12 566.29,-54.12 569.25,-57.08 569.25,-60.04 569.25,-60.04 569.25,-65.96 569.25,-65.96 569.25,-68.92 566.29,-71.88 563.33,-71.88"/>
<text text-anchor="start" x="484" y="-59.33" font-family="Helvetica,sans-Serif" font-size="9.00">contextProvider.tsx</text>
</a>
</g>
</g>
<!-- src/ConfigApp/index.tsx&#45;&gt;src/ConfigApp/contextProvider.tsx -->
<g id="edge6" class="edge">
<title>src/ConfigApp/index.tsx&#45;&gt;src/ConfigApp/contextProvider.tsx</title>
<path fill="none" stroke="#000000" stroke-width="2" stroke-opacity="0.200000" d="M452.65,-63C457.13,-63 461.92,-63 466.81,-63"/>
<polygon fill="#000000" fill-opacity="0.200000" stroke="#000000" stroke-width="2" stroke-opacity="0.200000" points="466.66,-65.1 472.66,-63 466.66,-60.9 466.66,-65.1"/>
</g>
<!-- src/DynoApp/DynoApp.tsx&#45;&gt;src/ConfigApp/index.tsx -->
<g id="edge8" class="edge">
<title>src/DynoApp/DynoApp.tsx&#45;&gt;src/ConfigApp/index.tsx</title>
<path fill="none" stroke="#000000" stroke-width="2" stroke-opacity="0.200000" d="M288.37,-158.7C289.88,-157.6 291.27,-156.37 292.5,-155 306.99,-138.88 289.98,-123.13 305.5,-108 329.2,-84.9 347.07,-102.41 377.75,-90 386.46,-86.47 395.52,-81.55 403.31,-76.88"/>
<polygon fill="#000000" fill-opacity="0.200000" stroke="#000000" stroke-width="2" stroke-opacity="0.200000" points="404.05,-78.89 408.04,-73.94 401.84,-75.32 404.05,-78.89"/>
</g>
<!-- src/common/ModalContainer.tsx -->
<g id="node8" class="node">
<title>src/common/ModalContainer.tsx</title>
<g id="a_node8"><a xlink:href="src/common/ModalContainer.tsx" xlink:title="ModalContainer.tsx">
<path fill="#bbfeff" stroke="black" d="M692.21,-213.88C692.21,-213.88 608.54,-213.88 608.54,-213.88 605.58,-213.88 602.62,-210.92 602.62,-207.96 602.62,-207.96 602.62,-202.04 602.62,-202.04 602.62,-199.08 605.58,-196.12 608.54,-196.12 608.54,-196.12 692.21,-196.12 692.21,-196.12 695.17,-196.12 698.12,-199.08 698.12,-202.04 698.12,-202.04 698.12,-207.96 698.12,-207.96 698.12,-210.92 695.17,-213.88 692.21,-213.88"/>
<text text-anchor="start" x="610.62" y="-201.32" font-family="Helvetica,sans-Serif" font-size="9.00">ModalContainer.tsx</text>
</a>
</g>
</g>
<!-- src/DynoApp/DynoApp.tsx&#45;&gt;src/common/ModalContainer.tsx -->
<g id="edge7" class="edge">
<title>src/DynoApp/DynoApp.tsx&#45;&gt;src/common/ModalContainer.tsx</title>
<path fill="none" stroke="#000000" stroke-width="2" stroke-opacity="0.200000" d="M262.12,-177.17C267.15,-193.68 280.27,-227.96 305.5,-242 410.48,-300.43 561.43,-244.92 622.35,-217.89"/>
<polygon fill="#000000" fill-opacity="0.200000" stroke="#000000" stroke-width="2" stroke-opacity="0.200000" points="622.98,-219.91 627.58,-215.52 621.25,-216.08 622.98,-219.91"/>
</g>
<!-- src/DynoApp/DynoForm.tsx -->
<g id="node9" class="node">
<title>src/DynoApp/DynoForm.tsx</title>
<g id="a_node9"><a xlink:href="src/DynoApp/DynoForm.tsx" xlink:title="DynoForm.tsx">
<path fill="#bbfeff" stroke="black" d="M371.83,-191.88C371.83,-191.88 311.42,-191.88 311.42,-191.88 308.46,-191.88 305.5,-188.92 305.5,-185.96 305.5,-185.96 305.5,-180.04 305.5,-180.04 305.5,-177.08 308.46,-174.12 311.42,-174.12 311.42,-174.12 371.83,-174.12 371.83,-174.12 374.79,-174.12 377.75,-177.08 377.75,-180.04 377.75,-180.04 377.75,-185.96 377.75,-185.96 377.75,-188.92 374.79,-191.88 371.83,-191.88"/>
<text text-anchor="start" x="313.5" y="-179.32" font-family="Helvetica,sans-Serif" font-size="9.00">DynoForm.tsx</text>
</a>
</g>
</g>
<!-- src/DynoApp/DynoApp.tsx&#45;&gt;src/DynoApp/DynoForm.tsx -->
<g id="edge9" class="edge">
<title>src/DynoApp/DynoApp.tsx&#45;&gt;src/DynoApp/DynoForm.tsx</title>
<path fill="none" stroke="#000000" stroke-width="2" stroke-opacity="0.200000" d="M292.57,-174.1C293.86,-174.34 295.15,-174.58 296.46,-174.82"/>
<polygon fill="#000000" fill-opacity="0.200000" stroke="#000000" stroke-width="2" stroke-opacity="0.200000" points="295.81,-176.84 302.09,-175.86 296.57,-172.71 295.81,-176.84"/>
</g>
<!-- src/DynoApp/DynoList.tsx -->
<g id="node10" class="node">
<title>src/DynoApp/DynoList.tsx</title>
<g id="a_node10"><a xlink:href="src/DynoApp/DynoList.tsx" xlink:title="DynoList.tsx">
<path fill="#bbfeff" stroke="black" d="M368.46,-235.88C368.46,-235.88 314.79,-235.88 314.79,-235.88 311.83,-235.88 308.88,-232.92 308.88,-229.96 308.88,-229.96 308.88,-224.04 308.88,-224.04 308.88,-221.08 311.83,-218.12 314.79,-218.12 314.79,-218.12 368.46,-218.12 368.46,-218.12 371.42,-218.12 374.38,-221.08 374.38,-224.04 374.38,-224.04 374.38,-229.96 374.38,-229.96 374.38,-232.92 371.42,-235.88 368.46,-235.88"/>
<text text-anchor="start" x="316.88" y="-223.32" font-family="Helvetica,sans-Serif" font-size="9.00">DynoList.tsx</text>
</a>
</g>
</g>
<!-- src/DynoApp/DynoApp.tsx&#45;&gt;src/DynoApp/DynoList.tsx -->
<g id="edge10" class="edge">
<title>src/DynoApp/DynoApp.tsx&#45;&gt;src/DynoApp/DynoList.tsx</title>
<path fill="none" stroke="#000000" stroke-width="2" stroke-opacity="0.200000" d="M268.53,-177.23C277.37,-186.07 291.58,-199.45 305.5,-209 307.82,-210.59 310.29,-212.13 312.82,-213.6"/>
<polygon fill="#000000" fill-opacity="0.200000" stroke="#000000" stroke-width="2" stroke-opacity="0.200000" points="311.5,-215.27 317.77,-216.31 313.51,-211.59 311.5,-215.27"/>
</g>
<!-- src/DynoApp/FilterForm.tsx -->
<g id="node11" class="node">
<title>src/DynoApp/FilterForm.tsx</title>
<g id="a_node11"><a xlink:href="src/DynoApp/FilterForm.tsx" xlink:title="FilterForm.tsx">
<path fill="#bbfeff" stroke="black" d="M371.08,-161.88C371.08,-161.88 312.17,-161.88 312.17,-161.88 309.21,-161.88 306.25,-158.92 306.25,-155.96 306.25,-155.96 306.25,-150.04 306.25,-150.04 306.25,-147.08 309.21,-144.12 312.17,-144.12 312.17,-144.12 371.08,-144.12 371.08,-144.12 374.04,-144.12 377,-147.08 377,-150.04 377,-150.04 377,-155.96 377,-155.96 377,-158.92 374.04,-161.88 371.08,-161.88"/>
<text text-anchor="start" x="314.25" y="-149.32" font-family="Helvetica,sans-Serif" font-size="9.00">FilterForm.tsx</text>
</a>
</g>
</g>
<!-- src/DynoApp/DynoApp.tsx&#45;&gt;src/DynoApp/FilterForm.tsx -->
<g id="edge11" class="edge">
<title>src/DynoApp/DynoApp.tsx&#45;&gt;src/DynoApp/FilterForm.tsx</title>
<path fill="none" stroke="#000000" stroke-width="2" stroke-opacity="0.200000" d="M292.57,-161.9C294.08,-161.62 295.6,-161.34 297.12,-161.06"/>
<polygon fill="#000000" fill-opacity="0.200000" stroke="#000000" stroke-width="2" stroke-opacity="0.200000" points="297.37,-163.15 302.89,-159.99 296.6,-159.02 297.37,-163.15"/>
</g>
<!-- src/DynoApp/hooks.ts -->
<g id="node12" class="node">
<title>src/DynoApp/hooks.ts</title>
<g id="a_node12"><a xlink:href="src/DynoApp/hooks.ts" xlink:title="hooks.ts">
<path fill="#ddfeff" stroke="black" d="M362.71,-131.88C362.71,-131.88 320.54,-131.88 320.54,-131.88 317.58,-131.88 314.62,-128.92 314.62,-125.96 314.62,-125.96 314.62,-120.04 314.62,-120.04 314.62,-117.08 317.58,-114.12 320.54,-114.12 320.54,-114.12 362.71,-114.12 362.71,-114.12 365.67,-114.12 368.62,-117.08 368.62,-120.04 368.62,-120.04 368.62,-125.96 368.62,-125.96 368.62,-128.92 365.67,-131.88 362.71,-131.88"/>
<text text-anchor="start" x="324.75" y="-119.33" font-family="Helvetica,sans-Serif" font-size="9.00">hooks.ts</text>
</a>
</g>
</g>
<!-- src/DynoApp/DynoApp.tsx&#45;&gt;src/DynoApp/hooks.ts -->
<g id="edge12" class="edge">
<title>src/DynoApp/DynoApp.tsx&#45;&gt;src/DynoApp/hooks.ts</title>
<path fill="none" stroke="#000000" stroke-width="2" stroke-opacity="0.200000" d="M286.83,-158.65C288.82,-157.55 290.74,-156.33 292.5,-155 300.09,-149.26 297.99,-143.84 305.5,-138 305.93,-137.67 306.36,-137.34 306.8,-137.03"/>
<polygon fill="#000000" fill-opacity="0.200000" stroke="#000000" stroke-width="2" stroke-opacity="0.200000" points="307.83,-138.86 311.86,-133.94 305.64,-135.27 307.83,-138.86"/>
</g>
<!-- src/DynoApp/utils.ts -->
<g id="node13" class="node">
<title>src/DynoApp/utils.ts</title>
<g id="a_node13"><a xlink:href="src/DynoApp/utils.ts" xlink:title="utils.ts">
<path fill="#ddfeff" stroke="black" d="M446.46,-205.88C446.46,-205.88 404.29,-205.88 404.29,-205.88 401.33,-205.88 398.38,-202.92 398.38,-199.96 398.38,-199.96 398.38,-194.04 398.38,-194.04 398.38,-191.08 401.33,-188.12 404.29,-188.12 404.29,-188.12 446.46,-188.12 446.46,-188.12 449.42,-188.12 452.38,-191.08 452.38,-194.04 452.38,-194.04 452.38,-199.96 452.38,-199.96 452.38,-202.92 449.42,-205.88 446.46,-205.88"/>
<text text-anchor="start" x="412.62" y="-193.32" font-family="Helvetica,sans-Serif" font-size="9.00">utils.ts</text>
</a>
</g>
</g>
<!-- src/DynoApp/DynoApp.tsx&#45;&gt;src/DynoApp/utils.ts -->
<g id="edge13" class="edge">
<title>src/DynoApp/DynoApp.tsx&#45;&gt;src/DynoApp/utils.ts</title>
<path fill="none" stroke="#000000" stroke-width="2" stroke-opacity="0.200000" d="M270.02,-177.37C278.78,-184.58 292,-193.98 305.5,-198 332.86,-206.15 365.36,-205.2 389.46,-202.61"/>
<polygon fill="#000000" fill-opacity="0.200000" stroke="#000000" stroke-width="2" stroke-opacity="0.200000" points="389.54,-204.71 395.25,-201.91 389.04,-200.54 389.54,-204.71"/>
</g>
<!-- src/clients/index.ts -->
<g id="node6" class="node">
<title>src/clients/index.ts</title>
<g id="a_node6"><a xlink:href="src/clients/index.ts" xlink:title="index.ts">
<path fill="#ddfeff" stroke="black" d="M671.46,-63.88C671.46,-63.88 629.29,-63.88 629.29,-63.88 626.33,-63.88 623.38,-60.92 623.38,-57.96 623.38,-57.96 623.38,-52.04 623.38,-52.04 623.38,-49.08 626.33,-46.12 629.29,-46.12 629.29,-46.12 671.46,-46.12 671.46,-46.12 674.42,-46.12 677.38,-49.08 677.38,-52.04 677.38,-52.04 677.38,-57.96 677.38,-57.96 677.38,-60.92 674.42,-63.88 671.46,-63.88"/>
<text text-anchor="start" x="634.62" y="-51.33" font-family="Helvetica,sans-Serif" font-size="9.00">index.ts</text>
</a>
</g>
</g>
<!-- src/ConfigApp/contextProvider.tsx&#45;&gt;src/clients/index.ts -->
<g id="edge3" class="edge">
<title>src/ConfigApp/contextProvider.tsx&#45;&gt;src/clients/index.ts</title>
<path fill="none" stroke="#000000" stroke-width="2" stroke-opacity="0.200000" d="M569.74,-60.07C584.46,-59.13 600.5,-58.11 614.3,-57.23"/>
<polygon fill="#000000" fill-opacity="0.200000" stroke="#000000" stroke-width="2" stroke-opacity="0.200000" points="614.14,-59.35 619.99,-56.87 613.87,-55.15 614.14,-59.35"/>
</g>
<!-- src/common/ErrorCenter.tsx -->
<g id="node7" class="node">
<title>src/common/ErrorCenter.tsx</title>
<g id="a_node7"><a xlink:href="src/common/ErrorCenter.tsx" xlink:title="ErrorCenter.tsx">
<path fill="#bbfeff" stroke="black" d="M683.21,-153.88C683.21,-153.88 617.54,-153.88 617.54,-153.88 614.58,-153.88 611.62,-150.92 611.62,-147.96 611.62,-147.96 611.62,-142.04 611.62,-142.04 611.62,-139.08 614.58,-136.12 617.54,-136.12 617.54,-136.12 683.21,-136.12 683.21,-136.12 686.17,-136.12 689.12,-139.08 689.12,-142.04 689.12,-142.04 689.12,-147.96 689.12,-147.96 689.12,-150.92 686.17,-153.88 683.21,-153.88"/>
<text text-anchor="start" x="619.62" y="-141.32" font-family="Helvetica,sans-Serif" font-size="9.00">ErrorCenter.tsx</text>
</a>
</g>
</g>
<!-- src/ConfigApp/contextProvider.tsx&#45;&gt;src/common/ErrorCenter.tsx -->
<g id="edge4" class="edge">
<title>src/ConfigApp/contextProvider.tsx&#45;&gt;src/common/ErrorCenter.tsx</title>
<path fill="none" stroke="#000000" stroke-width="2" stroke-opacity="0.200000" d="M529.23,-71.96C538.84,-86.53 559.86,-115.18 585.25,-130 590.68,-133.17 596.74,-135.67 602.9,-137.64"/>
<polygon fill="#000000" fill-opacity="0.200000" stroke="#000000" stroke-width="2" stroke-opacity="0.200000" points="602.06,-139.59 608.41,-139.2 603.2,-135.55 602.06,-139.59"/>
</g>
<!-- src/DynoApp/DynoForm.tsx&#45;&gt;src/DynoApp/utils.ts -->
<g id="edge15" class="edge">
<title>src/DynoApp/DynoForm.tsx&#45;&gt;src/DynoApp/utils.ts</title>
<path fill="none" stroke="#000000" stroke-width="2" stroke-opacity="0.200000" d="M378.24,-189.1C382.02,-189.75 385.86,-190.4 389.62,-191.05"/>
<polygon fill="#000000" fill-opacity="0.200000" stroke="#000000" stroke-width="2" stroke-opacity="0.200000" points="388.97,-193.07 395.23,-192.01 389.67,-188.93 388.97,-193.07"/>
</g>
<!-- src/common/MultiSelect.tsx -->
<g id="node14" class="node">
<title>src/common/MultiSelect.tsx</title>
<g id="a_node14"><a xlink:href="src/common/MultiSelect.tsx" xlink:title="MultiSelect.tsx">
<path fill="#bbfeff" stroke="black" d="M681.71,-183.88C681.71,-183.88 619.04,-183.88 619.04,-183.88 616.08,-183.88 613.12,-180.92 613.12,-177.96 613.12,-177.96 613.12,-172.04 613.12,-172.04 613.12,-169.08 616.08,-166.12 619.04,-166.12 619.04,-166.12 681.71,-166.12 681.71,-166.12 684.67,-166.12 687.62,-169.08 687.62,-172.04 687.62,-172.04 687.62,-177.96 687.62,-177.96 687.62,-180.92 684.67,-183.88 681.71,-183.88"/>
<text text-anchor="start" x="621.12" y="-171.32" font-family="Helvetica,sans-Serif" font-size="9.00">MultiSelect.tsx</text>
</a>
</g>
</g>
<!-- src/DynoApp/DynoForm.tsx&#45;&gt;src/common/MultiSelect.tsx -->
<g id="edge14" class="edge">
<title>src/DynoApp/DynoForm.tsx&#45;&gt;src/common/MultiSelect.tsx</title>
<path fill="none" stroke="#000000" stroke-width="2" stroke-opacity="0.200000" d="M378.11,-182.07C434.03,-180.62 542.59,-177.78 604.06,-176.18"/>
<polygon fill="#000000" fill-opacity="0.200000" stroke="#000000" stroke-width="2" stroke-opacity="0.200000" points="603.81,-178.29 609.75,-176.03 603.7,-174.09 603.81,-178.29"/>
</g>
<!-- src/DynoApp/DynoList.tsx&#45;&gt;src/DynoApp/utils.ts -->
<g id="edge17" class="edge">
<title>src/DynoApp/DynoList.tsx&#45;&gt;src/DynoApp/utils.ts</title>
<path fill="none" stroke="#000000" stroke-width="2" stroke-opacity="0.200000" d="M368.04,-217.67C375.27,-215.02 383.26,-212.09 390.89,-209.29"/>
<polygon fill="#000000" fill-opacity="0.200000" stroke="#000000" stroke-width="2" stroke-opacity="0.200000" points="391.22,-211.4 396.13,-207.36 389.77,-207.46 391.22,-211.4"/>
</g>
<!-- src/DynoApp/DynoRow.tsx -->
<g id="node15" class="node">
<title>src/DynoApp/DynoRow.tsx</title>
<g id="a_node15"><a xlink:href="src/DynoApp/DynoRow.tsx" xlink:title="DynoRow.tsx">
<path fill="#bbfeff" stroke="black" d="M454.08,-235.88C454.08,-235.88 396.67,-235.88 396.67,-235.88 393.71,-235.88 390.75,-232.92 390.75,-229.96 390.75,-229.96 390.75,-224.04 390.75,-224.04 390.75,-221.08 393.71,-218.12 396.67,-218.12 396.67,-218.12 454.08,-218.12 454.08,-218.12 457.04,-218.12 460,-221.08 460,-224.04 460,-224.04 460,-229.96 460,-229.96 460,-232.92 457.04,-235.88 454.08,-235.88"/>
<text text-anchor="start" x="398.75" y="-223.32" font-family="Helvetica,sans-Serif" font-size="9.00">DynoRow.tsx</text>
</a>
</g>
</g>
<!-- src/DynoApp/DynoList.tsx&#45;&gt;src/DynoApp/DynoRow.tsx -->
<g id="edge16" class="edge">
<title>src/DynoApp/DynoList.tsx&#45;&gt;src/DynoApp/DynoRow.tsx</title>
<path fill="none" stroke="#000000" stroke-width="2" stroke-opacity="0.200000" d="M374.47,-227C376.74,-227 379.06,-227 381.38,-227"/>
<polygon fill="#000000" fill-opacity="0.200000" stroke="#000000" stroke-width="2" stroke-opacity="0.200000" points="381.3,-229.1 387.3,-227 381.3,-224.9 381.3,-229.1"/>
</g>
<!-- src/DynoApp/FilterForm.tsx&#45;&gt;src/common/MultiSelect.tsx -->
<g id="edge18" class="edge">
<title>src/DynoApp/FilterForm.tsx&#45;&gt;src/common/MultiSelect.tsx</title>
<path fill="none" stroke="#000000" stroke-width="2" stroke-opacity="0.200000" d="M377.22,-155.48C432.92,-159.48 542.49,-167.33 604.26,-171.76"/>
<polygon fill="#000000" fill-opacity="0.200000" stroke="#000000" stroke-width="2" stroke-opacity="0.200000" points="603.86,-173.84 609.99,-172.18 604.16,-169.65 603.86,-173.84"/>
</g>
<!-- src/DynoApp/hooks.ts&#45;&gt;src/ConfigApp/index.tsx -->
<g id="edge19" class="edge">
<title>src/DynoApp/hooks.ts&#45;&gt;src/ConfigApp/index.tsx</title>
<path fill="none" stroke="#000000" stroke-width="2" stroke-opacity="0.200000" d="M356.43,-113.84C362.96,-109.44 370.82,-104.04 377.75,-99 387.09,-92.21 397.26,-84.41 405.72,-77.8"/>
<polygon fill="#000000" fill-opacity="0.200000" stroke="#000000" stroke-width="2" stroke-opacity="0.200000" points="406.84,-79.59 410.26,-74.24 404.24,-76.29 406.84,-79.59"/>
</g>
<!-- src/__List.tsx -->
<g id="node16" class="node">
<title>src/__List.tsx</title>
<g id="a_node16"><a xlink:href="src/__List.tsx" xlink:title="no&#45;orphans">
<path fill="#ccffcc" stroke="orange" d="M81.96,-219.88C81.96,-219.88 39.54,-219.88 39.54,-219.88 36.58,-219.88 33.62,-216.92 33.62,-213.96 33.62,-213.96 33.62,-208.04 33.62,-208.04 33.62,-205.08 36.58,-202.12 39.54,-202.12 39.54,-202.12 81.96,-202.12 81.96,-202.12 84.92,-202.12 87.88,-205.08 87.88,-208.04 87.88,-208.04 87.88,-213.96 87.88,-213.96 87.88,-216.92 84.92,-219.88 81.96,-219.88"/>
<text text-anchor="start" x="41.62" y="-207.32" font-family="Helvetica,sans-Serif" font-size="9.00" fill="orange">__List.tsx</text>
</a>
</g>
</g>
<!-- src/common/DebouncedTextField.tsx -->
<g id="node17" class="node">
<title>src/common/DebouncedTextField.tsx</title>
<g id="a_node17"><a xlink:href="src/common/DebouncedTextField.tsx" xlink:title="no&#45;orphans">
<path fill="#ccffcc" stroke="orange" d="M701.58,-123.88C701.58,-123.88 599.17,-123.88 599.17,-123.88 596.21,-123.88 593.25,-120.92 593.25,-117.96 593.25,-117.96 593.25,-112.04 593.25,-112.04 593.25,-109.08 596.21,-106.12 599.17,-106.12 599.17,-106.12 701.58,-106.12 701.58,-106.12 704.54,-106.12 707.5,-109.08 707.5,-112.04 707.5,-112.04 707.5,-117.96 707.5,-117.96 707.5,-120.92 704.54,-123.88 701.58,-123.88"/>
<text text-anchor="start" x="601.25" y="-111.33" font-family="Helvetica,sans-Serif" font-size="9.00" fill="orange">DebouncedTextField.tsx</text>
</a>
</g>
</g>
<!-- src/index.tsx -->
<g id="node18" class="node">
<title>src/index.tsx</title>
<g id="a_node18"><a xlink:href="src/index.tsx" xlink:title="index.tsx">
<path fill="#bbfeff" stroke="black" d="M81.83,-124.88C81.83,-124.88 39.67,-124.88 39.67,-124.88 36.71,-124.88 33.75,-121.92 33.75,-118.96 33.75,-118.96 33.75,-113.04 33.75,-113.04 33.75,-110.08 36.71,-107.12 39.67,-107.12 39.67,-107.12 81.83,-107.12 81.83,-107.12 84.79,-107.12 87.75,-110.08 87.75,-113.04 87.75,-113.04 87.75,-118.96 87.75,-118.96 87.75,-121.92 84.79,-124.88 81.83,-124.88"/>
<text text-anchor="start" x="42.75" y="-112.33" font-family="Helvetica,sans-Serif" font-size="9.00">index.tsx</text>
</a>
</g>
</g>
<!-- src/index.tsx&#45;&gt;src/App.tsx -->
<g id="edge20" class="edge">
<title>src/index.tsx&#45;&gt;src/App.tsx</title>
<path fill="none" stroke="#000000" stroke-width="2" stroke-opacity="0.200000" d="M87.99,-112.1C100.04,-110.31 114.5,-108.16 127.47,-106.23"/>
<polygon fill="#000000" fill-opacity="0.200000" stroke="#000000" stroke-width="2" stroke-opacity="0.200000" points="127.55,-108.34 133.17,-105.38 126.93,-104.19 127.55,-108.34"/>
</g>
<!-- src/reportWebVitals.ts -->
<g id="node19" class="node">
<title>src/reportWebVitals.ts</title>
<g id="a_node19"><a xlink:href="src/reportWebVitals.ts" xlink:title="reportWebVitals.ts">
<path fill="#ddfeff" stroke="black" d="M202.83,-139.88C202.83,-139.88 124.42,-139.88 124.42,-139.88 121.46,-139.88 118.5,-136.92 118.5,-133.96 118.5,-133.96 118.5,-128.04 118.5,-128.04 118.5,-125.08 121.46,-122.12 124.42,-122.12 124.42,-122.12 202.83,-122.12 202.83,-122.12 205.79,-122.12 208.75,-125.08 208.75,-128.04 208.75,-128.04 208.75,-133.96 208.75,-133.96 208.75,-136.92 205.79,-139.88 202.83,-139.88"/>
<text text-anchor="start" x="126.5" y="-127.33" font-family="Helvetica,sans-Serif" font-size="9.00">reportWebVitals.ts</text>
</a>
</g>
</g>
<!-- src/index.tsx&#45;&gt;src/reportWebVitals.ts -->
<g id="edge21" class="edge">
<title>src/index.tsx&#45;&gt;src/reportWebVitals.ts</title>
<path fill="none" stroke="#000000" stroke-width="2" stroke-opacity="0.200000" d="M87.99,-119.9C94.62,-120.89 101.98,-121.98 109.42,-123.09"/>
<polygon fill="#000000" fill-opacity="0.200000" stroke="#000000" stroke-width="2" stroke-opacity="0.200000" points="108.92,-125.14 115.16,-123.94 109.53,-120.98 108.92,-125.14"/>
</g>
<!-- src/react&#45;app&#45;env.d.ts -->
<g id="node20" class="node">
<title>src/react&#45;app&#45;env.d.ts</title>
<g id="a_node20"><a xlink:href="src/react-app-env.d.ts" xlink:title="react&#45;app&#45;env.d.ts">
<path fill="#ccffcc" stroke="black" d="M99.58,-92.88C99.58,-92.88 21.92,-92.88 21.92,-92.88 18.96,-92.88 16,-89.92 16,-86.96 16,-86.96 16,-81.04 16,-81.04 16,-78.08 18.96,-75.12 21.92,-75.12 21.92,-75.12 99.58,-75.12 99.58,-75.12 102.54,-75.12 105.5,-78.08 105.5,-81.04 105.5,-81.04 105.5,-86.96 105.5,-86.96 105.5,-89.92 102.54,-92.88 99.58,-92.88"/>
<text text-anchor="start" x="24" y="-80.33" font-family="Helvetica,sans-Serif" font-size="9.00">react&#45;app&#45;env.d.ts</text>
</a>
</g>
</g>
<!-- src/setupTests.ts -->
<g id="node21" class="node">
<title>src/setupTests.ts</title>
<g id="a_node21"><a xlink:href="src/setupTests.ts" xlink:title="setupTests.ts">
<path fill="#ccffcc" stroke="black" d="M89.08,-58.88C89.08,-58.88 32.42,-58.88 32.42,-58.88 29.46,-58.88 26.5,-55.92 26.5,-52.96 26.5,-52.96 26.5,-47.04 26.5,-47.04 26.5,-44.08 29.46,-41.12 32.42,-41.12 32.42,-41.12 89.08,-41.12 89.08,-41.12 92.04,-41.12 95,-44.08 95,-47.04 95,-47.04 95,-52.96 95,-52.96 95,-55.92 92.04,-58.88 89.08,-58.88"/>
<text text-anchor="start" x="34.5" y="-46.33" font-family="Helvetica,sans-Serif" font-size="9.00">setupTests.ts</text>
</a>
</g>
</g>
</g>
</svg>
