<?xml version="1.0" encoding="UTF-8" standalone="no"?>
<!DOCTYPE svg PUBLIC "-//W3C//DTD SVG 1.1//EN"
 "http://www.w3.org/Graphics/SVG/1.1/DTD/svg11.dtd">
<!-- Generated by graphviz version 9.0.0 (20230911.1827)
 -->
<!-- Title: dependency&#45;cruiser output Pages: 1 -->
<svg width="777pt" height="394pt"
 viewBox="0.00 0.00 777.00 394.00" xmlns="http://www.w3.org/2000/svg" xmlns:xlink="http://www.w3.org/1999/xlink">
<g id="graph0" class="graph" transform="scale(1 1) rotate(0) translate(4 390)">
<title>dependency&#45;cruiser output</title>
<polygon fill="white" stroke="none" points="-4,4 -4,-390 773,-390 773,4 -4,4"/>
<g id="clust1" class="cluster">
<title>cluster_src</title>
<path fill="#ffffff" stroke="black" stroke-width="2" d="M20,-8C20,-8 749,-8 749,-8 755,-8 761,-14 761,-20 761,-20 761,-366 761,-366 761,-372 755,-378 749,-378 749,-378 20,-378 20,-378 14,-378 8,-372 8,-366 8,-366 8,-20 8,-20 8,-14 14,-8 20,-8"/>
<text text-anchor="middle" x="384.5" y="-365.45" font-family="Helvetica,sans-Serif" font-weight="bold" font-size="9.00">src</text>
</g>
<g id="clust4" class="cluster">
<title>cluster_src/SavedViewsApp</title>
<path fill="#ffffff" stroke="black" stroke-width="2" d="M312.5,-270C312.5,-270 491.62,-270 491.62,-270 497.62,-270 503.62,-276 503.62,-282 503.62,-282 503.62,-340 503.62,-340 503.62,-346 497.62,-352 491.62,-352 491.62,-352 312.5,-352 312.5,-352 306.5,-352 300.5,-346 300.5,-340 300.5,-340 300.5,-282 300.5,-282 300.5,-276 306.5,-270 312.5,-270"/>
<text text-anchor="middle" x="402.06" y="-339.45" font-family="Helvetica,sans-Serif" font-weight="bold" font-size="9.00">SavedViewsApp</text>
</g>
<g id="clust2" class="cluster">
<title>cluster_src/ConfigApp</title>
<path fill="#ffffff" stroke="black" stroke-width="2" d="M439.88,-16C439.88,-16 602.75,-16 602.75,-16 608.75,-16 614.75,-22 614.75,-28 614.75,-28 614.75,-86 614.75,-86 614.75,-92 608.75,-98 602.75,-98 602.75,-98 439.88,-98 439.88,-98 433.88,-98 427.88,-92 427.88,-86 427.88,-86 427.88,-28 427.88,-28 427.88,-22 433.88,-16 439.88,-16"/>
<text text-anchor="middle" x="521.31" y="-85.45" font-family="Helvetica,sans-Serif" font-weight="bold" font-size="9.00">ConfigApp</text>
</g>
<g id="clust3" class="cluster">
<title>cluster_src/DynoApp</title>
<path fill="#ffffff" stroke="black" stroke-width="2" d="M228.75,-106C228.75,-106 493.5,-106 493.5,-106 499.5,-106 505.5,-112 505.5,-118 505.5,-118 505.5,-250 505.5,-250 505.5,-256 499.5,-262 493.5,-262 493.5,-262 228.75,-262 228.75,-262 222.75,-262 216.75,-256 216.75,-250 216.75,-250 216.75,-118 216.75,-118 216.75,-112 222.75,-106 228.75,-106"/>
<text text-anchor="middle" x="361.12" y="-249.45" font-family="Helvetica,sans-Serif" font-weight="bold" font-size="9.00">DynoApp</text>
</g>
<g id="clust5" class="cluster">
<title>cluster_src/clients</title>
<path fill="#ffffff" stroke="black" stroke-width="2" d="M664.88,-38C664.88,-38 710.88,-38 710.88,-38 716.88,-38 722.88,-44 722.88,-50 722.88,-50 722.88,-78 722.88,-78 722.88,-84 716.88,-90 710.88,-90 710.88,-90 664.88,-90 664.88,-90 658.88,-90 652.88,-84 652.88,-78 652.88,-78 652.88,-50 652.88,-50 652.88,-44 658.88,-38 664.88,-38"/>
<text text-anchor="middle" x="687.88" y="-77.45" font-family="Helvetica,sans-Serif" font-weight="bold" font-size="9.00">clients</text>
</g>
<g id="clust6" class="cluster">
<title>cluster_src/common</title>
<path fill="#ffffff" stroke="black" stroke-width="2" d="M634.75,-98C634.75,-98 741,-98 741,-98 747,-98 753,-104 753,-110 753,-110 753,-228 753,-228 753,-234 747,-240 741,-240 741,-240 634.75,-240 634.75,-240 628.75,-240 622.75,-234 622.75,-228 622.75,-228 622.75,-110 622.75,-110 622.75,-104 628.75,-98 634.75,-98"/>
<text text-anchor="middle" x="687.88" y="-227.45" font-family="Helvetica,sans-Serif" font-weight="bold" font-size="9.00">common</text>
</g>
<!-- src/App.tsx -->
<g id="node1" class="node">
<title>src/App.tsx</title>
<g id="a_node1"><a xlink:href="src/App.tsx" xlink:title="App.tsx">
<path fill="#bbfeff" stroke="black" d="M184.71,-238.88C184.71,-238.88 142.54,-238.88 142.54,-238.88 139.58,-238.88 136.62,-235.92 136.62,-232.96 136.62,-232.96 136.62,-227.04 136.62,-227.04 136.62,-224.08 139.58,-221.12 142.54,-221.12 142.54,-221.12 184.71,-221.12 184.71,-221.12 187.67,-221.12 190.62,-224.08 190.62,-227.04 190.62,-227.04 190.62,-232.96 190.62,-232.96 190.62,-235.92 187.67,-238.88 184.71,-238.88"/>
<text text-anchor="start" x="148.62" y="-226.32" font-family="Helvetica,sans-Serif" font-size="9.00">App.tsx</text>
</a>
</g>
</g>
<!-- src/ConfigApp/index.tsx -->
<g id="node2" class="node">
<title>src/ConfigApp/index.tsx</title>
<g id="a_node2"><a xlink:href="src/ConfigApp/index.tsx" xlink:title="index.tsx">
<path fill="#bbfeff" stroke="black" d="M483.96,-71.88C483.96,-71.88 441.79,-71.88 441.79,-71.88 438.83,-71.88 435.88,-68.92 435.88,-65.96 435.88,-65.96 435.88,-60.04 435.88,-60.04 435.88,-57.08 438.83,-54.12 441.79,-54.12 441.79,-54.12 483.96,-54.12 483.96,-54.12 486.92,-54.12 489.88,-57.08 489.88,-60.04 489.88,-60.04 489.88,-65.96 489.88,-65.96 489.88,-68.92 486.92,-71.88 483.96,-71.88"/>
<text text-anchor="start" x="444.88" y="-59.33" font-family="Helvetica,sans-Serif" font-size="9.00">index.tsx</text>
</a>
</g>
</g>
<!-- src/App.tsx&#45;&gt;src/ConfigApp/index.tsx -->
<g id="edge1" class="edge">
<title>src/App.tsx&#45;&gt;src/ConfigApp/index.tsx</title>
<path fill="none" stroke="#000000" stroke-width="2" stroke-opacity="0.200000" d="M165.41,-220.85C167.98,-197.17 178.31,-133.55 216.75,-103 277.89,-54.41 375.22,-54.55 426.92,-58.79"/>
<polygon fill="#000000" fill-opacity="0.200000" stroke="#000000" stroke-width="2" stroke-opacity="0.200000" points="426.55,-60.87 432.71,-59.32 426.93,-56.68 426.55,-60.87"/>
</g>
<!-- src/DynoApp/DynoApp.tsx -->
<g id="node3" class="node">
<title>src/DynoApp/DynoApp.tsx</title>
<g id="a_node3"><a xlink:href="src/DynoApp/DynoApp.tsx" xlink:title="DynoApp.tsx">
<path fill="#bbfeff" stroke="black" d="M286.58,-224.88C286.58,-224.88 230.67,-224.88 230.67,-224.88 227.71,-224.88 224.75,-221.92 224.75,-218.96 224.75,-218.96 224.75,-213.04 224.75,-213.04 224.75,-210.08 227.71,-207.12 230.67,-207.12 230.67,-207.12 286.58,-207.12 286.58,-207.12 289.54,-207.12 292.5,-210.08 292.5,-213.04 292.5,-213.04 292.5,-218.96 292.5,-218.96 292.5,-221.92 289.54,-224.88 286.58,-224.88"/>
<text text-anchor="start" x="232.75" y="-212.32" font-family="Helvetica,sans-Serif" font-size="9.00">DynoApp.tsx</text>
</a>
</g>
</g>
<!-- src/App.tsx&#45;&gt;src/DynoApp/DynoApp.tsx -->
<g id="edge2" class="edge">
<title>src/App.tsx&#45;&gt;src/DynoApp/DynoApp.tsx</title>
<path fill="none" stroke="#000000" stroke-width="2" stroke-opacity="0.200000" d="M191.03,-226.03C198.76,-224.86 207.41,-223.56 215.85,-222.29"/>
<polygon fill="#000000" fill-opacity="0.200000" stroke="#000000" stroke-width="2" stroke-opacity="0.200000" points="215.91,-224.4 221.53,-221.43 215.28,-220.25 215.91,-224.4"/>
</g>
<!-- src/SavedViewsApp/SearchParamForm.tsx -->
<g id="node4" class="node">
<title>src/SavedViewsApp/SearchParamForm.tsx</title>
<g id="a_node4"><a xlink:href="src/SavedViewsApp/SearchParamForm.tsx" xlink:title="SearchParamForm.tsx">
<path fill="#bbfeff" stroke="black" d="M409.33,-295.88C409.33,-295.88 314.42,-295.88 314.42,-295.88 311.46,-295.88 308.5,-292.92 308.5,-289.96 308.5,-289.96 308.5,-284.04 308.5,-284.04 308.5,-281.08 311.46,-278.12 314.42,-278.12 314.42,-278.12 409.33,-278.12 409.33,-278.12 412.29,-278.12 415.25,-281.08 415.25,-284.04 415.25,-284.04 415.25,-289.96 415.25,-289.96 415.25,-292.92 412.29,-295.88 409.33,-295.88"/>
<text text-anchor="start" x="316.5" y="-283.32" font-family="Helvetica,sans-Serif" font-size="9.00">SearchParamForm.tsx</text>
</a>
</g>
</g>
<!-- src/App.tsx&#45;&gt;src/SavedViewsApp/SearchParamForm.tsx -->
<g id="edge3" class="edge">
<title>src/App.tsx&#45;&gt;src/SavedViewsApp/SearchParamForm.tsx</title>
<path fill="none" stroke="#000000" stroke-width="2" stroke-opacity="0.200000" d="M190.94,-234.88C197.37,-237.1 203.82,-240.32 208.75,-245 215.7,-251.59 209.25,-259.05 216.75,-265 239.74,-283.25 271.47,-289.48 299.31,-290.83"/>
<polygon fill="#000000" fill-opacity="0.200000" stroke="#000000" stroke-width="2" stroke-opacity="0.200000" points="299.1,-292.93 305.17,-291.02 299.24,-288.73 299.1,-292.93"/>
</g>
<!-- src/SavedViewsApp/ViewRedirect.tsx -->
<g id="node5" class="node">
<title>src/SavedViewsApp/ViewRedirect.tsx</title>
<g id="a_node5"><a xlink:href="src/SavedViewsApp/ViewRedirect.tsx" xlink:title="ViewRedirect.tsx">
<path fill="#bbfeff" stroke="black" d="M398.08,-325.88C398.08,-325.88 325.67,-325.88 325.67,-325.88 322.71,-325.88 319.75,-322.92 319.75,-319.96 319.75,-319.96 319.75,-314.04 319.75,-314.04 319.75,-311.08 322.71,-308.12 325.67,-308.12 325.67,-308.12 398.08,-308.12 398.08,-308.12 401.04,-308.12 404,-311.08 404,-314.04 404,-314.04 404,-319.96 404,-319.96 404,-322.92 401.04,-325.88 398.08,-325.88"/>
<text text-anchor="start" x="327.75" y="-313.32" font-family="Helvetica,sans-Serif" font-size="9.00">ViewRedirect.tsx</text>
</a>
</g>
</g>
<!-- src/App.tsx&#45;&gt;src/SavedViewsApp/ViewRedirect.tsx -->
<g id="edge4" class="edge">
<title>src/App.tsx&#45;&gt;src/SavedViewsApp/ViewRedirect.tsx</title>
<path fill="none" stroke="#000000" stroke-width="2" stroke-opacity="0.200000" d="M191.01,-234.2C197.6,-236.43 204.11,-239.82 208.75,-245 219.69,-257.2 205.32,-269.25 216.75,-281 240.9,-305.81 279.36,-314.5 310.47,-317.15"/>
<polygon fill="#000000" fill-opacity="0.200000" stroke="#000000" stroke-width="2" stroke-opacity="0.200000" points="310.3,-319.25 316.43,-317.56 310.59,-315.06 310.3,-319.25"/>
</g>
<!-- src/ConfigApp/ConfigForm.tsx -->
<g id="node6" class="node">
<title>src/ConfigApp/ConfigForm.tsx</title>
<g id="a_node6"><a xlink:href="src/ConfigApp/ConfigForm.tsx" xlink:title="ConfigForm.tsx">
<path fill="#bbfeff" stroke="black" d="M592.96,-41.88C592.96,-41.88 527.29,-41.88 527.29,-41.88 524.33,-41.88 521.38,-38.92 521.38,-35.96 521.38,-35.96 521.38,-30.04 521.38,-30.04 521.38,-27.08 524.33,-24.12 527.29,-24.12 527.29,-24.12 592.96,-24.12 592.96,-24.12 595.92,-24.12 598.88,-27.08 598.88,-30.04 598.88,-30.04 598.88,-35.96 598.88,-35.96 598.88,-38.92 595.92,-41.88 592.96,-41.88"/>
<text text-anchor="start" x="529.38" y="-29.32" font-family="Helvetica,sans-Serif" font-size="9.00">ConfigForm.tsx</text>
</a>
</g>
</g>
<!-- src/ConfigApp/index.tsx&#45;&gt;src/ConfigApp/ConfigForm.tsx -->
<g id="edge7" class="edge">
<title>src/ConfigApp/index.tsx&#45;&gt;src/ConfigApp/ConfigForm.tsx</title>
<path fill="none" stroke="#000000" stroke-width="2" stroke-opacity="0.200000" d="M490.15,-54.72C499.71,-51.71 510.7,-48.25 521.06,-44.99"/>
<polygon fill="#000000" fill-opacity="0.200000" stroke="#000000" stroke-width="2" stroke-opacity="0.200000" points="521.6,-47.02 526.69,-43.22 520.33,-43.02 521.6,-47.02"/>
</g>
<!-- src/ConfigApp/contextProvider.tsx -->
<g id="node7" class="node">
<title>src/ConfigApp/contextProvider.tsx</title>
<g id="a_node7"><a xlink:href="src/ConfigApp/contextProvider.tsx" xlink:title="contextProvider.tsx">
<path fill="#bbfeff" stroke="black" d="M600.83,-71.88C600.83,-71.88 519.42,-71.88 519.42,-71.88 516.46,-71.88 513.5,-68.92 513.5,-65.96 513.5,-65.96 513.5,-60.04 513.5,-60.04 513.5,-57.08 516.46,-54.12 519.42,-54.12 519.42,-54.12 600.83,-54.12 600.83,-54.12 603.79,-54.12 606.75,-57.08 606.75,-60.04 606.75,-60.04 606.75,-65.96 606.75,-65.96 606.75,-68.92 603.79,-71.88 600.83,-71.88"/>
<text text-anchor="start" x="521.5" y="-59.33" font-family="Helvetica,sans-Serif" font-size="9.00">contextProvider.tsx</text>
</a>
</g>
</g>
<!-- src/ConfigApp/index.tsx&#45;&gt;src/ConfigApp/contextProvider.tsx -->
<g id="edge8" class="edge">
<title>src/ConfigApp/index.tsx&#45;&gt;src/ConfigApp/contextProvider.tsx</title>
<path fill="none" stroke="#000000" stroke-width="2" stroke-opacity="0.200000" d="M490.15,-63C494.63,-63 499.42,-63 504.31,-63"/>
<polygon fill="#000000" fill-opacity="0.200000" stroke="#000000" stroke-width="2" stroke-opacity="0.200000" points="504.16,-65.1 510.16,-63 504.16,-60.9 504.16,-65.1"/>
</g>
<!-- src/DynoApp/DynoApp.tsx&#45;&gt;src/SavedViewsApp/SearchParamForm.tsx -->
<g id="edge10" class="edge">
<title>src/DynoApp/DynoApp.tsx&#45;&gt;src/SavedViewsApp/SearchParamForm.tsx</title>
<path fill="none" stroke="#000000" stroke-width="2" stroke-opacity="0.200000" d="M288.46,-225.23C289.94,-226.35 291.3,-227.6 292.5,-229 303.14,-241.47 289.69,-252.68 300.5,-265 303.34,-268.24 306.69,-271 310.35,-273.35"/>
<polygon fill="#000000" fill-opacity="0.200000" stroke="#000000" stroke-width="2" stroke-opacity="0.200000" points="309.26,-275.15 315.53,-276.19 311.27,-271.47 309.26,-275.15"/>
</g>
<!-- src/common/ModalContainer.tsx -->
<g id="node10" class="node">
<title>src/common/ModalContainer.tsx</title>
<g id="a_node10"><a xlink:href="src/common/ModalContainer.tsx" xlink:title="ModalContainer.tsx">
<path fill="#bbfeff" stroke="black" d="M729.71,-213.88C729.71,-213.88 646.04,-213.88 646.04,-213.88 643.08,-213.88 640.12,-210.92 640.12,-207.96 640.12,-207.96 640.12,-202.04 640.12,-202.04 640.12,-199.08 643.08,-196.12 646.04,-196.12 646.04,-196.12 729.71,-196.12 729.71,-196.12 732.67,-196.12 735.62,-199.08 735.62,-202.04 735.62,-202.04 735.62,-207.96 735.62,-207.96 735.62,-210.92 732.67,-213.88 729.71,-213.88"/>
<text text-anchor="start" x="648.12" y="-201.32" font-family="Helvetica,sans-Serif" font-size="9.00">ModalContainer.tsx</text>
</a>
</g>
</g>
<!-- src/DynoApp/DynoApp.tsx&#45;&gt;src/common/ModalContainer.tsx -->
<g id="edge9" class="edge">
<title>src/DynoApp/DynoApp.tsx&#45;&gt;src/common/ModalContainer.tsx</title>
<path fill="none" stroke="#000000" stroke-width="2" stroke-opacity="0.200000" d="M287.31,-225.35C289.15,-226.45 290.9,-227.66 292.5,-229 297.7,-233.36 294.58,-238.69 300.5,-242 380.04,-286.44 414.85,-251.15 505.5,-242 553.16,-237.19 606.81,-225.44 643.31,-216.46"/>
<polygon fill="#000000" fill-opacity="0.200000" stroke="#000000" stroke-width="2" stroke-opacity="0.200000" points="643.5,-218.58 648.81,-215.09 642.48,-214.5 643.5,-218.58"/>
</g>
<!-- src/DynoApp/DynoForm.tsx -->
<g id="node11" class="node">
<title>src/DynoApp/DynoForm.tsx</title>
<g id="a_node11"><a xlink:href="src/DynoApp/DynoForm.tsx" xlink:title="DynoForm.tsx">
<path fill="#bbfeff" stroke="black" d="M392.08,-191.88C392.08,-191.88 331.67,-191.88 331.67,-191.88 328.71,-191.88 325.75,-188.92 325.75,-185.96 325.75,-185.96 325.75,-180.04 325.75,-180.04 325.75,-177.08 328.71,-174.12 331.67,-174.12 331.67,-174.12 392.08,-174.12 392.08,-174.12 395.04,-174.12 398,-177.08 398,-180.04 398,-180.04 398,-185.96 398,-185.96 398,-188.92 395.04,-191.88 392.08,-191.88"/>
<text text-anchor="start" x="333.75" y="-179.32" font-family="Helvetica,sans-Serif" font-size="9.00">DynoForm.tsx</text>
</a>
</g>
</g>
<!-- src/DynoApp/DynoApp.tsx&#45;&gt;src/DynoApp/DynoForm.tsx -->
<g id="edge11" class="edge">
<title>src/DynoApp/DynoApp.tsx&#45;&gt;src/DynoApp/DynoForm.tsx</title>
<path fill="none" stroke="#000000" stroke-width="2" stroke-opacity="0.200000" d="M284.18,-206.71C289.54,-204.76 295.19,-202.76 300.5,-201 306.64,-198.96 313.16,-196.9 319.56,-194.95"/>
<polygon fill="#000000" fill-opacity="0.200000" stroke="#000000" stroke-width="2" stroke-opacity="0.200000" points="320.14,-196.97 325.27,-193.22 318.92,-192.95 320.14,-196.97"/>
</g>
<!-- src/DynoApp/DynoList.tsx -->
<g id="node12" class="node">
<title>src/DynoApp/DynoList.tsx</title>
<g id="a_node12"><a xlink:href="src/DynoApp/DynoList.tsx" xlink:title="DynoList.tsx">
<path fill="#bbfeff" stroke="black" d="M388.71,-235.88C388.71,-235.88 335.04,-235.88 335.04,-235.88 332.08,-235.88 329.12,-232.92 329.12,-229.96 329.12,-229.96 329.12,-224.04 329.12,-224.04 329.12,-221.08 332.08,-218.12 335.04,-218.12 335.04,-218.12 388.71,-218.12 388.71,-218.12 391.67,-218.12 394.62,-221.08 394.62,-224.04 394.62,-224.04 394.62,-229.96 394.62,-229.96 394.62,-232.92 391.67,-235.88 388.71,-235.88"/>
<text text-anchor="start" x="337.12" y="-223.32" font-family="Helvetica,sans-Serif" font-size="9.00">DynoList.tsx</text>
</a>
</g>
</g>
<!-- src/DynoApp/DynoApp.tsx&#45;&gt;src/DynoApp/DynoList.tsx -->
<g id="edge12" class="edge">
<title>src/DynoApp/DynoApp.tsx&#45;&gt;src/DynoApp/DynoList.tsx</title>
<path fill="none" stroke="#000000" stroke-width="2" stroke-opacity="0.200000" d="M292.78,-219.6C301.43,-220.54 310.86,-221.57 319.86,-222.54"/>
<polygon fill="#000000" fill-opacity="0.200000" stroke="#000000" stroke-width="2" stroke-opacity="0.200000" points="319.48,-224.62 325.67,-223.18 319.93,-220.44 319.48,-224.62"/>
</g>
<!-- src/DynoApp/FilterForm.tsx -->
<g id="node13" class="node">
<title>src/DynoApp/FilterForm.tsx</title>
<g id="a_node13"><a xlink:href="src/DynoApp/FilterForm.tsx" xlink:title="FilterForm.tsx">
<path fill="#bbfeff" stroke="black" d="M391.33,-161.88C391.33,-161.88 332.42,-161.88 332.42,-161.88 329.46,-161.88 326.5,-158.92 326.5,-155.96 326.5,-155.96 326.5,-150.04 326.5,-150.04 326.5,-147.08 329.46,-144.12 332.42,-144.12 332.42,-144.12 391.33,-144.12 391.33,-144.12 394.29,-144.12 397.25,-147.08 397.25,-150.04 397.25,-150.04 397.25,-155.96 397.25,-155.96 397.25,-158.92 394.29,-161.88 391.33,-161.88"/>
<text text-anchor="start" x="334.5" y="-149.32" font-family="Helvetica,sans-Serif" font-size="9.00">FilterForm.tsx</text>
</a>
</g>
</g>
<!-- src/DynoApp/DynoApp.tsx&#45;&gt;src/DynoApp/FilterForm.tsx -->
<g id="edge13" class="edge">
<title>src/DynoApp/DynoApp.tsx&#45;&gt;src/DynoApp/FilterForm.tsx</title>
<path fill="none" stroke="#000000" stroke-width="2" stroke-opacity="0.200000" d="M288.45,-206.76C289.93,-205.65 291.3,-204.4 292.5,-203 302.89,-190.89 289.32,-179.39 300.5,-168 305.29,-163.12 311.4,-159.74 317.88,-157.41"/>
<polygon fill="#000000" fill-opacity="0.200000" stroke="#000000" stroke-width="2" stroke-opacity="0.200000" points="318.14,-159.52 323.32,-155.83 316.97,-155.49 318.14,-159.52"/>
</g>
<!-- src/DynoApp/hooks.ts -->
<g id="node14" class="node">
<title>src/DynoApp/hooks.ts</title>
<g id="a_node14"><a xlink:href="src/DynoApp/hooks.ts" xlink:title="hooks.ts">
<path fill="#ddfeff" stroke="black" d="M382.96,-131.88C382.96,-131.88 340.79,-131.88 340.79,-131.88 337.83,-131.88 334.88,-128.92 334.88,-125.96 334.88,-125.96 334.88,-120.04 334.88,-120.04 334.88,-117.08 337.83,-114.12 340.79,-114.12 340.79,-114.12 382.96,-114.12 382.96,-114.12 385.92,-114.12 388.88,-117.08 388.88,-120.04 388.88,-120.04 388.88,-125.96 388.88,-125.96 388.88,-128.92 385.92,-131.88 382.96,-131.88"/>
<text text-anchor="start" x="345" y="-119.33" font-family="Helvetica,sans-Serif" font-size="9.00">hooks.ts</text>
</a>
</g>
</g>
<!-- src/DynoApp/DynoApp.tsx&#45;&gt;src/DynoApp/hooks.ts -->
<g id="edge14" class="edge">
<title>src/DynoApp/DynoApp.tsx&#45;&gt;src/DynoApp/hooks.ts</title>
<path fill="none" stroke="#000000" stroke-width="2" stroke-opacity="0.200000" d="M288.9,-206.67C290.23,-205.58 291.45,-204.36 292.5,-203 310.31,-179.98 281.2,-159.79 300.5,-138 306.97,-130.7 316.39,-126.68 325.88,-124.54"/>
<polygon fill="#000000" fill-opacity="0.200000" stroke="#000000" stroke-width="2" stroke-opacity="0.200000" points="325.98,-126.65 331.54,-123.57 325.27,-122.51 325.98,-126.65"/>
</g>
<!-- src/DynoApp/utils.ts -->
<g id="node15" class="node">
<title>src/DynoApp/utils.ts</title>
<g id="a_node15"><a xlink:href="src/DynoApp/utils.ts" xlink:title="utils.ts">
<path fill="#ddfeff" stroke="black" d="M483.96,-205.88C483.96,-205.88 441.79,-205.88 441.79,-205.88 438.83,-205.88 435.88,-202.92 435.88,-199.96 435.88,-199.96 435.88,-194.04 435.88,-194.04 435.88,-191.08 438.83,-188.12 441.79,-188.12 441.79,-188.12 483.96,-188.12 483.96,-188.12 486.92,-188.12 489.88,-191.08 489.88,-194.04 489.88,-194.04 489.88,-199.96 489.88,-199.96 489.88,-202.92 486.92,-205.88 483.96,-205.88"/>
<text text-anchor="start" x="450.12" y="-193.32" font-family="Helvetica,sans-Serif" font-size="9.00">utils.ts</text>
</a>
</g>
</g>
<!-- src/DynoApp/DynoApp.tsx&#45;&gt;src/DynoApp/utils.ts -->
<g id="edge15" class="edge">
<title>src/DynoApp/DynoApp.tsx&#45;&gt;src/DynoApp/utils.ts</title>
<path fill="none" stroke="#000000" stroke-width="2" stroke-opacity="0.200000" d="M292.64,-212.76C295.3,-212.5 297.94,-212.24 300.5,-212 344.03,-207.85 394.17,-203.21 426.86,-200.21"/>
<polygon fill="#000000" fill-opacity="0.200000" stroke="#000000" stroke-width="2" stroke-opacity="0.200000" points="426.8,-202.32 432.58,-199.68 426.42,-198.14 426.8,-202.32"/>
</g>
<!-- src/SavedViewsApp/viewStore.ts -->
<g id="node18" class="node">
<title>src/SavedViewsApp/viewStore.ts</title>
<g id="a_node18"><a xlink:href="src/SavedViewsApp/viewStore.ts" xlink:title="viewStore.ts">
<path fill="#ddfeff" stroke="black" d="M489.71,-310.88C489.71,-310.88 436.04,-310.88 436.04,-310.88 433.08,-310.88 430.12,-307.92 430.12,-304.96 430.12,-304.96 430.12,-299.04 430.12,-299.04 430.12,-296.08 433.08,-293.12 436.04,-293.12 436.04,-293.12 489.71,-293.12 489.71,-293.12 492.67,-293.12 495.62,-296.08 495.62,-299.04 495.62,-299.04 495.62,-304.96 495.62,-304.96 495.62,-307.92 492.67,-310.88 489.71,-310.88"/>
<text text-anchor="start" x="438.12" y="-298.32" font-family="Helvetica,sans-Serif" font-size="9.00">viewStore.ts</text>
</a>
</g>
</g>
<!-- src/SavedViewsApp/SearchParamForm.tsx&#45;&gt;src/SavedViewsApp/viewStore.ts -->
<g id="edge22" class="edge">
<title>src/SavedViewsApp/SearchParamForm.tsx&#45;&gt;src/SavedViewsApp/viewStore.ts</title>
<path fill="none" stroke="#000000" stroke-width="2" stroke-opacity="0.200000" d="M415.56,-294.98C417.36,-295.26 419.16,-295.53 420.94,-295.8"/>
<polygon fill="#000000" fill-opacity="0.200000" stroke="#000000" stroke-width="2" stroke-opacity="0.200000" points="420.43,-297.84 426.68,-296.67 421.06,-293.69 420.43,-297.84"/>
</g>
<!-- src/SavedViewsApp/ViewRedirect.tsx&#45;&gt;src/SavedViewsApp/viewStore.ts -->
<g id="edge23" class="edge">
<title>src/SavedViewsApp/ViewRedirect.tsx&#45;&gt;src/SavedViewsApp/viewStore.ts</title>
<path fill="none" stroke="#000000" stroke-width="2" stroke-opacity="0.200000" d="M404.29,-310.73C409.85,-309.88 415.55,-309.02 421.11,-308.18"/>
<polygon fill="#000000" fill-opacity="0.200000" stroke="#000000" stroke-width="2" stroke-opacity="0.200000" points="421.05,-310.31 426.67,-307.33 420.42,-306.16 421.05,-310.31"/>
</g>
<!-- src/clients/index.ts -->
<g id="node8" class="node">
<title>src/clients/index.ts</title>
<g id="a_node8"><a xlink:href="src/clients/index.ts" xlink:title="index.ts">
<path fill="#ddfeff" stroke="black" d="M708.96,-63.88C708.96,-63.88 666.79,-63.88 666.79,-63.88 663.83,-63.88 660.88,-60.92 660.88,-57.96 660.88,-57.96 660.88,-52.04 660.88,-52.04 660.88,-49.08 663.83,-46.12 666.79,-46.12 666.79,-46.12 708.96,-46.12 708.96,-46.12 711.92,-46.12 714.88,-49.08 714.88,-52.04 714.88,-52.04 714.88,-57.96 714.88,-57.96 714.88,-60.92 711.92,-63.88 708.96,-63.88"/>
<text text-anchor="start" x="672.12" y="-51.33" font-family="Helvetica,sans-Serif" font-size="9.00">index.ts</text>
</a>
</g>
</g>
<!-- src/ConfigApp/contextProvider.tsx&#45;&gt;src/clients/index.ts -->
<g id="edge5" class="edge">
<title>src/ConfigApp/contextProvider.tsx&#45;&gt;src/clients/index.ts</title>
<path fill="none" stroke="#000000" stroke-width="2" stroke-opacity="0.200000" d="M607.24,-60.07C621.96,-59.13 638,-58.11 651.8,-57.23"/>
<polygon fill="#000000" fill-opacity="0.200000" stroke="#000000" stroke-width="2" stroke-opacity="0.200000" points="651.64,-59.35 657.49,-56.87 651.37,-55.15 651.64,-59.35"/>
</g>
<!-- src/common/ErrorCenter.tsx -->
<g id="node9" class="node">
<title>src/common/ErrorCenter.tsx</title>
<g id="a_node9"><a xlink:href="src/common/ErrorCenter.tsx" xlink:title="ErrorCenter.tsx">
<path fill="#bbfeff" stroke="black" d="M720.71,-153.88C720.71,-153.88 655.04,-153.88 655.04,-153.88 652.08,-153.88 649.12,-150.92 649.12,-147.96 649.12,-147.96 649.12,-142.04 649.12,-142.04 649.12,-139.08 652.08,-136.12 655.04,-136.12 655.04,-136.12 720.71,-136.12 720.71,-136.12 723.67,-136.12 726.62,-139.08 726.62,-142.04 726.62,-142.04 726.62,-147.96 726.62,-147.96 726.62,-150.92 723.67,-153.88 720.71,-153.88"/>
<text text-anchor="start" x="657.12" y="-141.32" font-family="Helvetica,sans-Serif" font-size="9.00">ErrorCenter.tsx</text>
</a>
</g>
</g>
<!-- src/ConfigApp/contextProvider.tsx&#45;&gt;src/common/ErrorCenter.tsx -->
<g id="edge6" class="edge">
<title>src/ConfigApp/contextProvider.tsx&#45;&gt;src/common/ErrorCenter.tsx</title>
<path fill="none" stroke="#000000" stroke-width="2" stroke-opacity="0.200000" d="M566.73,-71.96C576.34,-86.53 597.36,-115.18 622.75,-130 628.18,-133.17 634.24,-135.67 640.4,-137.64"/>
<polygon fill="#000000" fill-opacity="0.200000" stroke="#000000" stroke-width="2" stroke-opacity="0.200000" points="639.56,-139.59 645.91,-139.2 640.7,-135.55 639.56,-139.59"/>
</g>
<!-- src/DynoApp/DynoForm.tsx&#45;&gt;src/DynoApp/utils.ts -->
<g id="edge17" class="edge">
<title>src/DynoApp/DynoForm.tsx&#45;&gt;src/DynoApp/utils.ts</title>
<path fill="none" stroke="#000000" stroke-width="2" stroke-opacity="0.200000" d="M398.34,-188.01C407.57,-189.32 417.52,-190.73 426.74,-192.03"/>
<polygon fill="#000000" fill-opacity="0.200000" stroke="#000000" stroke-width="2" stroke-opacity="0.200000" points="426.44,-194.11 432.67,-192.87 427.02,-189.95 426.44,-194.11"/>
</g>
<!-- src/common/MultiSelect.tsx -->
<g id="node16" class="node">
<title>src/common/MultiSelect.tsx</title>
<g id="a_node16"><a xlink:href="src/common/MultiSelect.tsx" xlink:title="MultiSelect.tsx">
<path fill="#bbfeff" stroke="black" d="M719.21,-183.88C719.21,-183.88 656.54,-183.88 656.54,-183.88 653.58,-183.88 650.62,-180.92 650.62,-177.96 650.62,-177.96 650.62,-172.04 650.62,-172.04 650.62,-169.08 653.58,-166.12 656.54,-166.12 656.54,-166.12 719.21,-166.12 719.21,-166.12 722.17,-166.12 725.12,-169.08 725.12,-172.04 725.12,-172.04 725.12,-177.96 725.12,-177.96 725.12,-180.92 722.17,-183.88 719.21,-183.88"/>
<text text-anchor="start" x="658.62" y="-171.32" font-family="Helvetica,sans-Serif" font-size="9.00">MultiSelect.tsx</text>
</a>
</g>
</g>
<!-- src/DynoApp/DynoForm.tsx&#45;&gt;src/common/MultiSelect.tsx -->
<g id="edge16" class="edge">
<title>src/DynoApp/DynoForm.tsx&#45;&gt;src/common/MultiSelect.tsx</title>
<path fill="none" stroke="#000000" stroke-width="2" stroke-opacity="0.200000" d="M398.48,-182.12C457.67,-180.66 576.24,-177.73 641.4,-176.12"/>
<polygon fill="#000000" fill-opacity="0.200000" stroke="#000000" stroke-width="2" stroke-opacity="0.200000" points="641.25,-178.23 647.2,-175.98 641.15,-174.03 641.25,-178.23"/>
</g>
<!-- src/DynoApp/DynoList.tsx&#45;&gt;src/DynoApp/utils.ts -->
<g id="edge19" class="edge">
<title>src/DynoApp/DynoList.tsx&#45;&gt;src/DynoApp/utils.ts</title>
<path fill="none" stroke="#000000" stroke-width="2" stroke-opacity="0.200000" d="M393.66,-217.67C404.23,-214.47 416.13,-210.86 427,-207.57"/>
<polygon fill="#000000" fill-opacity="0.200000" stroke="#000000" stroke-width="2" stroke-opacity="0.200000" points="427.42,-209.63 432.56,-205.88 426.21,-205.61 427.42,-209.63"/>
</g>
<!-- src/DynoApp/DynoRow.tsx -->
<g id="node17" class="node">
<title>src/DynoApp/DynoRow.tsx</title>
<g id="a_node17"><a xlink:href="src/DynoApp/DynoRow.tsx" xlink:title="DynoRow.tsx">
<path fill="#bbfeff" stroke="black" d="M491.58,-235.88C491.58,-235.88 434.17,-235.88 434.17,-235.88 431.21,-235.88 428.25,-232.92 428.25,-229.96 428.25,-229.96 428.25,-224.04 428.25,-224.04 428.25,-221.08 431.21,-218.12 434.17,-218.12 434.17,-218.12 491.58,-218.12 491.58,-218.12 494.54,-218.12 497.5,-221.08 497.5,-224.04 497.5,-224.04 497.5,-229.96 497.5,-229.96 497.5,-232.92 494.54,-235.88 491.58,-235.88"/>
<text text-anchor="start" x="436.25" y="-223.32" font-family="Helvetica,sans-Serif" font-size="9.00">DynoRow.tsx</text>
</a>
</g>
</g>
<!-- src/DynoApp/DynoList.tsx&#45;&gt;src/DynoApp/DynoRow.tsx -->
<g id="edge18" class="edge">
<title>src/DynoApp/DynoList.tsx&#45;&gt;src/DynoApp/DynoRow.tsx</title>
<path fill="none" stroke="#000000" stroke-width="2" stroke-opacity="0.200000" d="M395.02,-227C402.65,-227 410.91,-227 418.93,-227"/>
<polygon fill="#000000" fill-opacity="0.200000" stroke="#000000" stroke-width="2" stroke-opacity="0.200000" points="418.82,-229.1 424.82,-227 418.82,-224.9 418.82,-229.1"/>
</g>
<!-- src/DynoApp/FilterForm.tsx&#45;&gt;src/common/MultiSelect.tsx -->
<g id="edge20" class="edge">
<title>src/DynoApp/FilterForm.tsx&#45;&gt;src/common/MultiSelect.tsx</title>
<path fill="none" stroke="#000000" stroke-width="2" stroke-opacity="0.200000" d="M397.55,-155.35C456.41,-159.35 575.84,-167.46 641.35,-171.91"/>
<polygon fill="#000000" fill-opacity="0.200000" stroke="#000000" stroke-width="2" stroke-opacity="0.200000" points="641.08,-173.99 647.2,-172.31 641.36,-169.8 641.08,-173.99"/>
</g>
<!-- src/DynoApp/hooks.ts&#45;&gt;src/ConfigApp/index.tsx -->
<g id="edge21" class="edge">
<title>src/DynoApp/hooks.ts&#45;&gt;src/ConfigApp/index.tsx</title>
<path fill="none" stroke="#000000" stroke-width="2" stroke-opacity="0.200000" d="M389.24,-119.38C397.91,-117.44 407.35,-114.49 415.25,-110 428.92,-102.24 441.3,-89.35 449.86,-79.03"/>
<polygon fill="#000000" fill-opacity="0.200000" stroke="#000000" stroke-width="2" stroke-opacity="0.200000" points="451.41,-80.46 453.49,-74.45 448.12,-77.84 451.41,-80.46"/>
</g>
<!-- src/__List.tsx -->
<g id="node19" class="node">
<title>src/__List.tsx</title>
<g id="a_node19"><a xlink:href="src/__List.tsx" xlink:title="no&#45;orphans">
<path fill="#ccffcc" stroke="orange" d="M81.96,-322.88C81.96,-322.88 39.54,-322.88 39.54,-322.88 36.58,-322.88 33.62,-319.92 33.62,-316.96 33.62,-316.96 33.62,-311.04 33.62,-311.04 33.62,-308.08 36.58,-305.12 39.54,-305.12 39.54,-305.12 81.96,-305.12 81.96,-305.12 84.92,-305.12 87.88,-308.08 87.88,-311.04 87.88,-311.04 87.88,-316.96 87.88,-316.96 87.88,-319.92 84.92,-322.88 81.96,-322.88"/>
<text text-anchor="start" x="41.62" y="-310.32" font-family="Helvetica,sans-Serif" font-size="9.00" fill="orange">__List.tsx</text>
</a>
</g>
</g>
<!-- src/common/DebouncedTextField.tsx -->
<g id="node20" class="node">
<title>src/common/DebouncedTextField.tsx</title>
<g id="a_node20"><a xlink:href="src/common/DebouncedTextField.tsx" xlink:title="no&#45;orphans">
<path fill="#ccffcc" stroke="orange" d="M739.08,-123.88C739.08,-123.88 636.67,-123.88 636.67,-123.88 633.71,-123.88 630.75,-120.92 630.75,-117.96 630.75,-117.96 630.75,-112.04 630.75,-112.04 630.75,-109.08 633.71,-106.12 636.67,-106.12 636.67,-106.12 739.08,-106.12 739.08,-106.12 742.04,-106.12 745,-109.08 745,-112.04 745,-112.04 745,-117.96 745,-117.96 745,-120.92 742.04,-123.88 739.08,-123.88"/>
<text text-anchor="start" x="638.75" y="-111.33" font-family="Helvetica,sans-Serif" font-size="9.00" fill="orange">DebouncedTextField.tsx</text>
</a>
</g>
</g>
<!-- src/index.tsx -->
<g id="node21" class="node">
<title>src/index.tsx</title>
<g id="a_node21"><a xlink:href="src/index.tsx" xlink:title="index.tsx">
<path fill="#bbfeff" stroke="black" d="M81.83,-253.88C81.83,-253.88 39.67,-253.88 39.67,-253.88 36.71,-253.88 33.75,-250.92 33.75,-247.96 33.75,-247.96 33.75,-242.04 33.75,-242.04 33.75,-239.08 36.71,-236.12 39.67,-236.12 39.67,-236.12 81.83,-236.12 81.83,-236.12 84.79,-236.12 87.75,-239.08 87.75,-242.04 87.75,-242.04 87.75,-247.96 87.75,-247.96 87.75,-250.92 84.79,-253.88 81.83,-253.88"/>
<text text-anchor="start" x="42.75" y="-241.32" font-family="Helvetica,sans-Serif" font-size="9.00">index.tsx</text>
</a>
</g>
</g>
<!-- src/index.tsx&#45;&gt;src/App.tsx -->
<g id="edge24" class="edge">
<title>src/index.tsx&#45;&gt;src/App.tsx</title>
<path fill="none" stroke="#000000" stroke-width="2" stroke-opacity="0.200000" d="M87.99,-241.1C100.04,-239.31 114.5,-237.16 127.47,-235.23"/>
<polygon fill="#000000" fill-opacity="0.200000" stroke="#000000" stroke-width="2" stroke-opacity="0.200000" points="127.55,-237.34 133.17,-234.38 126.93,-233.19 127.55,-237.34"/>
</g>
<!-- src/reportWebVitals.ts -->
<g id="node22" class="node">
<title>src/reportWebVitals.ts</title>
<g id="a_node22"><a xlink:href="src/reportWebVitals.ts" xlink:title="reportWebVitals.ts">
<path fill="#ddfeff" stroke="black" d="M202.83,-268.88C202.83,-268.88 124.42,-268.88 124.42,-268.88 121.46,-268.88 118.5,-265.92 118.5,-262.96 118.5,-262.96 118.5,-257.04 118.5,-257.04 118.5,-254.08 121.46,-251.12 124.42,-251.12 124.42,-251.12 202.83,-251.12 202.83,-251.12 205.79,-251.12 208.75,-254.08 208.75,-257.04 208.75,-257.04 208.75,-262.96 208.75,-262.96 208.75,-265.92 205.79,-268.88 202.83,-268.88"/>
<text text-anchor="start" x="126.5" y="-256.32" font-family="Helvetica,sans-Serif" font-size="9.00">reportWebVitals.ts</text>
</a>
</g>
</g>
<!-- src/index.tsx&#45;&gt;src/reportWebVitals.ts -->
<g id="edge25" class="edge">
<title>src/index.tsx&#45;&gt;src/reportWebVitals.ts</title>
<path fill="none" stroke="#000000" stroke-width="2" stroke-opacity="0.200000" d="M87.99,-248.9C94.62,-249.89 101.98,-250.98 109.42,-252.09"/>
<polygon fill="#000000" fill-opacity="0.200000" stroke="#000000" stroke-width="2" stroke-opacity="0.200000" points="108.92,-254.14 115.16,-252.94 109.53,-249.98 108.92,-254.14"/>
</g>
<!-- src/react&#45;app&#45;env.d.ts -->
<g id="node23" class="node">
<title>src/react&#45;app&#45;env.d.ts</title>
<g id="a_node23"><a xlink:href="src/react-app-env.d.ts" xlink:title="react&#45;app&#45;env.d.ts">
<path fill="#ccffcc" stroke="black" d="M99.58,-186.88C99.58,-186.88 21.92,-186.88 21.92,-186.88 18.96,-186.88 16,-183.92 16,-180.96 16,-180.96 16,-175.04 16,-175.04 16,-172.08 18.96,-169.12 21.92,-169.12 21.92,-169.12 99.58,-169.12 99.58,-169.12 102.54,-169.12 105.5,-172.08 105.5,-175.04 105.5,-175.04 105.5,-180.96 105.5,-180.96 105.5,-183.92 102.54,-186.88 99.58,-186.88"/>
<text text-anchor="start" x="24" y="-174.32" font-family="Helvetica,sans-Serif" font-size="9.00">react&#45;app&#45;env.d.ts</text>
</a>
</g>
</g>
<!-- src/setupTests.ts -->
<g id="node24" class="node">
<title>src/setupTests.ts</title>
<g id="a_node24"><a xlink:href="src/setupTests.ts" xlink:title="setupTests.ts">
<path fill="#ccffcc" stroke="black" d="M89.08,-81.88C89.08,-81.88 32.42,-81.88 32.42,-81.88 29.46,-81.88 26.5,-78.92 26.5,-75.96 26.5,-75.96 26.5,-70.04 26.5,-70.04 26.5,-67.08 29.46,-64.12 32.42,-64.12 32.42,-64.12 89.08,-64.12 89.08,-64.12 92.04,-64.12 95,-67.08 95,-70.04 95,-70.04 95,-75.96 95,-75.96 95,-78.92 92.04,-81.88 89.08,-81.88"/>
<text text-anchor="start" x="34.5" y="-69.33" font-family="Helvetica,sans-Serif" font-size="9.00">setupTests.ts</text>
</a>
</g>
</g>
</g>
</svg>
