<?xml version="1.0" encoding="UTF-8" standalone="no"?>
<!DOCTYPE svg PUBLIC "-//W3C//DTD SVG 1.1//EN"
 "http://www.w3.org/Graphics/SVG/1.1/DTD/svg11.dtd">
<!-- Generated by graphviz version 9.0.0 (20230911.1827)
 -->
<!-- Title: dependency&#45;cruiser output Pages: 1 -->
<svg width="922pt" height="230pt"
 viewBox="0.00 0.00 922.25 230.00" xmlns="http://www.w3.org/2000/svg" xmlns:xlink="http://www.w3.org/1999/xlink">
<g id="graph0" class="graph" transform="scale(1 1) rotate(0) translate(4 226)">
<title>dependency&#45;cruiser output</title>
<polygon fill="white" stroke="none" points="-4,4 -4,-226 918.25,-226 918.25,4 -4,4"/>
<g id="clust1" class="cluster">
<title>cluster_src</title>
<path fill="#ffffff" stroke="black" stroke-width="2" d="M20,-8C20,-8 894.25,-8 894.25,-8 900.25,-8 906.25,-14 906.25,-20 906.25,-20 906.25,-202 906.25,-202 906.25,-208 900.25,-214 894.25,-214 894.25,-214 20,-214 20,-214 14,-214 8,-208 8,-202 8,-202 8,-20 8,-20 8,-14 14,-8 20,-8"/>
<text text-anchor="middle" x="457.12" y="-201.45" font-family="Helvetica,sans-Serif" font-weight="bold" font-size="9.00">src</text>
</g>
<g id="clust2" class="cluster">
<title>cluster_src/ConfigApp</title>
<path fill="#ffffff" stroke="black" stroke-width="2" d="M625.88,-16C625.88,-16 808.25,-16 808.25,-16 814.25,-16 820.25,-22 820.25,-28 820.25,-28 820.25,-86 820.25,-86 820.25,-92 814.25,-98 808.25,-98 808.25,-98 625.88,-98 625.88,-98 619.88,-98 613.88,-92 613.88,-86 613.88,-86 613.88,-28 613.88,-28 613.88,-22 619.88,-16 625.88,-16"/>
<text text-anchor="middle" x="717.06" y="-85.45" font-family="Helvetica,sans-Serif" font-weight="bold" font-size="9.00">ConfigApp</text>
</g>
<g id="clust3" class="cluster">
<title>cluster_src/DynoApp</title>
<path fill="#ffffff" stroke="black" stroke-width="2" d="M228.75,-56C228.75,-56 563.75,-56 563.75,-56 569.75,-56 575.75,-62 575.75,-68 575.75,-68 575.75,-140 575.75,-140 575.75,-146 569.75,-152 563.75,-152 563.75,-152 228.75,-152 228.75,-152 222.75,-152 216.75,-146 216.75,-140 216.75,-140 216.75,-68 216.75,-68 216.75,-62 222.75,-56 228.75,-56"/>
<text text-anchor="middle" x="396.25" y="-139.45" font-family="Helvetica,sans-Serif" font-weight="bold" font-size="9.00">DynoApp</text>
</g>
<g id="clust4" class="cluster">
<title>cluster_src/clients</title>
<path fill="#ffffff" stroke="black" stroke-width="2" d="M840.25,-46C840.25,-46 886.25,-46 886.25,-46 892.25,-46 898.25,-52 898.25,-58 898.25,-58 898.25,-86 898.25,-86 898.25,-92 892.25,-98 886.25,-98 886.25,-98 840.25,-98 840.25,-98 834.25,-98 828.25,-92 828.25,-86 828.25,-86 828.25,-58 828.25,-58 828.25,-52 834.25,-46 840.25,-46"/>
<text text-anchor="middle" x="863.25" y="-85.45" font-family="Helvetica,sans-Serif" font-weight="bold" font-size="9.00">clients</text>
</g>
<g id="clust5" class="cluster">
<title>cluster_src/common</title>
<path fill="#ffffff" stroke="black" stroke-width="2" d="M595.75,-106C595.75,-106 800.38,-106 800.38,-106 806.38,-106 812.38,-112 812.38,-118 812.38,-118 812.38,-176 812.38,-176 812.38,-182 806.38,-188 800.38,-188 800.38,-188 595.75,-188 595.75,-188 589.75,-188 583.75,-182 583.75,-176 583.75,-176 583.75,-118 583.75,-118 583.75,-112 589.75,-106 595.75,-106"/>
<text text-anchor="middle" x="698.06" y="-175.45" font-family="Helvetica,sans-Serif" font-weight="bold" font-size="9.00">common</text>
</g>
<!-- src/App.tsx -->
<g id="node1" class="node">
<title>src/App.tsx</title>
<g id="a_node1"><a xlink:href="src/App.tsx" xlink:title="App.tsx">
<path fill="#bbfeff" stroke="black" d="M184.71,-115.88C184.71,-115.88 142.54,-115.88 142.54,-115.88 139.58,-115.88 136.62,-112.92 136.62,-109.96 136.62,-109.96 136.62,-104.04 136.62,-104.04 136.62,-101.08 139.58,-98.12 142.54,-98.12 142.54,-98.12 184.71,-98.12 184.71,-98.12 187.67,-98.12 190.62,-101.08 190.62,-104.04 190.62,-104.04 190.62,-109.96 190.62,-109.96 190.62,-112.92 187.67,-115.88 184.71,-115.88"/>
<text text-anchor="start" x="148.62" y="-103.33" font-family="Helvetica,sans-Serif" font-size="9.00">App.tsx</text>
</a>
</g>
</g>
<!-- src/ConfigApp/index.tsx -->
<g id="node2" class="node">
<title>src/ConfigApp/index.tsx</title>
<g id="a_node2"><a xlink:href="src/ConfigApp/index.tsx" xlink:title="index.tsx">
<path fill="#bbfeff" stroke="black" d="M669.96,-70.88C669.96,-70.88 627.79,-70.88 627.79,-70.88 624.83,-70.88 621.88,-67.92 621.88,-64.96 621.88,-64.96 621.88,-59.04 621.88,-59.04 621.88,-56.08 624.83,-53.12 627.79,-53.12 627.79,-53.12 669.96,-53.12 669.96,-53.12 672.92,-53.12 675.88,-56.08 675.88,-59.04 675.88,-59.04 675.88,-64.96 675.88,-64.96 675.88,-67.92 672.92,-70.88 669.96,-70.88"/>
<text text-anchor="start" x="630.88" y="-58.33" font-family="Helvetica,sans-Serif" font-size="9.00">index.tsx</text>
</a>
</g>
</g>
<!-- src/App.tsx&#45;&gt;src/ConfigApp/index.tsx -->
<g id="edge1" class="edge">
<title>src/App.tsx&#45;&gt;src/ConfigApp/index.tsx</title>
<path fill="none" stroke="#000000" stroke-width="2" stroke-opacity="0.200000" d="M170.31,-97.68C178.68,-84.95 195.63,-62.58 216.75,-53 266.64,-30.37 285.09,-47 339.88,-47 339.88,-47 339.88,-47 426.38,-47 492.82,-47 509.53,-47.55 575.75,-53 587.88,-54 601.1,-55.52 612.87,-57.03"/>
<polygon fill="#000000" fill-opacity="0.200000" stroke="#000000" stroke-width="2" stroke-opacity="0.200000" points="612.33,-59.08 618.55,-57.78 612.88,-54.91 612.33,-59.08"/>
</g>
<!-- src/DynoApp/DynoApp.tsx -->
<g id="node3" class="node">
<title>src/DynoApp/DynoApp.tsx</title>
<g id="a_node3"><a xlink:href="src/DynoApp/DynoApp.tsx" xlink:title="DynoApp.tsx">
<path fill="#bbfeff" stroke="black" d="M286.58,-121.88C286.58,-121.88 230.67,-121.88 230.67,-121.88 227.71,-121.88 224.75,-118.92 224.75,-115.96 224.75,-115.96 224.75,-110.04 224.75,-110.04 224.75,-107.08 227.71,-104.12 230.67,-104.12 230.67,-104.12 286.58,-104.12 286.58,-104.12 289.54,-104.12 292.5,-107.08 292.5,-110.04 292.5,-110.04 292.5,-115.96 292.5,-115.96 292.5,-118.92 289.54,-121.88 286.58,-121.88"/>
<text text-anchor="start" x="232.75" y="-109.33" font-family="Helvetica,sans-Serif" font-size="9.00">DynoApp.tsx</text>
</a>
</g>
</g>
<!-- src/App.tsx&#45;&gt;src/DynoApp/DynoApp.tsx -->
<g id="edge2" class="edge">
<title>src/App.tsx&#45;&gt;src/DynoApp/DynoApp.tsx</title>
<path fill="none" stroke="#000000" stroke-width="2" stroke-opacity="0.200000" d="M191.03,-108.7C198.68,-109.2 207.23,-109.75 215.58,-110.29"/>
<polygon fill="#000000" fill-opacity="0.200000" stroke="#000000" stroke-width="2" stroke-opacity="0.200000" points="215.38,-112.38 221.5,-110.67 215.65,-108.19 215.38,-112.38"/>
</g>
<!-- src/ConfigApp/ConfigForm.tsx -->
<g id="node4" class="node">
<title>src/ConfigApp/ConfigForm.tsx</title>
<g id="a_node4"><a xlink:href="src/ConfigApp/ConfigForm.tsx" xlink:title="ConfigForm.tsx">
<path fill="#bbfeff" stroke="black" d="M798.46,-41.88C798.46,-41.88 732.79,-41.88 732.79,-41.88 729.83,-41.88 726.88,-38.92 726.88,-35.96 726.88,-35.96 726.88,-30.04 726.88,-30.04 726.88,-27.08 729.83,-24.12 732.79,-24.12 732.79,-24.12 798.46,-24.12 798.46,-24.12 801.42,-24.12 804.38,-27.08 804.38,-30.04 804.38,-30.04 804.38,-35.96 804.38,-35.96 804.38,-38.92 801.42,-41.88 798.46,-41.88"/>
<text text-anchor="start" x="734.88" y="-29.32" font-family="Helvetica,sans-Serif" font-size="9.00">ConfigForm.tsx</text>
</a>
</g>
</g>
<!-- src/ConfigApp/index.tsx&#45;&gt;src/ConfigApp/ConfigForm.tsx -->
<g id="edge4" class="edge">
<title>src/ConfigApp/index.tsx&#45;&gt;src/ConfigApp/ConfigForm.tsx</title>
<path fill="none" stroke="#000000" stroke-width="2" stroke-opacity="0.200000" d="M676.2,-55.35C688.92,-52.13 704.56,-48.18 719.13,-44.5"/>
<polygon fill="#000000" fill-opacity="0.200000" stroke="#000000" stroke-width="2" stroke-opacity="0.200000" points="719.31,-46.62 724.62,-43.11 718.28,-42.55 719.31,-46.62"/>
</g>
<!-- src/ConfigApp/contextProvider.tsx -->
<g id="node5" class="node">
<title>src/ConfigApp/contextProvider.tsx</title>
<g id="a_node5"><a xlink:href="src/ConfigApp/contextProvider.tsx" xlink:title="contextProvider.tsx">
<path fill="#bbfeff" stroke="black" d="M806.33,-71.88C806.33,-71.88 724.92,-71.88 724.92,-71.88 721.96,-71.88 719,-68.92 719,-65.96 719,-65.96 719,-60.04 719,-60.04 719,-57.08 721.96,-54.12 724.92,-54.12 724.92,-54.12 806.33,-54.12 806.33,-54.12 809.29,-54.12 812.25,-57.08 812.25,-60.04 812.25,-60.04 812.25,-65.96 812.25,-65.96 812.25,-68.92 809.29,-71.88 806.33,-71.88"/>
<text text-anchor="start" x="727" y="-59.33" font-family="Helvetica,sans-Serif" font-size="9.00">contextProvider.tsx</text>
</a>
</g>
</g>
<!-- src/ConfigApp/index.tsx&#45;&gt;src/ConfigApp/contextProvider.tsx -->
<g id="edge5" class="edge">
<title>src/ConfigApp/index.tsx&#45;&gt;src/ConfigApp/contextProvider.tsx</title>
<path fill="none" stroke="#000000" stroke-width="2" stroke-opacity="0.200000" d="M676.2,-62.23C686.22,-62.32 698.04,-62.42 709.73,-62.52"/>
<polygon fill="#000000" fill-opacity="0.200000" stroke="#000000" stroke-width="2" stroke-opacity="0.200000" points="709.57,-64.62 715.58,-62.57 709.6,-60.42 709.57,-64.62"/>
</g>
<!-- src/DynoApp/DynoApp.tsx&#45;&gt;src/ConfigApp/index.tsx -->
<g id="edge7" class="edge">
<title>src/DynoApp/DynoApp.tsx&#45;&gt;src/ConfigApp/index.tsx</title>
<path fill="none" stroke="#000000" stroke-width="2" stroke-opacity="0.200000" d="M284.07,-122.33C290.91,-124.58 298.41,-126.7 305.5,-128 364.57,-138.86 527.87,-164.25 575.75,-128 585.05,-120.96 576.64,-112.25 583.75,-103 592.67,-91.4 605.88,-82.17 617.99,-75.42"/>
<polygon fill="#000000" fill-opacity="0.200000" stroke="#000000" stroke-width="2" stroke-opacity="0.200000" points="618.72,-77.41 623.05,-72.75 616.76,-73.69 618.72,-77.41"/>
</g>
<!-- src/common/index.tsx -->
<g id="node7" class="node">
<title>src/common/index.tsx</title>
<g id="a_node7"><a xlink:href="src/common/index.tsx" xlink:title="index.tsx">
<path fill="#bbfeff" stroke="black" d="M669.96,-161.88C669.96,-161.88 627.79,-161.88 627.79,-161.88 624.83,-161.88 621.88,-158.92 621.88,-155.96 621.88,-155.96 621.88,-150.04 621.88,-150.04 621.88,-147.08 624.83,-144.12 627.79,-144.12 627.79,-144.12 669.96,-144.12 669.96,-144.12 672.92,-144.12 675.88,-147.08 675.88,-150.04 675.88,-150.04 675.88,-155.96 675.88,-155.96 675.88,-158.92 672.92,-161.88 669.96,-161.88"/>
<text text-anchor="start" x="630.88" y="-149.32" font-family="Helvetica,sans-Serif" font-size="9.00">index.tsx</text>
</a>
</g>
</g>
<!-- src/DynoApp/DynoApp.tsx&#45;&gt;src/common/index.tsx -->
<g id="edge6" class="edge">
<title>src/DynoApp/DynoApp.tsx&#45;&gt;src/common/index.tsx</title>
<path fill="none" stroke="#000000" stroke-width="2" stroke-opacity="0.200000" d="M270.06,-122.26C278.83,-129.41 292.06,-138.78 305.5,-143 413.38,-176.87 549.89,-165.94 612.98,-158.08"/>
<polygon fill="#000000" fill-opacity="0.200000" stroke="#000000" stroke-width="2" stroke-opacity="0.200000" points="613.06,-160.19 618.74,-157.33 612.52,-156.02 613.06,-160.19"/>
</g>
<!-- src/DynoApp/DynoList.tsx -->
<g id="node8" class="node">
<title>src/DynoApp/DynoList.tsx</title>
<g id="a_node8"><a xlink:href="src/DynoApp/DynoList.tsx" xlink:title="DynoList.tsx">
<path fill="#bbfeff" stroke="black" d="M367.71,-121.88C367.71,-121.88 314.04,-121.88 314.04,-121.88 311.08,-121.88 308.12,-118.92 308.12,-115.96 308.12,-115.96 308.12,-110.04 308.12,-110.04 308.12,-107.08 311.08,-104.12 314.04,-104.12 314.04,-104.12 367.71,-104.12 367.71,-104.12 370.67,-104.12 373.62,-107.08 373.62,-110.04 373.62,-110.04 373.62,-115.96 373.62,-115.96 373.62,-118.92 370.67,-121.88 367.71,-121.88"/>
<text text-anchor="start" x="316.12" y="-109.33" font-family="Helvetica,sans-Serif" font-size="9.00">DynoList.tsx</text>
</a>
</g>
</g>
<!-- src/DynoApp/DynoApp.tsx&#45;&gt;src/DynoApp/DynoList.tsx -->
<g id="edge8" class="edge">
<title>src/DynoApp/DynoApp.tsx&#45;&gt;src/DynoApp/DynoList.tsx</title>
<path fill="none" stroke="#000000" stroke-width="2" stroke-opacity="0.200000" d="M292.73,-113C294.76,-113 296.82,-113 298.89,-113"/>
<polygon fill="#000000" fill-opacity="0.200000" stroke="#000000" stroke-width="2" stroke-opacity="0.200000" points="298.85,-115.1 304.85,-113 298.85,-110.9 298.85,-115.1"/>
</g>
<!-- src/DynoApp/EditModal.tsx -->
<g id="node9" class="node">
<title>src/DynoApp/EditModal.tsx</title>
<g id="a_node9"><a xlink:href="src/DynoApp/EditModal.tsx" xlink:title="EditModal.tsx">
<path fill="#bbfeff" stroke="black" d="M370.33,-84.88C370.33,-84.88 311.42,-84.88 311.42,-84.88 308.46,-84.88 305.5,-81.92 305.5,-78.96 305.5,-78.96 305.5,-73.04 305.5,-73.04 305.5,-70.08 308.46,-67.12 311.42,-67.12 311.42,-67.12 370.33,-67.12 370.33,-67.12 373.29,-67.12 376.25,-70.08 376.25,-73.04 376.25,-73.04 376.25,-78.96 376.25,-78.96 376.25,-81.92 373.29,-84.88 370.33,-84.88"/>
<text text-anchor="start" x="313.5" y="-72.33" font-family="Helvetica,sans-Serif" font-size="9.00">EditModal.tsx</text>
</a>
</g>
</g>
<!-- src/DynoApp/DynoApp.tsx&#45;&gt;src/DynoApp/EditModal.tsx -->
<g id="edge9" class="edge">
<title>src/DynoApp/DynoApp.tsx&#45;&gt;src/DynoApp/EditModal.tsx</title>
<path fill="none" stroke="#000000" stroke-width="2" stroke-opacity="0.200000" d="M283.79,-103.74C286.74,-102.52 289.7,-101.26 292.5,-100 299.75,-96.74 307.5,-92.95 314.58,-89.36"/>
<polygon fill="#000000" fill-opacity="0.200000" stroke="#000000" stroke-width="2" stroke-opacity="0.200000" points="315.44,-91.27 319.82,-86.66 313.52,-87.54 315.44,-91.27"/>
</g>
<!-- src/clients/index.ts -->
<g id="node6" class="node">
<title>src/clients/index.ts</title>
<g id="a_node6"><a xlink:href="src/clients/index.ts" xlink:title="index.ts">
<path fill="#ddfeff" stroke="black" d="M884.33,-71.88C884.33,-71.88 842.17,-71.88 842.17,-71.88 839.21,-71.88 836.25,-68.92 836.25,-65.96 836.25,-65.96 836.25,-60.04 836.25,-60.04 836.25,-57.08 839.21,-54.12 842.17,-54.12 842.17,-54.12 884.33,-54.12 884.33,-54.12 887.29,-54.12 890.25,-57.08 890.25,-60.04 890.25,-60.04 890.25,-65.96 890.25,-65.96 890.25,-68.92 887.29,-71.88 884.33,-71.88"/>
<text text-anchor="start" x="847.5" y="-59.33" font-family="Helvetica,sans-Serif" font-size="9.00">index.ts</text>
</a>
</g>
</g>
<!-- src/ConfigApp/contextProvider.tsx&#45;&gt;src/clients/index.ts -->
<g id="edge3" class="edge">
<title>src/ConfigApp/contextProvider.tsx&#45;&gt;src/clients/index.ts</title>
<path fill="none" stroke="#000000" stroke-width="2" stroke-opacity="0.200000" d="M812.48,-63C817.38,-63 822.32,-63 827.07,-63"/>
<polygon fill="#000000" fill-opacity="0.200000" stroke="#000000" stroke-width="2" stroke-opacity="0.200000" points="826.92,-65.1 832.92,-63 826.92,-60.9 826.92,-65.1"/>
</g>
<!-- src/common/ErrorCenter.tsx -->
<g id="node16" class="node">
<title>src/common/ErrorCenter.tsx</title>
<g id="a_node16"><a xlink:href="src/common/ErrorCenter.tsx" xlink:title="ErrorCenter.tsx">
<path fill="#bbfeff" stroke="black" d="M798.46,-131.88C798.46,-131.88 732.79,-131.88 732.79,-131.88 729.83,-131.88 726.88,-128.92 726.88,-125.96 726.88,-125.96 726.88,-120.04 726.88,-120.04 726.88,-117.08 729.83,-114.12 732.79,-114.12 732.79,-114.12 798.46,-114.12 798.46,-114.12 801.42,-114.12 804.38,-117.08 804.38,-120.04 804.38,-120.04 804.38,-125.96 804.38,-125.96 804.38,-128.92 801.42,-131.88 798.46,-131.88"/>
<text text-anchor="start" x="734.88" y="-119.33" font-family="Helvetica,sans-Serif" font-size="9.00">ErrorCenter.tsx</text>
</a>
</g>
</g>
<!-- src/common/index.tsx&#45;&gt;src/common/ErrorCenter.tsx -->
<g id="edge18" class="edge">
<title>src/common/index.tsx&#45;&gt;src/common/ErrorCenter.tsx</title>
<path fill="none" stroke="#000000" stroke-width="2" stroke-opacity="0.200000" d="M676.2,-146.12C689.25,-142.7 705.38,-138.49 720.26,-134.6"/>
<polygon fill="#000000" fill-opacity="0.200000" stroke="#000000" stroke-width="2" stroke-opacity="0.200000" points="720.65,-136.67 725.93,-133.12 719.59,-132.6 720.65,-136.67"/>
</g>
<!-- src/common/MultiSelect.tsx -->
<g id="node17" class="node">
<title>src/common/MultiSelect.tsx</title>
<g id="a_node17"><a xlink:href="src/common/MultiSelect.tsx" xlink:title="MultiSelect.tsx">
<path fill="#bbfeff" stroke="black" d="M796.96,-161.88C796.96,-161.88 734.29,-161.88 734.29,-161.88 731.33,-161.88 728.38,-158.92 728.38,-155.96 728.38,-155.96 728.38,-150.04 728.38,-150.04 728.38,-147.08 731.33,-144.12 734.29,-144.12 734.29,-144.12 796.96,-144.12 796.96,-144.12 799.92,-144.12 802.88,-147.08 802.88,-150.04 802.88,-150.04 802.88,-155.96 802.88,-155.96 802.88,-158.92 799.92,-161.88 796.96,-161.88"/>
<text text-anchor="start" x="736.38" y="-149.32" font-family="Helvetica,sans-Serif" font-size="9.00">MultiSelect.tsx</text>
</a>
</g>
</g>
<!-- src/common/index.tsx&#45;&gt;src/common/MultiSelect.tsx -->
<g id="edge19" class="edge">
<title>src/common/index.tsx&#45;&gt;src/common/MultiSelect.tsx</title>
<path fill="none" stroke="#000000" stroke-width="2" stroke-opacity="0.200000" d="M676.2,-153C688.91,-153 704.54,-153 719.1,-153"/>
<polygon fill="#000000" fill-opacity="0.200000" stroke="#000000" stroke-width="2" stroke-opacity="0.200000" points="718.96,-155.1 724.96,-153 718.96,-150.9 718.96,-155.1"/>
</g>
<!-- src/DynoApp/utils.ts -->
<g id="node12" class="node">
<title>src/DynoApp/utils.ts</title>
<g id="a_node12"><a xlink:href="src/DynoApp/utils.ts" xlink:title="utils.ts">
<path fill="#ddfeff" stroke="black" d="M542.21,-121.88C542.21,-121.88 500.04,-121.88 500.04,-121.88 497.08,-121.88 494.12,-118.92 494.12,-115.96 494.12,-115.96 494.12,-110.04 494.12,-110.04 494.12,-107.08 497.08,-104.12 500.04,-104.12 500.04,-104.12 542.21,-104.12 542.21,-104.12 545.17,-104.12 548.12,-107.08 548.12,-110.04 548.12,-110.04 548.12,-115.96 548.12,-115.96 548.12,-118.92 545.17,-121.88 542.21,-121.88"/>
<text text-anchor="start" x="508.38" y="-109.33" font-family="Helvetica,sans-Serif" font-size="9.00">utils.ts</text>
</a>
</g>
</g>
<!-- src/DynoApp/DynoList.tsx&#45;&gt;src/DynoApp/utils.ts -->
<g id="edge16" class="edge">
<title>src/DynoApp/DynoList.tsx&#45;&gt;src/DynoApp/utils.ts</title>
<path fill="none" stroke="#000000" stroke-width="2" stroke-opacity="0.200000" d="M374.07,-104.49C379.12,-103.46 384.3,-102.57 389.25,-102 421.15,-98.34 429.53,-99.03 461.5,-102 469.13,-102.71 477.25,-103.93 484.94,-105.3"/>
<polygon fill="#000000" fill-opacity="0.200000" stroke="#000000" stroke-width="2" stroke-opacity="0.200000" points="484.45,-107.35 490.74,-106.4 485.24,-103.22 484.45,-107.35"/>
</g>
<!-- src/DynoApp/DynoRow.tsx -->
<g id="node13" class="node">
<title>src/DynoApp/DynoRow.tsx</title>
<g id="a_node13"><a xlink:href="src/DynoApp/DynoRow.tsx" xlink:title="DynoRow.tsx">
<path fill="#bbfeff" stroke="black" d="M454.08,-125.88C454.08,-125.88 396.67,-125.88 396.67,-125.88 393.71,-125.88 390.75,-122.92 390.75,-119.96 390.75,-119.96 390.75,-114.04 390.75,-114.04 390.75,-111.08 393.71,-108.12 396.67,-108.12 396.67,-108.12 454.08,-108.12 454.08,-108.12 457.04,-108.12 460,-111.08 460,-114.04 460,-114.04 460,-119.96 460,-119.96 460,-122.92 457.04,-125.88 454.08,-125.88"/>
<text text-anchor="start" x="398.75" y="-113.33" font-family="Helvetica,sans-Serif" font-size="9.00">DynoRow.tsx</text>
</a>
</g>
</g>
<!-- src/DynoApp/DynoList.tsx&#45;&gt;src/DynoApp/DynoRow.tsx -->
<g id="edge15" class="edge">
<title>src/DynoApp/DynoList.tsx&#45;&gt;src/DynoApp/DynoRow.tsx</title>
<path fill="none" stroke="#000000" stroke-width="2" stroke-opacity="0.200000" d="M374.01,-114.56C376.43,-114.68 378.89,-114.79 381.36,-114.91"/>
<polygon fill="#000000" fill-opacity="0.200000" stroke="#000000" stroke-width="2" stroke-opacity="0.200000" points="381.17,-117.01 387.26,-115.2 381.37,-112.81 381.17,-117.01"/>
</g>
<!-- src/DynoApp/DynoForm.tsx -->
<g id="node11" class="node">
<title>src/DynoApp/DynoForm.tsx</title>
<g id="a_node11"><a xlink:href="src/DynoApp/DynoForm.tsx" xlink:title="DynoForm.tsx">
<path fill="#bbfeff" stroke="black" d="M455.58,-81.88C455.58,-81.88 395.17,-81.88 395.17,-81.88 392.21,-81.88 389.25,-78.92 389.25,-75.96 389.25,-75.96 389.25,-70.04 389.25,-70.04 389.25,-67.08 392.21,-64.12 395.17,-64.12 395.17,-64.12 455.58,-64.12 455.58,-64.12 458.54,-64.12 461.5,-67.08 461.5,-70.04 461.5,-70.04 461.5,-75.96 461.5,-75.96 461.5,-78.92 458.54,-81.88 455.58,-81.88"/>
<text text-anchor="start" x="397.25" y="-69.33" font-family="Helvetica,sans-Serif" font-size="9.00">DynoForm.tsx</text>
</a>
</g>
</g>
<!-- src/DynoApp/EditModal.tsx&#45;&gt;src/DynoApp/DynoForm.tsx -->
<g id="edge17" class="edge">
<title>src/DynoApp/EditModal.tsx&#45;&gt;src/DynoApp/DynoForm.tsx</title>
<path fill="none" stroke="#000000" stroke-width="2" stroke-opacity="0.200000" d="M376.38,-74.75C377.68,-74.7 378.99,-74.65 380.3,-74.6"/>
<polygon fill="#000000" fill-opacity="0.200000" stroke="#000000" stroke-width="2" stroke-opacity="0.200000" points="380,-76.72 385.92,-74.4 379.85,-72.52 380,-76.72"/>
</g>
<!-- src/DynoApp/DynoArrayField.tsx -->
<g id="node10" class="node">
<title>src/DynoApp/DynoArrayField.tsx</title>
<g id="a_node10"><a xlink:href="src/DynoApp/DynoArrayField.tsx" xlink:title="DynoArrayField.tsx">
<path fill="#bbfeff" stroke="black" d="M561.83,-91.88C561.83,-91.88 480.42,-91.88 480.42,-91.88 477.46,-91.88 474.5,-88.92 474.5,-85.96 474.5,-85.96 474.5,-80.04 474.5,-80.04 474.5,-77.08 477.46,-74.12 480.42,-74.12 480.42,-74.12 561.83,-74.12 561.83,-74.12 564.79,-74.12 567.75,-77.08 567.75,-80.04 567.75,-80.04 567.75,-85.96 567.75,-85.96 567.75,-88.92 564.79,-91.88 561.83,-91.88"/>
<text text-anchor="start" x="482.5" y="-79.33" font-family="Helvetica,sans-Serif" font-size="9.00">DynoArrayField.tsx</text>
</a>
</g>
</g>
<!-- src/DynoApp/DynoArrayField.tsx&#45;&gt;src/ConfigApp/index.tsx -->
<g id="edge11" class="edge">
<title>src/DynoApp/DynoArrayField.tsx&#45;&gt;src/ConfigApp/index.tsx</title>
<path fill="none" stroke="#000000" stroke-width="2" stroke-opacity="0.200000" d="M568.24,-75.3C582.96,-72.84 599,-70.16 612.8,-67.86"/>
<polygon fill="#000000" fill-opacity="0.200000" stroke="#000000" stroke-width="2" stroke-opacity="0.200000" points="612.96,-69.96 618.53,-66.9 612.26,-65.82 612.96,-69.96"/>
</g>
<!-- src/DynoApp/DynoArrayField.tsx&#45;&gt;src/common/index.tsx -->
<g id="edge10" class="edge">
<title>src/DynoApp/DynoArrayField.tsx&#45;&gt;src/common/index.tsx</title>
<path fill="none" stroke="#000000" stroke-width="2" stroke-opacity="0.200000" d="M568.12,-91.84C570.93,-93.56 573.52,-95.59 575.75,-98 588.08,-111.29 571.14,-124.97 583.75,-138 591.33,-145.83 602.15,-149.91 612.76,-151.94"/>
<polygon fill="#000000" fill-opacity="0.200000" stroke="#000000" stroke-width="2" stroke-opacity="0.200000" points="612.3,-154 618.54,-152.78 612.9,-149.84 612.3,-154"/>
</g>
<!-- src/DynoApp/DynoForm.tsx&#45;&gt;src/ConfigApp/index.tsx -->
<g id="edge12" class="edge">
<title>src/DynoApp/DynoForm.tsx&#45;&gt;src/ConfigApp/index.tsx</title>
<path fill="none" stroke="#000000" stroke-width="2" stroke-opacity="0.200000" d="M461.83,-69.04C466.1,-68.64 470.39,-68.28 474.5,-68 522.22,-64.7 577.45,-63.18 612.51,-62.51"/>
<polygon fill="#000000" fill-opacity="0.200000" stroke="#000000" stroke-width="2" stroke-opacity="0.200000" points="612.42,-64.61 618.38,-62.4 612.35,-60.41 612.42,-64.61"/>
</g>
<!-- src/DynoApp/DynoForm.tsx&#45;&gt;src/DynoApp/DynoArrayField.tsx -->
<g id="edge13" class="edge">
<title>src/DynoApp/DynoForm.tsx&#45;&gt;src/DynoApp/DynoArrayField.tsx</title>
<path fill="none" stroke="#000000" stroke-width="2" stroke-opacity="0.200000" d="M461.82,-76.78C462.96,-76.9 464.1,-77.02 465.26,-77.15"/>
<polygon fill="#000000" fill-opacity="0.200000" stroke="#000000" stroke-width="2" stroke-opacity="0.200000" points="464.98,-79.23 471.17,-77.78 465.43,-75.05 464.98,-79.23"/>
</g>
<!-- src/DynoApp/DynoForm.tsx&#45;&gt;src/DynoApp/utils.ts -->
<g id="edge14" class="edge">
<title>src/DynoApp/DynoForm.tsx&#45;&gt;src/DynoApp/utils.ts</title>
<path fill="none" stroke="#000000" stroke-width="2" stroke-opacity="0.200000" d="M444.64,-82.27C450.08,-85.06 456.04,-88.13 461.5,-91 467.31,-94.05 468.47,-95.41 474.5,-98 477.95,-99.48 481.59,-100.91 485.26,-102.25"/>
<polygon fill="#000000" fill-opacity="0.200000" stroke="#000000" stroke-width="2" stroke-opacity="0.200000" points="484.56,-104.23 490.91,-104.22 485.94,-100.26 484.56,-104.23"/>
</g>
<!-- src/__List.tsx -->
<g id="node14" class="node">
<title>src/__List.tsx</title>
<g id="a_node14"><a xlink:href="src/__List.tsx" xlink:title="no&#45;orphans">
<path fill="#ccffcc" stroke="orange" d="M81.96,-175.88C81.96,-175.88 39.54,-175.88 39.54,-175.88 36.58,-175.88 33.62,-172.92 33.62,-169.96 33.62,-169.96 33.62,-164.04 33.62,-164.04 33.62,-161.08 36.58,-158.12 39.54,-158.12 39.54,-158.12 81.96,-158.12 81.96,-158.12 84.92,-158.12 87.88,-161.08 87.88,-164.04 87.88,-164.04 87.88,-169.96 87.88,-169.96 87.88,-172.92 84.92,-175.88 81.96,-175.88"/>
<text text-anchor="start" x="41.62" y="-163.32" font-family="Helvetica,sans-Serif" font-size="9.00" fill="orange">__List.tsx</text>
</a>
</g>
</g>
<!-- src/common/DebouncedTextField.tsx -->
<g id="node15" class="node">
<title>src/common/DebouncedTextField.tsx</title>
<g id="a_node15"><a xlink:href="src/common/DebouncedTextField.tsx" xlink:title="no&#45;orphans">
<path fill="#ccffcc" stroke="orange" d="M700.08,-131.88C700.08,-131.88 597.67,-131.88 597.67,-131.88 594.71,-131.88 591.75,-128.92 591.75,-125.96 591.75,-125.96 591.75,-120.04 591.75,-120.04 591.75,-117.08 594.71,-114.12 597.67,-114.12 597.67,-114.12 700.08,-114.12 700.08,-114.12 703.04,-114.12 706,-117.08 706,-120.04 706,-120.04 706,-125.96 706,-125.96 706,-128.92 703.04,-131.88 700.08,-131.88"/>
<text text-anchor="start" x="599.75" y="-119.33" font-family="Helvetica,sans-Serif" font-size="9.00" fill="orange">DebouncedTextField.tsx</text>
</a>
</g>
</g>
<!-- src/index.tsx -->
<g id="node18" class="node">
<title>src/index.tsx</title>
<g id="a_node18"><a xlink:href="src/index.tsx" xlink:title="index.tsx">
<path fill="#bbfeff" stroke="black" d="M81.83,-137.88C81.83,-137.88 39.67,-137.88 39.67,-137.88 36.71,-137.88 33.75,-134.92 33.75,-131.96 33.75,-131.96 33.75,-126.04 33.75,-126.04 33.75,-123.08 36.71,-120.12 39.67,-120.12 39.67,-120.12 81.83,-120.12 81.83,-120.12 84.79,-120.12 87.75,-123.08 87.75,-126.04 87.75,-126.04 87.75,-131.96 87.75,-131.96 87.75,-134.92 84.79,-137.88 81.83,-137.88"/>
<text text-anchor="start" x="42.75" y="-125.33" font-family="Helvetica,sans-Serif" font-size="9.00">index.tsx</text>
</a>
</g>
</g>
<!-- src/index.tsx&#45;&gt;src/App.tsx -->
<g id="edge20" class="edge">
<title>src/index.tsx&#45;&gt;src/App.tsx</title>
<path fill="none" stroke="#000000" stroke-width="2" stroke-opacity="0.200000" d="M87.99,-123.28C100.04,-120.65 114.5,-117.5 127.47,-114.67"/>
<polygon fill="#000000" fill-opacity="0.200000" stroke="#000000" stroke-width="2" stroke-opacity="0.200000" points="127.79,-116.75 133.21,-113.42 126.9,-112.64 127.79,-116.75"/>
</g>
<!-- src/reportWebVitals.ts -->
<g id="node19" class="node">
<title>src/reportWebVitals.ts</title>
<g id="a_node19"><a xlink:href="src/reportWebVitals.ts" xlink:title="reportWebVitals.ts">
<path fill="#ddfeff" stroke="black" d="M202.83,-145.88C202.83,-145.88 124.42,-145.88 124.42,-145.88 121.46,-145.88 118.5,-142.92 118.5,-139.96 118.5,-139.96 118.5,-134.04 118.5,-134.04 118.5,-131.08 121.46,-128.12 124.42,-128.12 124.42,-128.12 202.83,-128.12 202.83,-128.12 205.79,-128.12 208.75,-131.08 208.75,-134.04 208.75,-134.04 208.75,-139.96 208.75,-139.96 208.75,-142.92 205.79,-145.88 202.83,-145.88"/>
<text text-anchor="start" x="126.5" y="-133.32" font-family="Helvetica,sans-Serif" font-size="9.00">reportWebVitals.ts</text>
</a>
</g>
</g>
<!-- src/index.tsx&#45;&gt;src/reportWebVitals.ts -->
<g id="edge21" class="edge">
<title>src/index.tsx&#45;&gt;src/reportWebVitals.ts</title>
<path fill="none" stroke="#000000" stroke-width="2" stroke-opacity="0.200000" d="M87.99,-131.08C94.62,-131.61 101.98,-132.19 109.42,-132.78"/>
<polygon fill="#000000" fill-opacity="0.200000" stroke="#000000" stroke-width="2" stroke-opacity="0.200000" points="108.99,-134.85 115.14,-133.23 109.32,-130.67 108.99,-134.85"/>
</g>
<!-- src/react&#45;app&#45;env.d.ts -->
<g id="node20" class="node">
<title>src/react&#45;app&#45;env.d.ts</title>
<g id="a_node20"><a xlink:href="src/react-app-env.d.ts" xlink:title="react&#45;app&#45;env.d.ts">
<path fill="#ccffcc" stroke="black" d="M99.58,-95.88C99.58,-95.88 21.92,-95.88 21.92,-95.88 18.96,-95.88 16,-92.92 16,-89.96 16,-89.96 16,-84.04 16,-84.04 16,-81.08 18.96,-78.12 21.92,-78.12 21.92,-78.12 99.58,-78.12 99.58,-78.12 102.54,-78.12 105.5,-81.08 105.5,-84.04 105.5,-84.04 105.5,-89.96 105.5,-89.96 105.5,-92.92 102.54,-95.88 99.58,-95.88"/>
<text text-anchor="start" x="24" y="-83.33" font-family="Helvetica,sans-Serif" font-size="9.00">react&#45;app&#45;env.d.ts</text>
</a>
</g>
</g>
<!-- src/setupTests.ts -->
<g id="node21" class="node">
<title>src/setupTests.ts</title>
<g id="a_node21"><a xlink:href="src/setupTests.ts" xlink:title="setupTests.ts">
<path fill="#ccffcc" stroke="black" d="M89.08,-41.88C89.08,-41.88 32.42,-41.88 32.42,-41.88 29.46,-41.88 26.5,-38.92 26.5,-35.96 26.5,-35.96 26.5,-30.04 26.5,-30.04 26.5,-27.08 29.46,-24.12 32.42,-24.12 32.42,-24.12 89.08,-24.12 89.08,-24.12 92.04,-24.12 95,-27.08 95,-30.04 95,-30.04 95,-35.96 95,-35.96 95,-38.92 92.04,-41.88 89.08,-41.88"/>
<text text-anchor="start" x="34.5" y="-29.32" font-family="Helvetica,sans-Serif" font-size="9.00">setupTests.ts</text>
</a>
</g>
</g>
</g>
</svg>
