<?xml version="1.0" encoding="UTF-8" standalone="no"?>
<!DOCTYPE svg PUBLIC "-//W3C//DTD SVG 1.1//EN"
 "http://www.w3.org/Graphics/SVG/1.1/DTD/svg11.dtd">
<!-- Generated by graphviz version 9.0.0 (20230911.1827)
 -->
<!-- Title: dependency&#45;cruiser output Pages: 1 -->
<svg width="1014pt" height="274pt"
 viewBox="0.00 0.00 1014.25 274.00" xmlns="http://www.w3.org/2000/svg" xmlns:xlink="http://www.w3.org/1999/xlink">
<g id="graph0" class="graph" transform="scale(1 1) rotate(0) translate(4 270)">
<title>dependency&#45;cruiser output</title>
<polygon fill="white" stroke="none" points="-4,4 -4,-270 1010.25,-270 1010.25,4 -4,4"/>
<g id="clust1" class="cluster">
<title>cluster_src</title>
<path fill="#ffffff" stroke="black" stroke-width="2" d="M20,-8C20,-8 986.25,-8 986.25,-8 992.25,-8 998.25,-14 998.25,-20 998.25,-20 998.25,-246 998.25,-246 998.25,-252 992.25,-258 986.25,-258 986.25,-258 20,-258 20,-258 14,-258 8,-252 8,-246 8,-246 8,-20 8,-20 8,-14 14,-8 20,-8"/>
<text text-anchor="middle" x="503.12" y="-245.45" font-family="Helvetica,sans-Serif" font-weight="bold" font-size="9.00">src</text>
</g>
<g id="clust2" class="cluster">
<title>cluster_src/ConfigApp</title>
<path fill="#ffffff" stroke="black" stroke-width="2" d="M625.88,-16C625.88,-16 900.25,-16 900.25,-16 906.25,-16 912.25,-22 912.25,-28 912.25,-28 912.25,-100 912.25,-100 912.25,-106 906.25,-112 900.25,-112 900.25,-112 625.88,-112 625.88,-112 619.88,-112 613.88,-106 613.88,-100 613.88,-100 613.88,-28 613.88,-28 613.88,-22 619.88,-16 625.88,-16"/>
<text text-anchor="middle" x="763.06" y="-99.45" font-family="Helvetica,sans-Serif" font-weight="bold" font-size="9.00">ConfigApp</text>
</g>
<g id="clust3" class="cluster">
<title>cluster_src/DynoApp</title>
<path fill="#ffffff" stroke="black" stroke-width="2" d="M228.75,-86C228.75,-86 563.75,-86 563.75,-86 569.75,-86 575.75,-92 575.75,-98 575.75,-98 575.75,-170 575.75,-170 575.75,-176 569.75,-182 563.75,-182 563.75,-182 228.75,-182 228.75,-182 222.75,-182 216.75,-176 216.75,-170 216.75,-170 216.75,-98 216.75,-98 216.75,-92 222.75,-86 228.75,-86"/>
<text text-anchor="middle" x="396.25" y="-169.45" font-family="Helvetica,sans-Serif" font-weight="bold" font-size="9.00">DynoApp</text>
</g>
<g id="clust4" class="cluster">
<title>cluster_src/clients</title>
<path fill="#ffffff" stroke="black" stroke-width="2" d="M932.25,-60C932.25,-60 978.25,-60 978.25,-60 984.25,-60 990.25,-66 990.25,-72 990.25,-72 990.25,-100 990.25,-100 990.25,-106 984.25,-112 978.25,-112 978.25,-112 932.25,-112 932.25,-112 926.25,-112 920.25,-106 920.25,-100 920.25,-100 920.25,-72 920.25,-72 920.25,-66 926.25,-60 932.25,-60"/>
<text text-anchor="middle" x="955.25" y="-99.45" font-family="Helvetica,sans-Serif" font-weight="bold" font-size="9.00">clients</text>
</g>
<g id="clust5" class="cluster">
<title>cluster_src/common</title>
<path fill="#ffffff" stroke="black" stroke-width="2" d="M595.75,-120C595.75,-120 791,-120 791,-120 797,-120 803,-126 803,-132 803,-132 803,-220 803,-220 803,-226 797,-232 791,-232 791,-232 595.75,-232 595.75,-232 589.75,-232 583.75,-226 583.75,-220 583.75,-220 583.75,-132 583.75,-132 583.75,-126 589.75,-120 595.75,-120"/>
<text text-anchor="middle" x="693.38" y="-219.45" font-family="Helvetica,sans-Serif" font-weight="bold" font-size="9.00">common</text>
</g>
<!-- src/App.tsx -->
<g id="node1" class="node">
<title>src/App.tsx</title>
<g id="a_node1"><a xlink:href="src/App.tsx" xlink:title="App.tsx">
<path fill="#bbfeff" stroke="black" d="M184.71,-142.88C184.71,-142.88 142.54,-142.88 142.54,-142.88 139.58,-142.88 136.62,-139.92 136.62,-136.96 136.62,-136.96 136.62,-131.04 136.62,-131.04 136.62,-128.08 139.58,-125.12 142.54,-125.12 142.54,-125.12 184.71,-125.12 184.71,-125.12 187.67,-125.12 190.62,-128.08 190.62,-131.04 190.62,-131.04 190.62,-136.96 190.62,-136.96 190.62,-139.92 187.67,-142.88 184.71,-142.88"/>
<text text-anchor="start" x="148.62" y="-130.32" font-family="Helvetica,sans-Serif" font-size="9.00">App.tsx</text>
</a>
</g>
</g>
<!-- src/ConfigApp/index.tsx -->
<g id="node2" class="node">
<title>src/ConfigApp/index.tsx</title>
<g id="a_node2"><a xlink:href="src/ConfigApp/index.tsx" xlink:title="index.tsx">
<path fill="#bbfeff" stroke="black" d="M669.96,-85.88C669.96,-85.88 627.79,-85.88 627.79,-85.88 624.83,-85.88 621.88,-82.92 621.88,-79.96 621.88,-79.96 621.88,-74.04 621.88,-74.04 621.88,-71.08 624.83,-68.12 627.79,-68.12 627.79,-68.12 669.96,-68.12 669.96,-68.12 672.92,-68.12 675.88,-71.08 675.88,-74.04 675.88,-74.04 675.88,-79.96 675.88,-79.96 675.88,-82.92 672.92,-85.88 669.96,-85.88"/>
<text text-anchor="start" x="630.88" y="-73.33" font-family="Helvetica,sans-Serif" font-size="9.00">index.tsx</text>
</a>
</g>
</g>
<!-- src/App.tsx&#45;&gt;src/ConfigApp/index.tsx -->
<g id="edge1" class="edge">
<title>src/App.tsx&#45;&gt;src/ConfigApp/index.tsx</title>
<path fill="none" stroke="#000000" stroke-width="2" stroke-opacity="0.200000" d="M170.84,-125.02C179.58,-113.19 196.7,-92.73 216.75,-83 266.39,-58.91 284.69,-67 339.88,-67 339.88,-67 339.88,-67 426.38,-67 492.32,-67 569.2,-71.48 612.84,-74.44"/>
<polygon fill="#000000" fill-opacity="0.200000" stroke="#000000" stroke-width="2" stroke-opacity="0.200000" points="612.49,-76.52 618.62,-74.84 612.78,-72.33 612.49,-76.52"/>
</g>
<!-- src/DynoApp/DynoApp.tsx -->
<g id="node3" class="node">
<title>src/DynoApp/DynoApp.tsx</title>
<g id="a_node3"><a xlink:href="src/DynoApp/DynoApp.tsx" xlink:title="DynoApp.tsx">
<path fill="#bbfeff" stroke="black" d="M286.58,-151.88C286.58,-151.88 230.67,-151.88 230.67,-151.88 227.71,-151.88 224.75,-148.92 224.75,-145.96 224.75,-145.96 224.75,-140.04 224.75,-140.04 224.75,-137.08 227.71,-134.12 230.67,-134.12 230.67,-134.12 286.58,-134.12 286.58,-134.12 289.54,-134.12 292.5,-137.08 292.5,-140.04 292.5,-140.04 292.5,-145.96 292.5,-145.96 292.5,-148.92 289.54,-151.88 286.58,-151.88"/>
<text text-anchor="start" x="232.75" y="-139.32" font-family="Helvetica,sans-Serif" font-size="9.00">DynoApp.tsx</text>
</a>
</g>
</g>
<!-- src/App.tsx&#45;&gt;src/DynoApp/DynoApp.tsx -->
<g id="edge2" class="edge">
<title>src/App.tsx&#45;&gt;src/DynoApp/DynoApp.tsx</title>
<path fill="none" stroke="#000000" stroke-width="2" stroke-opacity="0.200000" d="M191.03,-136.55C198.68,-137.3 207.23,-138.12 215.58,-138.93"/>
<polygon fill="#000000" fill-opacity="0.200000" stroke="#000000" stroke-width="2" stroke-opacity="0.200000" points="215.33,-141.02 221.51,-139.5 215.74,-136.84 215.33,-141.02"/>
</g>
<!-- src/ConfigApp/ConfigForm.tsx -->
<g id="node4" class="node">
<title>src/ConfigApp/ConfigForm.tsx</title>
<g id="a_node4"><a xlink:href="src/ConfigApp/ConfigForm.tsx" xlink:title="ConfigForm.tsx">
<path fill="#bbfeff" stroke="black" d="M790.58,-55.88C790.58,-55.88 724.92,-55.88 724.92,-55.88 721.96,-55.88 719,-52.92 719,-49.96 719,-49.96 719,-44.04 719,-44.04 719,-41.08 721.96,-38.12 724.92,-38.12 724.92,-38.12 790.58,-38.12 790.58,-38.12 793.54,-38.12 796.5,-41.08 796.5,-44.04 796.5,-44.04 796.5,-49.96 796.5,-49.96 796.5,-52.92 793.54,-55.88 790.58,-55.88"/>
<text text-anchor="start" x="727" y="-43.33" font-family="Helvetica,sans-Serif" font-size="9.00">ConfigForm.tsx</text>
</a>
</g>
</g>
<!-- src/ConfigApp/index.tsx&#45;&gt;src/ConfigApp/ConfigForm.tsx -->
<g id="edge6" class="edge">
<title>src/ConfigApp/index.tsx&#45;&gt;src/ConfigApp/ConfigForm.tsx</title>
<path fill="none" stroke="#000000" stroke-width="2" stroke-opacity="0.200000" d="M676.29,-69.58C687.96,-66.31 701.95,-62.38 714.97,-58.73"/>
<polygon fill="#000000" fill-opacity="0.200000" stroke="#000000" stroke-width="2" stroke-opacity="0.200000" points="715.23,-60.84 720.44,-57.19 714.09,-56.79 715.23,-60.84"/>
</g>
<!-- src/ConfigApp/ErrorCenter.tsx -->
<g id="node5" class="node">
<title>src/ConfigApp/ErrorCenter.tsx</title>
<g id="a_node5"><a xlink:href="src/ConfigApp/ErrorCenter.tsx" xlink:title="ErrorCenter.tsx">
<path fill="#bbfeff" stroke="black" d="M790.58,-85.88C790.58,-85.88 724.92,-85.88 724.92,-85.88 721.96,-85.88 719,-82.92 719,-79.96 719,-79.96 719,-74.04 719,-74.04 719,-71.08 721.96,-68.12 724.92,-68.12 724.92,-68.12 790.58,-68.12 790.58,-68.12 793.54,-68.12 796.5,-71.08 796.5,-74.04 796.5,-74.04 796.5,-79.96 796.5,-79.96 796.5,-82.92 793.54,-85.88 790.58,-85.88"/>
<text text-anchor="start" x="727" y="-73.33" font-family="Helvetica,sans-Serif" font-size="9.00">ErrorCenter.tsx</text>
</a>
</g>
</g>
<!-- src/ConfigApp/index.tsx&#45;&gt;src/ConfigApp/ErrorCenter.tsx -->
<g id="edge8" class="edge">
<title>src/ConfigApp/index.tsx&#45;&gt;src/ConfigApp/ErrorCenter.tsx</title>
<path fill="none" stroke="#000000" stroke-width="2" stroke-opacity="0.200000" d="M676.29,-77C686.34,-77 698.12,-77 709.51,-77"/>
<polygon fill="#000000" fill-opacity="0.200000" stroke="#000000" stroke-width="2" stroke-opacity="0.200000" points="709.5,-79.1 715.5,-77 709.5,-74.9 709.5,-79.1"/>
</g>
<!-- src/ConfigApp/contextProvider.tsx -->
<g id="node6" class="node">
<title>src/ConfigApp/contextProvider.tsx</title>
<g id="a_node6"><a xlink:href="src/ConfigApp/contextProvider.tsx" xlink:title="contextProvider.tsx">
<path fill="#bbfeff" stroke="black" d="M898.33,-85.88C898.33,-85.88 816.92,-85.88 816.92,-85.88 813.96,-85.88 811,-82.92 811,-79.96 811,-79.96 811,-74.04 811,-74.04 811,-71.08 813.96,-68.12 816.92,-68.12 816.92,-68.12 898.33,-68.12 898.33,-68.12 901.29,-68.12 904.25,-71.08 904.25,-74.04 904.25,-74.04 904.25,-79.96 904.25,-79.96 904.25,-82.92 901.29,-85.88 898.33,-85.88"/>
<text text-anchor="start" x="819" y="-73.33" font-family="Helvetica,sans-Serif" font-size="9.00">contextProvider.tsx</text>
</a>
</g>
</g>
<!-- src/ConfigApp/index.tsx&#45;&gt;src/ConfigApp/contextProvider.tsx -->
<g id="edge7" class="edge">
<title>src/ConfigApp/index.tsx&#45;&gt;src/ConfigApp/contextProvider.tsx</title>
<path fill="none" stroke="#000000" stroke-width="2" stroke-opacity="0.200000" d="M659.69,-67.91C672.3,-56.91 695.39,-39.01 719,-32 754.79,-21.38 767.92,-19.23 803,-32 819.11,-37.87 833.75,-50.93 843.65,-61.49"/>
<polygon fill="#000000" fill-opacity="0.200000" stroke="#000000" stroke-width="2" stroke-opacity="0.200000" points="841.85,-62.63 847.42,-65.7 844.98,-59.83 841.85,-62.63"/>
</g>
<!-- src/DynoApp/DynoApp.tsx&#45;&gt;src/ConfigApp/index.tsx -->
<g id="edge10" class="edge">
<title>src/DynoApp/DynoApp.tsx&#45;&gt;src/ConfigApp/index.tsx</title>
<path fill="none" stroke="#000000" stroke-width="2" stroke-opacity="0.200000" d="M284.07,-152.33C290.91,-154.58 298.41,-156.7 305.5,-158 364.61,-168.87 530.57,-187.63 575.75,-148 586.45,-138.62 575.33,-128.47 583.75,-117 592.07,-105.65 604.68,-96.79 616.51,-90.33"/>
<polygon fill="#000000" fill-opacity="0.200000" stroke="#000000" stroke-width="2" stroke-opacity="0.200000" points="617.44,-92.21 621.83,-87.61 615.53,-88.47 617.44,-92.21"/>
</g>
<!-- src/common/index.tsx -->
<g id="node8" class="node">
<title>src/common/index.tsx</title>
<g id="a_node8"><a xlink:href="src/common/index.tsx" xlink:title="index.tsx">
<path fill="#bbfeff" stroke="black" d="M669.96,-205.88C669.96,-205.88 627.79,-205.88 627.79,-205.88 624.83,-205.88 621.88,-202.92 621.88,-199.96 621.88,-199.96 621.88,-194.04 621.88,-194.04 621.88,-191.08 624.83,-188.12 627.79,-188.12 627.79,-188.12 669.96,-188.12 669.96,-188.12 672.92,-188.12 675.88,-191.08 675.88,-194.04 675.88,-194.04 675.88,-199.96 675.88,-199.96 675.88,-202.92 672.92,-205.88 669.96,-205.88"/>
<text text-anchor="start" x="630.88" y="-193.32" font-family="Helvetica,sans-Serif" font-size="9.00">index.tsx</text>
</a>
</g>
</g>
<!-- src/DynoApp/DynoApp.tsx&#45;&gt;src/common/index.tsx -->
<g id="edge9" class="edge">
<title>src/DynoApp/DynoApp.tsx&#45;&gt;src/common/index.tsx</title>
<path fill="none" stroke="#000000" stroke-width="2" stroke-opacity="0.200000" d="M270.1,-152.11C278.9,-159.18 292.15,-168.51 305.5,-173 412.89,-209.13 549.64,-204.83 612.88,-200.23"/>
<polygon fill="#000000" fill-opacity="0.200000" stroke="#000000" stroke-width="2" stroke-opacity="0.200000" points="612.83,-202.34 618.65,-199.78 612.51,-198.15 612.83,-202.34"/>
</g>
<!-- src/DynoApp/DynoList.tsx -->
<g id="node9" class="node">
<title>src/DynoApp/DynoList.tsx</title>
<g id="a_node9"><a xlink:href="src/DynoApp/DynoList.tsx" xlink:title="DynoList.tsx">
<path fill="#bbfeff" stroke="black" d="M367.71,-151.88C367.71,-151.88 314.04,-151.88 314.04,-151.88 311.08,-151.88 308.12,-148.92 308.12,-145.96 308.12,-145.96 308.12,-140.04 308.12,-140.04 308.12,-137.08 311.08,-134.12 314.04,-134.12 314.04,-134.12 367.71,-134.12 367.71,-134.12 370.67,-134.12 373.62,-137.08 373.62,-140.04 373.62,-140.04 373.62,-145.96 373.62,-145.96 373.62,-148.92 370.67,-151.88 367.71,-151.88"/>
<text text-anchor="start" x="316.12" y="-139.32" font-family="Helvetica,sans-Serif" font-size="9.00">DynoList.tsx</text>
</a>
</g>
</g>
<!-- src/DynoApp/DynoApp.tsx&#45;&gt;src/DynoApp/DynoList.tsx -->
<g id="edge11" class="edge">
<title>src/DynoApp/DynoApp.tsx&#45;&gt;src/DynoApp/DynoList.tsx</title>
<path fill="none" stroke="#000000" stroke-width="2" stroke-opacity="0.200000" d="M292.73,-143C294.76,-143 296.82,-143 298.89,-143"/>
<polygon fill="#000000" fill-opacity="0.200000" stroke="#000000" stroke-width="2" stroke-opacity="0.200000" points="298.85,-145.1 304.85,-143 298.85,-140.9 298.85,-145.1"/>
</g>
<!-- src/DynoApp/EditModal.tsx -->
<g id="node10" class="node">
<title>src/DynoApp/EditModal.tsx</title>
<g id="a_node10"><a xlink:href="src/DynoApp/EditModal.tsx" xlink:title="EditModal.tsx">
<path fill="#bbfeff" stroke="black" d="M370.33,-114.88C370.33,-114.88 311.42,-114.88 311.42,-114.88 308.46,-114.88 305.5,-111.92 305.5,-108.96 305.5,-108.96 305.5,-103.04 305.5,-103.04 305.5,-100.08 308.46,-97.12 311.42,-97.12 311.42,-97.12 370.33,-97.12 370.33,-97.12 373.29,-97.12 376.25,-100.08 376.25,-103.04 376.25,-103.04 376.25,-108.96 376.25,-108.96 376.25,-111.92 373.29,-114.88 370.33,-114.88"/>
<text text-anchor="start" x="313.5" y="-102.33" font-family="Helvetica,sans-Serif" font-size="9.00">EditModal.tsx</text>
</a>
</g>
</g>
<!-- src/DynoApp/DynoApp.tsx&#45;&gt;src/DynoApp/EditModal.tsx -->
<g id="edge12" class="edge">
<title>src/DynoApp/DynoApp.tsx&#45;&gt;src/DynoApp/EditModal.tsx</title>
<path fill="none" stroke="#000000" stroke-width="2" stroke-opacity="0.200000" d="M283.79,-133.74C286.74,-132.52 289.7,-131.26 292.5,-130 299.75,-126.74 307.5,-122.95 314.58,-119.36"/>
<polygon fill="#000000" fill-opacity="0.200000" stroke="#000000" stroke-width="2" stroke-opacity="0.200000" points="315.44,-121.27 319.82,-116.66 313.52,-117.54 315.44,-121.27"/>
</g>
<!-- src/ConfigApp/ErrorCenter.tsx&#45;&gt;src/ConfigApp/contextProvider.tsx -->
<g id="edge3" class="edge">
<title>src/ConfigApp/ErrorCenter.tsx&#45;&gt;src/ConfigApp/contextProvider.tsx</title>
<g id="a_edge3"><a xlink:title="no&#45;circular">
<path fill="none" stroke="orange" stroke-width="2" d="M796.87,-72.6C797.01,-72.6 797.15,-72.59 797.29,-72.59"/>
<polygon fill="orange" stroke="orange" stroke-width="2" points="801.61,-74.66 807.59,-72.53 801.58,-70.46 801.61,-74.66"/>
<polyline fill="none" stroke="orange" stroke-width="2" points="800.59,-72.57 797.59,-72.59"/>
<ellipse fill="none" stroke="orange" stroke-width="2" cx="794.19" cy="-72.61" rx="2.4" ry="2.4"/>
</a>
</g>
<text text-anchor="middle" x="819.02" y="-64.04" font-family="Helvetica,sans-Serif" font-size="9.00" fill="orange">no&#45;circular</text>
</g>
<!-- src/ConfigApp/contextProvider.tsx&#45;&gt;src/ConfigApp/ErrorCenter.tsx -->
<g id="edge5" class="edge">
<title>src/ConfigApp/contextProvider.tsx&#45;&gt;src/ConfigApp/ErrorCenter.tsx</title>
<g id="a_edge5"><a xlink:title="no&#45;circular">
<path fill="none" stroke="orange" stroke-width="2" d="M810.62,-81.49C810.48,-81.49 810.33,-81.49 810.19,-81.49"/>
<polygon fill="orange" stroke="orange" stroke-width="2" points="805.91,-79.36 799.9,-81.42 805.88,-83.56 805.91,-79.36"/>
<polyline fill="none" stroke="orange" stroke-width="2" points="806.9,-81.47 809.9,-81.49"/>
<ellipse fill="none" stroke="orange" stroke-width="2" cx="813.3" cy="-81.52" rx="2.4" ry="2.4"/>
</a>
</g>
<text text-anchor="middle" x="788.47" y="-82.69" font-family="Helvetica,sans-Serif" font-size="9.00" fill="orange">no&#45;circular</text>
</g>
<!-- src/clients/index.ts -->
<g id="node7" class="node">
<title>src/clients/index.ts</title>
<g id="a_node7"><a xlink:href="src/clients/index.ts" xlink:title="index.ts">
<path fill="#ddfeff" stroke="black" d="M976.33,-85.88C976.33,-85.88 934.17,-85.88 934.17,-85.88 931.21,-85.88 928.25,-82.92 928.25,-79.96 928.25,-79.96 928.25,-74.04 928.25,-74.04 928.25,-71.08 931.21,-68.12 934.17,-68.12 934.17,-68.12 976.33,-68.12 976.33,-68.12 979.29,-68.12 982.25,-71.08 982.25,-74.04 982.25,-74.04 982.25,-79.96 982.25,-79.96 982.25,-82.92 979.29,-85.88 976.33,-85.88"/>
<text text-anchor="start" x="939.5" y="-73.33" font-family="Helvetica,sans-Serif" font-size="9.00">index.ts</text>
</a>
</g>
</g>
<!-- src/ConfigApp/contextProvider.tsx&#45;&gt;src/clients/index.ts -->
<g id="edge4" class="edge">
<title>src/ConfigApp/contextProvider.tsx&#45;&gt;src/clients/index.ts</title>
<path fill="none" stroke="#000000" stroke-width="2" stroke-opacity="0.200000" d="M904.48,-77C909.38,-77 914.32,-77 919.07,-77"/>
<polygon fill="#000000" fill-opacity="0.200000" stroke="#000000" stroke-width="2" stroke-opacity="0.200000" points="918.92,-79.1 924.92,-77 918.92,-74.9 918.92,-79.1"/>
</g>
<!-- src/common/MultiSelect.tsx -->
<g id="node18" class="node">
<title>src/common/MultiSelect.tsx</title>
<g id="a_node18"><a xlink:href="src/common/MultiSelect.tsx" xlink:title="MultiSelect.tsx">
<path fill="#bbfeff" stroke="black" d="M789.08,-205.88C789.08,-205.88 726.42,-205.88 726.42,-205.88 723.46,-205.88 720.5,-202.92 720.5,-199.96 720.5,-199.96 720.5,-194.04 720.5,-194.04 720.5,-191.08 723.46,-188.12 726.42,-188.12 726.42,-188.12 789.08,-188.12 789.08,-188.12 792.04,-188.12 795,-191.08 795,-194.04 795,-194.04 795,-199.96 795,-199.96 795,-202.92 792.04,-205.88 789.08,-205.88"/>
<text text-anchor="start" x="728.5" y="-193.32" font-family="Helvetica,sans-Serif" font-size="9.00">MultiSelect.tsx</text>
</a>
</g>
</g>
<!-- src/common/index.tsx&#45;&gt;src/common/MultiSelect.tsx -->
<g id="edge21" class="edge">
<title>src/common/index.tsx&#45;&gt;src/common/MultiSelect.tsx</title>
<path fill="none" stroke="#000000" stroke-width="2" stroke-opacity="0.200000" d="M676.29,-197C686.83,-197 699.28,-197 711.19,-197"/>
<polygon fill="#000000" fill-opacity="0.200000" stroke="#000000" stroke-width="2" stroke-opacity="0.200000" points="711.13,-199.1 717.13,-197 711.13,-194.9 711.13,-199.1"/>
</g>
<!-- src/DynoApp/utils.ts -->
<g id="node13" class="node">
<title>src/DynoApp/utils.ts</title>
<g id="a_node13"><a xlink:href="src/DynoApp/utils.ts" xlink:title="utils.ts">
<path fill="#ddfeff" stroke="black" d="M542.21,-141.88C542.21,-141.88 500.04,-141.88 500.04,-141.88 497.08,-141.88 494.12,-138.92 494.12,-135.96 494.12,-135.96 494.12,-130.04 494.12,-130.04 494.12,-127.08 497.08,-124.12 500.04,-124.12 500.04,-124.12 542.21,-124.12 542.21,-124.12 545.17,-124.12 548.12,-127.08 548.12,-130.04 548.12,-130.04 548.12,-135.96 548.12,-135.96 548.12,-138.92 545.17,-141.88 542.21,-141.88"/>
<text text-anchor="start" x="508.38" y="-129.32" font-family="Helvetica,sans-Serif" font-size="9.00">utils.ts</text>
</a>
</g>
</g>
<!-- src/DynoApp/DynoList.tsx&#45;&gt;src/DynoApp/utils.ts -->
<g id="edge19" class="edge">
<title>src/DynoApp/DynoList.tsx&#45;&gt;src/DynoApp/utils.ts</title>
<path fill="none" stroke="#000000" stroke-width="2" stroke-opacity="0.200000" d="M374.07,-134.49C379.12,-133.46 384.3,-132.57 389.25,-132 421.46,-128.31 458.42,-129.04 484.83,-130.42"/>
<polygon fill="#000000" fill-opacity="0.200000" stroke="#000000" stroke-width="2" stroke-opacity="0.200000" points="484.57,-132.51 490.68,-130.75 484.81,-128.31 484.57,-132.51"/>
</g>
<!-- src/DynoApp/DynoRow.tsx -->
<g id="node14" class="node">
<title>src/DynoApp/DynoRow.tsx</title>
<g id="a_node14"><a xlink:href="src/DynoApp/DynoRow.tsx" xlink:title="DynoRow.tsx">
<path fill="#bbfeff" stroke="black" d="M454.08,-155.88C454.08,-155.88 396.67,-155.88 396.67,-155.88 393.71,-155.88 390.75,-152.92 390.75,-149.96 390.75,-149.96 390.75,-144.04 390.75,-144.04 390.75,-141.08 393.71,-138.12 396.67,-138.12 396.67,-138.12 454.08,-138.12 454.08,-138.12 457.04,-138.12 460,-141.08 460,-144.04 460,-144.04 460,-149.96 460,-149.96 460,-152.92 457.04,-155.88 454.08,-155.88"/>
<text text-anchor="start" x="398.75" y="-143.32" font-family="Helvetica,sans-Serif" font-size="9.00">DynoRow.tsx</text>
</a>
</g>
</g>
<!-- src/DynoApp/DynoList.tsx&#45;&gt;src/DynoApp/DynoRow.tsx -->
<g id="edge18" class="edge">
<title>src/DynoApp/DynoList.tsx&#45;&gt;src/DynoApp/DynoRow.tsx</title>
<path fill="none" stroke="#000000" stroke-width="2" stroke-opacity="0.200000" d="M374.01,-144.56C376.43,-144.68 378.89,-144.79 381.36,-144.91"/>
<polygon fill="#000000" fill-opacity="0.200000" stroke="#000000" stroke-width="2" stroke-opacity="0.200000" points="381.17,-147.01 387.26,-145.2 381.37,-142.81 381.17,-147.01"/>
</g>
<!-- src/DynoApp/DynoForm.tsx -->
<g id="node12" class="node">
<title>src/DynoApp/DynoForm.tsx</title>
<g id="a_node12"><a xlink:href="src/DynoApp/DynoForm.tsx" xlink:title="DynoForm.tsx">
<path fill="#bbfeff" stroke="black" d="M455.58,-111.88C455.58,-111.88 395.17,-111.88 395.17,-111.88 392.21,-111.88 389.25,-108.92 389.25,-105.96 389.25,-105.96 389.25,-100.04 389.25,-100.04 389.25,-97.08 392.21,-94.12 395.17,-94.12 395.17,-94.12 455.58,-94.12 455.58,-94.12 458.54,-94.12 461.5,-97.08 461.5,-100.04 461.5,-100.04 461.5,-105.96 461.5,-105.96 461.5,-108.92 458.54,-111.88 455.58,-111.88"/>
<text text-anchor="start" x="397.25" y="-99.33" font-family="Helvetica,sans-Serif" font-size="9.00">DynoForm.tsx</text>
</a>
</g>
</g>
<!-- src/DynoApp/EditModal.tsx&#45;&gt;src/DynoApp/DynoForm.tsx -->
<g id="edge20" class="edge">
<title>src/DynoApp/EditModal.tsx&#45;&gt;src/DynoApp/DynoForm.tsx</title>
<path fill="none" stroke="#000000" stroke-width="2" stroke-opacity="0.200000" d="M376.38,-104.75C377.68,-104.7 378.99,-104.65 380.3,-104.6"/>
<polygon fill="#000000" fill-opacity="0.200000" stroke="#000000" stroke-width="2" stroke-opacity="0.200000" points="380,-106.72 385.92,-104.4 379.85,-102.52 380,-106.72"/>
</g>
<!-- src/DynoApp/DynoArrayField.tsx -->
<g id="node11" class="node">
<title>src/DynoApp/DynoArrayField.tsx</title>
<g id="a_node11"><a xlink:href="src/DynoApp/DynoArrayField.tsx" xlink:title="DynoArrayField.tsx">
<path fill="#bbfeff" stroke="black" d="M561.83,-111.88C561.83,-111.88 480.42,-111.88 480.42,-111.88 477.46,-111.88 474.5,-108.92 474.5,-105.96 474.5,-105.96 474.5,-100.04 474.5,-100.04 474.5,-97.08 477.46,-94.12 480.42,-94.12 480.42,-94.12 561.83,-94.12 561.83,-94.12 564.79,-94.12 567.75,-97.08 567.75,-100.04 567.75,-100.04 567.75,-105.96 567.75,-105.96 567.75,-108.92 564.79,-111.88 561.83,-111.88"/>
<text text-anchor="start" x="482.5" y="-99.33" font-family="Helvetica,sans-Serif" font-size="9.00">DynoArrayField.tsx</text>
</a>
</g>
</g>
<!-- src/DynoApp/DynoArrayField.tsx&#45;&gt;src/ConfigApp/index.tsx -->
<g id="edge14" class="edge">
<title>src/DynoApp/DynoArrayField.tsx&#45;&gt;src/ConfigApp/index.tsx</title>
<path fill="none" stroke="#000000" stroke-width="2" stroke-opacity="0.200000" d="M567.17,-93.69C582.23,-90.57 598.77,-87.15 612.94,-84.22"/>
<polygon fill="#000000" fill-opacity="0.200000" stroke="#000000" stroke-width="2" stroke-opacity="0.200000" points="613,-86.35 618.45,-83.08 612.15,-82.24 613,-86.35"/>
</g>
<!-- src/DynoApp/DynoArrayField.tsx&#45;&gt;src/common/index.tsx -->
<g id="edge13" class="edge">
<title>src/DynoApp/DynoArrayField.tsx&#45;&gt;src/common/index.tsx</title>
<path fill="none" stroke="#000000" stroke-width="2" stroke-opacity="0.200000" d="M567.83,-111.35C570.79,-113.17 573.48,-115.36 575.75,-118 594.46,-139.72 564.58,-160.69 583.75,-182 591.1,-190.17 601.97,-194.32 612.67,-196.31"/>
<polygon fill="#000000" fill-opacity="0.200000" stroke="#000000" stroke-width="2" stroke-opacity="0.200000" points="612.32,-198.39 618.55,-197.12 612.89,-194.22 612.32,-198.39"/>
</g>
<!-- src/DynoApp/DynoForm.tsx&#45;&gt;src/ConfigApp/index.tsx -->
<g id="edge15" class="edge">
<title>src/DynoApp/DynoForm.tsx&#45;&gt;src/ConfigApp/index.tsx</title>
<path fill="none" stroke="#000000" stroke-width="2" stroke-opacity="0.200000" d="M452.32,-93.67C459.42,-91.46 467.19,-89.35 474.5,-88 521.74,-79.27 577.3,-77.15 612.55,-76.79"/>
<polygon fill="#000000" fill-opacity="0.200000" stroke="#000000" stroke-width="2" stroke-opacity="0.200000" points="612.48,-78.89 618.47,-76.75 612.45,-74.69 612.48,-78.89"/>
</g>
<!-- src/DynoApp/DynoForm.tsx&#45;&gt;src/DynoApp/DynoArrayField.tsx -->
<g id="edge16" class="edge">
<title>src/DynoApp/DynoForm.tsx&#45;&gt;src/DynoApp/DynoArrayField.tsx</title>
<path fill="none" stroke="#000000" stroke-width="2" stroke-opacity="0.200000" d="M461.82,-103C462.96,-103 464.1,-103 465.26,-103"/>
<polygon fill="#000000" fill-opacity="0.200000" stroke="#000000" stroke-width="2" stroke-opacity="0.200000" points="465.16,-105.1 471.16,-103 465.16,-100.9 465.16,-105.1"/>
</g>
<!-- src/DynoApp/DynoForm.tsx&#45;&gt;src/DynoApp/utils.ts -->
<g id="edge17" class="edge">
<title>src/DynoApp/DynoForm.tsx&#45;&gt;src/DynoApp/utils.ts</title>
<path fill="none" stroke="#000000" stroke-width="2" stroke-opacity="0.200000" d="M455.52,-112.33C465,-115.36 475.62,-118.76 485.46,-121.91"/>
<polygon fill="#000000" fill-opacity="0.200000" stroke="#000000" stroke-width="2" stroke-opacity="0.200000" points="484.62,-123.84 490.98,-123.67 485.9,-119.84 484.62,-123.84"/>
</g>
<!-- src/__List.tsx -->
<g id="node15" class="node">
<title>src/__List.tsx</title>
<g id="a_node15"><a xlink:href="src/__List.tsx" xlink:title="no&#45;orphans">
<path fill="#ccffcc" stroke="orange" d="M81.96,-207.88C81.96,-207.88 39.54,-207.88 39.54,-207.88 36.58,-207.88 33.62,-204.92 33.62,-201.96 33.62,-201.96 33.62,-196.04 33.62,-196.04 33.62,-193.08 36.58,-190.12 39.54,-190.12 39.54,-190.12 81.96,-190.12 81.96,-190.12 84.92,-190.12 87.88,-193.08 87.88,-196.04 87.88,-196.04 87.88,-201.96 87.88,-201.96 87.88,-204.92 84.92,-207.88 81.96,-207.88"/>
<text text-anchor="start" x="41.62" y="-195.32" font-family="Helvetica,sans-Serif" font-size="9.00" fill="orange">__List.tsx</text>
</a>
</g>
</g>
<!-- src/common/DebouncedTextField.tsx -->
<g id="node16" class="node">
<title>src/common/DebouncedTextField.tsx</title>
<g id="a_node16"><a xlink:href="src/common/DebouncedTextField.tsx" xlink:title="no&#45;orphans">
<path fill="#ccffcc" stroke="orange" d="M700.08,-175.88C700.08,-175.88 597.67,-175.88 597.67,-175.88 594.71,-175.88 591.75,-172.92 591.75,-169.96 591.75,-169.96 591.75,-164.04 591.75,-164.04 591.75,-161.08 594.71,-158.12 597.67,-158.12 597.67,-158.12 700.08,-158.12 700.08,-158.12 703.04,-158.12 706,-161.08 706,-164.04 706,-164.04 706,-169.96 706,-169.96 706,-172.92 703.04,-175.88 700.08,-175.88"/>
<text text-anchor="start" x="599.75" y="-163.32" font-family="Helvetica,sans-Serif" font-size="9.00" fill="orange">DebouncedTextField.tsx</text>
</a>
</g>
</g>
<!-- src/common/ErrorCenter.tsx -->
<g id="node17" class="node">
<title>src/common/ErrorCenter.tsx</title>
<g id="a_node17"><a xlink:href="src/common/ErrorCenter.tsx" xlink:title="no&#45;orphans">
<path fill="#ccffcc" stroke="orange" d="M681.71,-145.88C681.71,-145.88 616.04,-145.88 616.04,-145.88 613.08,-145.88 610.12,-142.92 610.12,-139.96 610.12,-139.96 610.12,-134.04 610.12,-134.04 610.12,-131.08 613.08,-128.12 616.04,-128.12 616.04,-128.12 681.71,-128.12 681.71,-128.12 684.67,-128.12 687.62,-131.08 687.62,-134.04 687.62,-134.04 687.62,-139.96 687.62,-139.96 687.62,-142.92 684.67,-145.88 681.71,-145.88"/>
<text text-anchor="start" x="618.12" y="-133.32" font-family="Helvetica,sans-Serif" font-size="9.00" fill="orange">ErrorCenter.tsx</text>
</a>
</g>
</g>
<!-- src/index.tsx -->
<g id="node19" class="node">
<title>src/index.tsx</title>
<g id="a_node19"><a xlink:href="src/index.tsx" xlink:title="index.tsx">
<path fill="#bbfeff" stroke="black" d="M81.83,-160.88C81.83,-160.88 39.67,-160.88 39.67,-160.88 36.71,-160.88 33.75,-157.92 33.75,-154.96 33.75,-154.96 33.75,-149.04 33.75,-149.04 33.75,-146.08 36.71,-143.12 39.67,-143.12 39.67,-143.12 81.83,-143.12 81.83,-143.12 84.79,-143.12 87.75,-146.08 87.75,-149.04 87.75,-149.04 87.75,-154.96 87.75,-154.96 87.75,-157.92 84.79,-160.88 81.83,-160.88"/>
<text text-anchor="start" x="42.75" y="-148.32" font-family="Helvetica,sans-Serif" font-size="9.00">index.tsx</text>
</a>
</g>
</g>
<!-- src/index.tsx&#45;&gt;src/App.tsx -->
<g id="edge22" class="edge">
<title>src/index.tsx&#45;&gt;src/App.tsx</title>
<path fill="none" stroke="#000000" stroke-width="2" stroke-opacity="0.200000" d="M87.99,-147.32C100.04,-145.17 114.5,-142.59 127.47,-140.27"/>
<polygon fill="#000000" fill-opacity="0.200000" stroke="#000000" stroke-width="2" stroke-opacity="0.200000" points="127.65,-142.37 133.19,-139.25 126.91,-138.24 127.65,-142.37"/>
</g>
<!-- src/reportWebVitals.ts -->
<g id="node20" class="node">
<title>src/reportWebVitals.ts</title>
<g id="a_node20"><a xlink:href="src/reportWebVitals.ts" xlink:title="reportWebVitals.ts">
<path fill="#ddfeff" stroke="black" d="M202.83,-172.88C202.83,-172.88 124.42,-172.88 124.42,-172.88 121.46,-172.88 118.5,-169.92 118.5,-166.96 118.5,-166.96 118.5,-161.04 118.5,-161.04 118.5,-158.08 121.46,-155.12 124.42,-155.12 124.42,-155.12 202.83,-155.12 202.83,-155.12 205.79,-155.12 208.75,-158.08 208.75,-161.04 208.75,-161.04 208.75,-166.96 208.75,-166.96 208.75,-169.92 205.79,-172.88 202.83,-172.88"/>
<text text-anchor="start" x="126.5" y="-160.32" font-family="Helvetica,sans-Serif" font-size="9.00">reportWebVitals.ts</text>
</a>
</g>
</g>
<!-- src/index.tsx&#45;&gt;src/reportWebVitals.ts -->
<g id="edge23" class="edge">
<title>src/index.tsx&#45;&gt;src/reportWebVitals.ts</title>
<path fill="none" stroke="#000000" stroke-width="2" stroke-opacity="0.200000" d="M87.99,-155.12C94.62,-155.91 101.98,-156.79 109.42,-157.67"/>
<polygon fill="#000000" fill-opacity="0.200000" stroke="#000000" stroke-width="2" stroke-opacity="0.200000" points="108.94,-159.73 115.15,-158.35 109.44,-155.56 108.94,-159.73"/>
</g>
<!-- src/react&#45;app&#45;env.d.ts -->
<g id="node21" class="node">
<title>src/react&#45;app&#45;env.d.ts</title>
<g id="a_node21"><a xlink:href="src/react-app-env.d.ts" xlink:title="react&#45;app&#45;env.d.ts">
<path fill="#ccffcc" stroke="black" d="M99.58,-112.88C99.58,-112.88 21.92,-112.88 21.92,-112.88 18.96,-112.88 16,-109.92 16,-106.96 16,-106.96 16,-101.04 16,-101.04 16,-98.08 18.96,-95.12 21.92,-95.12 21.92,-95.12 99.58,-95.12 99.58,-95.12 102.54,-95.12 105.5,-98.08 105.5,-101.04 105.5,-101.04 105.5,-106.96 105.5,-106.96 105.5,-109.92 102.54,-112.88 99.58,-112.88"/>
<text text-anchor="start" x="24" y="-100.33" font-family="Helvetica,sans-Serif" font-size="9.00">react&#45;app&#45;env.d.ts</text>
</a>
</g>
</g>
<!-- src/setupTests.ts -->
<g id="node22" class="node">
<title>src/setupTests.ts</title>
<g id="a_node22"><a xlink:href="src/setupTests.ts" xlink:title="setupTests.ts">
<path fill="#ccffcc" stroke="black" d="M89.08,-45.88C89.08,-45.88 32.42,-45.88 32.42,-45.88 29.46,-45.88 26.5,-42.92 26.5,-39.96 26.5,-39.96 26.5,-34.04 26.5,-34.04 26.5,-31.08 29.46,-28.12 32.42,-28.12 32.42,-28.12 89.08,-28.12 89.08,-28.12 92.04,-28.12 95,-31.08 95,-34.04 95,-34.04 95,-39.96 95,-39.96 95,-42.92 92.04,-45.88 89.08,-45.88"/>
<text text-anchor="start" x="34.5" y="-33.33" font-family="Helvetica,sans-Serif" font-size="9.00">setupTests.ts</text>
</a>
</g>
</g>
</g>
</svg>
