<?xml version="1.0" encoding="UTF-8" standalone="no"?>
<!DOCTYPE svg PUBLIC "-//W3C//DTD SVG 1.1//EN"
 "http://www.w3.org/Graphics/SVG/1.1/DTD/svg11.dtd">
<!-- Generated by graphviz version 9.0.0 (20230911.1827)
 -->
<!-- Title: dependency&#45;cruiser output Pages: 1 -->
<svg width="810pt" height="416pt"
 viewBox="0.00 0.00 809.50 416.00" xmlns="http://www.w3.org/2000/svg" xmlns:xlink="http://www.w3.org/1999/xlink">
<g id="graph0" class="graph" transform="scale(1 1) rotate(0) translate(4 412)">
<title>dependency&#45;cruiser output</title>
<polygon fill="white" stroke="none" points="-4,4 -4,-412 805.5,-412 805.5,4 -4,4"/>
<g id="clust1" class="cluster">
<title>cluster_src</title>
<path fill="#ffffff" stroke="black" stroke-width="2" d="M20,-8C20,-8 781.5,-8 781.5,-8 787.5,-8 793.5,-14 793.5,-20 793.5,-20 793.5,-388 793.5,-388 793.5,-394 787.5,-400 781.5,-400 781.5,-400 20,-400 20,-400 14,-400 8,-394 8,-388 8,-388 8,-20 8,-20 8,-14 14,-8 20,-8"/>
<text text-anchor="middle" x="400.75" y="-387.45" font-family="Helvetica,sans-Serif" font-weight="bold" font-size="9.00">src</text>
</g>
<g id="clust2" class="cluster">
<title>cluster_src/clients</title>
<path fill="#ffffff" stroke="black" stroke-width="2" d="M665.5,-132C665.5,-132 711.5,-132 711.5,-132 717.5,-132 723.5,-138 723.5,-144 723.5,-144 723.5,-172 723.5,-172 723.5,-178 717.5,-184 711.5,-184 711.5,-184 665.5,-184 665.5,-184 659.5,-184 653.5,-178 653.5,-172 653.5,-172 653.5,-144 653.5,-144 653.5,-138 659.5,-132 665.5,-132"/>
<text text-anchor="middle" x="688.5" y="-171.45" font-family="Helvetica,sans-Serif" font-weight="bold" font-size="9.00">clients</text>
</g>
<g id="clust3" class="cluster">
<title>cluster_src/common</title>
<path fill="#ffffff" stroke="black" stroke-width="2" d="M228.75,-52C228.75,-52 633.5,-52 633.5,-52 639.5,-52 645.5,-58 645.5,-64 645.5,-64 645.5,-182 645.5,-182 645.5,-188 639.5,-194 633.5,-194 633.5,-194 228.75,-194 228.75,-194 222.75,-194 216.75,-188 216.75,-182 216.75,-182 216.75,-64 216.75,-64 216.75,-58 222.75,-52 228.75,-52"/>
<text text-anchor="middle" x="431.12" y="-181.45" font-family="Helvetica,sans-Serif" font-weight="bold" font-size="9.00">common</text>
</g>
<g id="clust4" class="cluster">
<title>cluster_src/dynotable</title>
<path fill="#ffffff" stroke="black" stroke-width="2" d="M244.12,-292C244.12,-292 711.5,-292 711.5,-292 717.5,-292 723.5,-298 723.5,-304 723.5,-304 723.5,-362 723.5,-362 723.5,-368 717.5,-374 711.5,-374 711.5,-374 244.12,-374 244.12,-374 238.12,-374 232.12,-368 232.12,-362 232.12,-362 232.12,-304 232.12,-304 232.12,-298 238.12,-292 244.12,-292"/>
<text text-anchor="middle" x="477.81" y="-361.45" font-family="Helvetica,sans-Serif" font-weight="bold" font-size="9.00">dynotable</text>
</g>
<g id="clust5" class="cluster">
<title>cluster_src/fields</title>
<path fill="#ffffff" stroke="black" stroke-width="2" d="M557.62,-202C557.62,-202 624.12,-202 624.12,-202 630.12,-202 636.12,-208 636.12,-214 636.12,-214 636.12,-272 636.12,-272 636.12,-278 630.12,-284 624.12,-284 624.12,-284 557.62,-284 557.62,-284 551.62,-284 545.62,-278 545.62,-272 545.62,-272 545.62,-214 545.62,-214 545.62,-208 551.62,-202 557.62,-202"/>
<text text-anchor="middle" x="590.88" y="-271.45" font-family="Helvetica,sans-Serif" font-weight="bold" font-size="9.00">fields</text>
</g>
<!-- src/App.css -->
<g id="node1" class="node">
<title>src/App.css</title>
<g id="a_node1"><a xlink:href="src/App.css" xlink:title="App.css">
<path fill="#ffffcc" stroke="black" d="M302.96,-33.88C302.96,-33.88 260.79,-33.88 260.79,-33.88 257.83,-33.88 254.88,-30.92 254.88,-27.96 254.88,-27.96 254.88,-22.04 254.88,-22.04 254.88,-19.08 257.83,-16.12 260.79,-16.12 260.79,-16.12 302.96,-16.12 302.96,-16.12 305.92,-16.12 308.88,-19.08 308.88,-22.04 308.88,-22.04 308.88,-27.96 308.88,-27.96 308.88,-30.92 305.92,-33.88 302.96,-33.88"/>
<text text-anchor="start" x="265.75" y="-21.32" font-family="Helvetica,sans-Serif" font-size="9.00">App.css</text>
</a>
</g>
</g>
<!-- src/App.tsx -->
<g id="node2" class="node">
<title>src/App.tsx</title>
<g id="a_node2"><a xlink:href="src/App.tsx" xlink:title="App.tsx">
<path fill="#bbfeff" stroke="black" d="M184.71,-101.88C184.71,-101.88 142.54,-101.88 142.54,-101.88 139.58,-101.88 136.62,-98.92 136.62,-95.96 136.62,-95.96 136.62,-90.04 136.62,-90.04 136.62,-87.08 139.58,-84.12 142.54,-84.12 142.54,-84.12 184.71,-84.12 184.71,-84.12 187.67,-84.12 190.62,-87.08 190.62,-90.04 190.62,-90.04 190.62,-95.96 190.62,-95.96 190.62,-98.92 187.67,-101.88 184.71,-101.88"/>
<text text-anchor="start" x="148.62" y="-89.33" font-family="Helvetica,sans-Serif" font-size="9.00">App.tsx</text>
</a>
</g>
</g>
<!-- src/App.tsx&#45;&gt;src/App.css -->
<g id="edge1" class="edge">
<title>src/App.tsx&#45;&gt;src/App.css</title>
<path fill="none" stroke="#000000" stroke-width="2" stroke-opacity="0.200000" d="M171.73,-83.84C180.93,-72.59 198.02,-53.7 216.75,-43 225.59,-37.95 235.93,-34.24 245.7,-31.55"/>
<polygon fill="#000000" fill-opacity="0.200000" stroke="#000000" stroke-width="2" stroke-opacity="0.200000" points="246.21,-33.59 251.52,-30.1 245.19,-29.52 246.21,-33.59"/>
</g>
<!-- src/common/ConfigForm.tsx -->
<g id="node3" class="node">
<title>src/common/ConfigForm.tsx</title>
<g id="a_node3"><a xlink:href="src/common/ConfigForm.tsx" xlink:title="ConfigForm.tsx">
<path fill="#bbfeff" stroke="black" d="M314.71,-107.88C314.71,-107.88 249.04,-107.88 249.04,-107.88 246.08,-107.88 243.12,-104.92 243.12,-101.96 243.12,-101.96 243.12,-96.04 243.12,-96.04 243.12,-93.08 246.08,-90.12 249.04,-90.12 249.04,-90.12 314.71,-90.12 314.71,-90.12 317.67,-90.12 320.62,-93.08 320.62,-96.04 320.62,-96.04 320.62,-101.96 320.62,-101.96 320.62,-104.92 317.67,-107.88 314.71,-107.88"/>
<text text-anchor="start" x="251.12" y="-95.33" font-family="Helvetica,sans-Serif" font-size="9.00">ConfigForm.tsx</text>
</a>
</g>
</g>
<!-- src/App.tsx&#45;&gt;src/common/ConfigForm.tsx -->
<g id="edge2" class="edge">
<title>src/App.tsx&#45;&gt;src/common/ConfigForm.tsx</title>
<path fill="none" stroke="#000000" stroke-width="2" stroke-opacity="0.200000" d="M191,-94.36C203.65,-95.01 219.19,-95.82 233.77,-96.57"/>
<polygon fill="#000000" fill-opacity="0.200000" stroke="#000000" stroke-width="2" stroke-opacity="0.200000" points="233.57,-98.66 239.67,-96.87 233.79,-94.47 233.57,-98.66"/>
</g>
<!-- src/common/contextProvider.tsx -->
<g id="node4" class="node">
<title>src/common/contextProvider.tsx</title>
<g id="a_node4"><a xlink:href="src/common/contextProvider.tsx" xlink:title="contextProvider.tsx">
<path fill="#bbfeff" stroke="black" d="M631.58,-145.88C631.58,-145.88 550.17,-145.88 550.17,-145.88 547.21,-145.88 544.25,-142.92 544.25,-139.96 544.25,-139.96 544.25,-134.04 544.25,-134.04 544.25,-131.08 547.21,-128.12 550.17,-128.12 550.17,-128.12 631.58,-128.12 631.58,-128.12 634.54,-128.12 637.5,-131.08 637.5,-134.04 637.5,-134.04 637.5,-139.96 637.5,-139.96 637.5,-142.92 634.54,-145.88 631.58,-145.88"/>
<text text-anchor="start" x="552.25" y="-133.32" font-family="Helvetica,sans-Serif" font-size="9.00">contextProvider.tsx</text>
</a>
</g>
</g>
<!-- src/App.tsx&#45;&gt;src/common/contextProvider.tsx -->
<g id="edge3" class="edge">
<title>src/App.tsx&#45;&gt;src/common/contextProvider.tsx</title>
<path fill="none" stroke="#000000" stroke-width="2" stroke-opacity="0.200000" d="M173.17,-83.78C182.72,-74.21 199.16,-59.85 216.75,-54 268.31,-36.85 285.04,-47.63 339,-54 426.25,-64.29 450.29,-65.87 531.25,-100 545.31,-105.93 559.82,-115.05 570.88,-122.76"/>
<polygon fill="#000000" fill-opacity="0.200000" stroke="#000000" stroke-width="2" stroke-opacity="0.200000" points="569.38,-124.27 575.48,-126.05 571.83,-120.85 569.38,-124.27"/>
</g>
<!-- src/dynotable/DynoPage.tsx -->
<g id="node5" class="node">
<title>src/dynotable/DynoPage.tsx</title>
<g id="a_node5"><a xlink:href="src/dynotable/DynoPage.tsx" xlink:title="DynoPage.tsx">
<path fill="#bbfeff" stroke="black" d="M312.46,-347.88C312.46,-347.88 251.29,-347.88 251.29,-347.88 248.33,-347.88 245.38,-344.92 245.38,-341.96 245.38,-341.96 245.38,-336.04 245.38,-336.04 245.38,-333.08 248.33,-330.12 251.29,-330.12 251.29,-330.12 312.46,-330.12 312.46,-330.12 315.42,-330.12 318.38,-333.08 318.38,-336.04 318.38,-336.04 318.38,-341.96 318.38,-341.96 318.38,-344.92 315.42,-347.88 312.46,-347.88"/>
<text text-anchor="start" x="253.38" y="-335.32" font-family="Helvetica,sans-Serif" font-size="9.00">DynoPage.tsx</text>
</a>
</g>
</g>
<!-- src/App.tsx&#45;&gt;src/dynotable/DynoPage.tsx -->
<g id="edge4" class="edge">
<title>src/App.tsx&#45;&gt;src/dynotable/DynoPage.tsx</title>
<path fill="none" stroke="#000000" stroke-width="2" stroke-opacity="0.200000" d="M190.74,-96.37C197.66,-98.57 204.4,-102.16 208.75,-108 223.09,-127.26 201.48,-305.46 216.75,-324 221.82,-330.16 228.89,-334.07 236.49,-336.51"/>
<polygon fill="#000000" fill-opacity="0.200000" stroke="#000000" stroke-width="2" stroke-opacity="0.200000" points="235.62,-338.45 241.95,-337.88 236.64,-334.38 235.62,-338.45"/>
</g>
<!-- src/types.ts -->
<g id="node8" class="node">
<title>src/types.ts</title>
<g id="a_node8"><a xlink:href="src/types.ts" xlink:title="types.ts">
<path fill="#ddfeff" stroke="black" d="M779.58,-257.88C779.58,-257.88 737.42,-257.88 737.42,-257.88 734.46,-257.88 731.5,-254.92 731.5,-251.96 731.5,-251.96 731.5,-246.04 731.5,-246.04 731.5,-243.08 734.46,-240.12 737.42,-240.12 737.42,-240.12 779.58,-240.12 779.58,-240.12 782.54,-240.12 785.5,-243.08 785.5,-246.04 785.5,-246.04 785.5,-251.96 785.5,-251.96 785.5,-254.92 782.54,-257.88 779.58,-257.88"/>
<text text-anchor="start" x="743.12" y="-245.32" font-family="Helvetica,sans-Serif" font-size="9.00">types.ts</text>
</a>
</g>
</g>
<!-- src/common/ConfigForm.tsx&#45;&gt;src/types.ts -->
<g id="edge6" class="edge">
<title>src/common/ConfigForm.tsx&#45;&gt;src/types.ts</title>
<path fill="none" stroke="#000000" stroke-width="2" stroke-opacity="0.200000" d="M320.84,-93C330.95,-91.55 341.87,-90.09 352,-89 413.8,-82.32 429.34,-79 491.5,-79 491.5,-79 491.5,-79 591.88,-79 650.48,-79 679.14,-48.69 723.5,-87 745.16,-105.7 753.69,-193.32 756.42,-231.33"/>
<polygon fill="#000000" fill-opacity="0.200000" stroke="#000000" stroke-width="2" stroke-opacity="0.200000" points="754.29,-230.99 756.79,-236.84 758.48,-230.71 754.29,-230.99"/>
</g>
<!-- src/clients/index.ts -->
<g id="node7" class="node">
<title>src/clients/index.ts</title>
<g id="a_node7"><a xlink:href="src/clients/index.ts" xlink:title="index.ts">
<path fill="#ddfeff" stroke="black" d="M709.58,-157.88C709.58,-157.88 667.42,-157.88 667.42,-157.88 664.46,-157.88 661.5,-154.92 661.5,-151.96 661.5,-151.96 661.5,-146.04 661.5,-146.04 661.5,-143.08 664.46,-140.12 667.42,-140.12 667.42,-140.12 709.58,-140.12 709.58,-140.12 712.54,-140.12 715.5,-143.08 715.5,-146.04 715.5,-146.04 715.5,-151.96 715.5,-151.96 715.5,-154.92 712.54,-157.88 709.58,-157.88"/>
<text text-anchor="start" x="672.75" y="-145.32" font-family="Helvetica,sans-Serif" font-size="9.00">index.ts</text>
</a>
</g>
</g>
<!-- src/common/contextProvider.tsx&#45;&gt;src/clients/index.ts -->
<g id="edge17" class="edge">
<title>src/common/contextProvider.tsx&#45;&gt;src/clients/index.ts</title>
<path fill="none" stroke="#000000" stroke-width="2" stroke-opacity="0.200000" d="M637.73,-142.75C642.63,-143.37 647.57,-143.99 652.32,-144.59"/>
<polygon fill="#000000" fill-opacity="0.200000" stroke="#000000" stroke-width="2" stroke-opacity="0.200000" points="651.97,-146.66 658.19,-145.32 652.5,-142.49 651.97,-146.66"/>
</g>
<!-- src/common/contextProvider.tsx&#45;&gt;src/types.ts -->
<g id="edge18" class="edge">
<title>src/common/contextProvider.tsx&#45;&gt;src/types.ts</title>
<path fill="none" stroke="#000000" stroke-width="2" stroke-opacity="0.200000" d="M637.86,-128.04C670.35,-122.83 710.35,-119.06 723.5,-129 739.79,-141.31 750.53,-200.61 755.06,-230.98"/>
<polygon fill="#000000" fill-opacity="0.200000" stroke="#000000" stroke-width="2" stroke-opacity="0.200000" points="752.95,-231.09 755.88,-236.73 757.11,-230.5 752.95,-231.09"/>
</g>
<!-- src/dynotable/DynoPage.tsx&#45;&gt;src/common/contextProvider.tsx -->
<g id="edge22" class="edge">
<title>src/dynotable/DynoPage.tsx&#45;&gt;src/common/contextProvider.tsx</title>
<path fill="none" stroke="#000000" stroke-width="2" stroke-opacity="0.200000" d="M318.72,-335.64C326.29,-333.36 333.61,-329.73 339,-324 358.89,-302.86 334.16,-282.9 352,-260 406.31,-190.3 453.93,-216.76 531.25,-174 543.96,-166.97 557.72,-158.34 568.71,-151.19"/>
<polygon fill="#000000" fill-opacity="0.200000" stroke="#000000" stroke-width="2" stroke-opacity="0.200000" points="569.78,-153 573.64,-147.95 567.47,-149.49 569.78,-153"/>
</g>
<!-- src/dynotable/DynoPage.tsx&#45;&gt;src/types.ts -->
<g id="edge25" class="edge">
<title>src/dynotable/DynoPage.tsx&#45;&gt;src/types.ts</title>
<path fill="none" stroke="#000000" stroke-width="2" stroke-opacity="0.200000" d="M318.55,-345.35C359.99,-352.15 430.46,-362 491.5,-362 491.5,-362 491.5,-362 591.88,-362 650.62,-362 677.4,-386.41 723.5,-350 748.91,-329.93 755.47,-290.1 757.07,-266.91"/>
<polygon fill="#000000" fill-opacity="0.200000" stroke="#000000" stroke-width="2" stroke-opacity="0.200000" points="759.16,-267.21 757.35,-261.12 754.97,-267.01 759.16,-267.21"/>
</g>
<!-- src/common/EditModal.tsx -->
<g id="node10" class="node">
<title>src/common/EditModal.tsx</title>
<g id="a_node10"><a xlink:href="src/common/EditModal.tsx" xlink:title="EditModal.tsx">
<path fill="#bbfeff" stroke="black" d="M311.33,-167.88C311.33,-167.88 252.42,-167.88 252.42,-167.88 249.46,-167.88 246.5,-164.92 246.5,-161.96 246.5,-161.96 246.5,-156.04 246.5,-156.04 246.5,-153.08 249.46,-150.12 252.42,-150.12 252.42,-150.12 311.33,-150.12 311.33,-150.12 314.29,-150.12 317.25,-153.08 317.25,-156.04 317.25,-156.04 317.25,-161.96 317.25,-161.96 317.25,-164.92 314.29,-167.88 311.33,-167.88"/>
<text text-anchor="start" x="254.5" y="-155.32" font-family="Helvetica,sans-Serif" font-size="9.00">EditModal.tsx</text>
</a>
</g>
</g>
<!-- src/dynotable/DynoPage.tsx&#45;&gt;src/common/EditModal.tsx -->
<g id="edge23" class="edge">
<title>src/dynotable/DynoPage.tsx&#45;&gt;src/common/EditModal.tsx</title>
<path fill="none" stroke="#000000" stroke-width="2" stroke-opacity="0.200000" d="M245.11,-339.36C230.81,-337.25 216.86,-331.56 212.75,-318 196.19,-263.29 242.24,-202.25 267.12,-174.38"/>
<polygon fill="#000000" fill-opacity="0.200000" stroke="#000000" stroke-width="2" stroke-opacity="0.200000" points="268.39,-176.11 270.89,-170.27 265.29,-173.27 268.39,-176.11"/>
</g>
<!-- src/fields/MultiSelect.tsx -->
<g id="node14" class="node">
<title>src/fields/MultiSelect.tsx</title>
<g id="a_node14"><a xlink:href="src/fields/MultiSelect.tsx" xlink:title="MultiSelect.tsx">
<path fill="#bbfeff" stroke="black" d="M622.21,-227.88C622.21,-227.88 559.54,-227.88 559.54,-227.88 556.58,-227.88 553.62,-224.92 553.62,-221.96 553.62,-221.96 553.62,-216.04 553.62,-216.04 553.62,-213.08 556.58,-210.12 559.54,-210.12 559.54,-210.12 622.21,-210.12 622.21,-210.12 625.17,-210.12 628.12,-213.08 628.12,-216.04 628.12,-216.04 628.12,-221.96 628.12,-221.96 628.12,-224.92 625.17,-227.88 622.21,-227.88"/>
<text text-anchor="start" x="561.62" y="-215.32" font-family="Helvetica,sans-Serif" font-size="9.00">MultiSelect.tsx</text>
</a>
</g>
</g>
<!-- src/dynotable/DynoPage.tsx&#45;&gt;src/fields/MultiSelect.tsx -->
<g id="edge24" class="edge">
<title>src/dynotable/DynoPage.tsx&#45;&gt;src/fields/MultiSelect.tsx</title>
<path fill="none" stroke="#000000" stroke-width="2" stroke-opacity="0.200000" d="M318.63,-334.34C325.94,-332.11 333.17,-328.82 339,-324 349.26,-315.51 342.08,-305.89 352,-297 366.94,-283.6 484.15,-248.93 548.28,-230.66"/>
<polygon fill="#000000" fill-opacity="0.200000" stroke="#000000" stroke-width="2" stroke-opacity="0.200000" points="548.47,-232.79 553.67,-229.13 547.33,-228.75 548.47,-232.79"/>
</g>
<!-- src/dynotable/Table.tsx -->
<g id="node19" class="node">
<title>src/dynotable/Table.tsx</title>
<g id="a_node19"><a xlink:href="src/dynotable/Table.tsx" xlink:title="Table.tsx">
<path fill="#bbfeff" stroke="black" d="M417.46,-320.88C417.46,-320.88 375.29,-320.88 375.29,-320.88 372.33,-320.88 369.38,-317.92 369.38,-314.96 369.38,-314.96 369.38,-309.04 369.38,-309.04 369.38,-306.08 372.33,-303.12 375.29,-303.12 375.29,-303.12 417.46,-303.12 417.46,-303.12 420.42,-303.12 423.38,-306.08 423.38,-309.04 423.38,-309.04 423.38,-314.96 423.38,-314.96 423.38,-317.92 420.42,-320.88 417.46,-320.88"/>
<text text-anchor="start" x="378.38" y="-308.32" font-family="Helvetica,sans-Serif" font-size="9.00">Table.tsx</text>
</a>
</g>
</g>
<!-- src/dynotable/DynoPage.tsx&#45;&gt;src/dynotable/Table.tsx -->
<g id="edge26" class="edge">
<title>src/dynotable/DynoPage.tsx&#45;&gt;src/dynotable/Table.tsx</title>
<path fill="none" stroke="#000000" stroke-width="2" stroke-opacity="0.200000" d="M318.78,-330.38C332.18,-327.17 347.36,-323.52 360.65,-320.33"/>
<polygon fill="#000000" fill-opacity="0.200000" stroke="#000000" stroke-width="2" stroke-opacity="0.200000" points="360.78,-322.46 366.13,-319.02 359.8,-318.38 360.78,-322.46"/>
</g>
<!-- src/__List.tsx -->
<g id="node6" class="node">
<title>src/__List.tsx</title>
<g id="a_node6"><a xlink:href="src/__List.tsx" xlink:title="no&#45;orphans">
<path fill="#ccffcc" stroke="orange" d="M81.96,-267.88C81.96,-267.88 39.54,-267.88 39.54,-267.88 36.58,-267.88 33.62,-264.92 33.62,-261.96 33.62,-261.96 33.62,-256.04 33.62,-256.04 33.62,-253.08 36.58,-250.12 39.54,-250.12 39.54,-250.12 81.96,-250.12 81.96,-250.12 84.92,-250.12 87.88,-253.08 87.88,-256.04 87.88,-256.04 87.88,-261.96 87.88,-261.96 87.88,-264.92 84.92,-267.88 81.96,-267.88"/>
<text text-anchor="start" x="41.62" y="-255.32" font-family="Helvetica,sans-Serif" font-size="9.00" fill="orange">__List.tsx</text>
</a>
</g>
</g>
<!-- src/clients/index.ts&#45;&gt;src/types.ts -->
<g id="edge5" class="edge">
<title>src/clients/index.ts&#45;&gt;src/types.ts</title>
<path fill="none" stroke="#000000" stroke-width="2" stroke-opacity="0.200000" d="M715.76,-156.38C718.59,-157.92 721.26,-159.77 723.5,-162 742.5,-180.86 751.14,-211.58 754.87,-231.02"/>
<polygon fill="#000000" fill-opacity="0.200000" stroke="#000000" stroke-width="2" stroke-opacity="0.200000" points="752.78,-231.25 755.86,-236.81 756.92,-230.54 752.78,-231.25"/>
</g>
<!-- src/common/DebouncedTextField.tsx -->
<g id="node9" class="node">
<title>src/common/DebouncedTextField.tsx</title>
<g id="a_node9"><a xlink:href="src/common/DebouncedTextField.tsx" xlink:title="no&#45;orphans">
<path fill="#ccffcc" stroke="orange" d="M333.08,-137.88C333.08,-137.88 230.67,-137.88 230.67,-137.88 227.71,-137.88 224.75,-134.92 224.75,-131.96 224.75,-131.96 224.75,-126.04 224.75,-126.04 224.75,-123.08 227.71,-120.12 230.67,-120.12 230.67,-120.12 333.08,-120.12 333.08,-120.12 336.04,-120.12 339,-123.08 339,-126.04 339,-126.04 339,-131.96 339,-131.96 339,-134.92 336.04,-137.88 333.08,-137.88"/>
<text text-anchor="start" x="232.75" y="-125.33" font-family="Helvetica,sans-Serif" font-size="9.00" fill="orange">DebouncedTextField.tsx</text>
</a>
</g>
</g>
<!-- src/common/EditModal.tsx&#45;&gt;src/types.ts -->
<g id="edge7" class="edge">
<title>src/common/EditModal.tsx&#45;&gt;src/types.ts</title>
<path fill="none" stroke="#000000" stroke-width="2" stroke-opacity="0.200000" d="M317.75,-154.14C325.27,-151.92 332.81,-148.69 339,-144 348.05,-137.13 342.79,-128.65 352,-122 403.35,-84.95 428.17,-93 491.5,-93 491.5,-93 491.5,-93 591.88,-93 651.51,-93 680.07,-78.14 723.5,-119 754.81,-148.46 758.66,-202.87 758.36,-231.04"/>
<polygon fill="#000000" fill-opacity="0.200000" stroke="#000000" stroke-width="2" stroke-opacity="0.200000" points="756.27,-230.75 758.2,-236.8 760.47,-230.86 756.27,-230.75"/>
</g>
<!-- src/common/ErrorCenter.tsx -->
<g id="node11" class="node">
<title>src/common/ErrorCenter.tsx</title>
<g id="a_node11"><a xlink:href="src/common/ErrorCenter.tsx" xlink:title="ErrorCenter.tsx">
<path fill="#bbfeff" stroke="black" d="M525.33,-123.88C525.33,-123.88 459.67,-123.88 459.67,-123.88 456.71,-123.88 453.75,-120.92 453.75,-117.96 453.75,-117.96 453.75,-112.04 453.75,-112.04 453.75,-109.08 456.71,-106.12 459.67,-106.12 459.67,-106.12 525.33,-106.12 525.33,-106.12 528.29,-106.12 531.25,-109.08 531.25,-112.04 531.25,-112.04 531.25,-117.96 531.25,-117.96 531.25,-120.92 528.29,-123.88 525.33,-123.88"/>
<text text-anchor="start" x="461.75" y="-111.33" font-family="Helvetica,sans-Serif" font-size="9.00">ErrorCenter.tsx</text>
</a>
</g>
</g>
<!-- src/common/EditModal.tsx&#45;&gt;src/common/ErrorCenter.tsx -->
<g id="edge8" class="edge">
<title>src/common/EditModal.tsx&#45;&gt;src/common/ErrorCenter.tsx</title>
<path fill="none" stroke="#000000" stroke-width="2" stroke-opacity="0.200000" d="M317.67,-151.39C328.65,-149 340.83,-146.37 352,-144 382.89,-137.44 417.67,-130.21 444.78,-124.61"/>
<polygon fill="#000000" fill-opacity="0.200000" stroke="#000000" stroke-width="2" stroke-opacity="0.200000" points="444.88,-126.73 450.33,-123.46 444.03,-122.62 444.88,-126.73"/>
</g>
<!-- src/common/SchemaForms.tsx -->
<g id="node12" class="node">
<title>src/common/SchemaForms.tsx</title>
<g id="a_node12"><a xlink:href="src/common/SchemaForms.tsx" xlink:title="SchemaForms.tsx">
<path fill="#bbfeff" stroke="black" d="M434.83,-167.88C434.83,-167.88 357.92,-167.88 357.92,-167.88 354.96,-167.88 352,-164.92 352,-161.96 352,-161.96 352,-156.04 352,-156.04 352,-153.08 354.96,-150.12 357.92,-150.12 357.92,-150.12 434.83,-150.12 434.83,-150.12 437.79,-150.12 440.75,-153.08 440.75,-156.04 440.75,-156.04 440.75,-161.96 440.75,-161.96 440.75,-164.92 437.79,-167.88 434.83,-167.88"/>
<text text-anchor="start" x="360" y="-155.32" font-family="Helvetica,sans-Serif" font-size="9.00">SchemaForms.tsx</text>
</a>
</g>
</g>
<!-- src/common/EditModal.tsx&#45;&gt;src/common/SchemaForms.tsx -->
<g id="edge9" class="edge">
<title>src/common/EditModal.tsx&#45;&gt;src/common/SchemaForms.tsx</title>
<path fill="none" stroke="#000000" stroke-width="2" stroke-opacity="0.200000" d="M317.55,-159C325.6,-159 334.34,-159 342.97,-159"/>
<polygon fill="#000000" fill-opacity="0.200000" stroke="#000000" stroke-width="2" stroke-opacity="0.200000" points="342.85,-161.1 348.85,-159 342.85,-156.9 342.85,-161.1"/>
</g>
<!-- src/common/ErrorCenter.tsx&#45;&gt;src/common/contextProvider.tsx -->
<g id="edge10" class="edge">
<title>src/common/ErrorCenter.tsx&#45;&gt;src/common/contextProvider.tsx</title>
<path fill="none" stroke="#000000" stroke-width="2" stroke-opacity="0.200000" d="M531.59,-123.69C534.43,-124.34 537.32,-125 540.22,-125.66"/>
<polygon fill="#000000" fill-opacity="0.200000" stroke="#000000" stroke-width="2" stroke-opacity="0.200000" points="539.62,-127.68 545.94,-126.97 540.56,-123.59 539.62,-127.68"/>
</g>
<!-- src/common/SchemaForms.tsx&#45;&gt;src/common/contextProvider.tsx -->
<g id="edge15" class="edge">
<title>src/common/SchemaForms.tsx&#45;&gt;src/common/contextProvider.tsx</title>
<path fill="none" stroke="#000000" stroke-width="2" stroke-opacity="0.200000" d="M427.85,-149.65C436.17,-147.44 445.25,-145.34 453.75,-144 480.3,-139.83 510.08,-137.98 535,-137.22"/>
<polygon fill="#000000" fill-opacity="0.200000" stroke="#000000" stroke-width="2" stroke-opacity="0.200000" points="534.97,-139.32 540.92,-137.06 534.86,-135.12 534.97,-139.32"/>
</g>
<!-- src/common/SchemaForms.tsx&#45;&gt;src/types.ts -->
<g id="edge14" class="edge">
<title>src/common/SchemaForms.tsx&#45;&gt;src/types.ts</title>
<path fill="none" stroke="#000000" stroke-width="2" stroke-opacity="0.200000" d="M429.7,-168.37C437.53,-170.43 445.9,-172.45 453.75,-174 538.07,-190.64 562.78,-175.68 645.5,-199 676.94,-207.86 710.92,-224.06 733.1,-235.61"/>
<polygon fill="#000000" fill-opacity="0.200000" stroke="#000000" stroke-width="2" stroke-opacity="0.200000" points="732.03,-237.43 738.32,-238.38 734,-233.71 732.03,-237.43"/>
</g>
<!-- src/common/ListField.tsx -->
<g id="node13" class="node">
<title>src/common/ListField.tsx</title>
<g id="a_node13"><a xlink:href="src/common/ListField.tsx" xlink:title="ListField.tsx">
<path fill="#bbfeff" stroke="black" d="M518.58,-167.88C518.58,-167.88 466.42,-167.88 466.42,-167.88 463.46,-167.88 460.5,-164.92 460.5,-161.96 460.5,-161.96 460.5,-156.04 460.5,-156.04 460.5,-153.08 463.46,-150.12 466.42,-150.12 466.42,-150.12 518.58,-150.12 518.58,-150.12 521.54,-150.12 524.5,-153.08 524.5,-156.04 524.5,-156.04 524.5,-161.96 524.5,-161.96 524.5,-164.92 521.54,-167.88 518.58,-167.88"/>
<text text-anchor="start" x="468.5" y="-155.32" font-family="Helvetica,sans-Serif" font-size="9.00">ListField.tsx</text>
</a>
</g>
</g>
<!-- src/common/SchemaForms.tsx&#45;&gt;src/common/ListField.tsx -->
<g id="edge16" class="edge">
<title>src/common/SchemaForms.tsx&#45;&gt;src/common/ListField.tsx</title>
<path fill="none" stroke="#000000" stroke-width="2" stroke-opacity="0.200000" d="M441.13,-159C444.55,-159 447.99,-159 451.38,-159"/>
<polygon fill="#000000" fill-opacity="0.200000" stroke="#000000" stroke-width="2" stroke-opacity="0.200000" points="451.17,-161.1 457.17,-159 451.17,-156.9 451.17,-161.1"/>
</g>
<!-- src/fields/utils.ts -->
<g id="node16" class="node">
<title>src/fields/utils.ts</title>
<g id="a_node16"><a xlink:href="src/fields/utils.ts" xlink:title="utils.ts">
<path fill="#ddfeff" stroke="black" d="M611.96,-257.88C611.96,-257.88 569.79,-257.88 569.79,-257.88 566.83,-257.88 563.88,-254.92 563.88,-251.96 563.88,-251.96 563.88,-246.04 563.88,-246.04 563.88,-243.08 566.83,-240.12 569.79,-240.12 569.79,-240.12 611.96,-240.12 611.96,-240.12 614.92,-240.12 617.88,-243.08 617.88,-246.04 617.88,-246.04 617.88,-251.96 617.88,-251.96 617.88,-254.92 614.92,-257.88 611.96,-257.88"/>
<text text-anchor="start" x="578.12" y="-245.32" font-family="Helvetica,sans-Serif" font-size="9.00">utils.ts</text>
</a>
</g>
</g>
<!-- src/common/SchemaForms.tsx&#45;&gt;src/fields/utils.ts -->
<g id="edge13" class="edge">
<title>src/common/SchemaForms.tsx&#45;&gt;src/fields/utils.ts</title>
<path fill="none" stroke="#000000" stroke-width="2" stroke-opacity="0.200000" d="M405.65,-168.27C415.92,-179.24 434.45,-197.35 453.75,-208 485.73,-225.64 526.23,-236.59 554.7,-242.68"/>
<polygon fill="#000000" fill-opacity="0.200000" stroke="#000000" stroke-width="2" stroke-opacity="0.200000" points="554.24,-244.73 560.54,-243.88 555.08,-240.62 554.24,-244.73"/>
</g>
<!-- src/common/ListField.tsx&#45;&gt;src/common/contextProvider.tsx -->
<g id="edge12" class="edge">
<title>src/common/ListField.tsx&#45;&gt;src/common/contextProvider.tsx</title>
<path fill="none" stroke="#000000" stroke-width="2" stroke-opacity="0.200000" d="M524.79,-151.86C529.72,-150.73 534.92,-149.55 540.14,-148.35"/>
<polygon fill="#000000" fill-opacity="0.200000" stroke="#000000" stroke-width="2" stroke-opacity="0.200000" points="540.58,-150.41 545.96,-147.02 539.65,-146.31 540.58,-150.41"/>
</g>
<!-- src/common/ListField.tsx&#45;&gt;src/fields/MultiSelect.tsx -->
<g id="edge11" class="edge">
<title>src/common/ListField.tsx&#45;&gt;src/fields/MultiSelect.tsx</title>
<path fill="none" stroke="#000000" stroke-width="2" stroke-opacity="0.200000" d="M504.35,-168.1C514.34,-176.23 529.76,-188.2 544.25,-197 549.4,-200.13 555.06,-203.16 560.59,-205.92"/>
<polygon fill="#000000" fill-opacity="0.200000" stroke="#000000" stroke-width="2" stroke-opacity="0.200000" points="559.49,-207.72 565.8,-208.44 561.31,-203.94 559.49,-207.72"/>
</g>
<!-- src/common/PopMenu.tsx -->
<g id="node15" class="node">
<title>src/common/PopMenu.tsx</title>
<g id="a_node15"><a xlink:href="src/common/PopMenu.tsx" xlink:title="no&#45;orphans">
<path fill="#ccffcc" stroke="orange" d="M310.58,-77.88C310.58,-77.88 253.17,-77.88 253.17,-77.88 250.21,-77.88 247.25,-74.92 247.25,-71.96 247.25,-71.96 247.25,-66.04 247.25,-66.04 247.25,-63.08 250.21,-60.12 253.17,-60.12 253.17,-60.12 310.58,-60.12 310.58,-60.12 313.54,-60.12 316.5,-63.08 316.5,-66.04 316.5,-66.04 316.5,-71.96 316.5,-71.96 316.5,-74.92 313.54,-77.88 310.58,-77.88"/>
<text text-anchor="start" x="255.25" y="-65.33" font-family="Helvetica,sans-Serif" font-size="9.00" fill="orange">PopMenu.tsx</text>
</a>
</g>
</g>
<!-- src/fields/utils.ts&#45;&gt;src/types.ts -->
<g id="edge36" class="edge">
<title>src/fields/utils.ts&#45;&gt;src/types.ts</title>
<path fill="none" stroke="#000000" stroke-width="2" stroke-opacity="0.200000" d="M618.12,-249C646.26,-249 691.1,-249 722.3,-249"/>
<polygon fill="#000000" fill-opacity="0.200000" stroke="#000000" stroke-width="2" stroke-opacity="0.200000" points="722.08,-251.1 728.08,-249 722.08,-246.9 722.08,-251.1"/>
</g>
<!-- src/dynotable/DynoList.tsx -->
<g id="node17" class="node">
<title>src/dynotable/DynoList.tsx</title>
<g id="a_node17"><a xlink:href="src/dynotable/DynoList.tsx" xlink:title="DynoList.tsx">
<path fill="#bbfeff" stroke="black" d="M519.33,-320.88C519.33,-320.88 465.67,-320.88 465.67,-320.88 462.71,-320.88 459.75,-317.92 459.75,-314.96 459.75,-314.96 459.75,-309.04 459.75,-309.04 459.75,-306.08 462.71,-303.12 465.67,-303.12 465.67,-303.12 519.33,-303.12 519.33,-303.12 522.29,-303.12 525.25,-306.08 525.25,-309.04 525.25,-309.04 525.25,-314.96 525.25,-314.96 525.25,-317.92 522.29,-320.88 519.33,-320.88"/>
<text text-anchor="start" x="467.75" y="-308.32" font-family="Helvetica,sans-Serif" font-size="9.00">DynoList.tsx</text>
</a>
</g>
</g>
<!-- src/dynotable/DynoList.tsx&#45;&gt;src/fields/utils.ts -->
<g id="edge19" class="edge">
<title>src/dynotable/DynoList.tsx&#45;&gt;src/fields/utils.ts</title>
<path fill="none" stroke="#000000" stroke-width="2" stroke-opacity="0.200000" d="M507.72,-302.7C523.66,-292.28 549.7,-275.26 568.19,-263.18"/>
<polygon fill="#000000" fill-opacity="0.200000" stroke="#000000" stroke-width="2" stroke-opacity="0.200000" points="569.19,-265.03 573.06,-259.99 566.89,-261.52 569.19,-265.03"/>
</g>
<!-- src/dynotable/Row.tsx -->
<g id="node18" class="node">
<title>src/dynotable/Row.tsx</title>
<g id="a_node18"><a xlink:href="src/dynotable/Row.tsx" xlink:title="Row.tsx">
<path fill="#bbfeff" stroke="black" d="M611.96,-330.88C611.96,-330.88 569.79,-330.88 569.79,-330.88 566.83,-330.88 563.88,-327.92 563.88,-324.96 563.88,-324.96 563.88,-319.04 563.88,-319.04 563.88,-316.08 566.83,-313.12 569.79,-313.12 569.79,-313.12 611.96,-313.12 611.96,-313.12 614.92,-313.12 617.88,-316.08 617.88,-319.04 617.88,-319.04 617.88,-324.96 617.88,-324.96 617.88,-327.92 614.92,-330.88 611.96,-330.88"/>
<text text-anchor="start" x="575.12" y="-318.32" font-family="Helvetica,sans-Serif" font-size="9.00">Row.tsx</text>
</a>
</g>
</g>
<!-- src/dynotable/DynoList.tsx&#45;&gt;src/dynotable/Row.tsx -->
<g id="edge20" class="edge">
<title>src/dynotable/DynoList.tsx&#45;&gt;src/dynotable/Row.tsx</title>
<path fill="none" stroke="#000000" stroke-width="2" stroke-opacity="0.200000" d="M525.59,-315.33C534.89,-316.29 545.08,-317.35 554.56,-318.34"/>
<polygon fill="#000000" fill-opacity="0.200000" stroke="#000000" stroke-width="2" stroke-opacity="0.200000" points="554.19,-320.41 560.37,-318.94 554.62,-316.23 554.19,-320.41"/>
</g>
<!-- src/dynotable/DynoList.tsx&#45;&gt;src/dynotable/Table.tsx -->
<g id="edge21" class="edge">
<title>src/dynotable/DynoList.tsx&#45;&gt;src/dynotable/Table.tsx</title>
<g id="a_edge21"><a xlink:title="no&#45;circular">
<path fill="none" stroke="orange" stroke-width="2" d="M459.55,-316.29C454.1,-316.45 448.35,-316.52 442.64,-316.5"/>
<polygon fill="orange" stroke="orange" stroke-width="2" points="432.91,-314.19 426.87,-316.16 432.82,-318.39 432.91,-314.19"/>
<polyline fill="none" stroke="orange" stroke-width="2" points="433.87,-316.31 436.87,-316.37"/>
<ellipse fill="none" stroke="orange" stroke-width="2" cx="440.27" cy="-316.45" rx="2.4" ry="2.4"/>
</a>
</g>
<text text-anchor="middle" x="421.03" y="-317.7" font-family="Helvetica,sans-Serif" font-size="9.00" fill="orange">no&#45;circular</text>
</g>
<!-- src/dynotable/Row.tsx&#45;&gt;src/types.ts -->
<g id="edge27" class="edge">
<title>src/dynotable/Row.tsx&#45;&gt;src/types.ts</title>
<path fill="none" stroke="#000000" stroke-width="2" stroke-opacity="0.200000" d="M618.34,-317.39C654.18,-311 714.7,-299.6 723.5,-294 734.23,-287.17 742.83,-275.68 748.69,-266.02"/>
<polygon fill="#000000" fill-opacity="0.200000" stroke="#000000" stroke-width="2" stroke-opacity="0.200000" points="750.52,-267.06 751.64,-260.8 746.86,-264.99 750.52,-267.06"/>
</g>
<!-- src/dynotable/utils.tsx -->
<g id="node20" class="node">
<title>src/dynotable/utils.tsx</title>
<g id="a_node20"><a xlink:href="src/dynotable/utils.tsx" xlink:title="utils.tsx">
<path fill="#bbfeff" stroke="black" d="M709.58,-334.88C709.58,-334.88 667.42,-334.88 667.42,-334.88 664.46,-334.88 661.5,-331.92 661.5,-328.96 661.5,-328.96 661.5,-323.04 661.5,-323.04 661.5,-320.08 664.46,-317.12 667.42,-317.12 667.42,-317.12 709.58,-317.12 709.58,-317.12 712.54,-317.12 715.5,-320.08 715.5,-323.04 715.5,-323.04 715.5,-328.96 715.5,-328.96 715.5,-331.92 712.54,-334.88 709.58,-334.88"/>
<text text-anchor="start" x="673.5" y="-322.32" font-family="Helvetica,sans-Serif" font-size="9.00">utils.tsx</text>
</a>
</g>
</g>
<!-- src/dynotable/Row.tsx&#45;&gt;src/dynotable/utils.tsx -->
<g id="edge28" class="edge">
<title>src/dynotable/Row.tsx&#45;&gt;src/dynotable/utils.tsx</title>
<path fill="none" stroke="#000000" stroke-width="2" stroke-opacity="0.200000" d="M618.26,-323.1C628.81,-323.55 641.13,-324.06 652.42,-324.53"/>
<polygon fill="#000000" fill-opacity="0.200000" stroke="#000000" stroke-width="2" stroke-opacity="0.200000" points="652.1,-326.62 658.18,-324.77 652.27,-322.42 652.1,-326.62"/>
</g>
<!-- src/dynotable/Table.tsx&#45;&gt;src/types.ts -->
<g id="edge30" class="edge">
<title>src/dynotable/Table.tsx&#45;&gt;src/types.ts</title>
<path fill="none" stroke="#000000" stroke-width="2" stroke-opacity="0.200000" d="M423.8,-303.75C433.17,-301.15 443.85,-298.56 453.75,-297 538.05,-283.73 561.69,-303.08 645.5,-287 674.16,-281.5 705.52,-270.39 727.75,-261.6"/>
<polygon fill="#000000" fill-opacity="0.200000" stroke="#000000" stroke-width="2" stroke-opacity="0.200000" points="728.5,-263.56 733.28,-259.37 726.93,-259.67 728.5,-263.56"/>
</g>
<!-- src/dynotable/Table.tsx&#45;&gt;src/fields/utils.ts -->
<g id="edge29" class="edge">
<title>src/dynotable/Table.tsx&#45;&gt;src/fields/utils.ts</title>
<path fill="none" stroke="#000000" stroke-width="2" stroke-opacity="0.200000" d="M411.17,-302.64C422.25,-295.52 438.43,-285.94 453.75,-280 471.9,-272.96 520.87,-262.55 554.84,-255.77"/>
<polygon fill="#000000" fill-opacity="0.200000" stroke="#000000" stroke-width="2" stroke-opacity="0.200000" points="555.11,-257.86 560.58,-254.63 554.29,-253.74 555.11,-257.86"/>
</g>
<!-- src/dynotable/Table.tsx&#45;&gt;src/dynotable/DynoList.tsx -->
<g id="edge31" class="edge">
<title>src/dynotable/Table.tsx&#45;&gt;src/dynotable/DynoList.tsx</title>
<g id="a_edge31"><a xlink:title="no&#45;circular">
<path fill="none" stroke="orange" stroke-width="2" d="M423.84,-307.91C429.22,-307.68 435.04,-307.55 440.93,-307.51"/>
<polygon fill="orange" stroke="orange" stroke-width="2" points="450.5,-309.71 456.52,-307.68 450.55,-305.52 450.5,-309.71"/>
<polyline fill="none" stroke="orange" stroke-width="2" points="449.52,-307.6 446.52,-307.57"/>
<ellipse fill="none" stroke="orange" stroke-width="2" cx="443.12" cy="-307.53" rx="2.4" ry="2.4"/>
</a>
</g>
<text text-anchor="middle" x="462.54" y="-298.96" font-family="Helvetica,sans-Serif" font-size="9.00" fill="orange">no&#45;circular</text>
</g>
<!-- src/dynotable/Table.tsx&#45;&gt;src/dynotable/Row.tsx -->
<g id="edge32" class="edge">
<title>src/dynotable/Table.tsx&#45;&gt;src/dynotable/Row.tsx</title>
<path fill="none" stroke="#000000" stroke-width="2" stroke-opacity="0.200000" d="M423.76,-320.54C433.12,-323.16 443.81,-325.7 453.75,-327 487.77,-331.45 526.96,-329.25 554.52,-326.51"/>
<polygon fill="#000000" fill-opacity="0.200000" stroke="#000000" stroke-width="2" stroke-opacity="0.200000" points="554.65,-328.61 560.39,-325.88 554.21,-324.43 554.65,-328.61"/>
</g>
<!-- src/dynotable/utils.tsx&#45;&gt;src/types.ts -->
<g id="edge35" class="edge">
<title>src/dynotable/utils.tsx&#45;&gt;src/types.ts</title>
<path fill="none" stroke="#000000" stroke-width="2" stroke-opacity="0.200000" d="M715.86,-318.18C718.61,-316.72 721.23,-315.01 723.5,-313 737.57,-300.56 746.8,-280.86 752.04,-266.6"/>
<polygon fill="#000000" fill-opacity="0.200000" stroke="#000000" stroke-width="2" stroke-opacity="0.200000" points="754,-267.37 753.94,-261.02 750.02,-266.02 754,-267.37"/>
</g>
<!-- src/dynotable/__Expansion.tsx -->
<g id="node21" class="node">
<title>src/dynotable/__Expansion.tsx</title>
<g id="a_node21"><a xlink:href="src/dynotable/__Expansion.tsx" xlink:title="__Expansion.tsx">
<path fill="#bbfeff" stroke="black" d="M317.71,-317.88C317.71,-317.88 246.04,-317.88 246.04,-317.88 243.08,-317.88 240.12,-314.92 240.12,-311.96 240.12,-311.96 240.12,-306.04 240.12,-306.04 240.12,-303.08 243.08,-300.12 246.04,-300.12 246.04,-300.12 317.71,-300.12 317.71,-300.12 320.67,-300.12 323.62,-303.08 323.62,-306.04 323.62,-306.04 323.62,-311.96 323.62,-311.96 323.62,-314.92 320.67,-317.88 317.71,-317.88"/>
<text text-anchor="start" x="248.12" y="-305.32" font-family="Helvetica,sans-Serif" font-size="9.00">__Expansion.tsx</text>
</a>
</g>
</g>
<!-- src/dynotable/__Expansion.tsx&#45;&gt;src/types.ts -->
<g id="edge34" class="edge">
<title>src/dynotable/__Expansion.tsx&#45;&gt;src/types.ts</title>
<path fill="none" stroke="#000000" stroke-width="2" stroke-opacity="0.200000" d="M317.43,-318.36C331.12,-321.99 345.2,-325.61 352,-327 413.42,-339.58 428.8,-348 491.5,-348 491.5,-348 491.5,-348 591.88,-348 621.17,-348 699.92,-358.37 723.5,-341 746.92,-323.75 754.22,-288.55 756.49,-267.04"/>
<polygon fill="#000000" fill-opacity="0.200000" stroke="#000000" stroke-width="2" stroke-opacity="0.200000" points="758.57,-267.41 756.97,-261.25 754.38,-267.06 758.57,-267.41"/>
</g>
<!-- src/dynotable/__Expansion.tsx&#45;&gt;src/common/SchemaForms.tsx -->
<g id="edge33" class="edge">
<title>src/dynotable/__Expansion.tsx&#45;&gt;src/common/SchemaForms.tsx</title>
<path fill="none" stroke="#000000" stroke-width="2" stroke-opacity="0.200000" d="M289.58,-300.07C307.98,-275.53 359.5,-206.84 383.18,-175.26"/>
<polygon fill="#000000" fill-opacity="0.200000" stroke="#000000" stroke-width="2" stroke-opacity="0.200000" points="384.83,-176.56 386.75,-170.5 381.47,-174.04 384.83,-176.56"/>
</g>
<!-- src/index.css -->
<g id="node22" class="node">
<title>src/index.css</title>
<g id="a_node22"><a xlink:href="src/index.css" xlink:title="index.css">
<path fill="#ffffcc" stroke="black" d="M184.83,-131.88C184.83,-131.88 142.42,-131.88 142.42,-131.88 139.46,-131.88 136.5,-128.92 136.5,-125.96 136.5,-125.96 136.5,-120.04 136.5,-120.04 136.5,-117.08 139.46,-114.12 142.42,-114.12 142.42,-114.12 184.83,-114.12 184.83,-114.12 187.79,-114.12 190.75,-117.08 190.75,-120.04 190.75,-120.04 190.75,-125.96 190.75,-125.96 190.75,-128.92 187.79,-131.88 184.83,-131.88"/>
<text text-anchor="start" x="144.5" y="-119.33" font-family="Helvetica,sans-Serif" font-size="9.00">index.css</text>
</a>
</g>
</g>
<!-- src/index.tsx -->
<g id="node23" class="node">
<title>src/index.tsx</title>
<g id="a_node23"><a xlink:href="src/index.tsx" xlink:title="index.tsx">
<path fill="#bbfeff" stroke="black" d="M81.83,-131.88C81.83,-131.88 39.67,-131.88 39.67,-131.88 36.71,-131.88 33.75,-128.92 33.75,-125.96 33.75,-125.96 33.75,-120.04 33.75,-120.04 33.75,-117.08 36.71,-114.12 39.67,-114.12 39.67,-114.12 81.83,-114.12 81.83,-114.12 84.79,-114.12 87.75,-117.08 87.75,-120.04 87.75,-120.04 87.75,-125.96 87.75,-125.96 87.75,-128.92 84.79,-131.88 81.83,-131.88"/>
<text text-anchor="start" x="42.75" y="-119.33" font-family="Helvetica,sans-Serif" font-size="9.00">index.tsx</text>
</a>
</g>
</g>
<!-- src/index.tsx&#45;&gt;src/App.tsx -->
<g id="edge37" class="edge">
<title>src/index.tsx&#45;&gt;src/App.tsx</title>
<path fill="none" stroke="#000000" stroke-width="2" stroke-opacity="0.200000" d="M87.99,-115.2C100.15,-111.58 114.78,-107.23 127.84,-103.34"/>
<polygon fill="#000000" fill-opacity="0.200000" stroke="#000000" stroke-width="2" stroke-opacity="0.200000" points="128.11,-105.46 133.26,-101.73 126.91,-101.43 128.11,-105.46"/>
</g>
<!-- src/index.tsx&#45;&gt;src/index.css -->
<g id="edge38" class="edge">
<title>src/index.tsx&#45;&gt;src/index.css</title>
<path fill="none" stroke="#000000" stroke-width="2" stroke-opacity="0.200000" d="M87.99,-123C100.04,-123 114.5,-123 127.47,-123"/>
<polygon fill="#000000" fill-opacity="0.200000" stroke="#000000" stroke-width="2" stroke-opacity="0.200000" points="127.14,-125.1 133.14,-123 127.14,-120.9 127.14,-125.1"/>
</g>
<!-- src/reportWebVitals.ts -->
<g id="node24" class="node">
<title>src/reportWebVitals.ts</title>
<g id="a_node24"><a xlink:href="src/reportWebVitals.ts" xlink:title="reportWebVitals.ts">
<path fill="#ddfeff" stroke="black" d="M202.83,-161.88C202.83,-161.88 124.42,-161.88 124.42,-161.88 121.46,-161.88 118.5,-158.92 118.5,-155.96 118.5,-155.96 118.5,-150.04 118.5,-150.04 118.5,-147.08 121.46,-144.12 124.42,-144.12 124.42,-144.12 202.83,-144.12 202.83,-144.12 205.79,-144.12 208.75,-147.08 208.75,-150.04 208.75,-150.04 208.75,-155.96 208.75,-155.96 208.75,-158.92 205.79,-161.88 202.83,-161.88"/>
<text text-anchor="start" x="126.5" y="-149.32" font-family="Helvetica,sans-Serif" font-size="9.00">reportWebVitals.ts</text>
</a>
</g>
</g>
<!-- src/index.tsx&#45;&gt;src/reportWebVitals.ts -->
<g id="edge39" class="edge">
<title>src/index.tsx&#45;&gt;src/reportWebVitals.ts</title>
<path fill="none" stroke="#000000" stroke-width="2" stroke-opacity="0.200000" d="M87.99,-130.8C98.61,-133.96 111.1,-137.68 122.79,-141.15"/>
<polygon fill="#000000" fill-opacity="0.200000" stroke="#000000" stroke-width="2" stroke-opacity="0.200000" points="121.88,-143.07 128.23,-142.77 123.07,-139.05 121.88,-143.07"/>
</g>
<!-- src/react&#45;app&#45;env.d.ts -->
<g id="node25" class="node">
<title>src/react&#45;app&#45;env.d.ts</title>
<g id="a_node25"><a xlink:href="src/react-app-env.d.ts" xlink:title="react&#45;app&#45;env.d.ts">
<path fill="#ccffcc" stroke="black" d="M99.58,-96.88C99.58,-96.88 21.92,-96.88 21.92,-96.88 18.96,-96.88 16,-93.92 16,-90.96 16,-90.96 16,-85.04 16,-85.04 16,-82.08 18.96,-79.12 21.92,-79.12 21.92,-79.12 99.58,-79.12 99.58,-79.12 102.54,-79.12 105.5,-82.08 105.5,-85.04 105.5,-85.04 105.5,-90.96 105.5,-90.96 105.5,-93.92 102.54,-96.88 99.58,-96.88"/>
<text text-anchor="start" x="24" y="-84.33" font-family="Helvetica,sans-Serif" font-size="9.00">react&#45;app&#45;env.d.ts</text>
</a>
</g>
</g>
<!-- src/setupTests.ts -->
<g id="node26" class="node">
<title>src/setupTests.ts</title>
<g id="a_node26"><a xlink:href="src/setupTests.ts" xlink:title="setupTests.ts">
<path fill="#ccffcc" stroke="black" d="M89.08,-55.88C89.08,-55.88 32.42,-55.88 32.42,-55.88 29.46,-55.88 26.5,-52.92 26.5,-49.96 26.5,-49.96 26.5,-44.04 26.5,-44.04 26.5,-41.08 29.46,-38.12 32.42,-38.12 32.42,-38.12 89.08,-38.12 89.08,-38.12 92.04,-38.12 95,-41.08 95,-44.04 95,-44.04 95,-49.96 95,-49.96 95,-52.92 92.04,-55.88 89.08,-55.88"/>
<text text-anchor="start" x="34.5" y="-43.33" font-family="Helvetica,sans-Serif" font-size="9.00">setupTests.ts</text>
</a>
</g>
</g>
</g>
</svg>
