<?xml version="1.0" encoding="UTF-8" standalone="no"?>
<!DOCTYPE svg PUBLIC "-//W3C//DTD SVG 1.1//EN"
 "http://www.w3.org/Graphics/SVG/1.1/DTD/svg11.dtd">
<!-- Generated by graphviz version 9.0.0 (20230911.1827)
 -->
<!-- Title: dependency&#45;cruiser output Pages: 1 -->
<svg width="565pt" height="544pt"
 viewBox="0.00 0.00 565.00 544.00" xmlns="http://www.w3.org/2000/svg" xmlns:xlink="http://www.w3.org/1999/xlink">
<g id="graph0" class="graph" transform="scale(1 1) rotate(0) translate(4 540)">
<title>dependency&#45;cruiser output</title>
<polygon fill="white" stroke="none" points="-4,4 -4,-540 561,-540 561,4 -4,4"/>
<g id="clust1" class="cluster">
<title>cluster_src</title>
<path fill="#ffffff" stroke="black" stroke-width="2" d="M20,-8C20,-8 537,-8 537,-8 543,-8 549,-14 549,-20 549,-20 549,-516 549,-516 549,-522 543,-528 537,-528 537,-528 20,-528 20,-528 14,-528 8,-522 8,-516 8,-516 8,-20 8,-20 8,-14 14,-8 20,-8"/>
<text text-anchor="middle" x="278.5" y="-515.45" font-family="Helvetica,sans-Serif" font-weight="bold" font-size="9.00">src</text>
</g>
<g id="clust2" class="cluster">
<title>cluster_src/ConfigApp</title>
<path fill="#ffffff" stroke="black" stroke-width="2" d="M228.75,-390C228.75,-390 390.75,-390 390.75,-390 396.75,-390 402.75,-396 402.75,-402 402.75,-402 402.75,-460 402.75,-460 402.75,-466 396.75,-472 390.75,-472 390.75,-472 228.75,-472 228.75,-472 222.75,-472 216.75,-466 216.75,-460 216.75,-460 216.75,-402 216.75,-402 216.75,-396 222.75,-390 228.75,-390"/>
<text text-anchor="middle" x="309.75" y="-459.45" font-family="Helvetica,sans-Serif" font-weight="bold" font-size="9.00">ConfigApp</text>
</g>
<g id="clust3" class="cluster">
<title>cluster_src/clients</title>
<path fill="#ffffff" stroke="black" stroke-width="2" d="M452.88,-450C452.88,-450 498.88,-450 498.88,-450 504.88,-450 510.88,-456 510.88,-462 510.88,-462 510.88,-490 510.88,-490 510.88,-496 504.88,-502 498.88,-502 498.88,-502 452.88,-502 452.88,-502 446.88,-502 440.88,-496 440.88,-490 440.88,-490 440.88,-462 440.88,-462 440.88,-456 446.88,-450 452.88,-450"/>
<text text-anchor="middle" x="475.88" y="-489.45" font-family="Helvetica,sans-Serif" font-weight="bold" font-size="9.00">clients</text>
</g>
<g id="clust4" class="cluster">
<title>cluster_src/common</title>
<path fill="#ffffff" stroke="black" stroke-width="2" d="M422.75,-270C422.75,-270 529,-270 529,-270 535,-270 541,-276 541,-282 541,-282 541,-430 541,-430 541,-436 535,-442 529,-442 529,-442 422.75,-442 422.75,-442 416.75,-442 410.75,-436 410.75,-430 410.75,-430 410.75,-282 410.75,-282 410.75,-276 416.75,-270 422.75,-270"/>
<text text-anchor="middle" x="475.88" y="-429.45" font-family="Helvetica,sans-Serif" font-weight="bold" font-size="9.00">common</text>
</g>
<g id="clust5" class="cluster">
<title>cluster_src/dynoapp</title>
<path fill="#ffffff" stroke="black" stroke-width="2" d="M228.75,-106C228.75,-106 506.5,-106 506.5,-106 512.5,-106 518.5,-112 518.5,-118 518.5,-118 518.5,-250 518.5,-250 518.5,-256 512.5,-262 506.5,-262 506.5,-262 228.75,-262 228.75,-262 222.75,-262 216.75,-256 216.75,-250 216.75,-250 216.75,-118 216.75,-118 216.75,-112 222.75,-106 228.75,-106"/>
<text text-anchor="middle" x="367.62" y="-249.45" font-family="Helvetica,sans-Serif" font-weight="bold" font-size="9.00">dynoapp</text>
</g>
<g id="clust6" class="cluster">
<title>cluster_src/savedviewapp</title>
<path fill="#ffffff" stroke="black" stroke-width="2" d="M298.75,-16C298.75,-16 504.62,-16 504.62,-16 510.62,-16 516.62,-22 516.62,-28 516.62,-28 516.62,-86 516.62,-86 516.62,-92 510.62,-98 504.62,-98 504.62,-98 298.75,-98 298.75,-98 292.75,-98 286.75,-92 286.75,-86 286.75,-86 286.75,-28 286.75,-28 286.75,-22 292.75,-16 298.75,-16"/>
<text text-anchor="middle" x="401.69" y="-85.45" font-family="Helvetica,sans-Serif" font-weight="bold" font-size="9.00">savedviewapp</text>
</g>
<!-- src/App.tsx -->
<g id="node1" class="node">
<title>src/App.tsx</title>
<g id="a_node1"><a xlink:href="src/App.tsx" xlink:title="App.tsx">
<path fill="#bbfeff" stroke="black" d="M184.71,-71.88C184.71,-71.88 142.54,-71.88 142.54,-71.88 139.58,-71.88 136.62,-68.92 136.62,-65.96 136.62,-65.96 136.62,-60.04 136.62,-60.04 136.62,-57.08 139.58,-54.12 142.54,-54.12 142.54,-54.12 184.71,-54.12 184.71,-54.12 187.67,-54.12 190.62,-57.08 190.62,-60.04 190.62,-60.04 190.62,-65.96 190.62,-65.96 190.62,-68.92 187.67,-71.88 184.71,-71.88"/>
<text text-anchor="start" x="148.62" y="-59.33" font-family="Helvetica,sans-Serif" font-size="9.00">App.tsx</text>
</a>
</g>
</g>
<!-- src/dynoapp/index.tsx -->
<g id="node2" class="node">
<title>src/dynoapp/index.tsx</title>
<g id="a_node2"><a xlink:href="src/dynoapp/index.tsx" xlink:title="index.tsx">
<path fill="#bbfeff" stroke="black" d="M272.83,-164.88C272.83,-164.88 230.67,-164.88 230.67,-164.88 227.71,-164.88 224.75,-161.92 224.75,-158.96 224.75,-158.96 224.75,-153.04 224.75,-153.04 224.75,-150.08 227.71,-147.12 230.67,-147.12 230.67,-147.12 272.83,-147.12 272.83,-147.12 275.79,-147.12 278.75,-150.08 278.75,-153.04 278.75,-153.04 278.75,-158.96 278.75,-158.96 278.75,-161.92 275.79,-164.88 272.83,-164.88"/>
<text text-anchor="start" x="233.75" y="-152.32" font-family="Helvetica,sans-Serif" font-size="9.00">index.tsx</text>
</a>
</g>
</g>
<!-- src/App.tsx&#45;&gt;src/dynoapp/index.tsx -->
<g id="edge1" class="edge">
<title>src/App.tsx&#45;&gt;src/dynoapp/index.tsx</title>
<path fill="none" stroke="#000000" stroke-width="2" stroke-opacity="0.200000" d="M190.89,-66.76C197.64,-68.98 204.26,-72.48 208.75,-78 227.12,-100.58 198.81,-120.08 216.75,-143 217.01,-143.34 217.29,-143.66 217.57,-143.98"/>
<polygon fill="#000000" fill-opacity="0.200000" stroke="#000000" stroke-width="2" stroke-opacity="0.200000" points="216.19,-145.57 222.2,-147.64 218.79,-142.27 216.19,-145.57"/>
</g>
<!-- src/savedviewapp/SearchParamForm.tsx -->
<g id="node3" class="node">
<title>src/savedviewapp/SearchParamForm.tsx</title>
<g id="a_node3"><a xlink:href="src/savedviewapp/SearchParamForm.tsx" xlink:title="SearchParamForm.tsx">
<path fill="#bbfeff" stroke="black" d="M395.58,-71.88C395.58,-71.88 300.67,-71.88 300.67,-71.88 297.71,-71.88 294.75,-68.92 294.75,-65.96 294.75,-65.96 294.75,-60.04 294.75,-60.04 294.75,-57.08 297.71,-54.12 300.67,-54.12 300.67,-54.12 395.58,-54.12 395.58,-54.12 398.54,-54.12 401.5,-57.08 401.5,-60.04 401.5,-60.04 401.5,-65.96 401.5,-65.96 401.5,-68.92 398.54,-71.88 395.58,-71.88"/>
<text text-anchor="start" x="302.75" y="-59.33" font-family="Helvetica,sans-Serif" font-size="9.00">SearchParamForm.tsx</text>
</a>
</g>
</g>
<!-- src/App.tsx&#45;&gt;src/savedviewapp/SearchParamForm.tsx -->
<g id="edge2" class="edge">
<title>src/App.tsx&#45;&gt;src/savedviewapp/SearchParamForm.tsx</title>
<path fill="none" stroke="#000000" stroke-width="2" stroke-opacity="0.200000" d="M190.77,-63C215.37,-63 253.13,-63 285.38,-63"/>
<polygon fill="#000000" fill-opacity="0.200000" stroke="#000000" stroke-width="2" stroke-opacity="0.200000" points="285.29,-65.1 291.29,-63 285.29,-60.9 285.29,-65.1"/>
</g>
<!-- src/savedviewapp/ViewRedirect.tsx -->
<g id="node4" class="node">
<title>src/savedviewapp/ViewRedirect.tsx</title>
<g id="a_node4"><a xlink:href="src/savedviewapp/ViewRedirect.tsx" xlink:title="ViewRedirect.tsx">
<path fill="#bbfeff" stroke="black" d="M384.33,-41.88C384.33,-41.88 311.92,-41.88 311.92,-41.88 308.96,-41.88 306,-38.92 306,-35.96 306,-35.96 306,-30.04 306,-30.04 306,-27.08 308.96,-24.12 311.92,-24.12 311.92,-24.12 384.33,-24.12 384.33,-24.12 387.29,-24.12 390.25,-27.08 390.25,-30.04 390.25,-30.04 390.25,-35.96 390.25,-35.96 390.25,-38.92 387.29,-41.88 384.33,-41.88"/>
<text text-anchor="start" x="314" y="-29.32" font-family="Helvetica,sans-Serif" font-size="9.00">ViewRedirect.tsx</text>
</a>
</g>
</g>
<!-- src/App.tsx&#45;&gt;src/savedviewapp/ViewRedirect.tsx -->
<g id="edge3" class="edge">
<title>src/App.tsx&#45;&gt;src/savedviewapp/ViewRedirect.tsx</title>
<path fill="none" stroke="#000000" stroke-width="2" stroke-opacity="0.200000" d="M190.77,-58.7C218.39,-54.16 262.62,-46.89 297,-41.24"/>
<polygon fill="#000000" fill-opacity="0.200000" stroke="#000000" stroke-width="2" stroke-opacity="0.200000" points="296.95,-43.38 302.53,-40.33 296.26,-39.23 296.95,-43.38"/>
</g>
<!-- src/dynoapp/index.tsx&#45;&gt;src/savedviewapp/SearchParamForm.tsx -->
<g id="edge16" class="edge">
<title>src/dynoapp/index.tsx&#45;&gt;src/savedviewapp/SearchParamForm.tsx</title>
<path fill="none" stroke="#000000" stroke-width="2" stroke-opacity="0.200000" d="M274.91,-146.9C276.34,-145.74 277.65,-144.44 278.75,-143 289.75,-128.59 276.64,-118.05 286.75,-103 294.2,-91.91 305.86,-83.14 316.95,-76.67"/>
<polygon fill="#000000" fill-opacity="0.200000" stroke="#000000" stroke-width="2" stroke-opacity="0.200000" points="317.94,-78.52 322.21,-73.81 315.93,-74.84 317.94,-78.52"/>
</g>
<!-- src/common/ModalContainer.tsx -->
<g id="node12" class="node">
<title>src/common/ModalContainer.tsx</title>
<g id="a_node12"><a xlink:href="src/common/ModalContainer.tsx" xlink:title="ModalContainer.tsx">
<path fill="#bbfeff" stroke="black" d="M517.71,-355.88C517.71,-355.88 434.04,-355.88 434.04,-355.88 431.08,-355.88 428.12,-352.92 428.12,-349.96 428.12,-349.96 428.12,-344.04 428.12,-344.04 428.12,-341.08 431.08,-338.12 434.04,-338.12 434.04,-338.12 517.71,-338.12 517.71,-338.12 520.67,-338.12 523.62,-341.08 523.62,-344.04 523.62,-344.04 523.62,-349.96 523.62,-349.96 523.62,-352.92 520.67,-355.88 517.71,-355.88"/>
<text text-anchor="start" x="436.12" y="-343.32" font-family="Helvetica,sans-Serif" font-size="9.00">ModalContainer.tsx</text>
</a>
</g>
</g>
<!-- src/dynoapp/index.tsx&#45;&gt;src/common/ModalContainer.tsx -->
<g id="edge15" class="edge">
<title>src/dynoapp/index.tsx&#45;&gt;src/common/ModalContainer.tsx</title>
<path fill="none" stroke="#000000" stroke-width="2" stroke-opacity="0.200000" d="M254.58,-165.13C258.28,-181.82 267.96,-217.77 286.75,-242 328.49,-295.81 348.82,-303.69 410.75,-332 413.54,-333.27 416.45,-334.45 419.42,-335.52"/>
<polygon fill="#000000" fill-opacity="0.200000" stroke="#000000" stroke-width="2" stroke-opacity="0.200000" points="418.68,-337.49 425.04,-337.37 419.99,-333.5 418.68,-337.49"/>
</g>
<!-- src/dynoapp/DynoForm.tsx -->
<g id="node15" class="node">
<title>src/dynoapp/DynoForm.tsx</title>
<g id="a_node15"><a xlink:href="src/dynoapp/DynoForm.tsx" xlink:title="DynoForm.tsx">
<path fill="#bbfeff" stroke="black" d="M378.33,-175.88C378.33,-175.88 317.92,-175.88 317.92,-175.88 314.96,-175.88 312,-172.92 312,-169.96 312,-169.96 312,-164.04 312,-164.04 312,-161.08 314.96,-158.12 317.92,-158.12 317.92,-158.12 378.33,-158.12 378.33,-158.12 381.29,-158.12 384.25,-161.08 384.25,-164.04 384.25,-164.04 384.25,-169.96 384.25,-169.96 384.25,-172.92 381.29,-175.88 378.33,-175.88"/>
<text text-anchor="start" x="320" y="-163.32" font-family="Helvetica,sans-Serif" font-size="9.00">DynoForm.tsx</text>
</a>
</g>
</g>
<!-- src/dynoapp/index.tsx&#45;&gt;src/dynoapp/DynoForm.tsx -->
<g id="edge17" class="edge">
<title>src/dynoapp/index.tsx&#45;&gt;src/dynoapp/DynoForm.tsx</title>
<path fill="none" stroke="#000000" stroke-width="2" stroke-opacity="0.200000" d="M279.04,-159.06C286.49,-159.93 294.81,-160.9 303.01,-161.86"/>
<polygon fill="#000000" fill-opacity="0.200000" stroke="#000000" stroke-width="2" stroke-opacity="0.200000" points="302.6,-163.92 308.8,-162.53 303.08,-159.75 302.6,-163.92"/>
</g>
<!-- src/dynoapp/utils.ts -->
<g id="node16" class="node">
<title>src/dynoapp/utils.ts</title>
<g id="a_node16"><a xlink:href="src/dynoapp/utils.ts" xlink:title="utils.ts">
<path fill="#ddfeff" stroke="black" d="M496.96,-161.88C496.96,-161.88 454.79,-161.88 454.79,-161.88 451.83,-161.88 448.88,-158.92 448.88,-155.96 448.88,-155.96 448.88,-150.04 448.88,-150.04 448.88,-147.08 451.83,-144.12 454.79,-144.12 454.79,-144.12 496.96,-144.12 496.96,-144.12 499.92,-144.12 502.88,-147.08 502.88,-150.04 502.88,-150.04 502.88,-155.96 502.88,-155.96 502.88,-158.92 499.92,-161.88 496.96,-161.88"/>
<text text-anchor="start" x="463.12" y="-149.32" font-family="Helvetica,sans-Serif" font-size="9.00">utils.ts</text>
</a>
</g>
</g>
<!-- src/dynoapp/index.tsx&#45;&gt;src/dynoapp/utils.ts -->
<g id="edge21" class="edge">
<title>src/dynoapp/index.tsx&#45;&gt;src/dynoapp/utils.ts</title>
<path fill="none" stroke="#000000" stroke-width="2" stroke-opacity="0.200000" d="M279.08,-152.59C281.67,-152.35 284.26,-152.15 286.75,-152 340.18,-148.87 402.29,-150.16 440.07,-151.49"/>
<polygon fill="#000000" fill-opacity="0.200000" stroke="#000000" stroke-width="2" stroke-opacity="0.200000" points="439.58,-153.57 445.65,-151.69 439.73,-149.37 439.58,-153.57"/>
</g>
<!-- src/dynoapp/DynoList.tsx -->
<g id="node17" class="node">
<title>src/dynoapp/DynoList.tsx</title>
<g id="a_node17"><a xlink:href="src/dynoapp/DynoList.tsx" xlink:title="DynoList.tsx">
<path fill="#bbfeff" stroke="black" d="M374.96,-131.88C374.96,-131.88 321.29,-131.88 321.29,-131.88 318.33,-131.88 315.38,-128.92 315.38,-125.96 315.38,-125.96 315.38,-120.04 315.38,-120.04 315.38,-117.08 318.33,-114.12 321.29,-114.12 321.29,-114.12 374.96,-114.12 374.96,-114.12 377.92,-114.12 380.88,-117.08 380.88,-120.04 380.88,-120.04 380.88,-125.96 380.88,-125.96 380.88,-128.92 377.92,-131.88 374.96,-131.88"/>
<text text-anchor="start" x="323.38" y="-119.33" font-family="Helvetica,sans-Serif" font-size="9.00">DynoList.tsx</text>
</a>
</g>
</g>
<!-- src/dynoapp/index.tsx&#45;&gt;src/dynoapp/DynoList.tsx -->
<g id="edge18" class="edge">
<title>src/dynoapp/index.tsx&#45;&gt;src/dynoapp/DynoList.tsx</title>
<path fill="none" stroke="#000000" stroke-width="2" stroke-opacity="0.200000" d="M272.71,-146.69C277.28,-144.7 282.15,-142.69 286.75,-141 293.1,-138.66 299.91,-136.4 306.58,-134.32"/>
<polygon fill="#000000" fill-opacity="0.200000" stroke="#000000" stroke-width="2" stroke-opacity="0.200000" points="306.89,-136.42 312.02,-132.67 305.67,-132.4 306.89,-136.42"/>
</g>
<!-- src/dynoapp/FilterForm.tsx -->
<g id="node19" class="node">
<title>src/dynoapp/FilterForm.tsx</title>
<g id="a_node19"><a xlink:href="src/dynoapp/FilterForm.tsx" xlink:title="FilterForm.tsx">
<path fill="#bbfeff" stroke="black" d="M377.58,-235.88C377.58,-235.88 318.67,-235.88 318.67,-235.88 315.71,-235.88 312.75,-232.92 312.75,-229.96 312.75,-229.96 312.75,-224.04 312.75,-224.04 312.75,-221.08 315.71,-218.12 318.67,-218.12 318.67,-218.12 377.58,-218.12 377.58,-218.12 380.54,-218.12 383.5,-221.08 383.5,-224.04 383.5,-224.04 383.5,-229.96 383.5,-229.96 383.5,-232.92 380.54,-235.88 377.58,-235.88"/>
<text text-anchor="start" x="320.75" y="-223.32" font-family="Helvetica,sans-Serif" font-size="9.00">FilterForm.tsx</text>
</a>
</g>
</g>
<!-- src/dynoapp/index.tsx&#45;&gt;src/dynoapp/FilterForm.tsx -->
<g id="edge19" class="edge">
<title>src/dynoapp/index.tsx&#45;&gt;src/dynoapp/FilterForm.tsx</title>
<path fill="none" stroke="#000000" stroke-width="2" stroke-opacity="0.200000" d="M255.75,-165.09C260.38,-177.61 270.44,-200 286.75,-212 291.89,-215.78 297.88,-218.62 304.05,-220.75"/>
<polygon fill="#000000" fill-opacity="0.200000" stroke="#000000" stroke-width="2" stroke-opacity="0.200000" points="303.26,-222.7 309.61,-222.37 304.44,-218.67 303.26,-222.7"/>
</g>
<!-- src/dynoapp/hooks.ts -->
<g id="node20" class="node">
<title>src/dynoapp/hooks.ts</title>
<g id="a_node20"><a xlink:href="src/dynoapp/hooks.ts" xlink:title="hooks.ts">
<path fill="#ddfeff" stroke="black" d="M369.21,-205.88C369.21,-205.88 327.04,-205.88 327.04,-205.88 324.08,-205.88 321.12,-202.92 321.12,-199.96 321.12,-199.96 321.12,-194.04 321.12,-194.04 321.12,-191.08 324.08,-188.12 327.04,-188.12 327.04,-188.12 369.21,-188.12 369.21,-188.12 372.17,-188.12 375.12,-191.08 375.12,-194.04 375.12,-194.04 375.12,-199.96 375.12,-199.96 375.12,-202.92 372.17,-205.88 369.21,-205.88"/>
<text text-anchor="start" x="331.25" y="-193.32" font-family="Helvetica,sans-Serif" font-size="9.00">hooks.ts</text>
</a>
</g>
</g>
<!-- src/dynoapp/index.tsx&#45;&gt;src/dynoapp/hooks.ts -->
<g id="edge20" class="edge">
<title>src/dynoapp/index.tsx&#45;&gt;src/dynoapp/hooks.ts</title>
<path fill="none" stroke="#000000" stroke-width="2" stroke-opacity="0.200000" d="M262.44,-165.15C268.88,-170.76 277.78,-177.69 286.75,-182 294.62,-185.79 303.55,-188.68 312.08,-190.86"/>
<polygon fill="#000000" fill-opacity="0.200000" stroke="#000000" stroke-width="2" stroke-opacity="0.200000" points="311.49,-192.88 317.81,-192.2 312.45,-188.79 311.49,-192.88"/>
</g>
<!-- src/common/hooks.ts -->
<g id="node14" class="node">
<title>src/common/hooks.ts</title>
<g id="a_node14"><a xlink:href="src/common/hooks.ts" xlink:title="hooks.ts">
<path fill="#ddfeff" stroke="black" d="M496.96,-295.88C496.96,-295.88 454.79,-295.88 454.79,-295.88 451.83,-295.88 448.88,-292.92 448.88,-289.96 448.88,-289.96 448.88,-284.04 448.88,-284.04 448.88,-281.08 451.83,-278.12 454.79,-278.12 454.79,-278.12 496.96,-278.12 496.96,-278.12 499.92,-278.12 502.88,-281.08 502.88,-284.04 502.88,-284.04 502.88,-289.96 502.88,-289.96 502.88,-292.92 499.92,-295.88 496.96,-295.88"/>
<text text-anchor="start" x="459" y="-283.32" font-family="Helvetica,sans-Serif" font-size="9.00">hooks.ts</text>
</a>
</g>
</g>
<!-- src/savedviewapp/SearchParamForm.tsx&#45;&gt;src/common/hooks.ts -->
<g id="edge24" class="edge">
<title>src/savedviewapp/SearchParamForm.tsx&#45;&gt;src/common/hooks.ts</title>
<path fill="none" stroke="#000000" stroke-width="2" stroke-opacity="0.200000" d="M369.07,-72.24C381.08,-78.95 395.43,-89.26 402.75,-103 411.23,-118.9 399.92,-250.6 410.75,-265 417.73,-274.28 428.85,-279.67 439.88,-282.8"/>
<polygon fill="#000000" fill-opacity="0.200000" stroke="#000000" stroke-width="2" stroke-opacity="0.200000" points="439.36,-284.83 445.69,-284.16 440.32,-280.74 439.36,-284.83"/>
</g>
<!-- src/savedviewapp/viewStore.ts -->
<g id="node24" class="node">
<title>src/savedviewapp/viewStore.ts</title>
<g id="a_node24"><a xlink:href="src/savedviewapp/viewStore.ts" xlink:title="viewStore.ts">
<path fill="#ddfeff" stroke="black" d="M502.71,-56.88C502.71,-56.88 449.04,-56.88 449.04,-56.88 446.08,-56.88 443.12,-53.92 443.12,-50.96 443.12,-50.96 443.12,-45.04 443.12,-45.04 443.12,-42.08 446.08,-39.12 449.04,-39.12 449.04,-39.12 502.71,-39.12 502.71,-39.12 505.67,-39.12 508.62,-42.08 508.62,-45.04 508.62,-45.04 508.62,-50.96 508.62,-50.96 508.62,-53.92 505.67,-56.88 502.71,-56.88"/>
<text text-anchor="start" x="451.12" y="-44.33" font-family="Helvetica,sans-Serif" font-size="9.00">viewStore.ts</text>
</a>
</g>
</g>
<!-- src/savedviewapp/SearchParamForm.tsx&#45;&gt;src/savedviewapp/viewStore.ts -->
<g id="edge25" class="edge">
<title>src/savedviewapp/SearchParamForm.tsx&#45;&gt;src/savedviewapp/viewStore.ts</title>
<path fill="none" stroke="#000000" stroke-width="2" stroke-opacity="0.200000" d="M401.73,-56.73C412.55,-55.43 423.8,-54.09 434.13,-52.86"/>
<polygon fill="#000000" fill-opacity="0.200000" stroke="#000000" stroke-width="2" stroke-opacity="0.200000" points="434.22,-54.96 439.93,-52.17 433.73,-50.79 434.22,-54.96"/>
</g>
<!-- src/savedviewapp/ViewRedirect.tsx&#45;&gt;src/savedviewapp/viewStore.ts -->
<g id="edge26" class="edge">
<title>src/savedviewapp/ViewRedirect.tsx&#45;&gt;src/savedviewapp/viewStore.ts</title>
<path fill="none" stroke="#000000" stroke-width="2" stroke-opacity="0.200000" d="M390.65,-37.95C404.62,-39.62 420.18,-41.48 434.09,-43.13"/>
<polygon fill="#000000" fill-opacity="0.200000" stroke="#000000" stroke-width="2" stroke-opacity="0.200000" points="433.74,-45.21 439.95,-43.83 434.24,-41.04 433.74,-45.21"/>
</g>
<!-- src/ConfigApp/ConfigForm.tsx -->
<g id="node5" class="node">
<title>src/ConfigApp/ConfigForm.tsx</title>
<g id="a_node5"><a xlink:href="src/ConfigApp/ConfigForm.tsx" xlink:title="ConfigForm.tsx">
<path fill="#bbfeff" stroke="black" d="M380.96,-415.88C380.96,-415.88 315.29,-415.88 315.29,-415.88 312.33,-415.88 309.38,-412.92 309.38,-409.96 309.38,-409.96 309.38,-404.04 309.38,-404.04 309.38,-401.08 312.33,-398.12 315.29,-398.12 315.29,-398.12 380.96,-398.12 380.96,-398.12 383.92,-398.12 386.88,-401.08 386.88,-404.04 386.88,-404.04 386.88,-409.96 386.88,-409.96 386.88,-412.92 383.92,-415.88 380.96,-415.88"/>
<text text-anchor="start" x="317.38" y="-403.32" font-family="Helvetica,sans-Serif" font-size="9.00">ConfigForm.tsx</text>
</a>
</g>
</g>
<!-- src/ConfigApp/contextProvider.tsx -->
<g id="node6" class="node">
<title>src/ConfigApp/contextProvider.tsx</title>
<g id="a_node6"><a xlink:href="src/ConfigApp/contextProvider.tsx" xlink:title="contextProvider.tsx">
<path fill="#bbfeff" stroke="black" d="M388.83,-445.88C388.83,-445.88 307.42,-445.88 307.42,-445.88 304.46,-445.88 301.5,-442.92 301.5,-439.96 301.5,-439.96 301.5,-434.04 301.5,-434.04 301.5,-431.08 304.46,-428.12 307.42,-428.12 307.42,-428.12 388.83,-428.12 388.83,-428.12 391.79,-428.12 394.75,-431.08 394.75,-434.04 394.75,-434.04 394.75,-439.96 394.75,-439.96 394.75,-442.92 391.79,-445.88 388.83,-445.88"/>
<text text-anchor="start" x="309.5" y="-433.32" font-family="Helvetica,sans-Serif" font-size="9.00">contextProvider.tsx</text>
</a>
</g>
</g>
<!-- src/clients/index.ts -->
<g id="node7" class="node">
<title>src/clients/index.ts</title>
<g id="a_node7"><a xlink:href="src/clients/index.ts" xlink:title="index.ts">
<path fill="#ddfeff" stroke="black" d="M496.96,-475.88C496.96,-475.88 454.79,-475.88 454.79,-475.88 451.83,-475.88 448.88,-472.92 448.88,-469.96 448.88,-469.96 448.88,-464.04 448.88,-464.04 448.88,-461.08 451.83,-458.12 454.79,-458.12 454.79,-458.12 496.96,-458.12 496.96,-458.12 499.92,-458.12 502.88,-461.08 502.88,-464.04 502.88,-464.04 502.88,-469.96 502.88,-469.96 502.88,-472.92 499.92,-475.88 496.96,-475.88"/>
<text text-anchor="start" x="460.12" y="-463.32" font-family="Helvetica,sans-Serif" font-size="9.00">index.ts</text>
</a>
</g>
</g>
<!-- src/ConfigApp/contextProvider.tsx&#45;&gt;src/clients/index.ts -->
<g id="edge4" class="edge">
<title>src/ConfigApp/contextProvider.tsx&#45;&gt;src/clients/index.ts</title>
<path fill="none" stroke="#000000" stroke-width="2" stroke-opacity="0.200000" d="M388.22,-446.33C404.77,-450.28 423.89,-454.84 439.96,-458.67"/>
<polygon fill="#000000" fill-opacity="0.200000" stroke="#000000" stroke-width="2" stroke-opacity="0.200000" points="439.26,-460.66 445.59,-460.01 440.24,-456.58 439.26,-460.66"/>
</g>
<!-- src/common/ErrorCenter.tsx -->
<g id="node8" class="node">
<title>src/common/ErrorCenter.tsx</title>
<g id="a_node8"><a xlink:href="src/common/ErrorCenter.tsx" xlink:title="ErrorCenter.tsx">
<path fill="#bbfeff" stroke="black" d="M508.71,-415.88C508.71,-415.88 443.04,-415.88 443.04,-415.88 440.08,-415.88 437.12,-412.92 437.12,-409.96 437.12,-409.96 437.12,-404.04 437.12,-404.04 437.12,-401.08 440.08,-398.12 443.04,-398.12 443.04,-398.12 508.71,-398.12 508.71,-398.12 511.67,-398.12 514.62,-401.08 514.62,-404.04 514.62,-404.04 514.62,-409.96 514.62,-409.96 514.62,-412.92 511.67,-415.88 508.71,-415.88"/>
<text text-anchor="start" x="445.12" y="-403.32" font-family="Helvetica,sans-Serif" font-size="9.00">ErrorCenter.tsx</text>
</a>
</g>
</g>
<!-- src/ConfigApp/contextProvider.tsx&#45;&gt;src/common/ErrorCenter.tsx -->
<g id="edge5" class="edge">
<title>src/ConfigApp/contextProvider.tsx&#45;&gt;src/common/ErrorCenter.tsx</title>
<path fill="none" stroke="#000000" stroke-width="2" stroke-opacity="0.200000" d="M388.22,-427.67C400.88,-424.65 415.04,-421.27 428.19,-418.14"/>
<polygon fill="#000000" fill-opacity="0.200000" stroke="#000000" stroke-width="2" stroke-opacity="0.200000" points="428.37,-420.25 433.72,-416.82 427.4,-416.17 428.37,-420.25"/>
</g>
<!-- src/ConfigApp/index.tsx -->
<g id="node9" class="node">
<title>src/ConfigApp/index.tsx</title>
<g id="a_node9"><a xlink:href="src/ConfigApp/index.tsx" xlink:title="index.tsx">
<path fill="#bbfeff" stroke="black" d="M272.83,-430.88C272.83,-430.88 230.67,-430.88 230.67,-430.88 227.71,-430.88 224.75,-427.92 224.75,-424.96 224.75,-424.96 224.75,-419.04 224.75,-419.04 224.75,-416.08 227.71,-413.12 230.67,-413.12 230.67,-413.12 272.83,-413.12 272.83,-413.12 275.79,-413.12 278.75,-416.08 278.75,-419.04 278.75,-419.04 278.75,-424.96 278.75,-424.96 278.75,-427.92 275.79,-430.88 272.83,-430.88"/>
<text text-anchor="start" x="233.75" y="-418.32" font-family="Helvetica,sans-Serif" font-size="9.00">index.tsx</text>
</a>
</g>
</g>
<!-- src/ConfigApp/index.tsx&#45;&gt;src/ConfigApp/ConfigForm.tsx -->
<g id="edge6" class="edge">
<title>src/ConfigApp/index.tsx&#45;&gt;src/ConfigApp/ConfigForm.tsx</title>
<path fill="none" stroke="#000000" stroke-width="2" stroke-opacity="0.200000" d="M279.04,-417.82C285.7,-416.76 293.06,-415.59 300.41,-414.42"/>
<polygon fill="#000000" fill-opacity="0.200000" stroke="#000000" stroke-width="2" stroke-opacity="0.200000" points="300.4,-416.55 305.99,-413.54 299.74,-412.41 300.4,-416.55"/>
</g>
<!-- src/ConfigApp/index.tsx&#45;&gt;src/ConfigApp/contextProvider.tsx -->
<g id="edge7" class="edge">
<title>src/ConfigApp/index.tsx&#45;&gt;src/ConfigApp/contextProvider.tsx</title>
<path fill="none" stroke="#000000" stroke-width="2" stroke-opacity="0.200000" d="M279.04,-426.18C283.23,-426.84 287.69,-427.55 292.25,-428.28"/>
<polygon fill="#000000" fill-opacity="0.200000" stroke="#000000" stroke-width="2" stroke-opacity="0.200000" points="291.85,-430.34 298.11,-429.21 292.51,-426.19 291.85,-430.34"/>
</g>
<!-- src/__List.tsx -->
<g id="node10" class="node">
<title>src/__List.tsx</title>
<g id="a_node10"><a xlink:href="src/__List.tsx" xlink:title="no&#45;orphans">
<path fill="#ccffcc" stroke="orange" d="M81.96,-315.88C81.96,-315.88 39.54,-315.88 39.54,-315.88 36.58,-315.88 33.62,-312.92 33.62,-309.96 33.62,-309.96 33.62,-304.04 33.62,-304.04 33.62,-301.08 36.58,-298.12 39.54,-298.12 39.54,-298.12 81.96,-298.12 81.96,-298.12 84.92,-298.12 87.88,-301.08 87.88,-304.04 87.88,-304.04 87.88,-309.96 87.88,-309.96 87.88,-312.92 84.92,-315.88 81.96,-315.88"/>
<text text-anchor="start" x="41.62" y="-303.32" font-family="Helvetica,sans-Serif" font-size="9.00" fill="orange">__List.tsx</text>
</a>
</g>
</g>
<!-- src/common/DebouncedTextField.tsx -->
<g id="node11" class="node">
<title>src/common/DebouncedTextField.tsx</title>
<g id="a_node11"><a xlink:href="src/common/DebouncedTextField.tsx" xlink:title="no&#45;orphans">
<path fill="#ccffcc" stroke="orange" d="M527.08,-385.88C527.08,-385.88 424.67,-385.88 424.67,-385.88 421.71,-385.88 418.75,-382.92 418.75,-379.96 418.75,-379.96 418.75,-374.04 418.75,-374.04 418.75,-371.08 421.71,-368.12 424.67,-368.12 424.67,-368.12 527.08,-368.12 527.08,-368.12 530.04,-368.12 533,-371.08 533,-374.04 533,-374.04 533,-379.96 533,-379.96 533,-382.92 530.04,-385.88 527.08,-385.88"/>
<text text-anchor="start" x="426.75" y="-373.32" font-family="Helvetica,sans-Serif" font-size="9.00" fill="orange">DebouncedTextField.tsx</text>
</a>
</g>
</g>
<!-- src/common/MultiSelect.tsx -->
<g id="node13" class="node">
<title>src/common/MultiSelect.tsx</title>
<g id="a_node13"><a xlink:href="src/common/MultiSelect.tsx" xlink:title="MultiSelect.tsx">
<path fill="#bbfeff" stroke="black" d="M507.21,-325.88C507.21,-325.88 444.54,-325.88 444.54,-325.88 441.58,-325.88 438.62,-322.92 438.62,-319.96 438.62,-319.96 438.62,-314.04 438.62,-314.04 438.62,-311.08 441.58,-308.12 444.54,-308.12 444.54,-308.12 507.21,-308.12 507.21,-308.12 510.17,-308.12 513.12,-311.08 513.12,-314.04 513.12,-314.04 513.12,-319.96 513.12,-319.96 513.12,-322.92 510.17,-325.88 507.21,-325.88"/>
<text text-anchor="start" x="446.62" y="-313.32" font-family="Helvetica,sans-Serif" font-size="9.00">MultiSelect.tsx</text>
</a>
</g>
</g>
<!-- src/dynoapp/DynoForm.tsx&#45;&gt;src/common/MultiSelect.tsx -->
<g id="edge8" class="edge">
<title>src/dynoapp/DynoForm.tsx&#45;&gt;src/common/MultiSelect.tsx</title>
<path fill="none" stroke="#000000" stroke-width="2" stroke-opacity="0.200000" d="M384.51,-170.36C391.51,-172.66 398.12,-176.3 402.75,-182 419.6,-202.74 393.46,-281.62 410.75,-302 415.7,-307.83 422.43,-311.63 429.68,-314.08"/>
<polygon fill="#000000" fill-opacity="0.200000" stroke="#000000" stroke-width="2" stroke-opacity="0.200000" points="429.09,-316.09 435.43,-315.59 430.16,-312.03 429.09,-316.09"/>
</g>
<!-- src/dynoapp/DynoForm.tsx&#45;&gt;src/dynoapp/utils.ts -->
<g id="edge9" class="edge">
<title>src/dynoapp/DynoForm.tsx&#45;&gt;src/dynoapp/utils.ts</title>
<path fill="none" stroke="#000000" stroke-width="2" stroke-opacity="0.200000" d="M384.49,-163.06C401.81,-161.13 422.6,-158.82 439.87,-156.9"/>
<polygon fill="#000000" fill-opacity="0.200000" stroke="#000000" stroke-width="2" stroke-opacity="0.200000" points="439.81,-159.02 445.54,-156.27 439.34,-154.84 439.81,-159.02"/>
</g>
<!-- src/dynoapp/DynoList.tsx&#45;&gt;src/dynoapp/utils.ts -->
<g id="edge11" class="edge">
<title>src/dynoapp/DynoList.tsx&#45;&gt;src/dynoapp/utils.ts</title>
<path fill="none" stroke="#000000" stroke-width="2" stroke-opacity="0.200000" d="M381.1,-130.84C390.63,-133.16 401.11,-135.7 410.75,-138 420.19,-140.25 430.42,-142.66 439.88,-144.87"/>
<polygon fill="#000000" fill-opacity="0.200000" stroke="#000000" stroke-width="2" stroke-opacity="0.200000" points="439.39,-146.92 445.71,-146.23 440.34,-142.83 439.39,-146.92"/>
</g>
<!-- src/dynoapp/DynoRow.tsx -->
<g id="node18" class="node">
<title>src/dynoapp/DynoRow.tsx</title>
<g id="a_node18"><a xlink:href="src/dynoapp/DynoRow.tsx" xlink:title="DynoRow.tsx">
<path fill="#bbfeff" stroke="black" d="M504.58,-131.88C504.58,-131.88 447.17,-131.88 447.17,-131.88 444.21,-131.88 441.25,-128.92 441.25,-125.96 441.25,-125.96 441.25,-120.04 441.25,-120.04 441.25,-117.08 444.21,-114.12 447.17,-114.12 447.17,-114.12 504.58,-114.12 504.58,-114.12 507.54,-114.12 510.5,-117.08 510.5,-120.04 510.5,-120.04 510.5,-125.96 510.5,-125.96 510.5,-128.92 507.54,-131.88 504.58,-131.88"/>
<text text-anchor="start" x="449.25" y="-119.33" font-family="Helvetica,sans-Serif" font-size="9.00">DynoRow.tsx</text>
</a>
</g>
</g>
<!-- src/dynoapp/DynoList.tsx&#45;&gt;src/dynoapp/DynoRow.tsx -->
<g id="edge10" class="edge">
<title>src/dynoapp/DynoList.tsx&#45;&gt;src/dynoapp/DynoRow.tsx</title>
<path fill="none" stroke="#000000" stroke-width="2" stroke-opacity="0.200000" d="M381.18,-123C396.65,-123 415.43,-123 432.11,-123"/>
<polygon fill="#000000" fill-opacity="0.200000" stroke="#000000" stroke-width="2" stroke-opacity="0.200000" points="432.09,-125.1 438.09,-123 432.09,-120.9 432.09,-125.1"/>
</g>
<!-- src/dynoapp/FilterForm.tsx&#45;&gt;src/common/MultiSelect.tsx -->
<g id="edge12" class="edge">
<title>src/dynoapp/FilterForm.tsx&#45;&gt;src/common/MultiSelect.tsx</title>
<path fill="none" stroke="#000000" stroke-width="2" stroke-opacity="0.200000" d="M356.4,-236.17C371.93,-255.69 407.19,-299.79 410.75,-302 416.55,-305.61 423.14,-308.35 429.83,-310.43"/>
<polygon fill="#000000" fill-opacity="0.200000" stroke="#000000" stroke-width="2" stroke-opacity="0.200000" points="429.05,-312.4 435.39,-311.94 430.15,-308.34 429.05,-312.4"/>
</g>
<!-- src/dynoapp/hooks.ts&#45;&gt;src/clients/index.ts -->
<g id="edge13" class="edge">
<title>src/dynoapp/hooks.ts&#45;&gt;src/clients/index.ts</title>
<path fill="none" stroke="#000000" stroke-width="2" stroke-opacity="0.200000" d="M375.42,-197.96C385.55,-199.77 396.24,-203.72 402.75,-212 418.76,-232.37 395.34,-424.18 410.75,-445 417.66,-454.33 428.76,-459.74 439.8,-462.86"/>
<polygon fill="#000000" fill-opacity="0.200000" stroke="#000000" stroke-width="2" stroke-opacity="0.200000" points="439.29,-464.9 445.61,-464.21 440.25,-460.81 439.29,-464.9"/>
</g>
<!-- src/dynoapp/hooks.ts&#45;&gt;src/common/hooks.ts -->
<g id="edge14" class="edge">
<title>src/dynoapp/hooks.ts&#45;&gt;src/common/hooks.ts</title>
<path fill="none" stroke="#000000" stroke-width="2" stroke-opacity="0.200000" d="M375.51,-198.45C385.41,-200.36 395.9,-204.25 402.75,-212 418.53,-229.85 395.49,-246.7 410.75,-265 418.07,-273.77 429.05,-279.06 439.87,-282.23"/>
<polygon fill="#000000" fill-opacity="0.200000" stroke="#000000" stroke-width="2" stroke-opacity="0.200000" points="439.17,-284.23 445.5,-283.63 440.19,-280.15 439.17,-284.23"/>
</g>
<!-- src/index.tsx -->
<g id="node21" class="node">
<title>src/index.tsx</title>
<g id="a_node21"><a xlink:href="src/index.tsx" xlink:title="index.tsx">
<path fill="#bbfeff" stroke="black" d="M81.83,-100.88C81.83,-100.88 39.67,-100.88 39.67,-100.88 36.71,-100.88 33.75,-97.92 33.75,-94.96 33.75,-94.96 33.75,-89.04 33.75,-89.04 33.75,-86.08 36.71,-83.12 39.67,-83.12 39.67,-83.12 81.83,-83.12 81.83,-83.12 84.79,-83.12 87.75,-86.08 87.75,-89.04 87.75,-89.04 87.75,-94.96 87.75,-94.96 87.75,-97.92 84.79,-100.88 81.83,-100.88"/>
<text text-anchor="start" x="42.75" y="-88.33" font-family="Helvetica,sans-Serif" font-size="9.00">index.tsx</text>
</a>
</g>
</g>
<!-- src/index.tsx&#45;&gt;src/App.tsx -->
<g id="edge22" class="edge">
<title>src/index.tsx&#45;&gt;src/App.tsx</title>
<path fill="none" stroke="#000000" stroke-width="2" stroke-opacity="0.200000" d="M87.99,-84.46C100.15,-80.96 114.78,-76.76 127.84,-73"/>
<polygon fill="#000000" fill-opacity="0.200000" stroke="#000000" stroke-width="2" stroke-opacity="0.200000" points="128.07,-75.12 133.26,-71.44 126.91,-71.08 128.07,-75.12"/>
</g>
<!-- src/reportWebVitals.ts -->
<g id="node22" class="node">
<title>src/reportWebVitals.ts</title>
<g id="a_node22"><a xlink:href="src/reportWebVitals.ts" xlink:title="reportWebVitals.ts">
<path fill="#ddfeff" stroke="black" d="M202.83,-101.88C202.83,-101.88 124.42,-101.88 124.42,-101.88 121.46,-101.88 118.5,-98.92 118.5,-95.96 118.5,-95.96 118.5,-90.04 118.5,-90.04 118.5,-87.08 121.46,-84.12 124.42,-84.12 124.42,-84.12 202.83,-84.12 202.83,-84.12 205.79,-84.12 208.75,-87.08 208.75,-90.04 208.75,-90.04 208.75,-95.96 208.75,-95.96 208.75,-98.92 205.79,-101.88 202.83,-101.88"/>
<text text-anchor="start" x="126.5" y="-89.33" font-family="Helvetica,sans-Serif" font-size="9.00">reportWebVitals.ts</text>
</a>
</g>
</g>
<!-- src/index.tsx&#45;&gt;src/reportWebVitals.ts -->
<g id="edge23" class="edge">
<title>src/index.tsx&#45;&gt;src/reportWebVitals.ts</title>
<path fill="none" stroke="#000000" stroke-width="2" stroke-opacity="0.200000" d="M87.99,-92.26C94.62,-92.33 101.98,-92.4 109.42,-92.47"/>
<polygon fill="#000000" fill-opacity="0.200000" stroke="#000000" stroke-width="2" stroke-opacity="0.200000" points="109.11,-94.57 115.13,-92.53 109.15,-90.37 109.11,-94.57"/>
</g>
<!-- src/react&#45;app&#45;env.d.ts -->
<g id="node23" class="node">
<title>src/react&#45;app&#45;env.d.ts</title>
<g id="a_node23"><a xlink:href="src/react-app-env.d.ts" xlink:title="react&#45;app&#45;env.d.ts">
<path fill="#ccffcc" stroke="black" d="M99.58,-68.88C99.58,-68.88 21.92,-68.88 21.92,-68.88 18.96,-68.88 16,-65.92 16,-62.96 16,-62.96 16,-57.04 16,-57.04 16,-54.08 18.96,-51.12 21.92,-51.12 21.92,-51.12 99.58,-51.12 99.58,-51.12 102.54,-51.12 105.5,-54.08 105.5,-57.04 105.5,-57.04 105.5,-62.96 105.5,-62.96 105.5,-65.92 102.54,-68.88 99.58,-68.88"/>
<text text-anchor="start" x="24" y="-56.33" font-family="Helvetica,sans-Serif" font-size="9.00">react&#45;app&#45;env.d.ts</text>
</a>
</g>
</g>
<!-- src/setupTests.ts -->
<g id="node25" class="node">
<title>src/setupTests.ts</title>
<g id="a_node25"><a xlink:href="src/setupTests.ts" xlink:title="setupTests.ts">
<path fill="#ccffcc" stroke="black" d="M89.08,-34.88C89.08,-34.88 32.42,-34.88 32.42,-34.88 29.46,-34.88 26.5,-31.92 26.5,-28.96 26.5,-28.96 26.5,-23.04 26.5,-23.04 26.5,-20.08 29.46,-17.12 32.42,-17.12 32.42,-17.12 89.08,-17.12 89.08,-17.12 92.04,-17.12 95,-20.08 95,-23.04 95,-23.04 95,-28.96 95,-28.96 95,-31.92 92.04,-34.88 89.08,-34.88"/>
<text text-anchor="start" x="34.5" y="-22.32" font-family="Helvetica,sans-Serif" font-size="9.00">setupTests.ts</text>
</a>
</g>
</g>
</g>
</svg>
