<?xml version="1.0" encoding="UTF-8" standalone="no"?>
<!DOCTYPE svg PUBLIC "-//W3C//DTD SVG 1.1//EN"
 "http://www.w3.org/Graphics/SVG/1.1/DTD/svg11.dtd">
<!-- Generated by graphviz version 9.0.0 (20230911.1827)
 -->
<!-- Title: dependency&#45;cruiser output Pages: 1 -->
<svg width="564pt" height="544pt"
 viewBox="0.00 0.00 563.75 544.00" xmlns="http://www.w3.org/2000/svg" xmlns:xlink="http://www.w3.org/1999/xlink">
<g id="graph0" class="graph" transform="scale(1 1) rotate(0) translate(4 540)">
<title>dependency&#45;cruiser output</title>
<polygon fill="white" stroke="none" points="-4,4 -4,-540 559.75,-540 559.75,4 -4,4"/>
<g id="clust1" class="cluster">
<title>cluster_src</title>
<path fill="#ffffff" stroke="black" stroke-width="2" d="M20,-8C20,-8 535.75,-8 535.75,-8 541.75,-8 547.75,-14 547.75,-20 547.75,-20 547.75,-516 547.75,-516 547.75,-522 541.75,-528 535.75,-528 535.75,-528 20,-528 20,-528 14,-528 8,-522 8,-516 8,-516 8,-20 8,-20 8,-14 14,-8 20,-8"/>
<text text-anchor="middle" x="277.88" y="-515.45" font-family="Helvetica,sans-Serif" font-weight="bold" font-size="9.00">src</text>
</g>
<g id="clust2" class="cluster">
<title>cluster_src/clients</title>
<path fill="#ffffff" stroke="black" stroke-width="2" d="M451.62,-180C451.62,-180 497.62,-180 497.62,-180 503.62,-180 509.62,-186 509.62,-192 509.62,-192 509.62,-220 509.62,-220 509.62,-226 503.62,-232 497.62,-232 497.62,-232 451.62,-232 451.62,-232 445.62,-232 439.62,-226 439.62,-220 439.62,-220 439.62,-192 439.62,-192 439.62,-186 445.62,-180 451.62,-180"/>
<text text-anchor="middle" x="474.62" y="-219.45" font-family="Helvetica,sans-Serif" font-weight="bold" font-size="9.00">clients</text>
</g>
<g id="clust3" class="cluster">
<title>cluster_src/common</title>
<path fill="#ffffff" stroke="black" stroke-width="2" d="M421.5,-240C421.5,-240 527.75,-240 527.75,-240 533.75,-240 539.75,-246 539.75,-252 539.75,-252 539.75,-400 539.75,-400 539.75,-406 533.75,-412 527.75,-412 527.75,-412 421.5,-412 421.5,-412 415.5,-412 409.5,-406 409.5,-400 409.5,-400 409.5,-252 409.5,-252 409.5,-246 415.5,-240 421.5,-240"/>
<text text-anchor="middle" x="474.62" y="-399.45" font-family="Helvetica,sans-Serif" font-weight="bold" font-size="9.00">common</text>
</g>
<g id="clust4" class="cluster">
<title>cluster_src/dynoapp</title>
<path fill="#ffffff" stroke="black" stroke-width="2" d="M228.75,-16C228.75,-16 505.25,-16 505.25,-16 511.25,-16 517.25,-22 517.25,-28 517.25,-28 517.25,-160 517.25,-160 517.25,-166 511.25,-172 505.25,-172 505.25,-172 228.75,-172 228.75,-172 222.75,-172 216.75,-166 216.75,-160 216.75,-160 216.75,-28 216.75,-28 216.75,-22 222.75,-16 228.75,-16"/>
<text text-anchor="middle" x="367" y="-159.45" font-family="Helvetica,sans-Serif" font-weight="bold" font-size="9.00">dynoapp</text>
</g>
<g id="clust5" class="cluster">
<title>cluster_src/savedviewapp</title>
<path fill="#ffffff" stroke="black" stroke-width="2" d="M298.75,-420C298.75,-420 503.38,-420 503.38,-420 509.38,-420 515.38,-426 515.38,-432 515.38,-432 515.38,-490 515.38,-490 515.38,-496 509.38,-502 503.38,-502 503.38,-502 298.75,-502 298.75,-502 292.75,-502 286.75,-496 286.75,-490 286.75,-490 286.75,-432 286.75,-432 286.75,-426 292.75,-420 298.75,-420"/>
<text text-anchor="middle" x="401.06" y="-489.45" font-family="Helvetica,sans-Serif" font-weight="bold" font-size="9.00">savedviewapp</text>
</g>
<!-- src/App.tsx -->
<g id="node1" class="node">
<title>src/App.tsx</title>
<g id="a_node1"><a xlink:href="src/App.tsx" xlink:title="App.tsx">
<path fill="#bbfeff" stroke="black" d="M184.71,-445.88C184.71,-445.88 142.54,-445.88 142.54,-445.88 139.58,-445.88 136.62,-442.92 136.62,-439.96 136.62,-439.96 136.62,-434.04 136.62,-434.04 136.62,-431.08 139.58,-428.12 142.54,-428.12 142.54,-428.12 184.71,-428.12 184.71,-428.12 187.67,-428.12 190.62,-431.08 190.62,-434.04 190.62,-434.04 190.62,-439.96 190.62,-439.96 190.62,-442.92 187.67,-445.88 184.71,-445.88"/>
<text text-anchor="start" x="148.62" y="-433.32" font-family="Helvetica,sans-Serif" font-size="9.00">App.tsx</text>
</a>
</g>
</g>
<!-- src/dynoapp/index.tsx -->
<g id="node2" class="node">
<title>src/dynoapp/index.tsx</title>
<g id="a_node2"><a xlink:href="src/dynoapp/index.tsx" xlink:title="index.tsx">
<path fill="#bbfeff" stroke="black" d="M272.83,-130.88C272.83,-130.88 230.67,-130.88 230.67,-130.88 227.71,-130.88 224.75,-127.92 224.75,-124.96 224.75,-124.96 224.75,-119.04 224.75,-119.04 224.75,-116.08 227.71,-113.12 230.67,-113.12 230.67,-113.12 272.83,-113.12 272.83,-113.12 275.79,-113.12 278.75,-116.08 278.75,-119.04 278.75,-119.04 278.75,-124.96 278.75,-124.96 278.75,-127.92 275.79,-130.88 272.83,-130.88"/>
<text text-anchor="start" x="233.75" y="-118.33" font-family="Helvetica,sans-Serif" font-size="9.00">index.tsx</text>
</a>
</g>
</g>
<!-- src/App.tsx&#45;&gt;src/dynoapp/index.tsx -->
<g id="edge1" class="edge">
<title>src/App.tsx&#45;&gt;src/dynoapp/index.tsx</title>
<path fill="none" stroke="#000000" stroke-width="2" stroke-opacity="0.200000" d="M165.02,-427.75C167.13,-382.13 178.48,-181.54 216.75,-135 217.01,-134.68 217.28,-134.37 217.56,-134.07"/>
<polygon fill="#000000" fill-opacity="0.200000" stroke="#000000" stroke-width="2" stroke-opacity="0.200000" points="218.53,-135.98 221.98,-130.63 215.95,-132.66 218.53,-135.98"/>
</g>
<!-- src/savedviewapp/SearchParamForm.tsx -->
<g id="node3" class="node">
<title>src/savedviewapp/SearchParamForm.tsx</title>
<g id="a_node3"><a xlink:href="src/savedviewapp/SearchParamForm.tsx" xlink:title="SearchParamForm.tsx">
<path fill="#bbfeff" stroke="black" d="M395.58,-445.88C395.58,-445.88 300.67,-445.88 300.67,-445.88 297.71,-445.88 294.75,-442.92 294.75,-439.96 294.75,-439.96 294.75,-434.04 294.75,-434.04 294.75,-431.08 297.71,-428.12 300.67,-428.12 300.67,-428.12 395.58,-428.12 395.58,-428.12 398.54,-428.12 401.5,-431.08 401.5,-434.04 401.5,-434.04 401.5,-439.96 401.5,-439.96 401.5,-442.92 398.54,-445.88 395.58,-445.88"/>
<text text-anchor="start" x="302.75" y="-433.32" font-family="Helvetica,sans-Serif" font-size="9.00">SearchParamForm.tsx</text>
</a>
</g>
</g>
<!-- src/App.tsx&#45;&gt;src/savedviewapp/SearchParamForm.tsx -->
<g id="edge2" class="edge">
<title>src/App.tsx&#45;&gt;src/savedviewapp/SearchParamForm.tsx</title>
<path fill="none" stroke="#000000" stroke-width="2" stroke-opacity="0.200000" d="M190.77,-437C215.37,-437 253.13,-437 285.38,-437"/>
<polygon fill="#000000" fill-opacity="0.200000" stroke="#000000" stroke-width="2" stroke-opacity="0.200000" points="285.29,-439.1 291.29,-437 285.29,-434.9 285.29,-439.1"/>
</g>
<!-- src/savedviewapp/ViewRedirect.tsx -->
<g id="node4" class="node">
<title>src/savedviewapp/ViewRedirect.tsx</title>
<g id="a_node4"><a xlink:href="src/savedviewapp/ViewRedirect.tsx" xlink:title="ViewRedirect.tsx">
<path fill="#bbfeff" stroke="black" d="M384.33,-475.88C384.33,-475.88 311.92,-475.88 311.92,-475.88 308.96,-475.88 306,-472.92 306,-469.96 306,-469.96 306,-464.04 306,-464.04 306,-461.08 308.96,-458.12 311.92,-458.12 311.92,-458.12 384.33,-458.12 384.33,-458.12 387.29,-458.12 390.25,-461.08 390.25,-464.04 390.25,-464.04 390.25,-469.96 390.25,-469.96 390.25,-472.92 387.29,-475.88 384.33,-475.88"/>
<text text-anchor="start" x="314" y="-463.32" font-family="Helvetica,sans-Serif" font-size="9.00">ViewRedirect.tsx</text>
</a>
</g>
</g>
<!-- src/App.tsx&#45;&gt;src/savedviewapp/ViewRedirect.tsx -->
<g id="edge3" class="edge">
<title>src/App.tsx&#45;&gt;src/savedviewapp/ViewRedirect.tsx</title>
<path fill="none" stroke="#000000" stroke-width="2" stroke-opacity="0.200000" d="M190.77,-441.3C218.39,-445.84 262.62,-453.11 297,-458.76"/>
<polygon fill="#000000" fill-opacity="0.200000" stroke="#000000" stroke-width="2" stroke-opacity="0.200000" points="296.26,-460.77 302.53,-459.67 296.95,-456.62 296.26,-460.77"/>
</g>
<!-- src/dynoapp/index.tsx&#45;&gt;src/savedviewapp/SearchParamForm.tsx -->
<g id="edge12" class="edge">
<title>src/dynoapp/index.tsx&#45;&gt;src/savedviewapp/SearchParamForm.tsx</title>
<path fill="none" stroke="#000000" stroke-width="2" stroke-opacity="0.200000" d="M275.57,-131.36C276.77,-132.45 277.85,-133.66 278.75,-135 292.03,-154.8 282.31,-218.57 286.75,-242 299.49,-309.15 327.3,-385.8 340.24,-419.52"/>
<polygon fill="#000000" fill-opacity="0.200000" stroke="#000000" stroke-width="2" stroke-opacity="0.200000" points="338.25,-420.2 342.38,-425.03 342.17,-418.68 338.25,-420.2"/>
</g>
<!-- src/common/ModalContainer.tsx -->
<g id="node9" class="node">
<title>src/common/ModalContainer.tsx</title>
<g id="a_node9"><a xlink:href="src/common/ModalContainer.tsx" xlink:title="ModalContainer.tsx">
<path fill="#bbfeff" stroke="black" d="M516.46,-325.88C516.46,-325.88 432.79,-325.88 432.79,-325.88 429.83,-325.88 426.88,-322.92 426.88,-319.96 426.88,-319.96 426.88,-314.04 426.88,-314.04 426.88,-311.08 429.83,-308.12 432.79,-308.12 432.79,-308.12 516.46,-308.12 516.46,-308.12 519.42,-308.12 522.38,-311.08 522.38,-314.04 522.38,-314.04 522.38,-319.96 522.38,-319.96 522.38,-322.92 519.42,-325.88 516.46,-325.88"/>
<text text-anchor="start" x="434.88" y="-313.32" font-family="Helvetica,sans-Serif" font-size="9.00">ModalContainer.tsx</text>
</a>
</g>
</g>
<!-- src/dynoapp/index.tsx&#45;&gt;src/common/ModalContainer.tsx -->
<g id="edge11" class="edge">
<title>src/dynoapp/index.tsx&#45;&gt;src/common/ModalContainer.tsx</title>
<path fill="none" stroke="#000000" stroke-width="2" stroke-opacity="0.200000" d="M274.29,-131.24C275.9,-132.38 277.41,-133.63 278.75,-135 284.58,-140.97 282.29,-144.94 286.75,-152 332.71,-224.86 336.39,-256.43 409.5,-302 412.28,-303.73 415.25,-305.27 418.32,-306.63"/>
<polygon fill="#000000" fill-opacity="0.200000" stroke="#000000" stroke-width="2" stroke-opacity="0.200000" points="417.46,-308.55 423.82,-308.74 418.97,-304.63 417.46,-308.55"/>
</g>
<!-- src/dynoapp/DynoForm.tsx -->
<g id="node12" class="node">
<title>src/dynoapp/DynoForm.tsx</title>
<g id="a_node12"><a xlink:href="src/dynoapp/DynoForm.tsx" xlink:title="DynoForm.tsx">
<path fill="#bbfeff" stroke="black" d="M378.33,-85.88C378.33,-85.88 317.92,-85.88 317.92,-85.88 314.96,-85.88 312,-82.92 312,-79.96 312,-79.96 312,-74.04 312,-74.04 312,-71.08 314.96,-68.12 317.92,-68.12 317.92,-68.12 378.33,-68.12 378.33,-68.12 381.29,-68.12 384.25,-71.08 384.25,-74.04 384.25,-74.04 384.25,-79.96 384.25,-79.96 384.25,-82.92 381.29,-85.88 378.33,-85.88"/>
<text text-anchor="start" x="320" y="-73.33" font-family="Helvetica,sans-Serif" font-size="9.00">DynoForm.tsx</text>
</a>
</g>
</g>
<!-- src/dynoapp/index.tsx&#45;&gt;src/dynoapp/DynoForm.tsx -->
<g id="edge13" class="edge">
<title>src/dynoapp/index.tsx&#45;&gt;src/dynoapp/DynoForm.tsx</title>
<path fill="none" stroke="#000000" stroke-width="2" stroke-opacity="0.200000" d="M260.82,-112.82C267.21,-106.1 276.71,-97.27 286.75,-92 291.89,-89.3 297.53,-87.08 303.24,-85.24"/>
<polygon fill="#000000" fill-opacity="0.200000" stroke="#000000" stroke-width="2" stroke-opacity="0.200000" points="303.51,-87.35 308.69,-83.67 302.35,-83.32 303.51,-87.35"/>
</g>
<!-- src/dynoapp/utils.ts -->
<g id="node13" class="node">
<title>src/dynoapp/utils.ts</title>
<g id="a_node13"><a xlink:href="src/dynoapp/utils.ts" xlink:title="utils.ts">
<path fill="#ddfeff" stroke="black" d="M495.71,-71.88C495.71,-71.88 453.54,-71.88 453.54,-71.88 450.58,-71.88 447.62,-68.92 447.62,-65.96 447.62,-65.96 447.62,-60.04 447.62,-60.04 447.62,-57.08 450.58,-54.12 453.54,-54.12 453.54,-54.12 495.71,-54.12 495.71,-54.12 498.67,-54.12 501.62,-57.08 501.62,-60.04 501.62,-60.04 501.62,-65.96 501.62,-65.96 501.62,-68.92 498.67,-71.88 495.71,-71.88"/>
<text text-anchor="start" x="461.88" y="-59.33" font-family="Helvetica,sans-Serif" font-size="9.00">utils.ts</text>
</a>
</g>
</g>
<!-- src/dynoapp/index.tsx&#45;&gt;src/dynoapp/utils.ts -->
<g id="edge17" class="edge">
<title>src/dynoapp/index.tsx&#45;&gt;src/dynoapp/utils.ts</title>
<path fill="none" stroke="#000000" stroke-width="2" stroke-opacity="0.200000" d="M254.79,-113.06C258.48,-99.24 267.72,-73.09 286.75,-62 311.58,-47.53 391.56,-53.57 438.46,-58.66"/>
<polygon fill="#000000" fill-opacity="0.200000" stroke="#000000" stroke-width="2" stroke-opacity="0.200000" points="438.16,-60.74 444.36,-59.32 438.63,-56.57 438.16,-60.74"/>
</g>
<!-- src/dynoapp/DynoList.tsx -->
<g id="node14" class="node">
<title>src/dynoapp/DynoList.tsx</title>
<g id="a_node14"><a xlink:href="src/dynoapp/DynoList.tsx" xlink:title="DynoList.tsx">
<path fill="#bbfeff" stroke="black" d="M374.96,-41.88C374.96,-41.88 321.29,-41.88 321.29,-41.88 318.33,-41.88 315.38,-38.92 315.38,-35.96 315.38,-35.96 315.38,-30.04 315.38,-30.04 315.38,-27.08 318.33,-24.12 321.29,-24.12 321.29,-24.12 374.96,-24.12 374.96,-24.12 377.92,-24.12 380.88,-27.08 380.88,-30.04 380.88,-30.04 380.88,-35.96 380.88,-35.96 380.88,-38.92 377.92,-41.88 374.96,-41.88"/>
<text text-anchor="start" x="323.38" y="-29.32" font-family="Helvetica,sans-Serif" font-size="9.00">DynoList.tsx</text>
</a>
</g>
</g>
<!-- src/dynoapp/index.tsx&#45;&gt;src/dynoapp/DynoList.tsx -->
<g id="edge14" class="edge">
<title>src/dynoapp/index.tsx&#45;&gt;src/dynoapp/DynoList.tsx</title>
<path fill="none" stroke="#000000" stroke-width="2" stroke-opacity="0.200000" d="M254.65,-112.68C258.23,-97.51 267.42,-67.51 286.75,-51 292.43,-46.15 299.37,-42.61 306.5,-40.02"/>
<polygon fill="#000000" fill-opacity="0.200000" stroke="#000000" stroke-width="2" stroke-opacity="0.200000" points="306.91,-42.09 312.01,-38.3 305.65,-38.08 306.91,-42.09"/>
</g>
<!-- src/dynoapp/FilterForm.tsx -->
<g id="node16" class="node">
<title>src/dynoapp/FilterForm.tsx</title>
<g id="a_node16"><a xlink:href="src/dynoapp/FilterForm.tsx" xlink:title="FilterForm.tsx">
<path fill="#bbfeff" stroke="black" d="M377.58,-145.88C377.58,-145.88 318.67,-145.88 318.67,-145.88 315.71,-145.88 312.75,-142.92 312.75,-139.96 312.75,-139.96 312.75,-134.04 312.75,-134.04 312.75,-131.08 315.71,-128.12 318.67,-128.12 318.67,-128.12 377.58,-128.12 377.58,-128.12 380.54,-128.12 383.5,-131.08 383.5,-134.04 383.5,-134.04 383.5,-139.96 383.5,-139.96 383.5,-142.92 380.54,-145.88 377.58,-145.88"/>
<text text-anchor="start" x="320.75" y="-133.32" font-family="Helvetica,sans-Serif" font-size="9.00">FilterForm.tsx</text>
</a>
</g>
</g>
<!-- src/dynoapp/index.tsx&#45;&gt;src/dynoapp/FilterForm.tsx -->
<g id="edge15" class="edge">
<title>src/dynoapp/index.tsx&#45;&gt;src/dynoapp/FilterForm.tsx</title>
<path fill="none" stroke="#000000" stroke-width="2" stroke-opacity="0.200000" d="M279.04,-126.18C286.73,-127.4 295.35,-128.77 303.8,-130.11"/>
<polygon fill="#000000" fill-opacity="0.200000" stroke="#000000" stroke-width="2" stroke-opacity="0.200000" points="303.26,-132.15 309.51,-131.02 303.92,-128.01 303.26,-132.15"/>
</g>
<!-- src/dynoapp/hooks.ts -->
<g id="node17" class="node">
<title>src/dynoapp/hooks.ts</title>
<g id="a_node17"><a xlink:href="src/dynoapp/hooks.ts" xlink:title="hooks.ts">
<path fill="#ddfeff" stroke="black" d="M369.21,-115.88C369.21,-115.88 327.04,-115.88 327.04,-115.88 324.08,-115.88 321.12,-112.92 321.12,-109.96 321.12,-109.96 321.12,-104.04 321.12,-104.04 321.12,-101.08 324.08,-98.12 327.04,-98.12 327.04,-98.12 369.21,-98.12 369.21,-98.12 372.17,-98.12 375.12,-101.08 375.12,-104.04 375.12,-104.04 375.12,-109.96 375.12,-109.96 375.12,-112.92 372.17,-115.88 369.21,-115.88"/>
<text text-anchor="start" x="331.25" y="-103.33" font-family="Helvetica,sans-Serif" font-size="9.00">hooks.ts</text>
</a>
</g>
</g>
<!-- src/dynoapp/index.tsx&#45;&gt;src/dynoapp/hooks.ts -->
<g id="edge16" class="edge">
<title>src/dynoapp/index.tsx&#45;&gt;src/dynoapp/hooks.ts</title>
<path fill="none" stroke="#000000" stroke-width="2" stroke-opacity="0.200000" d="M279.04,-117.82C289.18,-116.21 300.93,-114.34 311.79,-112.62"/>
<polygon fill="#000000" fill-opacity="0.200000" stroke="#000000" stroke-width="2" stroke-opacity="0.200000" points="312.06,-114.7 317.66,-111.68 311.41,-110.55 312.06,-114.7"/>
</g>
<!-- src/common/hooks.ts -->
<g id="node11" class="node">
<title>src/common/hooks.ts</title>
<g id="a_node11"><a xlink:href="src/common/hooks.ts" xlink:title="hooks.ts">
<path fill="#ddfeff" stroke="black" d="M495.71,-295.88C495.71,-295.88 453.54,-295.88 453.54,-295.88 450.58,-295.88 447.62,-292.92 447.62,-289.96 447.62,-289.96 447.62,-284.04 447.62,-284.04 447.62,-281.08 450.58,-278.12 453.54,-278.12 453.54,-278.12 495.71,-278.12 495.71,-278.12 498.67,-278.12 501.62,-281.08 501.62,-284.04 501.62,-284.04 501.62,-289.96 501.62,-289.96 501.62,-292.92 498.67,-295.88 495.71,-295.88"/>
<text text-anchor="start" x="457.75" y="-283.32" font-family="Helvetica,sans-Serif" font-size="9.00">hooks.ts</text>
</a>
</g>
</g>
<!-- src/savedviewapp/SearchParamForm.tsx&#45;&gt;src/common/hooks.ts -->
<g id="edge20" class="edge">
<title>src/savedviewapp/SearchParamForm.tsx&#45;&gt;src/common/hooks.ts</title>
<path fill="none" stroke="#000000" stroke-width="2" stroke-opacity="0.200000" d="M350.41,-427.77C354.33,-403.22 368.51,-335.83 409.5,-302 417.62,-295.3 428.18,-291.48 438.39,-289.33"/>
<polygon fill="#000000" fill-opacity="0.200000" stroke="#000000" stroke-width="2" stroke-opacity="0.200000" points="438.65,-291.42 444.22,-288.35 437.95,-287.28 438.65,-291.42"/>
</g>
<!-- src/savedviewapp/viewStore.ts -->
<g id="node21" class="node">
<title>src/savedviewapp/viewStore.ts</title>
<g id="a_node21"><a xlink:href="src/savedviewapp/viewStore.ts" xlink:title="viewStore.ts">
<path fill="#ddfeff" stroke="black" d="M501.46,-460.88C501.46,-460.88 447.79,-460.88 447.79,-460.88 444.83,-460.88 441.88,-457.92 441.88,-454.96 441.88,-454.96 441.88,-449.04 441.88,-449.04 441.88,-446.08 444.83,-443.12 447.79,-443.12 447.79,-443.12 501.46,-443.12 501.46,-443.12 504.42,-443.12 507.38,-446.08 507.38,-449.04 507.38,-449.04 507.38,-454.96 507.38,-454.96 507.38,-457.92 504.42,-460.88 501.46,-460.88"/>
<text text-anchor="start" x="449.88" y="-448.32" font-family="Helvetica,sans-Serif" font-size="9.00">viewStore.ts</text>
</a>
</g>
</g>
<!-- src/savedviewapp/SearchParamForm.tsx&#45;&gt;src/savedviewapp/viewStore.ts -->
<g id="edge21" class="edge">
<title>src/savedviewapp/SearchParamForm.tsx&#45;&gt;src/savedviewapp/viewStore.ts</title>
<path fill="none" stroke="#000000" stroke-width="2" stroke-opacity="0.200000" d="M401.92,-443.36C412.28,-444.61 422.98,-445.9 432.87,-447.09"/>
<polygon fill="#000000" fill-opacity="0.200000" stroke="#000000" stroke-width="2" stroke-opacity="0.200000" points="432.47,-449.16 438.67,-447.79 432.97,-444.99 432.47,-449.16"/>
</g>
<!-- src/savedviewapp/ViewRedirect.tsx&#45;&gt;src/savedviewapp/viewStore.ts -->
<g id="edge22" class="edge">
<title>src/savedviewapp/ViewRedirect.tsx&#45;&gt;src/savedviewapp/viewStore.ts</title>
<path fill="none" stroke="#000000" stroke-width="2" stroke-opacity="0.200000" d="M390.58,-462.01C404.16,-460.37 419.23,-458.55 432.76,-456.92"/>
<polygon fill="#000000" fill-opacity="0.200000" stroke="#000000" stroke-width="2" stroke-opacity="0.200000" points="432.69,-459.05 438.4,-456.24 432.19,-454.88 432.69,-459.05"/>
</g>
<!-- src/__List.tsx -->
<g id="node5" class="node">
<title>src/__List.tsx</title>
<g id="a_node5"><a xlink:href="src/__List.tsx" xlink:title="no&#45;orphans">
<path fill="#ccffcc" stroke="orange" d="M81.96,-495.88C81.96,-495.88 39.54,-495.88 39.54,-495.88 36.58,-495.88 33.62,-492.92 33.62,-489.96 33.62,-489.96 33.62,-484.04 33.62,-484.04 33.62,-481.08 36.58,-478.12 39.54,-478.12 39.54,-478.12 81.96,-478.12 81.96,-478.12 84.92,-478.12 87.88,-481.08 87.88,-484.04 87.88,-484.04 87.88,-489.96 87.88,-489.96 87.88,-492.92 84.92,-495.88 81.96,-495.88"/>
<text text-anchor="start" x="41.62" y="-483.32" font-family="Helvetica,sans-Serif" font-size="9.00" fill="orange">__List.tsx</text>
</a>
</g>
</g>
<!-- src/clients/index.ts -->
<g id="node6" class="node">
<title>src/clients/index.ts</title>
<g id="a_node6"><a xlink:href="src/clients/index.ts" xlink:title="index.ts">
<path fill="#ddfeff" stroke="black" d="M495.71,-205.88C495.71,-205.88 453.54,-205.88 453.54,-205.88 450.58,-205.88 447.62,-202.92 447.62,-199.96 447.62,-199.96 447.62,-194.04 447.62,-194.04 447.62,-191.08 450.58,-188.12 453.54,-188.12 453.54,-188.12 495.71,-188.12 495.71,-188.12 498.67,-188.12 501.62,-191.08 501.62,-194.04 501.62,-194.04 501.62,-199.96 501.62,-199.96 501.62,-202.92 498.67,-205.88 495.71,-205.88"/>
<text text-anchor="start" x="458.88" y="-193.32" font-family="Helvetica,sans-Serif" font-size="9.00">index.ts</text>
</a>
</g>
</g>
<!-- src/common/DebouncedTextField.tsx -->
<g id="node7" class="node">
<title>src/common/DebouncedTextField.tsx</title>
<g id="a_node7"><a xlink:href="src/common/DebouncedTextField.tsx" xlink:title="no&#45;orphans">
<path fill="#ccffcc" stroke="orange" d="M525.83,-385.88C525.83,-385.88 423.42,-385.88 423.42,-385.88 420.46,-385.88 417.5,-382.92 417.5,-379.96 417.5,-379.96 417.5,-374.04 417.5,-374.04 417.5,-371.08 420.46,-368.12 423.42,-368.12 423.42,-368.12 525.83,-368.12 525.83,-368.12 528.79,-368.12 531.75,-371.08 531.75,-374.04 531.75,-374.04 531.75,-379.96 531.75,-379.96 531.75,-382.92 528.79,-385.88 525.83,-385.88"/>
<text text-anchor="start" x="425.5" y="-373.32" font-family="Helvetica,sans-Serif" font-size="9.00" fill="orange">DebouncedTextField.tsx</text>
</a>
</g>
</g>
<!-- src/common/ErrorCenter.tsx -->
<g id="node8" class="node">
<title>src/common/ErrorCenter.tsx</title>
<g id="a_node8"><a xlink:href="src/common/ErrorCenter.tsx" xlink:title="no&#45;orphans">
<path fill="#ccffcc" stroke="orange" d="M507.46,-355.88C507.46,-355.88 441.79,-355.88 441.79,-355.88 438.83,-355.88 435.88,-352.92 435.88,-349.96 435.88,-349.96 435.88,-344.04 435.88,-344.04 435.88,-341.08 438.83,-338.12 441.79,-338.12 441.79,-338.12 507.46,-338.12 507.46,-338.12 510.42,-338.12 513.38,-341.08 513.38,-344.04 513.38,-344.04 513.38,-349.96 513.38,-349.96 513.38,-352.92 510.42,-355.88 507.46,-355.88"/>
<text text-anchor="start" x="443.88" y="-343.32" font-family="Helvetica,sans-Serif" font-size="9.00" fill="orange">ErrorCenter.tsx</text>
</a>
</g>
</g>
<!-- src/common/MultiSelect.tsx -->
<g id="node10" class="node">
<title>src/common/MultiSelect.tsx</title>
<g id="a_node10"><a xlink:href="src/common/MultiSelect.tsx" xlink:title="MultiSelect.tsx">
<path fill="#bbfeff" stroke="black" d="M505.96,-265.88C505.96,-265.88 443.29,-265.88 443.29,-265.88 440.33,-265.88 437.38,-262.92 437.38,-259.96 437.38,-259.96 437.38,-254.04 437.38,-254.04 437.38,-251.08 440.33,-248.12 443.29,-248.12 443.29,-248.12 505.96,-248.12 505.96,-248.12 508.92,-248.12 511.88,-251.08 511.88,-254.04 511.88,-254.04 511.88,-259.96 511.88,-259.96 511.88,-262.92 508.92,-265.88 505.96,-265.88"/>
<text text-anchor="start" x="445.38" y="-253.32" font-family="Helvetica,sans-Serif" font-size="9.00">MultiSelect.tsx</text>
</a>
</g>
</g>
<!-- src/dynoapp/DynoForm.tsx&#45;&gt;src/common/MultiSelect.tsx -->
<g id="edge4" class="edge">
<title>src/dynoapp/DynoForm.tsx&#45;&gt;src/common/MultiSelect.tsx</title>
<path fill="none" stroke="#000000" stroke-width="2" stroke-opacity="0.200000" d="M384.55,-80.77C391.08,-83.07 397.19,-86.6 401.5,-92 421.36,-116.87 390.29,-209.63 409.5,-235 414.4,-241.48 421.33,-246.06 428.82,-249.3"/>
<polygon fill="#000000" fill-opacity="0.200000" stroke="#000000" stroke-width="2" stroke-opacity="0.200000" points="427.91,-251.2 434.27,-251.28 429.35,-247.26 427.91,-251.2"/>
</g>
<!-- src/dynoapp/DynoForm.tsx&#45;&gt;src/dynoapp/utils.ts -->
<g id="edge5" class="edge">
<title>src/dynoapp/DynoForm.tsx&#45;&gt;src/dynoapp/utils.ts</title>
<path fill="none" stroke="#000000" stroke-width="2" stroke-opacity="0.200000" d="M384.47,-73.03C401.49,-71.11 421.83,-68.82 438.78,-66.92"/>
<polygon fill="#000000" fill-opacity="0.200000" stroke="#000000" stroke-width="2" stroke-opacity="0.200000" points="438.57,-69.06 444.29,-66.3 438.1,-64.88 438.57,-69.06"/>
</g>
<!-- src/dynoapp/DynoList.tsx&#45;&gt;src/dynoapp/utils.ts -->
<g id="edge7" class="edge">
<title>src/dynoapp/DynoList.tsx&#45;&gt;src/dynoapp/utils.ts</title>
<path fill="none" stroke="#000000" stroke-width="2" stroke-opacity="0.200000" d="M381.06,-41.02C390.24,-43.3 400.26,-45.77 409.5,-48 418.93,-50.28 429.16,-52.69 438.62,-54.9"/>
<polygon fill="#000000" fill-opacity="0.200000" stroke="#000000" stroke-width="2" stroke-opacity="0.200000" points="438.13,-56.95 444.45,-56.26 439.08,-52.86 438.13,-56.95"/>
</g>
<!-- src/dynoapp/DynoRow.tsx -->
<g id="node15" class="node">
<title>src/dynoapp/DynoRow.tsx</title>
<g id="a_node15"><a xlink:href="src/dynoapp/DynoRow.tsx" xlink:title="DynoRow.tsx">
<path fill="#bbfeff" stroke="black" d="M503.33,-41.88C503.33,-41.88 445.92,-41.88 445.92,-41.88 442.96,-41.88 440,-38.92 440,-35.96 440,-35.96 440,-30.04 440,-30.04 440,-27.08 442.96,-24.12 445.92,-24.12 445.92,-24.12 503.33,-24.12 503.33,-24.12 506.29,-24.12 509.25,-27.08 509.25,-30.04 509.25,-30.04 509.25,-35.96 509.25,-35.96 509.25,-38.92 506.29,-41.88 503.33,-41.88"/>
<text text-anchor="start" x="448" y="-29.32" font-family="Helvetica,sans-Serif" font-size="9.00">DynoRow.tsx</text>
</a>
</g>
</g>
<!-- src/dynoapp/DynoList.tsx&#45;&gt;src/dynoapp/DynoRow.tsx -->
<g id="edge6" class="edge">
<title>src/dynoapp/DynoList.tsx&#45;&gt;src/dynoapp/DynoRow.tsx</title>
<path fill="none" stroke="#000000" stroke-width="2" stroke-opacity="0.200000" d="M381.19,-33C396.38,-33 414.75,-33 431.09,-33"/>
<polygon fill="#000000" fill-opacity="0.200000" stroke="#000000" stroke-width="2" stroke-opacity="0.200000" points="430.9,-35.1 436.9,-33 430.9,-30.9 430.9,-35.1"/>
</g>
<!-- src/dynoapp/FilterForm.tsx&#45;&gt;src/common/MultiSelect.tsx -->
<g id="edge8" class="edge">
<title>src/dynoapp/FilterForm.tsx&#45;&gt;src/common/MultiSelect.tsx</title>
<path fill="none" stroke="#000000" stroke-width="2" stroke-opacity="0.200000" d="M352.37,-146.3C359.58,-165.63 378.75,-210.41 409.5,-235 415.25,-239.6 422.01,-243.26 428.96,-246.17"/>
<polygon fill="#000000" fill-opacity="0.200000" stroke="#000000" stroke-width="2" stroke-opacity="0.200000" points="427.95,-248.04 434.31,-248.19 429.43,-244.11 427.95,-248.04"/>
</g>
<!-- src/dynoapp/hooks.ts&#45;&gt;src/clients/index.ts -->
<g id="edge9" class="edge">
<title>src/dynoapp/hooks.ts&#45;&gt;src/clients/index.ts</title>
<path fill="none" stroke="#000000" stroke-width="2" stroke-opacity="0.200000" d="M375.45,-108.71C384.96,-110.67 394.95,-114.54 401.5,-122 417.22,-139.9 394.24,-156.7 409.5,-175 416.82,-183.77 427.8,-189.06 438.62,-192.23"/>
<polygon fill="#000000" fill-opacity="0.200000" stroke="#000000" stroke-width="2" stroke-opacity="0.200000" points="437.92,-194.23 444.25,-193.63 438.94,-190.15 437.92,-194.23"/>
</g>
<!-- src/dynoapp/hooks.ts&#45;&gt;src/common/hooks.ts -->
<g id="edge10" class="edge">
<title>src/dynoapp/hooks.ts&#45;&gt;src/common/hooks.ts</title>
<path fill="none" stroke="#000000" stroke-width="2" stroke-opacity="0.200000" d="M375.56,-108.34C385.2,-110.24 395.25,-114.16 401.5,-122 422.3,-148.11 388.07,-246.41 409.5,-272 416.68,-280.58 427.74,-284.79 438.67,-286.72"/>
<polygon fill="#000000" fill-opacity="0.200000" stroke="#000000" stroke-width="2" stroke-opacity="0.200000" points="438.1,-288.76 444.32,-287.44 438.63,-284.6 438.1,-288.76"/>
</g>
<!-- src/index.tsx -->
<g id="node18" class="node">
<title>src/index.tsx</title>
<g id="a_node18"><a xlink:href="src/index.tsx" xlink:title="index.tsx">
<path fill="#bbfeff" stroke="black" d="M81.83,-452.88C81.83,-452.88 39.67,-452.88 39.67,-452.88 36.71,-452.88 33.75,-449.92 33.75,-446.96 33.75,-446.96 33.75,-441.04 33.75,-441.04 33.75,-438.08 36.71,-435.12 39.67,-435.12 39.67,-435.12 81.83,-435.12 81.83,-435.12 84.79,-435.12 87.75,-438.08 87.75,-441.04 87.75,-441.04 87.75,-446.96 87.75,-446.96 87.75,-449.92 84.79,-452.88 81.83,-452.88"/>
<text text-anchor="start" x="42.75" y="-440.32" font-family="Helvetica,sans-Serif" font-size="9.00">index.tsx</text>
</a>
</g>
</g>
<!-- src/index.tsx&#45;&gt;src/App.tsx -->
<g id="edge18" class="edge">
<title>src/index.tsx&#45;&gt;src/App.tsx</title>
<path fill="none" stroke="#000000" stroke-width="2" stroke-opacity="0.200000" d="M87.99,-442.18C100.04,-441.34 114.5,-440.34 127.47,-439.44"/>
<polygon fill="#000000" fill-opacity="0.200000" stroke="#000000" stroke-width="2" stroke-opacity="0.200000" points="127.31,-441.56 133.15,-439.05 127.01,-437.37 127.31,-441.56"/>
</g>
<!-- src/reportWebVitals.ts -->
<g id="node19" class="node">
<title>src/reportWebVitals.ts</title>
<g id="a_node19"><a xlink:href="src/reportWebVitals.ts" xlink:title="reportWebVitals.ts">
<path fill="#ddfeff" stroke="black" d="M202.83,-475.88C202.83,-475.88 124.42,-475.88 124.42,-475.88 121.46,-475.88 118.5,-472.92 118.5,-469.96 118.5,-469.96 118.5,-464.04 118.5,-464.04 118.5,-461.08 121.46,-458.12 124.42,-458.12 124.42,-458.12 202.83,-458.12 202.83,-458.12 205.79,-458.12 208.75,-461.08 208.75,-464.04 208.75,-464.04 208.75,-469.96 208.75,-469.96 208.75,-472.92 205.79,-475.88 202.83,-475.88"/>
<text text-anchor="start" x="126.5" y="-463.32" font-family="Helvetica,sans-Serif" font-size="9.00">reportWebVitals.ts</text>
</a>
</g>
</g>
<!-- src/index.tsx&#45;&gt;src/reportWebVitals.ts -->
<g id="edge19" class="edge">
<title>src/index.tsx&#45;&gt;src/reportWebVitals.ts</title>
<path fill="none" stroke="#000000" stroke-width="2" stroke-opacity="0.200000" d="M87.99,-449.98C95.7,-451.74 104.39,-453.72 113.05,-455.7"/>
<polygon fill="#000000" fill-opacity="0.200000" stroke="#000000" stroke-width="2" stroke-opacity="0.200000" points="112.39,-457.7 118.71,-456.99 113.32,-453.61 112.39,-457.7"/>
</g>
<!-- src/react&#45;app&#45;env.d.ts -->
<g id="node20" class="node">
<title>src/react&#45;app&#45;env.d.ts</title>
<g id="a_node20"><a xlink:href="src/react-app-env.d.ts" xlink:title="react&#45;app&#45;env.d.ts">
<path fill="#ccffcc" stroke="black" d="M99.58,-328.88C99.58,-328.88 21.92,-328.88 21.92,-328.88 18.96,-328.88 16,-325.92 16,-322.96 16,-322.96 16,-317.04 16,-317.04 16,-314.08 18.96,-311.12 21.92,-311.12 21.92,-311.12 99.58,-311.12 99.58,-311.12 102.54,-311.12 105.5,-314.08 105.5,-317.04 105.5,-317.04 105.5,-322.96 105.5,-322.96 105.5,-325.92 102.54,-328.88 99.58,-328.88"/>
<text text-anchor="start" x="24" y="-316.32" font-family="Helvetica,sans-Serif" font-size="9.00">react&#45;app&#45;env.d.ts</text>
</a>
</g>
</g>
<!-- src/setupTests.ts -->
<g id="node22" class="node">
<title>src/setupTests.ts</title>
<g id="a_node22"><a xlink:href="src/setupTests.ts" xlink:title="setupTests.ts">
<path fill="#ccffcc" stroke="black" d="M89.08,-109.88C89.08,-109.88 32.42,-109.88 32.42,-109.88 29.46,-109.88 26.5,-106.92 26.5,-103.96 26.5,-103.96 26.5,-98.04 26.5,-98.04 26.5,-95.08 29.46,-92.12 32.42,-92.12 32.42,-92.12 89.08,-92.12 89.08,-92.12 92.04,-92.12 95,-95.08 95,-98.04 95,-98.04 95,-103.96 95,-103.96 95,-106.92 92.04,-109.88 89.08,-109.88"/>
<text text-anchor="start" x="34.5" y="-97.33" font-family="Helvetica,sans-Serif" font-size="9.00">setupTests.ts</text>
</a>
</g>
</g>
</g>
</svg>
