<?xml version="1.0" encoding="UTF-8" standalone="no"?>
<!DOCTYPE svg PUBLIC "-//W3C//DTD SVG 1.1//EN"
 "http://www.w3.org/Graphics/SVG/1.1/DTD/svg11.dtd">
<!-- Generated by graphviz version 9.0.0 (20230911.1827)
 -->
<!-- Title: dependency&#45;cruiser output Pages: 1 -->
<svg width="740pt" height="300pt"
 viewBox="0.00 0.00 739.50 300.12" xmlns="http://www.w3.org/2000/svg" xmlns:xlink="http://www.w3.org/1999/xlink">
<g id="graph0" class="graph" transform="scale(1 1) rotate(0) translate(4 296.12)">
<title>dependency&#45;cruiser output</title>
<polygon fill="white" stroke="none" points="-4,4 -4,-296.12 735.5,-296.12 735.5,4 -4,4"/>
<g id="clust1" class="cluster">
<title>cluster_src</title>
<path fill="#ffffff" stroke="black" stroke-width="2" d="M20,-28.12C20,-28.12 711.5,-28.12 711.5,-28.12 717.5,-28.12 723.5,-34.12 723.5,-40.12 723.5,-40.12 723.5,-272.12 723.5,-272.12 723.5,-278.12 717.5,-284.12 711.5,-284.12 711.5,-284.12 20,-284.12 20,-284.12 14,-284.12 8,-278.12 8,-272.12 8,-272.12 8,-40.12 8,-40.12 8,-34.12 14,-28.12 20,-28.12"/>
<text text-anchor="middle" x="365.75" y="-271.57" font-family="Helvetica,sans-Serif" font-weight="bold" font-size="9.00">src</text>
</g>
<g id="clust2" class="cluster">
<title>cluster_src/ConfigApp</title>
<path fill="#ffffff" stroke="black" stroke-width="2" d="M402.38,-176.12C402.38,-176.12 565.25,-176.12 565.25,-176.12 571.25,-176.12 577.25,-182.12 577.25,-188.12 577.25,-188.12 577.25,-246.12 577.25,-246.12 577.25,-252.12 571.25,-258.12 565.25,-258.12 565.25,-258.12 402.38,-258.12 402.38,-258.12 396.38,-258.12 390.38,-252.12 390.38,-246.12 390.38,-246.12 390.38,-188.12 390.38,-188.12 390.38,-182.12 396.38,-176.12 402.38,-176.12"/>
<text text-anchor="middle" x="483.81" y="-245.57" font-family="Helvetica,sans-Serif" font-weight="bold" font-size="9.00">ConfigApp</text>
</g>
<g id="clust3" class="cluster">
<title>cluster_src/DynoApp</title>
<path fill="#ffffff" stroke="black" stroke-width="2" d="M228.75,-56.12C228.75,-56.12 456,-56.12 456,-56.12 462,-56.12 468,-62.12 468,-68.12 468,-68.12 468,-156.12 468,-156.12 468,-162.12 462,-168.12 456,-168.12 456,-168.12 228.75,-168.12 228.75,-168.12 222.75,-168.12 216.75,-162.12 216.75,-156.12 216.75,-156.12 216.75,-68.12 216.75,-68.12 216.75,-62.12 222.75,-56.12 228.75,-56.12"/>
<text text-anchor="middle" x="342.38" y="-155.57" font-family="Helvetica,sans-Serif" font-weight="bold" font-size="9.00">DynoApp</text>
</g>
<g id="clust4" class="cluster">
<title>cluster_src/clients</title>
<path fill="#ffffff" stroke="black" stroke-width="2" d="M627.38,-206.12C627.38,-206.12 673.38,-206.12 673.38,-206.12 679.38,-206.12 685.38,-212.12 685.38,-218.12 685.38,-218.12 685.38,-246.12 685.38,-246.12 685.38,-252.12 679.38,-258.12 673.38,-258.12 673.38,-258.12 627.38,-258.12 627.38,-258.12 621.38,-258.12 615.38,-252.12 615.38,-246.12 615.38,-246.12 615.38,-218.12 615.38,-218.12 615.38,-212.12 621.38,-206.12 627.38,-206.12"/>
<text text-anchor="middle" x="650.38" y="-245.57" font-family="Helvetica,sans-Serif" font-weight="bold" font-size="9.00">clients</text>
</g>
<g id="clust5" class="cluster">
<title>cluster_src/common</title>
<path fill="#ffffff" stroke="black" stroke-width="2" d="M597.25,-42.12C597.25,-42.12 703.5,-42.12 703.5,-42.12 709.5,-42.12 715.5,-48.12 715.5,-54.12 715.5,-54.12 715.5,-172.12 715.5,-172.12 715.5,-178.12 709.5,-184.12 703.5,-184.12 703.5,-184.12 597.25,-184.12 597.25,-184.12 591.25,-184.12 585.25,-178.12 585.25,-172.12 585.25,-172.12 585.25,-54.12 585.25,-54.12 585.25,-48.12 591.25,-42.12 597.25,-42.12"/>
<text text-anchor="middle" x="650.38" y="-171.57" font-family="Helvetica,sans-Serif" font-weight="bold" font-size="9.00">common</text>
</g>
<!-- src/App.tsx -->
<g id="node1" class="node">
<title>src/App.tsx</title>
<g id="a_node1"><a xlink:href="src/App.tsx" xlink:title="App.tsx">
<path fill="#bbfeff" stroke="black" d="M184.71,-133C184.71,-133 142.54,-133 142.54,-133 139.58,-133 136.62,-130.04 136.62,-127.08 136.62,-127.08 136.62,-121.17 136.62,-121.17 136.62,-118.21 139.58,-115.25 142.54,-115.25 142.54,-115.25 184.71,-115.25 184.71,-115.25 187.67,-115.25 190.62,-118.21 190.62,-121.17 190.62,-121.17 190.62,-127.08 190.62,-127.08 190.62,-130.04 187.67,-133 184.71,-133"/>
<text text-anchor="start" x="148.62" y="-120.45" font-family="Helvetica,sans-Serif" font-size="9.00">App.tsx</text>
</a>
</g>
</g>
<!-- src/ConfigApp/index.tsx -->
<g id="node2" class="node">
<title>src/ConfigApp/index.tsx</title>
<g id="a_node2"><a xlink:href="src/ConfigApp/index.tsx" xlink:title="index.tsx">
<path fill="#bbfeff" stroke="black" d="M446.46,-202C446.46,-202 404.29,-202 404.29,-202 401.33,-202 398.38,-199.04 398.38,-196.08 398.38,-196.08 398.38,-190.17 398.38,-190.17 398.38,-187.21 401.33,-184.25 404.29,-184.25 404.29,-184.25 446.46,-184.25 446.46,-184.25 449.42,-184.25 452.38,-187.21 452.38,-190.17 452.38,-190.17 452.38,-196.08 452.38,-196.08 452.38,-199.04 449.42,-202 446.46,-202"/>
<text text-anchor="start" x="407.38" y="-189.45" font-family="Helvetica,sans-Serif" font-size="9.00">index.tsx</text>
</a>
</g>
</g>
<!-- src/App.tsx&#45;&gt;src/ConfigApp/index.tsx -->
<g id="edge1" class="edge">
<title>src/App.tsx&#45;&gt;src/ConfigApp/index.tsx</title>
<path fill="none" stroke="#000000" stroke-width="2" stroke-opacity="0.200000" d="M190.92,-128.41C197.51,-130.63 204.04,-134 208.75,-139.12 218.68,-149.91 205.69,-161.5 216.75,-171.12 264.58,-212.71 343.92,-207.75 389.43,-200.43"/>
<polygon fill="#000000" fill-opacity="0.200000" stroke="#000000" stroke-width="2" stroke-opacity="0.200000" points="389.51,-202.55 395.07,-199.46 388.8,-198.41 389.51,-202.55"/>
</g>
<!-- src/DynoApp/DynoApp.tsx -->
<g id="node3" class="node">
<title>src/DynoApp/DynoApp.tsx</title>
<g id="a_node3"><a xlink:href="src/DynoApp/DynoApp.tsx" xlink:title="DynoApp.tsx">
<path fill="#bbfeff" stroke="black" d="M286.58,-112C286.58,-112 230.67,-112 230.67,-112 227.71,-112 224.75,-109.04 224.75,-106.08 224.75,-106.08 224.75,-100.17 224.75,-100.17 224.75,-97.21 227.71,-94.25 230.67,-94.25 230.67,-94.25 286.58,-94.25 286.58,-94.25 289.54,-94.25 292.5,-97.21 292.5,-100.17 292.5,-100.17 292.5,-106.08 292.5,-106.08 292.5,-109.04 289.54,-112 286.58,-112"/>
<text text-anchor="start" x="232.75" y="-99.45" font-family="Helvetica,sans-Serif" font-size="9.00">DynoApp.tsx</text>
</a>
</g>
</g>
<!-- src/App.tsx&#45;&gt;src/DynoApp/DynoApp.tsx -->
<g id="edge2" class="edge">
<title>src/App.tsx&#45;&gt;src/DynoApp/DynoApp.tsx</title>
<path fill="none" stroke="#000000" stroke-width="2" stroke-opacity="0.200000" d="M191.03,-118.16C198.76,-116.42 207.41,-114.46 215.85,-112.56"/>
<polygon fill="#000000" fill-opacity="0.200000" stroke="#000000" stroke-width="2" stroke-opacity="0.200000" points="216.18,-114.64 221.57,-111.27 215.25,-110.54 216.18,-114.64"/>
</g>
<!-- src/ConfigApp/ConfigForm.tsx -->
<g id="node4" class="node">
<title>src/ConfigApp/ConfigForm.tsx</title>
<g id="a_node4"><a xlink:href="src/ConfigApp/ConfigForm.tsx" xlink:title="ConfigForm.tsx">
<path fill="#bbfeff" stroke="black" d="M555.46,-202C555.46,-202 489.79,-202 489.79,-202 486.83,-202 483.88,-199.04 483.88,-196.08 483.88,-196.08 483.88,-190.17 483.88,-190.17 483.88,-187.21 486.83,-184.25 489.79,-184.25 489.79,-184.25 555.46,-184.25 555.46,-184.25 558.42,-184.25 561.38,-187.21 561.38,-190.17 561.38,-190.17 561.38,-196.08 561.38,-196.08 561.38,-199.04 558.42,-202 555.46,-202"/>
<text text-anchor="start" x="491.88" y="-189.45" font-family="Helvetica,sans-Serif" font-size="9.00">ConfigForm.tsx</text>
</a>
</g>
</g>
<!-- src/ConfigApp/index.tsx&#45;&gt;src/ConfigApp/ConfigForm.tsx -->
<g id="edge5" class="edge">
<title>src/ConfigApp/index.tsx&#45;&gt;src/ConfigApp/ConfigForm.tsx</title>
<path fill="none" stroke="#000000" stroke-width="2" stroke-opacity="0.200000" d="M452.65,-193.12C459.54,-193.12 467.18,-193.12 474.79,-193.12"/>
<polygon fill="#000000" fill-opacity="0.200000" stroke="#000000" stroke-width="2" stroke-opacity="0.200000" points="474.64,-195.22 480.64,-193.12 474.64,-191.02 474.64,-195.22"/>
</g>
<!-- src/ConfigApp/contextProvider.tsx -->
<g id="node5" class="node">
<title>src/ConfigApp/contextProvider.tsx</title>
<g id="a_node5"><a xlink:href="src/ConfigApp/contextProvider.tsx" xlink:title="contextProvider.tsx">
<path fill="#bbfeff" stroke="black" d="M563.33,-232C563.33,-232 481.92,-232 481.92,-232 478.96,-232 476,-229.04 476,-226.08 476,-226.08 476,-220.17 476,-220.17 476,-217.21 478.96,-214.25 481.92,-214.25 481.92,-214.25 563.33,-214.25 563.33,-214.25 566.29,-214.25 569.25,-217.21 569.25,-220.17 569.25,-220.17 569.25,-226.08 569.25,-226.08 569.25,-229.04 566.29,-232 563.33,-232"/>
<text text-anchor="start" x="484" y="-219.45" font-family="Helvetica,sans-Serif" font-size="9.00">contextProvider.tsx</text>
</a>
</g>
</g>
<!-- src/ConfigApp/index.tsx&#45;&gt;src/ConfigApp/contextProvider.tsx -->
<g id="edge6" class="edge">
<title>src/ConfigApp/index.tsx&#45;&gt;src/ConfigApp/contextProvider.tsx</title>
<path fill="none" stroke="#000000" stroke-width="2" stroke-opacity="0.200000" d="M452.65,-201.4C462.21,-204.41 473.2,-207.87 483.56,-211.14"/>
<polygon fill="#000000" fill-opacity="0.200000" stroke="#000000" stroke-width="2" stroke-opacity="0.200000" points="482.83,-213.11 489.19,-212.91 484.1,-209.1 482.83,-213.11"/>
</g>
<!-- src/DynoApp/DynoApp.tsx&#45;&gt;src/ConfigApp/index.tsx -->
<g id="edge9" class="edge">
<title>src/DynoApp/DynoApp.tsx&#45;&gt;src/ConfigApp/index.tsx</title>
<path fill="none" stroke="#000000" stroke-width="2" stroke-opacity="0.200000" d="M287.88,-112.39C289.54,-113.5 291.1,-114.74 292.5,-116.12 303.41,-126.93 293.77,-138.22 305.5,-148.12 330.62,-169.35 347.3,-151.71 377.75,-164.12 380.55,-165.26 392,-172.38 402.86,-179.28"/>
<polygon fill="#000000" fill-opacity="0.200000" stroke="#000000" stroke-width="2" stroke-opacity="0.200000" points="401.43,-180.86 407.61,-182.32 403.69,-177.32 401.43,-180.86"/>
</g>
<!-- src/common/ModalContainer.tsx -->
<g id="node8" class="node">
<title>src/common/ModalContainer.tsx</title>
<g id="a_node8"><a xlink:href="src/common/ModalContainer.tsx" xlink:title="ModalContainer.tsx">
<path fill="#bbfeff" stroke="black" d="M692.21,-98C692.21,-98 608.54,-98 608.54,-98 605.58,-98 602.62,-95.04 602.62,-92.08 602.62,-92.08 602.62,-86.17 602.62,-86.17 602.62,-83.21 605.58,-80.25 608.54,-80.25 608.54,-80.25 692.21,-80.25 692.21,-80.25 695.17,-80.25 698.12,-83.21 698.12,-86.17 698.12,-86.17 698.12,-92.08 698.12,-92.08 698.12,-95.04 695.17,-98 692.21,-98"/>
<text text-anchor="start" x="610.62" y="-85.45" font-family="Helvetica,sans-Serif" font-size="9.00">ModalContainer.tsx</text>
</a>
</g>
</g>
<!-- src/DynoApp/DynoApp.tsx&#45;&gt;src/common/ModalContainer.tsx -->
<g id="edge7" class="edge">
<title>src/DynoApp/DynoApp.tsx&#45;&gt;src/common/ModalContainer.tsx</title>
<path fill="none" stroke="#000000" stroke-width="2" stroke-opacity="0.200000" d="M263.95,-93.81C270.68,-80.56 285.05,-56.8 305.5,-47.12 414.66,4.56 480.47,25.14 577.25,-47.12 587.28,-54.61 576.15,-65.54 585.25,-74.12 587.96,-76.68 591.03,-78.83 594.31,-80.64"/>
<polygon fill="#000000" fill-opacity="0.200000" stroke="#000000" stroke-width="2" stroke-opacity="0.200000" points="593.2,-82.44 599.53,-83 594.93,-78.62 593.2,-82.44"/>
</g>
<!-- src/common/MultiSelect.tsx -->
<g id="node9" class="node">
<title>src/common/MultiSelect.tsx</title>
<g id="a_node9"><a xlink:href="src/common/MultiSelect.tsx" xlink:title="MultiSelect.tsx">
<path fill="#bbfeff" stroke="black" d="M681.71,-128C681.71,-128 619.04,-128 619.04,-128 616.08,-128 613.12,-125.04 613.12,-122.08 613.12,-122.08 613.12,-116.17 613.12,-116.17 613.12,-113.21 616.08,-110.25 619.04,-110.25 619.04,-110.25 681.71,-110.25 681.71,-110.25 684.67,-110.25 687.62,-113.21 687.62,-116.17 687.62,-116.17 687.62,-122.08 687.62,-122.08 687.62,-125.04 684.67,-128 681.71,-128"/>
<text text-anchor="start" x="621.12" y="-115.45" font-family="Helvetica,sans-Serif" font-size="9.00">MultiSelect.tsx</text>
</a>
</g>
</g>
<!-- src/DynoApp/DynoApp.tsx&#45;&gt;src/common/MultiSelect.tsx -->
<g id="edge8" class="edge">
<title>src/DynoApp/DynoApp.tsx&#45;&gt;src/common/MultiSelect.tsx</title>
<path fill="none" stroke="#000000" stroke-width="2" stroke-opacity="0.200000" d="M265.46,-94.11C273.13,-83.2 287.74,-65.38 305.5,-58.12 372.36,-30.81 397.04,-44.7 468,-58.12 523,-68.53 531.8,-87.48 585.25,-104.12 591.33,-106.02 597.8,-107.8 604.2,-109.42"/>
<polygon fill="#000000" fill-opacity="0.200000" stroke="#000000" stroke-width="2" stroke-opacity="0.200000" points="603.58,-111.43 609.9,-110.82 604.57,-107.35 603.58,-111.43"/>
</g>
<!-- src/DynoApp/DynoForm.tsx -->
<g id="node10" class="node">
<title>src/DynoApp/DynoForm.tsx</title>
<g id="a_node10"><a xlink:href="src/DynoApp/DynoForm.tsx" xlink:title="DynoForm.tsx">
<path fill="#bbfeff" stroke="black" d="M371.83,-112C371.83,-112 311.42,-112 311.42,-112 308.46,-112 305.5,-109.04 305.5,-106.08 305.5,-106.08 305.5,-100.17 305.5,-100.17 305.5,-97.21 308.46,-94.25 311.42,-94.25 311.42,-94.25 371.83,-94.25 371.83,-94.25 374.79,-94.25 377.75,-97.21 377.75,-100.17 377.75,-100.17 377.75,-106.08 377.75,-106.08 377.75,-109.04 374.79,-112 371.83,-112"/>
<text text-anchor="start" x="313.5" y="-99.45" font-family="Helvetica,sans-Serif" font-size="9.00">DynoForm.tsx</text>
</a>
</g>
</g>
<!-- src/DynoApp/DynoApp.tsx&#45;&gt;src/DynoApp/DynoForm.tsx -->
<g id="edge10" class="edge">
<title>src/DynoApp/DynoApp.tsx&#45;&gt;src/DynoApp/DynoForm.tsx</title>
<path fill="none" stroke="#000000" stroke-width="2" stroke-opacity="0.200000" d="M292.57,-103.12C293.73,-103.12 294.9,-103.12 296.07,-103.12"/>
<polygon fill="#000000" fill-opacity="0.200000" stroke="#000000" stroke-width="2" stroke-opacity="0.200000" points="296.04,-105.22 302.04,-103.12 296.04,-101.02 296.04,-105.22"/>
</g>
<!-- src/DynoApp/DynoList.tsx -->
<g id="node11" class="node">
<title>src/DynoApp/DynoList.tsx</title>
<g id="a_node11"><a xlink:href="src/DynoApp/DynoList.tsx" xlink:title="DynoList.tsx">
<path fill="#bbfeff" stroke="black" d="M368.46,-82C368.46,-82 314.79,-82 314.79,-82 311.83,-82 308.88,-79.04 308.88,-76.08 308.88,-76.08 308.88,-70.17 308.88,-70.17 308.88,-67.21 311.83,-64.25 314.79,-64.25 314.79,-64.25 368.46,-64.25 368.46,-64.25 371.42,-64.25 374.38,-67.21 374.38,-70.17 374.38,-70.17 374.38,-76.08 374.38,-76.08 374.38,-79.04 371.42,-82 368.46,-82"/>
<text text-anchor="start" x="316.88" y="-69.45" font-family="Helvetica,sans-Serif" font-size="9.00">DynoList.tsx</text>
</a>
</g>
</g>
<!-- src/DynoApp/DynoApp.tsx&#45;&gt;src/DynoApp/DynoList.tsx -->
<g id="edge11" class="edge">
<title>src/DynoApp/DynoApp.tsx&#45;&gt;src/DynoApp/DynoList.tsx</title>
<path fill="none" stroke="#000000" stroke-width="2" stroke-opacity="0.200000" d="M284.81,-93.8C291.97,-91.14 299.88,-88.21 307.44,-85.41"/>
<polygon fill="#000000" fill-opacity="0.200000" stroke="#000000" stroke-width="2" stroke-opacity="0.200000" points="307.72,-87.55 312.62,-83.5 306.26,-83.61 307.72,-87.55"/>
</g>
<!-- src/DynoApp/hooks.ts -->
<g id="node12" class="node">
<title>src/DynoApp/hooks.ts</title>
<g id="a_node12"><a xlink:href="src/DynoApp/hooks.ts" xlink:title="hooks.ts">
<path fill="#ddfeff" stroke="black" d="M362.71,-142C362.71,-142 320.54,-142 320.54,-142 317.58,-142 314.62,-139.04 314.62,-136.08 314.62,-136.08 314.62,-130.17 314.62,-130.17 314.62,-127.21 317.58,-124.25 320.54,-124.25 320.54,-124.25 362.71,-124.25 362.71,-124.25 365.67,-124.25 368.62,-127.21 368.62,-130.17 368.62,-130.17 368.62,-136.08 368.62,-136.08 368.62,-139.04 365.67,-142 362.71,-142"/>
<text text-anchor="start" x="324.75" y="-129.45" font-family="Helvetica,sans-Serif" font-size="9.00">hooks.ts</text>
</a>
</g>
</g>
<!-- src/DynoApp/DynoApp.tsx&#45;&gt;src/DynoApp/hooks.ts -->
<g id="edge12" class="edge">
<title>src/DynoApp/DynoApp.tsx&#45;&gt;src/DynoApp/hooks.ts</title>
<path fill="none" stroke="#000000" stroke-width="2" stroke-opacity="0.200000" d="M284.81,-112.45C291.97,-115.1 299.88,-118.03 307.44,-120.83"/>
<polygon fill="#000000" fill-opacity="0.200000" stroke="#000000" stroke-width="2" stroke-opacity="0.200000" points="306.26,-122.64 312.62,-122.75 307.72,-118.7 306.26,-122.64"/>
</g>
<!-- src/clients/index.ts -->
<g id="node6" class="node">
<title>src/clients/index.ts</title>
<g id="a_node6"><a xlink:href="src/clients/index.ts" xlink:title="index.ts">
<path fill="#ddfeff" stroke="black" d="M671.46,-232C671.46,-232 629.29,-232 629.29,-232 626.33,-232 623.38,-229.04 623.38,-226.08 623.38,-226.08 623.38,-220.17 623.38,-220.17 623.38,-217.21 626.33,-214.25 629.29,-214.25 629.29,-214.25 671.46,-214.25 671.46,-214.25 674.42,-214.25 677.38,-217.21 677.38,-220.17 677.38,-220.17 677.38,-226.08 677.38,-226.08 677.38,-229.04 674.42,-232 671.46,-232"/>
<text text-anchor="start" x="634.62" y="-219.45" font-family="Helvetica,sans-Serif" font-size="9.00">index.ts</text>
</a>
</g>
</g>
<!-- src/ConfigApp/contextProvider.tsx&#45;&gt;src/clients/index.ts -->
<g id="edge3" class="edge">
<title>src/ConfigApp/contextProvider.tsx&#45;&gt;src/clients/index.ts</title>
<path fill="none" stroke="#000000" stroke-width="2" stroke-opacity="0.200000" d="M569.74,-223.12C584.46,-223.12 600.5,-223.12 614.3,-223.12"/>
<polygon fill="#000000" fill-opacity="0.200000" stroke="#000000" stroke-width="2" stroke-opacity="0.200000" points="613.99,-225.22 619.99,-223.12 613.99,-221.02 613.99,-225.22"/>
</g>
<!-- src/common/ErrorCenter.tsx -->
<g id="node7" class="node">
<title>src/common/ErrorCenter.tsx</title>
<g id="a_node7"><a xlink:href="src/common/ErrorCenter.tsx" xlink:title="ErrorCenter.tsx">
<path fill="#bbfeff" stroke="black" d="M683.21,-158C683.21,-158 617.54,-158 617.54,-158 614.58,-158 611.62,-155.04 611.62,-152.08 611.62,-152.08 611.62,-146.17 611.62,-146.17 611.62,-143.21 614.58,-140.25 617.54,-140.25 617.54,-140.25 683.21,-140.25 683.21,-140.25 686.17,-140.25 689.12,-143.21 689.12,-146.17 689.12,-146.17 689.12,-152.08 689.12,-152.08 689.12,-155.04 686.17,-158 683.21,-158"/>
<text text-anchor="start" x="619.62" y="-145.45" font-family="Helvetica,sans-Serif" font-size="9.00">ErrorCenter.tsx</text>
</a>
</g>
</g>
<!-- src/ConfigApp/contextProvider.tsx&#45;&gt;src/common/ErrorCenter.tsx -->
<g id="edge4" class="edge">
<title>src/ConfigApp/contextProvider.tsx&#45;&gt;src/common/ErrorCenter.tsx</title>
<path fill="none" stroke="#000000" stroke-width="2" stroke-opacity="0.200000" d="M563.86,-213.85C568.49,-212.21 573.05,-210.31 577.25,-208.12 589.04,-202 615.38,-179.46 632.75,-164.08"/>
<polygon fill="#000000" fill-opacity="0.200000" stroke="#000000" stroke-width="2" stroke-opacity="0.200000" points="633.8,-165.96 636.88,-160.4 631,-162.82 633.8,-165.96"/>
</g>
<!-- src/DynoApp/DynoForm.tsx&#45;&gt;src/common/MultiSelect.tsx -->
<g id="edge13" class="edge">
<title>src/DynoApp/DynoForm.tsx&#45;&gt;src/common/MultiSelect.tsx</title>
<path fill="none" stroke="#000000" stroke-width="2" stroke-opacity="0.200000" d="M367.07,-112.35C374.45,-114.71 382.65,-116.92 390.38,-118.12 464.36,-129.62 551.67,-126.58 603.67,-123.06"/>
<polygon fill="#000000" fill-opacity="0.200000" stroke="#000000" stroke-width="2" stroke-opacity="0.200000" points="603.79,-125.15 609.63,-122.63 603.49,-120.96 603.79,-125.15"/>
</g>
<!-- src/DynoApp/utils.ts -->
<g id="node13" class="node">
<title>src/DynoApp/utils.ts</title>
<g id="a_node13"><a xlink:href="src/DynoApp/utils.ts" xlink:title="utils.ts">
<path fill="#ddfeff" stroke="black" d="M446.46,-112C446.46,-112 404.29,-112 404.29,-112 401.33,-112 398.38,-109.04 398.38,-106.08 398.38,-106.08 398.38,-100.17 398.38,-100.17 398.38,-97.21 401.33,-94.25 404.29,-94.25 404.29,-94.25 446.46,-94.25 446.46,-94.25 449.42,-94.25 452.38,-97.21 452.38,-100.17 452.38,-100.17 452.38,-106.08 452.38,-106.08 452.38,-109.04 449.42,-112 446.46,-112"/>
<text text-anchor="start" x="412.62" y="-99.45" font-family="Helvetica,sans-Serif" font-size="9.00">utils.ts</text>
</a>
</g>
</g>
<!-- src/DynoApp/DynoForm.tsx&#45;&gt;src/DynoApp/utils.ts -->
<g id="edge14" class="edge">
<title>src/DynoApp/DynoForm.tsx&#45;&gt;src/DynoApp/utils.ts</title>
<path fill="none" stroke="#000000" stroke-width="2" stroke-opacity="0.200000" d="M378.24,-103.12C381.91,-103.12 385.64,-103.12 389.31,-103.12"/>
<polygon fill="#000000" fill-opacity="0.200000" stroke="#000000" stroke-width="2" stroke-opacity="0.200000" points="389.19,-105.22 395.19,-103.12 389.19,-101.02 389.19,-105.22"/>
</g>
<!-- src/DynoApp/DynoList.tsx&#45;&gt;src/DynoApp/utils.ts -->
<g id="edge16" class="edge">
<title>src/DynoApp/DynoList.tsx&#45;&gt;src/DynoApp/utils.ts</title>
<path fill="none" stroke="#000000" stroke-width="2" stroke-opacity="0.200000" d="M368.04,-82.45C375.27,-85.1 383.26,-88.03 390.89,-90.83"/>
<polygon fill="#000000" fill-opacity="0.200000" stroke="#000000" stroke-width="2" stroke-opacity="0.200000" points="389.77,-92.66 396.13,-92.76 391.22,-88.72 389.77,-92.66"/>
</g>
<!-- src/DynoApp/DynoRow.tsx -->
<g id="node14" class="node">
<title>src/DynoApp/DynoRow.tsx</title>
<g id="a_node14"><a xlink:href="src/DynoApp/DynoRow.tsx" xlink:title="DynoRow.tsx">
<path fill="#bbfeff" stroke="black" d="M454.08,-82C454.08,-82 396.67,-82 396.67,-82 393.71,-82 390.75,-79.04 390.75,-76.08 390.75,-76.08 390.75,-70.17 390.75,-70.17 390.75,-67.21 393.71,-64.25 396.67,-64.25 396.67,-64.25 454.08,-64.25 454.08,-64.25 457.04,-64.25 460,-67.21 460,-70.17 460,-70.17 460,-76.08 460,-76.08 460,-79.04 457.04,-82 454.08,-82"/>
<text text-anchor="start" x="398.75" y="-69.45" font-family="Helvetica,sans-Serif" font-size="9.00">DynoRow.tsx</text>
</a>
</g>
</g>
<!-- src/DynoApp/DynoList.tsx&#45;&gt;src/DynoApp/DynoRow.tsx -->
<g id="edge15" class="edge">
<title>src/DynoApp/DynoList.tsx&#45;&gt;src/DynoApp/DynoRow.tsx</title>
<path fill="none" stroke="#000000" stroke-width="2" stroke-opacity="0.200000" d="M374.47,-73.12C376.74,-73.12 379.06,-73.12 381.38,-73.12"/>
<polygon fill="#000000" fill-opacity="0.200000" stroke="#000000" stroke-width="2" stroke-opacity="0.200000" points="381.3,-75.22 387.3,-73.12 381.3,-71.02 381.3,-75.22"/>
</g>
<!-- src/DynoApp/hooks.ts&#45;&gt;src/ConfigApp/index.tsx -->
<g id="edge17" class="edge">
<title>src/DynoApp/hooks.ts&#45;&gt;src/ConfigApp/index.tsx</title>
<path fill="none" stroke="#000000" stroke-width="2" stroke-opacity="0.200000" d="M359.89,-142.32C365.86,-145.91 372.39,-150.32 377.75,-155.12 384.49,-161.17 383.68,-165.03 390.38,-171.12 393.38,-173.86 396.76,-176.48 400.2,-178.9"/>
<polygon fill="#000000" fill-opacity="0.200000" stroke="#000000" stroke-width="2" stroke-opacity="0.200000" points="398.99,-180.62 405.15,-182.18 401.3,-177.12 398.99,-180.62"/>
</g>
<!-- src/__List.tsx -->
<g id="node15" class="node">
<title>src/__List.tsx</title>
<g id="a_node15"><a xlink:href="src/__List.tsx" xlink:title="no&#45;orphans">
<path fill="#ccffcc" stroke="orange" d="M81.96,-222C81.96,-222 39.54,-222 39.54,-222 36.58,-222 33.62,-219.04 33.62,-216.08 33.62,-216.08 33.62,-210.17 33.62,-210.17 33.62,-207.21 36.58,-204.25 39.54,-204.25 39.54,-204.25 81.96,-204.25 81.96,-204.25 84.92,-204.25 87.88,-207.21 87.88,-210.17 87.88,-210.17 87.88,-216.08 87.88,-216.08 87.88,-219.04 84.92,-222 81.96,-222"/>
<text text-anchor="start" x="41.62" y="-209.45" font-family="Helvetica,sans-Serif" font-size="9.00" fill="orange">__List.tsx</text>
</a>
</g>
</g>
<!-- src/common/DebouncedTextField.tsx -->
<g id="node16" class="node">
<title>src/common/DebouncedTextField.tsx</title>
<g id="a_node16"><a xlink:href="src/common/DebouncedTextField.tsx" xlink:title="no&#45;orphans">
<path fill="#ccffcc" stroke="orange" d="M701.58,-68C701.58,-68 599.17,-68 599.17,-68 596.21,-68 593.25,-65.04 593.25,-62.08 593.25,-62.08 593.25,-56.17 593.25,-56.17 593.25,-53.21 596.21,-50.25 599.17,-50.25 599.17,-50.25 701.58,-50.25 701.58,-50.25 704.54,-50.25 707.5,-53.21 707.5,-56.17 707.5,-56.17 707.5,-62.08 707.5,-62.08 707.5,-65.04 704.54,-68 701.58,-68"/>
<text text-anchor="start" x="601.25" y="-55.45" font-family="Helvetica,sans-Serif" font-size="9.00" fill="orange">DebouncedTextField.tsx</text>
</a>
</g>
</g>
<!-- src/index.tsx -->
<g id="node17" class="node">
<title>src/index.tsx</title>
<g id="a_node17"><a xlink:href="src/index.tsx" xlink:title="index.tsx">
<path fill="#bbfeff" stroke="black" d="M81.83,-149C81.83,-149 39.67,-149 39.67,-149 36.71,-149 33.75,-146.04 33.75,-143.08 33.75,-143.08 33.75,-137.17 33.75,-137.17 33.75,-134.21 36.71,-131.25 39.67,-131.25 39.67,-131.25 81.83,-131.25 81.83,-131.25 84.79,-131.25 87.75,-134.21 87.75,-137.17 87.75,-137.17 87.75,-143.08 87.75,-143.08 87.75,-146.04 84.79,-149 81.83,-149"/>
<text text-anchor="start" x="42.75" y="-136.45" font-family="Helvetica,sans-Serif" font-size="9.00">index.tsx</text>
</a>
</g>
</g>
<!-- src/index.tsx&#45;&gt;src/App.tsx -->
<g id="edge18" class="edge">
<title>src/index.tsx&#45;&gt;src/App.tsx</title>
<path fill="none" stroke="#000000" stroke-width="2" stroke-opacity="0.200000" d="M87.99,-135.96C100.04,-134.05 114.5,-131.76 127.47,-129.7"/>
<polygon fill="#000000" fill-opacity="0.200000" stroke="#000000" stroke-width="2" stroke-opacity="0.200000" points="127.58,-131.81 133.18,-128.79 126.92,-127.66 127.58,-131.81"/>
</g>
<!-- src/reportWebVitals.ts -->
<g id="node18" class="node">
<title>src/reportWebVitals.ts</title>
<g id="a_node18"><a xlink:href="src/reportWebVitals.ts" xlink:title="reportWebVitals.ts">
<path fill="#ddfeff" stroke="black" d="M202.83,-163C202.83,-163 124.42,-163 124.42,-163 121.46,-163 118.5,-160.04 118.5,-157.08 118.5,-157.08 118.5,-151.17 118.5,-151.17 118.5,-148.21 121.46,-145.25 124.42,-145.25 124.42,-145.25 202.83,-145.25 202.83,-145.25 205.79,-145.25 208.75,-148.21 208.75,-151.17 208.75,-151.17 208.75,-157.08 208.75,-157.08 208.75,-160.04 205.79,-163 202.83,-163"/>
<text text-anchor="start" x="126.5" y="-150.45" font-family="Helvetica,sans-Serif" font-size="9.00">reportWebVitals.ts</text>
</a>
</g>
</g>
<!-- src/index.tsx&#45;&gt;src/reportWebVitals.ts -->
<g id="edge19" class="edge">
<title>src/index.tsx&#45;&gt;src/reportWebVitals.ts</title>
<path fill="none" stroke="#000000" stroke-width="2" stroke-opacity="0.200000" d="M87.99,-143.77C94.62,-144.69 101.98,-145.71 109.42,-146.74"/>
<polygon fill="#000000" fill-opacity="0.200000" stroke="#000000" stroke-width="2" stroke-opacity="0.200000" points="108.92,-148.79 115.16,-147.54 109.5,-144.63 108.92,-148.79"/>
</g>
<!-- src/react&#45;app&#45;env.d.ts -->
<g id="node19" class="node">
<title>src/react&#45;app&#45;env.d.ts</title>
<g id="a_node19"><a xlink:href="src/react-app-env.d.ts" xlink:title="react&#45;app&#45;env.d.ts">
<path fill="#ccffcc" stroke="black" d="M99.58,-112C99.58,-112 21.92,-112 21.92,-112 18.96,-112 16,-109.04 16,-106.08 16,-106.08 16,-100.17 16,-100.17 16,-97.21 18.96,-94.25 21.92,-94.25 21.92,-94.25 99.58,-94.25 99.58,-94.25 102.54,-94.25 105.5,-97.21 105.5,-100.17 105.5,-100.17 105.5,-106.08 105.5,-106.08 105.5,-109.04 102.54,-112 99.58,-112"/>
<text text-anchor="start" x="24" y="-99.45" font-family="Helvetica,sans-Serif" font-size="9.00">react&#45;app&#45;env.d.ts</text>
</a>
</g>
</g>
<!-- src/setupTests.ts -->
<g id="node20" class="node">
<title>src/setupTests.ts</title>
<g id="a_node20"><a xlink:href="src/setupTests.ts" xlink:title="setupTests.ts">
<path fill="#ccffcc" stroke="black" d="M89.08,-68C89.08,-68 32.42,-68 32.42,-68 29.46,-68 26.5,-65.04 26.5,-62.08 26.5,-62.08 26.5,-56.17 26.5,-56.17 26.5,-53.21 29.46,-50.25 32.42,-50.25 32.42,-50.25 89.08,-50.25 89.08,-50.25 92.04,-50.25 95,-53.21 95,-56.17 95,-56.17 95,-62.08 95,-62.08 95,-65.04 92.04,-68 89.08,-68"/>
<text text-anchor="start" x="34.5" y="-55.45" font-family="Helvetica,sans-Serif" font-size="9.00">setupTests.ts</text>
</a>
</g>
</g>
</g>
</svg>
