<?xml version="1.0" encoding="UTF-8" standalone="no"?>
<!DOCTYPE svg PUBLIC "-//W3C//DTD SVG 1.1//EN"
 "http://www.w3.org/Graphics/SVG/1.1/DTD/svg11.dtd">
<!-- Generated by graphviz version 9.0.0 (20230911.1827)
 -->
<!-- Title: dependency&#45;cruiser output Pages: 1 -->
<svg width="810pt" height="416pt"
 viewBox="0.00 0.00 809.50 416.00" xmlns="http://www.w3.org/2000/svg" xmlns:xlink="http://www.w3.org/1999/xlink">
<g id="graph0" class="graph" transform="scale(1 1) rotate(0) translate(4 412)">
<title>dependency&#45;cruiser output</title>
<polygon fill="white" stroke="none" points="-4,4 -4,-412 805.5,-412 805.5,4 -4,4"/>
<g id="clust1" class="cluster">
<title>cluster_src</title>
<path fill="#ffffff" stroke="black" stroke-width="2" d="M20,-8C20,-8 781.5,-8 781.5,-8 787.5,-8 793.5,-14 793.5,-20 793.5,-20 793.5,-388 793.5,-388 793.5,-394 787.5,-400 781.5,-400 781.5,-400 20,-400 20,-400 14,-400 8,-394 8,-388 8,-388 8,-20 8,-20 8,-14 14,-8 20,-8"/>
<text text-anchor="middle" x="400.75" y="-387.45" font-family="Helvetica,sans-Serif" font-weight="bold" font-size="9.00">src</text>
</g>
<g id="clust2" class="cluster">
<title>cluster_src/clients</title>
<path fill="#ffffff" stroke="black" stroke-width="2" d="M665.5,-118C665.5,-118 711.5,-118 711.5,-118 717.5,-118 723.5,-124 723.5,-130 723.5,-130 723.5,-158 723.5,-158 723.5,-164 717.5,-170 711.5,-170 711.5,-170 665.5,-170 665.5,-170 659.5,-170 653.5,-164 653.5,-158 653.5,-158 653.5,-130 653.5,-130 653.5,-124 659.5,-118 665.5,-118"/>
<text text-anchor="middle" x="688.5" y="-157.45" font-family="Helvetica,sans-Serif" font-weight="bold" font-size="9.00">clients</text>
</g>
<g id="clust3" class="cluster">
<title>cluster_src/common</title>
<path fill="#ffffff" stroke="black" stroke-width="2" d="M228.75,-52C228.75,-52 633.5,-52 633.5,-52 639.5,-52 645.5,-58 645.5,-64 645.5,-64 645.5,-182 645.5,-182 645.5,-188 639.5,-194 633.5,-194 633.5,-194 228.75,-194 228.75,-194 222.75,-194 216.75,-188 216.75,-182 216.75,-182 216.75,-64 216.75,-64 216.75,-58 222.75,-52 228.75,-52"/>
<text text-anchor="middle" x="431.12" y="-181.45" font-family="Helvetica,sans-Serif" font-weight="bold" font-size="9.00">common</text>
</g>
<g id="clust4" class="cluster">
<title>cluster_src/dynotable</title>
<path fill="#ffffff" stroke="black" stroke-width="2" d="M244.12,-292C244.12,-292 711.5,-292 711.5,-292 717.5,-292 723.5,-298 723.5,-304 723.5,-304 723.5,-362 723.5,-362 723.5,-368 717.5,-374 711.5,-374 711.5,-374 244.12,-374 244.12,-374 238.12,-374 232.12,-368 232.12,-362 232.12,-362 232.12,-304 232.12,-304 232.12,-298 238.12,-292 244.12,-292"/>
<text text-anchor="middle" x="477.81" y="-361.45" font-family="Helvetica,sans-Serif" font-weight="bold" font-size="9.00">dynotable</text>
</g>
<g id="clust5" class="cluster">
<title>cluster_src/fields</title>
<path fill="#ffffff" stroke="black" stroke-width="2" d="M557.62,-202C557.62,-202 624.12,-202 624.12,-202 630.12,-202 636.12,-208 636.12,-214 636.12,-214 636.12,-272 636.12,-272 636.12,-278 630.12,-284 624.12,-284 624.12,-284 557.62,-284 557.62,-284 551.62,-284 545.62,-278 545.62,-272 545.62,-272 545.62,-214 545.62,-214 545.62,-208 551.62,-202 557.62,-202"/>
<text text-anchor="middle" x="590.88" y="-271.45" font-family="Helvetica,sans-Serif" font-weight="bold" font-size="9.00">fields</text>
</g>
<!-- src/App.css -->
<g id="node1" class="node">
<title>src/App.css</title>
<g id="a_node1"><a xlink:href="src/App.css" xlink:title="App.css">
<path fill="#ffffcc" stroke="black" d="M302.96,-33.88C302.96,-33.88 260.79,-33.88 260.79,-33.88 257.83,-33.88 254.88,-30.92 254.88,-27.96 254.88,-27.96 254.88,-22.04 254.88,-22.04 254.88,-19.08 257.83,-16.12 260.79,-16.12 260.79,-16.12 302.96,-16.12 302.96,-16.12 305.92,-16.12 308.88,-19.08 308.88,-22.04 308.88,-22.04 308.88,-27.96 308.88,-27.96 308.88,-30.92 305.92,-33.88 302.96,-33.88"/>
<text text-anchor="start" x="265.75" y="-21.32" font-family="Helvetica,sans-Serif" font-size="9.00">App.css</text>
</a>
</g>
</g>
<!-- src/App.tsx -->
<g id="node2" class="node">
<title>src/App.tsx</title>
<g id="a_node2"><a xlink:href="src/App.tsx" xlink:title="App.tsx">
<path fill="#bbfeff" stroke="black" d="M184.71,-101.88C184.71,-101.88 142.54,-101.88 142.54,-101.88 139.58,-101.88 136.62,-98.92 136.62,-95.96 136.62,-95.96 136.62,-90.04 136.62,-90.04 136.62,-87.08 139.58,-84.12 142.54,-84.12 142.54,-84.12 184.71,-84.12 184.71,-84.12 187.67,-84.12 190.62,-87.08 190.62,-90.04 190.62,-90.04 190.62,-95.96 190.62,-95.96 190.62,-98.92 187.67,-101.88 184.71,-101.88"/>
<text text-anchor="start" x="148.62" y="-89.33" font-family="Helvetica,sans-Serif" font-size="9.00">App.tsx</text>
</a>
</g>
</g>
<!-- src/App.tsx&#45;&gt;src/App.css -->
<g id="edge1" class="edge">
<title>src/App.tsx&#45;&gt;src/App.css</title>
<path fill="none" stroke="#000000" stroke-width="2" stroke-opacity="0.200000" d="M171.73,-83.84C180.93,-72.59 198.02,-53.7 216.75,-43 225.59,-37.95 235.93,-34.24 245.7,-31.55"/>
<polygon fill="#000000" fill-opacity="0.200000" stroke="#000000" stroke-width="2" stroke-opacity="0.200000" points="246.21,-33.59 251.52,-30.1 245.19,-29.52 246.21,-33.59"/>
</g>
<!-- src/common/ConfigForm.tsx -->
<g id="node3" class="node">
<title>src/common/ConfigForm.tsx</title>
<g id="a_node3"><a xlink:href="src/common/ConfigForm.tsx" xlink:title="ConfigForm.tsx">
<path fill="#bbfeff" stroke="black" d="M314.71,-107.88C314.71,-107.88 249.04,-107.88 249.04,-107.88 246.08,-107.88 243.12,-104.92 243.12,-101.96 243.12,-101.96 243.12,-96.04 243.12,-96.04 243.12,-93.08 246.08,-90.12 249.04,-90.12 249.04,-90.12 314.71,-90.12 314.71,-90.12 317.67,-90.12 320.62,-93.08 320.62,-96.04 320.62,-96.04 320.62,-101.96 320.62,-101.96 320.62,-104.92 317.67,-107.88 314.71,-107.88"/>
<text text-anchor="start" x="251.12" y="-95.33" font-family="Helvetica,sans-Serif" font-size="9.00">ConfigForm.tsx</text>
</a>
</g>
</g>
<!-- src/App.tsx&#45;&gt;src/common/ConfigForm.tsx -->
<g id="edge2" class="edge">
<title>src/App.tsx&#45;&gt;src/common/ConfigForm.tsx</title>
<path fill="none" stroke="#000000" stroke-width="2" stroke-opacity="0.200000" d="M191,-94.36C203.65,-95.01 219.19,-95.82 233.77,-96.57"/>
<polygon fill="#000000" fill-opacity="0.200000" stroke="#000000" stroke-width="2" stroke-opacity="0.200000" points="233.57,-98.66 239.67,-96.87 233.79,-94.47 233.57,-98.66"/>
</g>
<!-- src/common/contextProvider.tsx -->
<g id="node4" class="node">
<title>src/common/contextProvider.tsx</title>
<g id="a_node4"><a xlink:href="src/common/contextProvider.tsx" xlink:title="contextProvider.tsx">
<path fill="#bbfeff" stroke="black" d="M631.58,-145.88C631.58,-145.88 550.17,-145.88 550.17,-145.88 547.21,-145.88 544.25,-142.92 544.25,-139.96 544.25,-139.96 544.25,-134.04 544.25,-134.04 544.25,-131.08 547.21,-128.12 550.17,-128.12 550.17,-128.12 631.58,-128.12 631.58,-128.12 634.54,-128.12 637.5,-131.08 637.5,-134.04 637.5,-134.04 637.5,-139.96 637.5,-139.96 637.5,-142.92 634.54,-145.88 631.58,-145.88"/>
<text text-anchor="start" x="552.25" y="-133.32" font-family="Helvetica,sans-Serif" font-size="9.00">contextProvider.tsx</text>
</a>
</g>
</g>
<!-- src/App.tsx&#45;&gt;src/common/contextProvider.tsx -->
<g id="edge3" class="edge">
<title>src/App.tsx&#45;&gt;src/common/contextProvider.tsx</title>
<path fill="none" stroke="#000000" stroke-width="2" stroke-opacity="0.200000" d="M173.17,-83.78C182.72,-74.21 199.16,-59.85 216.75,-54 268.31,-36.85 285.04,-47.63 339,-54 426.25,-64.29 450.29,-65.87 531.25,-100 545.31,-105.93 559.82,-115.05 570.88,-122.76"/>
<polygon fill="#000000" fill-opacity="0.200000" stroke="#000000" stroke-width="2" stroke-opacity="0.200000" points="569.38,-124.27 575.48,-126.05 571.83,-120.85 569.38,-124.27"/>
</g>
<!-- src/dynotable/DynoPage.tsx -->
<g id="node5" class="node">
<title>src/dynotable/DynoPage.tsx</title>
<g id="a_node5"><a xlink:href="src/dynotable/DynoPage.tsx" xlink:title="DynoPage.tsx">
<path fill="#bbfeff" stroke="black" d="M312.46,-347.88C312.46,-347.88 251.29,-347.88 251.29,-347.88 248.33,-347.88 245.38,-344.92 245.38,-341.96 245.38,-341.96 245.38,-336.04 245.38,-336.04 245.38,-333.08 248.33,-330.12 251.29,-330.12 251.29,-330.12 312.46,-330.12 312.46,-330.12 315.42,-330.12 318.38,-333.08 318.38,-336.04 318.38,-336.04 318.38,-341.96 318.38,-341.96 318.38,-344.92 315.42,-347.88 312.46,-347.88"/>
<text text-anchor="start" x="253.38" y="-335.32" font-family="Helvetica,sans-Serif" font-size="9.00">DynoPage.tsx</text>
</a>
</g>
</g>
<!-- src/App.tsx&#45;&gt;src/dynotable/DynoPage.tsx -->
<g id="edge4" class="edge">
<title>src/App.tsx&#45;&gt;src/dynotable/DynoPage.tsx</title>
<path fill="none" stroke="#000000" stroke-width="2" stroke-opacity="0.200000" d="M190.74,-96.37C197.66,-98.57 204.4,-102.16 208.75,-108 223.09,-127.26 201.48,-305.46 216.75,-324 221.82,-330.16 228.89,-334.07 236.49,-336.51"/>
<polygon fill="#000000" fill-opacity="0.200000" stroke="#000000" stroke-width="2" stroke-opacity="0.200000" points="235.62,-338.45 241.95,-337.88 236.64,-334.38 235.62,-338.45"/>
</g>
<!-- src/types.ts -->
<g id="node8" class="node">
<title>src/types.ts</title>
<g id="a_node8"><a xlink:href="src/types.ts" xlink:title="types.ts">
<path fill="#ddfeff" stroke="black" d="M779.58,-257.88C779.58,-257.88 737.42,-257.88 737.42,-257.88 734.46,-257.88 731.5,-254.92 731.5,-251.96 731.5,-251.96 731.5,-246.04 731.5,-246.04 731.5,-243.08 734.46,-240.12 737.42,-240.12 737.42,-240.12 779.58,-240.12 779.58,-240.12 782.54,-240.12 785.5,-243.08 785.5,-246.04 785.5,-246.04 785.5,-251.96 785.5,-251.96 785.5,-254.92 782.54,-257.88 779.58,-257.88"/>
<text text-anchor="start" x="743.12" y="-245.32" font-family="Helvetica,sans-Serif" font-size="9.00">types.ts</text>
</a>
</g>
</g>
<!-- src/common/ConfigForm.tsx&#45;&gt;src/types.ts -->
<g id="edge6" class="edge">
<title>src/common/ConfigForm.tsx&#45;&gt;src/types.ts</title>
<path fill="none" stroke="#000000" stroke-width="2" stroke-opacity="0.200000" d="M320.84,-93C330.95,-91.55 341.87,-90.09 352,-89 413.8,-82.32 429.34,-79 491.5,-79 491.5,-79 491.5,-79 591.88,-79 650.44,-79 678.94,-47.01 723.5,-85 745.53,-103.78 753.86,-192.57 756.47,-231.09"/>
<polygon fill="#000000" fill-opacity="0.200000" stroke="#000000" stroke-width="2" stroke-opacity="0.200000" points="754.35,-230.86 756.83,-236.71 758.55,-230.59 754.35,-230.86"/>
</g>
<!-- src/clients/index.ts -->
<g id="node7" class="node">
<title>src/clients/index.ts</title>
<g id="a_node7"><a xlink:href="src/clients/index.ts" xlink:title="index.ts">
<path fill="#ddfeff" stroke="black" d="M709.58,-143.88C709.58,-143.88 667.42,-143.88 667.42,-143.88 664.46,-143.88 661.5,-140.92 661.5,-137.96 661.5,-137.96 661.5,-132.04 661.5,-132.04 661.5,-129.08 664.46,-126.12 667.42,-126.12 667.42,-126.12 709.58,-126.12 709.58,-126.12 712.54,-126.12 715.5,-129.08 715.5,-132.04 715.5,-132.04 715.5,-137.96 715.5,-137.96 715.5,-140.92 712.54,-143.88 709.58,-143.88"/>
<text text-anchor="start" x="672.75" y="-131.32" font-family="Helvetica,sans-Serif" font-size="9.00">index.ts</text>
</a>
</g>
</g>
<!-- src/common/contextProvider.tsx&#45;&gt;src/clients/index.ts -->
<g id="edge17" class="edge">
<title>src/common/contextProvider.tsx&#45;&gt;src/clients/index.ts</title>
<path fill="none" stroke="#000000" stroke-width="2" stroke-opacity="0.200000" d="M637.73,-136.04C642.63,-135.94 647.57,-135.84 652.32,-135.74"/>
<polygon fill="#000000" fill-opacity="0.200000" stroke="#000000" stroke-width="2" stroke-opacity="0.200000" points="652.21,-137.84 658.17,-135.61 652.12,-133.64 652.21,-137.84"/>
</g>
<!-- src/common/contextProvider.tsx&#45;&gt;src/types.ts -->
<g id="edge18" class="edge">
<title>src/common/contextProvider.tsx&#45;&gt;src/types.ts</title>
<path fill="none" stroke="#000000" stroke-width="2" stroke-opacity="0.200000" d="M637.98,-144.71C640.69,-146.19 643.23,-147.94 645.5,-150 653.51,-157.27 645.44,-165.78 653.5,-173 677.27,-194.29 697.9,-169.94 723.5,-189 737.68,-199.56 746.81,-217.9 752,-231.53"/>
<polygon fill="#000000" fill-opacity="0.200000" stroke="#000000" stroke-width="2" stroke-opacity="0.200000" points="749.89,-231.85 753.86,-236.82 753.86,-230.46 749.89,-231.85"/>
</g>
<!-- src/dynotable/DynoPage.tsx&#45;&gt;src/common/contextProvider.tsx -->
<g id="edge22" class="edge">
<title>src/dynotable/DynoPage.tsx&#45;&gt;src/common/contextProvider.tsx</title>
<path fill="none" stroke="#000000" stroke-width="2" stroke-opacity="0.200000" d="M318.7,-333.48C325.84,-331.3 332.99,-328.25 339,-324 347.35,-318.09 344.82,-312.29 352,-305 388.03,-268.43 516.58,-184.16 568.2,-150.88"/>
<polygon fill="#000000" fill-opacity="0.200000" stroke="#000000" stroke-width="2" stroke-opacity="0.200000" points="569.06,-152.83 572.97,-147.81 566.79,-149.29 569.06,-152.83"/>
</g>
<!-- src/dynotable/DynoPage.tsx&#45;&gt;src/types.ts -->
<g id="edge24" class="edge">
<title>src/dynotable/DynoPage.tsx&#45;&gt;src/types.ts</title>
<path fill="none" stroke="#000000" stroke-width="2" stroke-opacity="0.200000" d="M318.03,-348.29C359.27,-358.36 429.85,-373 491.5,-373 491.5,-373 491.5,-373 591.88,-373 606.94,-373 718.59,-352.26 723.5,-348 747.17,-327.45 754.38,-289.65 756.56,-267.18"/>
<polygon fill="#000000" fill-opacity="0.200000" stroke="#000000" stroke-width="2" stroke-opacity="0.200000" points="758.65,-267.47 757.01,-261.33 754.46,-267.15 758.65,-267.47"/>
</g>
<!-- src/common/EditModal.tsx -->
<g id="node10" class="node">
<title>src/common/EditModal.tsx</title>
<g id="a_node10"><a xlink:href="src/common/EditModal.tsx" xlink:title="EditModal.tsx">
<path fill="#bbfeff" stroke="black" d="M311.33,-167.88C311.33,-167.88 252.42,-167.88 252.42,-167.88 249.46,-167.88 246.5,-164.92 246.5,-161.96 246.5,-161.96 246.5,-156.04 246.5,-156.04 246.5,-153.08 249.46,-150.12 252.42,-150.12 252.42,-150.12 311.33,-150.12 311.33,-150.12 314.29,-150.12 317.25,-153.08 317.25,-156.04 317.25,-156.04 317.25,-161.96 317.25,-161.96 317.25,-164.92 314.29,-167.88 311.33,-167.88"/>
<text text-anchor="start" x="254.5" y="-155.32" font-family="Helvetica,sans-Serif" font-size="9.00">EditModal.tsx</text>
</a>
</g>
</g>
<!-- src/dynotable/DynoPage.tsx&#45;&gt;src/common/EditModal.tsx -->
<g id="edge23" class="edge">
<title>src/dynotable/DynoPage.tsx&#45;&gt;src/common/EditModal.tsx</title>
<path fill="none" stroke="#000000" stroke-width="2" stroke-opacity="0.200000" d="M245.11,-339.36C230.81,-337.25 216.86,-331.56 212.75,-318 196.19,-263.29 242.24,-202.25 267.12,-174.38"/>
<polygon fill="#000000" fill-opacity="0.200000" stroke="#000000" stroke-width="2" stroke-opacity="0.200000" points="268.39,-176.11 270.89,-170.27 265.29,-173.27 268.39,-176.11"/>
</g>
<!-- src/dynotable/Table.tsx -->
<g id="node19" class="node">
<title>src/dynotable/Table.tsx</title>
<g id="a_node19"><a xlink:href="src/dynotable/Table.tsx" xlink:title="Table.tsx">
<path fill="#bbfeff" stroke="black" d="M417.46,-328.88C417.46,-328.88 375.29,-328.88 375.29,-328.88 372.33,-328.88 369.38,-325.92 369.38,-322.96 369.38,-322.96 369.38,-317.04 369.38,-317.04 369.38,-314.08 372.33,-311.12 375.29,-311.12 375.29,-311.12 417.46,-311.12 417.46,-311.12 420.42,-311.12 423.38,-314.08 423.38,-317.04 423.38,-317.04 423.38,-322.96 423.38,-322.96 423.38,-325.92 420.42,-328.88 417.46,-328.88"/>
<text text-anchor="start" x="378.38" y="-316.32" font-family="Helvetica,sans-Serif" font-size="9.00">Table.tsx</text>
</a>
</g>
</g>
<!-- src/dynotable/DynoPage.tsx&#45;&gt;src/dynotable/Table.tsx -->
<g id="edge25" class="edge">
<title>src/dynotable/DynoPage.tsx&#45;&gt;src/dynotable/Table.tsx</title>
<path fill="none" stroke="#000000" stroke-width="2" stroke-opacity="0.200000" d="M318.78,-332.94C332.05,-330.69 347.07,-328.16 360.27,-325.93"/>
<polygon fill="#000000" fill-opacity="0.200000" stroke="#000000" stroke-width="2" stroke-opacity="0.200000" points="360.52,-328.02 366.09,-324.95 359.82,-323.88 360.52,-328.02"/>
</g>
<!-- src/List.tsx -->
<g id="node6" class="node">
<title>src/List.tsx</title>
<g id="a_node6"><a xlink:href="src/List.tsx" xlink:title="no&#45;orphans">
<path fill="#ccffcc" stroke="orange" d="M81.83,-267.88C81.83,-267.88 39.67,-267.88 39.67,-267.88 36.71,-267.88 33.75,-264.92 33.75,-261.96 33.75,-261.96 33.75,-256.04 33.75,-256.04 33.75,-253.08 36.71,-250.12 39.67,-250.12 39.67,-250.12 81.83,-250.12 81.83,-250.12 84.79,-250.12 87.75,-253.08 87.75,-256.04 87.75,-256.04 87.75,-261.96 87.75,-261.96 87.75,-264.92 84.79,-267.88 81.83,-267.88"/>
<text text-anchor="start" x="46.88" y="-255.32" font-family="Helvetica,sans-Serif" font-size="9.00" fill="orange">List.tsx</text>
</a>
</g>
</g>
<!-- src/clients/index.ts&#45;&gt;src/types.ts -->
<g id="edge5" class="edge">
<title>src/clients/index.ts&#45;&gt;src/types.ts</title>
<path fill="none" stroke="#000000" stroke-width="2" stroke-opacity="0.200000" d="M715.86,-142.28C718.68,-143.84 721.31,-145.72 723.5,-148 745.6,-171.02 753.36,-208.86 756.06,-231.11"/>
<polygon fill="#000000" fill-opacity="0.200000" stroke="#000000" stroke-width="2" stroke-opacity="0.200000" points="753.95,-231.1 756.65,-236.85 758.13,-230.67 753.95,-231.1"/>
</g>
<!-- src/common/DebouncedTextField.tsx -->
<g id="node9" class="node">
<title>src/common/DebouncedTextField.tsx</title>
<g id="a_node9"><a xlink:href="src/common/DebouncedTextField.tsx" xlink:title="no&#45;orphans">
<path fill="#ccffcc" stroke="orange" d="M333.08,-137.88C333.08,-137.88 230.67,-137.88 230.67,-137.88 227.71,-137.88 224.75,-134.92 224.75,-131.96 224.75,-131.96 224.75,-126.04 224.75,-126.04 224.75,-123.08 227.71,-120.12 230.67,-120.12 230.67,-120.12 333.08,-120.12 333.08,-120.12 336.04,-120.12 339,-123.08 339,-126.04 339,-126.04 339,-131.96 339,-131.96 339,-134.92 336.04,-137.88 333.08,-137.88"/>
<text text-anchor="start" x="232.75" y="-125.33" font-family="Helvetica,sans-Serif" font-size="9.00" fill="orange">DebouncedTextField.tsx</text>
</a>
</g>
</g>
<!-- src/common/EditModal.tsx&#45;&gt;src/types.ts -->
<g id="edge7" class="edge">
<title>src/common/EditModal.tsx&#45;&gt;src/types.ts</title>
<path fill="none" stroke="#000000" stroke-width="2" stroke-opacity="0.200000" d="M317.75,-154.14C325.27,-151.92 332.81,-148.69 339,-144 348.05,-137.13 342.79,-128.65 352,-122 403.35,-84.95 428.17,-93 491.5,-93 491.5,-93 491.5,-93 591.88,-93 651.19,-93 679.86,-74.83 723.5,-115 740.54,-130.68 751.21,-198.85 755.43,-231.47"/>
<polygon fill="#000000" fill-opacity="0.200000" stroke="#000000" stroke-width="2" stroke-opacity="0.200000" points="753.29,-231.31 756.12,-237.01 757.46,-230.79 753.29,-231.31"/>
</g>
<!-- src/common/ErrorCenter.tsx -->
<g id="node11" class="node">
<title>src/common/ErrorCenter.tsx</title>
<g id="a_node11"><a xlink:href="src/common/ErrorCenter.tsx" xlink:title="ErrorCenter.tsx">
<path fill="#bbfeff" stroke="black" d="M525.33,-123.88C525.33,-123.88 459.67,-123.88 459.67,-123.88 456.71,-123.88 453.75,-120.92 453.75,-117.96 453.75,-117.96 453.75,-112.04 453.75,-112.04 453.75,-109.08 456.71,-106.12 459.67,-106.12 459.67,-106.12 525.33,-106.12 525.33,-106.12 528.29,-106.12 531.25,-109.08 531.25,-112.04 531.25,-112.04 531.25,-117.96 531.25,-117.96 531.25,-120.92 528.29,-123.88 525.33,-123.88"/>
<text text-anchor="start" x="461.75" y="-111.33" font-family="Helvetica,sans-Serif" font-size="9.00">ErrorCenter.tsx</text>
</a>
</g>
</g>
<!-- src/common/EditModal.tsx&#45;&gt;src/common/ErrorCenter.tsx -->
<g id="edge8" class="edge">
<title>src/common/EditModal.tsx&#45;&gt;src/common/ErrorCenter.tsx</title>
<path fill="none" stroke="#000000" stroke-width="2" stroke-opacity="0.200000" d="M317.67,-151.39C328.65,-149 340.83,-146.37 352,-144 382.89,-137.44 417.67,-130.21 444.78,-124.61"/>
<polygon fill="#000000" fill-opacity="0.200000" stroke="#000000" stroke-width="2" stroke-opacity="0.200000" points="444.88,-126.73 450.33,-123.46 444.03,-122.62 444.88,-126.73"/>
</g>
<!-- src/common/SchemaForms.tsx -->
<g id="node12" class="node">
<title>src/common/SchemaForms.tsx</title>
<g id="a_node12"><a xlink:href="src/common/SchemaForms.tsx" xlink:title="SchemaForms.tsx">
<path fill="#bbfeff" stroke="black" d="M434.83,-167.88C434.83,-167.88 357.92,-167.88 357.92,-167.88 354.96,-167.88 352,-164.92 352,-161.96 352,-161.96 352,-156.04 352,-156.04 352,-153.08 354.96,-150.12 357.92,-150.12 357.92,-150.12 434.83,-150.12 434.83,-150.12 437.79,-150.12 440.75,-153.08 440.75,-156.04 440.75,-156.04 440.75,-161.96 440.75,-161.96 440.75,-164.92 437.79,-167.88 434.83,-167.88"/>
<text text-anchor="start" x="360" y="-155.32" font-family="Helvetica,sans-Serif" font-size="9.00">SchemaForms.tsx</text>
</a>
</g>
</g>
<!-- src/common/EditModal.tsx&#45;&gt;src/common/SchemaForms.tsx -->
<g id="edge9" class="edge">
<title>src/common/EditModal.tsx&#45;&gt;src/common/SchemaForms.tsx</title>
<path fill="none" stroke="#000000" stroke-width="2" stroke-opacity="0.200000" d="M317.55,-159C325.6,-159 334.34,-159 342.97,-159"/>
<polygon fill="#000000" fill-opacity="0.200000" stroke="#000000" stroke-width="2" stroke-opacity="0.200000" points="342.85,-161.1 348.85,-159 342.85,-156.9 342.85,-161.1"/>
</g>
<!-- src/common/ErrorCenter.tsx&#45;&gt;src/common/contextProvider.tsx -->
<g id="edge10" class="edge">
<title>src/common/ErrorCenter.tsx&#45;&gt;src/common/contextProvider.tsx</title>
<path fill="none" stroke="#000000" stroke-width="2" stroke-opacity="0.200000" d="M531.59,-123.69C534.43,-124.34 537.32,-125 540.22,-125.66"/>
<polygon fill="#000000" fill-opacity="0.200000" stroke="#000000" stroke-width="2" stroke-opacity="0.200000" points="539.62,-127.68 545.94,-126.97 540.56,-123.59 539.62,-127.68"/>
</g>
<!-- src/common/SchemaForms.tsx&#45;&gt;src/common/contextProvider.tsx -->
<g id="edge15" class="edge">
<title>src/common/SchemaForms.tsx&#45;&gt;src/common/contextProvider.tsx</title>
<path fill="none" stroke="#000000" stroke-width="2" stroke-opacity="0.200000" d="M427.85,-149.65C436.17,-147.44 445.25,-145.34 453.75,-144 480.3,-139.83 510.08,-137.98 535,-137.22"/>
<polygon fill="#000000" fill-opacity="0.200000" stroke="#000000" stroke-width="2" stroke-opacity="0.200000" points="534.97,-139.32 540.92,-137.06 534.86,-135.12 534.97,-139.32"/>
</g>
<!-- src/common/SchemaForms.tsx&#45;&gt;src/types.ts -->
<g id="edge14" class="edge">
<title>src/common/SchemaForms.tsx&#45;&gt;src/types.ts</title>
<path fill="none" stroke="#000000" stroke-width="2" stroke-opacity="0.200000" d="M429.7,-168.37C437.53,-170.43 445.9,-172.45 453.75,-174 538.07,-190.64 562.78,-175.68 645.5,-199 676.94,-207.86 710.92,-224.06 733.1,-235.61"/>
<polygon fill="#000000" fill-opacity="0.200000" stroke="#000000" stroke-width="2" stroke-opacity="0.200000" points="732.03,-237.43 738.32,-238.38 734,-233.71 732.03,-237.43"/>
</g>
<!-- src/common/ListField.tsx -->
<g id="node13" class="node">
<title>src/common/ListField.tsx</title>
<g id="a_node13"><a xlink:href="src/common/ListField.tsx" xlink:title="ListField.tsx">
<path fill="#bbfeff" stroke="black" d="M518.58,-167.88C518.58,-167.88 466.42,-167.88 466.42,-167.88 463.46,-167.88 460.5,-164.92 460.5,-161.96 460.5,-161.96 460.5,-156.04 460.5,-156.04 460.5,-153.08 463.46,-150.12 466.42,-150.12 466.42,-150.12 518.58,-150.12 518.58,-150.12 521.54,-150.12 524.5,-153.08 524.5,-156.04 524.5,-156.04 524.5,-161.96 524.5,-161.96 524.5,-164.92 521.54,-167.88 518.58,-167.88"/>
<text text-anchor="start" x="468.5" y="-155.32" font-family="Helvetica,sans-Serif" font-size="9.00">ListField.tsx</text>
</a>
</g>
</g>
<!-- src/common/SchemaForms.tsx&#45;&gt;src/common/ListField.tsx -->
<g id="edge16" class="edge">
<title>src/common/SchemaForms.tsx&#45;&gt;src/common/ListField.tsx</title>
<path fill="none" stroke="#000000" stroke-width="2" stroke-opacity="0.200000" d="M441.13,-159C444.55,-159 447.99,-159 451.38,-159"/>
<polygon fill="#000000" fill-opacity="0.200000" stroke="#000000" stroke-width="2" stroke-opacity="0.200000" points="451.17,-161.1 457.17,-159 451.17,-156.9 451.17,-161.1"/>
</g>
<!-- src/fields/utils.ts -->
<g id="node16" class="node">
<title>src/fields/utils.ts</title>
<g id="a_node16"><a xlink:href="src/fields/utils.ts" xlink:title="utils.ts">
<path fill="#ddfeff" stroke="black" d="M611.96,-257.88C611.96,-257.88 569.79,-257.88 569.79,-257.88 566.83,-257.88 563.88,-254.92 563.88,-251.96 563.88,-251.96 563.88,-246.04 563.88,-246.04 563.88,-243.08 566.83,-240.12 569.79,-240.12 569.79,-240.12 611.96,-240.12 611.96,-240.12 614.92,-240.12 617.88,-243.08 617.88,-246.04 617.88,-246.04 617.88,-251.96 617.88,-251.96 617.88,-254.92 614.92,-257.88 611.96,-257.88"/>
<text text-anchor="start" x="578.12" y="-245.32" font-family="Helvetica,sans-Serif" font-size="9.00">utils.ts</text>
</a>
</g>
</g>
<!-- src/common/SchemaForms.tsx&#45;&gt;src/fields/utils.ts -->
<g id="edge13" class="edge">
<title>src/common/SchemaForms.tsx&#45;&gt;src/fields/utils.ts</title>
<path fill="none" stroke="#000000" stroke-width="2" stroke-opacity="0.200000" d="M402.26,-167.99C410.68,-182.55 429.41,-211.09 453.75,-225 484.77,-242.73 525.75,-247.95 554.62,-249.22"/>
<polygon fill="#000000" fill-opacity="0.200000" stroke="#000000" stroke-width="2" stroke-opacity="0.200000" points="554.44,-251.32 560.51,-249.41 554.58,-247.12 554.44,-251.32"/>
</g>
<!-- src/common/ListField.tsx&#45;&gt;src/common/contextProvider.tsx -->
<g id="edge12" class="edge">
<title>src/common/ListField.tsx&#45;&gt;src/common/contextProvider.tsx</title>
<path fill="none" stroke="#000000" stroke-width="2" stroke-opacity="0.200000" d="M524.79,-151.86C529.72,-150.73 534.92,-149.55 540.14,-148.35"/>
<polygon fill="#000000" fill-opacity="0.200000" stroke="#000000" stroke-width="2" stroke-opacity="0.200000" points="540.58,-150.41 545.96,-147.02 539.65,-146.31 540.58,-150.41"/>
</g>
<!-- src/fields/MultiSelect.tsx -->
<g id="node14" class="node">
<title>src/fields/MultiSelect.tsx</title>
<g id="a_node14"><a xlink:href="src/fields/MultiSelect.tsx" xlink:title="MultiSelect.tsx">
<path fill="#bbfeff" stroke="black" d="M622.21,-227.88C622.21,-227.88 559.54,-227.88 559.54,-227.88 556.58,-227.88 553.62,-224.92 553.62,-221.96 553.62,-221.96 553.62,-216.04 553.62,-216.04 553.62,-213.08 556.58,-210.12 559.54,-210.12 559.54,-210.12 622.21,-210.12 622.21,-210.12 625.17,-210.12 628.12,-213.08 628.12,-216.04 628.12,-216.04 628.12,-221.96 628.12,-221.96 628.12,-224.92 625.17,-227.88 622.21,-227.88"/>
<text text-anchor="start" x="561.62" y="-215.32" font-family="Helvetica,sans-Serif" font-size="9.00">MultiSelect.tsx</text>
</a>
</g>
</g>
<!-- src/common/ListField.tsx&#45;&gt;src/fields/MultiSelect.tsx -->
<g id="edge11" class="edge">
<title>src/common/ListField.tsx&#45;&gt;src/fields/MultiSelect.tsx</title>
<path fill="none" stroke="#000000" stroke-width="2" stroke-opacity="0.200000" d="M504.35,-168.1C514.34,-176.23 529.76,-188.2 544.25,-197 549.4,-200.13 555.06,-203.16 560.59,-205.92"/>
<polygon fill="#000000" fill-opacity="0.200000" stroke="#000000" stroke-width="2" stroke-opacity="0.200000" points="559.49,-207.72 565.8,-208.44 561.31,-203.94 559.49,-207.72"/>
</g>
<!-- src/common/PopMenu.tsx -->
<g id="node15" class="node">
<title>src/common/PopMenu.tsx</title>
<g id="a_node15"><a xlink:href="src/common/PopMenu.tsx" xlink:title="no&#45;orphans">
<path fill="#ccffcc" stroke="orange" d="M310.58,-77.88C310.58,-77.88 253.17,-77.88 253.17,-77.88 250.21,-77.88 247.25,-74.92 247.25,-71.96 247.25,-71.96 247.25,-66.04 247.25,-66.04 247.25,-63.08 250.21,-60.12 253.17,-60.12 253.17,-60.12 310.58,-60.12 310.58,-60.12 313.54,-60.12 316.5,-63.08 316.5,-66.04 316.5,-66.04 316.5,-71.96 316.5,-71.96 316.5,-74.92 313.54,-77.88 310.58,-77.88"/>
<text text-anchor="start" x="255.25" y="-65.33" font-family="Helvetica,sans-Serif" font-size="9.00" fill="orange">PopMenu.tsx</text>
</a>
</g>
</g>
<!-- src/fields/utils.ts&#45;&gt;src/types.ts -->
<g id="edge35" class="edge">
<title>src/fields/utils.ts&#45;&gt;src/types.ts</title>
<path fill="none" stroke="#000000" stroke-width="2" stroke-opacity="0.200000" d="M618.12,-249C646.26,-249 691.1,-249 722.3,-249"/>
<polygon fill="#000000" fill-opacity="0.200000" stroke="#000000" stroke-width="2" stroke-opacity="0.200000" points="722.08,-251.1 728.08,-249 722.08,-246.9 722.08,-251.1"/>
</g>
<!-- src/dynotable/DynoList.tsx -->
<g id="node17" class="node">
<title>src/dynotable/DynoList.tsx</title>
<g id="a_node17"><a xlink:href="src/dynotable/DynoList.tsx" xlink:title="DynoList.tsx">
<path fill="#bbfeff" stroke="black" d="M519.33,-317.88C519.33,-317.88 465.67,-317.88 465.67,-317.88 462.71,-317.88 459.75,-314.92 459.75,-311.96 459.75,-311.96 459.75,-306.04 459.75,-306.04 459.75,-303.08 462.71,-300.12 465.67,-300.12 465.67,-300.12 519.33,-300.12 519.33,-300.12 522.29,-300.12 525.25,-303.08 525.25,-306.04 525.25,-306.04 525.25,-311.96 525.25,-311.96 525.25,-314.92 522.29,-317.88 519.33,-317.88"/>
<text text-anchor="start" x="467.75" y="-305.32" font-family="Helvetica,sans-Serif" font-size="9.00">DynoList.tsx</text>
</a>
</g>
</g>
<!-- src/dynotable/DynoList.tsx&#45;&gt;src/fields/utils.ts -->
<g id="edge19" class="edge">
<title>src/dynotable/DynoList.tsx&#45;&gt;src/fields/utils.ts</title>
<path fill="none" stroke="#000000" stroke-width="2" stroke-opacity="0.200000" d="M508.56,-299.62C524.4,-289.76 549.5,-274.13 567.63,-262.85"/>
<polygon fill="#000000" fill-opacity="0.200000" stroke="#000000" stroke-width="2" stroke-opacity="0.200000" points="568.37,-264.86 572.35,-259.91 566.15,-261.3 568.37,-264.86"/>
</g>
<!-- src/dynotable/Row.tsx -->
<g id="node18" class="node">
<title>src/dynotable/Row.tsx</title>
<g id="a_node18"><a xlink:href="src/dynotable/Row.tsx" xlink:title="Row.tsx">
<path fill="#bbfeff" stroke="black" d="M611.96,-317.88C611.96,-317.88 569.79,-317.88 569.79,-317.88 566.83,-317.88 563.88,-314.92 563.88,-311.96 563.88,-311.96 563.88,-306.04 563.88,-306.04 563.88,-303.08 566.83,-300.12 569.79,-300.12 569.79,-300.12 611.96,-300.12 611.96,-300.12 614.92,-300.12 617.88,-303.08 617.88,-306.04 617.88,-306.04 617.88,-311.96 617.88,-311.96 617.88,-314.92 614.92,-317.88 611.96,-317.88"/>
<text text-anchor="start" x="575.12" y="-305.32" font-family="Helvetica,sans-Serif" font-size="9.00">Row.tsx</text>
</a>
</g>
</g>
<!-- src/dynotable/DynoList.tsx&#45;&gt;src/dynotable/Row.tsx -->
<g id="edge20" class="edge">
<title>src/dynotable/DynoList.tsx&#45;&gt;src/dynotable/Row.tsx</title>
<path fill="none" stroke="#000000" stroke-width="2" stroke-opacity="0.200000" d="M525.59,-309C534.89,-309 545.08,-309 554.56,-309"/>
<polygon fill="#000000" fill-opacity="0.200000" stroke="#000000" stroke-width="2" stroke-opacity="0.200000" points="554.35,-311.1 560.35,-309 554.35,-306.9 554.35,-311.1"/>
</g>
<!-- src/dynotable/DynoList.tsx&#45;&gt;src/dynotable/Table.tsx -->
<g id="edge21" class="edge">
<title>src/dynotable/DynoList.tsx&#45;&gt;src/dynotable/Table.tsx</title>
<g id="a_edge21"><a xlink:title="no&#45;circular">
<path fill="none" stroke="orange" stroke-width="2" d="M459.55,-317.02C454.01,-317.83 448.16,-318.58 442.36,-319.24"/>
<polygon fill="orange" stroke="orange" stroke-width="2" points="432.63,-318.05 426.86,-320.71 433.03,-322.24 432.63,-318.05"/>
<polyline fill="none" stroke="orange" stroke-width="2" points="433.83,-320.05 436.81,-319.77"/>
<ellipse fill="none" stroke="orange" stroke-width="2" cx="440.2" cy="-319.44" rx="2.4" ry="2.4"/>
</a>
</g>
<text text-anchor="middle" x="464.38" y="-320.41" font-family="Helvetica,sans-Serif" font-size="9.00" fill="orange">no&#45;circular</text>
</g>
<!-- src/dynotable/Row.tsx&#45;&gt;src/types.ts -->
<g id="edge26" class="edge">
<title>src/dynotable/Row.tsx&#45;&gt;src/types.ts</title>
<path fill="none" stroke="#000000" stroke-width="2" stroke-opacity="0.200000" d="M617.75,-299.62C646.2,-289.32 692,-272.73 723.37,-261.37"/>
<polygon fill="#000000" fill-opacity="0.200000" stroke="#000000" stroke-width="2" stroke-opacity="0.200000" points="724.03,-263.36 728.96,-259.34 722.6,-259.41 724.03,-263.36"/>
</g>
<!-- src/dynotable/utils.tsx -->
<g id="node20" class="node">
<title>src/dynotable/utils.tsx</title>
<g id="a_node20"><a xlink:href="src/dynotable/utils.tsx" xlink:title="utils.tsx">
<path fill="#bbfeff" stroke="black" d="M709.58,-317.88C709.58,-317.88 667.42,-317.88 667.42,-317.88 664.46,-317.88 661.5,-314.92 661.5,-311.96 661.5,-311.96 661.5,-306.04 661.5,-306.04 661.5,-303.08 664.46,-300.12 667.42,-300.12 667.42,-300.12 709.58,-300.12 709.58,-300.12 712.54,-300.12 715.5,-303.08 715.5,-306.04 715.5,-306.04 715.5,-311.96 715.5,-311.96 715.5,-314.92 712.54,-317.88 709.58,-317.88"/>
<text text-anchor="start" x="673.5" y="-305.32" font-family="Helvetica,sans-Serif" font-size="9.00">utils.tsx</text>
</a>
</g>
</g>
<!-- src/dynotable/Row.tsx&#45;&gt;src/dynotable/utils.tsx -->
<g id="edge27" class="edge">
<title>src/dynotable/Row.tsx&#45;&gt;src/dynotable/utils.tsx</title>
<path fill="none" stroke="#000000" stroke-width="2" stroke-opacity="0.200000" d="M618.26,-309C628.81,-309 641.13,-309 652.42,-309"/>
<polygon fill="#000000" fill-opacity="0.200000" stroke="#000000" stroke-width="2" stroke-opacity="0.200000" points="652.18,-311.1 658.18,-309 652.18,-306.9 652.18,-311.1"/>
</g>
<!-- src/dynotable/Table.tsx&#45;&gt;src/types.ts -->
<g id="edge29" class="edge">
<title>src/dynotable/Table.tsx&#45;&gt;src/types.ts</title>
<path fill="none" stroke="#000000" stroke-width="2" stroke-opacity="0.200000" d="M423.66,-325.08C433.11,-326.67 443.87,-328.22 453.75,-329 521.83,-334.4 714.7,-329.84 723.5,-324 742.7,-311.27 751.2,-284.84 754.86,-267.01"/>
<polygon fill="#000000" fill-opacity="0.200000" stroke="#000000" stroke-width="2" stroke-opacity="0.200000" points="756.93,-267.39 755.91,-261.11 752.79,-266.65 756.93,-267.39"/>
</g>
<!-- src/dynotable/Table.tsx&#45;&gt;src/fields/utils.ts -->
<g id="edge28" class="edge">
<title>src/dynotable/Table.tsx&#45;&gt;src/fields/utils.ts</title>
<path fill="none" stroke="#000000" stroke-width="2" stroke-opacity="0.200000" d="M416.19,-310.67C427.04,-305.46 441.02,-299.02 453.75,-294 487.6,-280.65 527.17,-267.87 554.9,-259.37"/>
<polygon fill="#000000" fill-opacity="0.200000" stroke="#000000" stroke-width="2" stroke-opacity="0.200000" points="555.44,-261.4 560.57,-257.64 554.22,-257.38 555.44,-261.4"/>
</g>
<!-- src/dynotable/Table.tsx&#45;&gt;src/dynotable/DynoList.tsx -->
<g id="edge30" class="edge">
<title>src/dynotable/Table.tsx&#45;&gt;src/dynotable/DynoList.tsx</title>
<g id="a_edge30"><a xlink:title="no&#45;circular">
<path fill="none" stroke="orange" stroke-width="2" d="M423.84,-312.81C429.22,-311.96 435.04,-311.15 440.93,-310.42"/>
<polygon fill="orange" stroke="orange" stroke-width="2" points="450.79,-311.49 456.54,-308.77 450.35,-307.31 450.79,-311.49"/>
<polyline fill="none" stroke="orange" stroke-width="2" points="449.58,-309.5 446.59,-309.82"/>
<ellipse fill="none" stroke="orange" stroke-width="2" cx="443.21" cy="-310.18" rx="2.4" ry="2.4"/>
</a>
</g>
<text text-anchor="middle" x="419.04" y="-301.89" font-family="Helvetica,sans-Serif" font-size="9.00" fill="orange">no&#45;circular</text>
</g>
<!-- src/dynotable/Table.tsx&#45;&gt;src/dynotable/Row.tsx -->
<g id="edge31" class="edge">
<title>src/dynotable/Table.tsx&#45;&gt;src/dynotable/Row.tsx</title>
<path fill="none" stroke="#000000" stroke-width="2" stroke-opacity="0.200000" d="M423.65,-323.18C450.73,-325.89 494.11,-328.68 531.25,-324 539.05,-323.02 547.3,-321.33 555.07,-319.43"/>
<polygon fill="#000000" fill-opacity="0.200000" stroke="#000000" stroke-width="2" stroke-opacity="0.200000" points="555.38,-321.52 560.66,-317.98 554.32,-317.45 555.38,-321.52"/>
</g>
<!-- src/dynotable/utils.tsx&#45;&gt;src/types.ts -->
<g id="edge34" class="edge">
<title>src/dynotable/utils.tsx&#45;&gt;src/types.ts</title>
<path fill="none" stroke="#000000" stroke-width="2" stroke-opacity="0.200000" d="M715.95,-300.68C718.62,-299.32 721.19,-297.77 723.5,-296 733.98,-287.95 742.65,-275.8 748.62,-265.87"/>
<polygon fill="#000000" fill-opacity="0.200000" stroke="#000000" stroke-width="2" stroke-opacity="0.200000" points="750.34,-267.08 751.47,-260.82 746.69,-265.01 750.34,-267.08"/>
</g>
<!-- src/dynotable/__Expansion.tsx -->
<g id="node21" class="node">
<title>src/dynotable/__Expansion.tsx</title>
<g id="a_node21"><a xlink:href="src/dynotable/__Expansion.tsx" xlink:title="__Expansion.tsx">
<path fill="#bbfeff" stroke="black" d="M317.71,-317.88C317.71,-317.88 246.04,-317.88 246.04,-317.88 243.08,-317.88 240.12,-314.92 240.12,-311.96 240.12,-311.96 240.12,-306.04 240.12,-306.04 240.12,-303.08 243.08,-300.12 246.04,-300.12 246.04,-300.12 317.71,-300.12 317.71,-300.12 320.67,-300.12 323.62,-303.08 323.62,-306.04 323.62,-306.04 323.62,-311.96 323.62,-311.96 323.62,-314.92 320.67,-317.88 317.71,-317.88"/>
<text text-anchor="start" x="248.12" y="-305.32" font-family="Helvetica,sans-Serif" font-size="9.00">__Expansion.tsx</text>
</a>
</g>
</g>
<!-- src/dynotable/__Expansion.tsx&#45;&gt;src/types.ts -->
<g id="edge33" class="edge">
<title>src/dynotable/__Expansion.tsx&#45;&gt;src/types.ts</title>
<path fill="none" stroke="#000000" stroke-width="2" stroke-opacity="0.200000" d="M323.84,-317.67C329.08,-319.43 334.26,-321.52 339,-324 345.71,-327.51 345.14,-331.8 352,-335 409.02,-361.59 428.59,-359 491.5,-359 491.5,-359 491.5,-359 591.88,-359 651.78,-359 677.5,-368.37 723.5,-330 742.65,-314.03 751.21,-285.42 754.89,-266.83"/>
<polygon fill="#000000" fill-opacity="0.200000" stroke="#000000" stroke-width="2" stroke-opacity="0.200000" points="756.92,-267.39 755.88,-261.12 752.79,-266.67 756.92,-267.39"/>
</g>
<!-- src/dynotable/__Expansion.tsx&#45;&gt;src/common/SchemaForms.tsx -->
<g id="edge32" class="edge">
<title>src/dynotable/__Expansion.tsx&#45;&gt;src/common/SchemaForms.tsx</title>
<path fill="none" stroke="#000000" stroke-width="2" stroke-opacity="0.200000" d="M289.58,-300.07C307.98,-275.53 359.5,-206.84 383.18,-175.26"/>
<polygon fill="#000000" fill-opacity="0.200000" stroke="#000000" stroke-width="2" stroke-opacity="0.200000" points="384.83,-176.56 386.75,-170.5 381.47,-174.04 384.83,-176.56"/>
</g>
<!-- src/index.css -->
<g id="node22" class="node">
<title>src/index.css</title>
<g id="a_node22"><a xlink:href="src/index.css" xlink:title="index.css">
<path fill="#ffffcc" stroke="black" d="M184.83,-131.88C184.83,-131.88 142.42,-131.88 142.42,-131.88 139.46,-131.88 136.5,-128.92 136.5,-125.96 136.5,-125.96 136.5,-120.04 136.5,-120.04 136.5,-117.08 139.46,-114.12 142.42,-114.12 142.42,-114.12 184.83,-114.12 184.83,-114.12 187.79,-114.12 190.75,-117.08 190.75,-120.04 190.75,-120.04 190.75,-125.96 190.75,-125.96 190.75,-128.92 187.79,-131.88 184.83,-131.88"/>
<text text-anchor="start" x="144.5" y="-119.33" font-family="Helvetica,sans-Serif" font-size="9.00">index.css</text>
</a>
</g>
</g>
<!-- src/index.tsx -->
<g id="node23" class="node">
<title>src/index.tsx</title>
<g id="a_node23"><a xlink:href="src/index.tsx" xlink:title="index.tsx">
<path fill="#bbfeff" stroke="black" d="M81.83,-131.88C81.83,-131.88 39.67,-131.88 39.67,-131.88 36.71,-131.88 33.75,-128.92 33.75,-125.96 33.75,-125.96 33.75,-120.04 33.75,-120.04 33.75,-117.08 36.71,-114.12 39.67,-114.12 39.67,-114.12 81.83,-114.12 81.83,-114.12 84.79,-114.12 87.75,-117.08 87.75,-120.04 87.75,-120.04 87.75,-125.96 87.75,-125.96 87.75,-128.92 84.79,-131.88 81.83,-131.88"/>
<text text-anchor="start" x="42.75" y="-119.33" font-family="Helvetica,sans-Serif" font-size="9.00">index.tsx</text>
</a>
</g>
</g>
<!-- src/index.tsx&#45;&gt;src/App.tsx -->
<g id="edge36" class="edge">
<title>src/index.tsx&#45;&gt;src/App.tsx</title>
<path fill="none" stroke="#000000" stroke-width="2" stroke-opacity="0.200000" d="M87.99,-115.2C100.15,-111.58 114.78,-107.23 127.84,-103.34"/>
<polygon fill="#000000" fill-opacity="0.200000" stroke="#000000" stroke-width="2" stroke-opacity="0.200000" points="128.11,-105.46 133.26,-101.73 126.91,-101.43 128.11,-105.46"/>
</g>
<!-- src/index.tsx&#45;&gt;src/index.css -->
<g id="edge37" class="edge">
<title>src/index.tsx&#45;&gt;src/index.css</title>
<path fill="none" stroke="#000000" stroke-width="2" stroke-opacity="0.200000" d="M87.99,-123C100.04,-123 114.5,-123 127.47,-123"/>
<polygon fill="#000000" fill-opacity="0.200000" stroke="#000000" stroke-width="2" stroke-opacity="0.200000" points="127.14,-125.1 133.14,-123 127.14,-120.9 127.14,-125.1"/>
</g>
<!-- src/reportWebVitals.ts -->
<g id="node24" class="node">
<title>src/reportWebVitals.ts</title>
<g id="a_node24"><a xlink:href="src/reportWebVitals.ts" xlink:title="reportWebVitals.ts">
<path fill="#ddfeff" stroke="black" d="M202.83,-161.88C202.83,-161.88 124.42,-161.88 124.42,-161.88 121.46,-161.88 118.5,-158.92 118.5,-155.96 118.5,-155.96 118.5,-150.04 118.5,-150.04 118.5,-147.08 121.46,-144.12 124.42,-144.12 124.42,-144.12 202.83,-144.12 202.83,-144.12 205.79,-144.12 208.75,-147.08 208.75,-150.04 208.75,-150.04 208.75,-155.96 208.75,-155.96 208.75,-158.92 205.79,-161.88 202.83,-161.88"/>
<text text-anchor="start" x="126.5" y="-149.32" font-family="Helvetica,sans-Serif" font-size="9.00">reportWebVitals.ts</text>
</a>
</g>
</g>
<!-- src/index.tsx&#45;&gt;src/reportWebVitals.ts -->
<g id="edge38" class="edge">
<title>src/index.tsx&#45;&gt;src/reportWebVitals.ts</title>
<path fill="none" stroke="#000000" stroke-width="2" stroke-opacity="0.200000" d="M87.99,-130.8C98.61,-133.96 111.1,-137.68 122.79,-141.15"/>
<polygon fill="#000000" fill-opacity="0.200000" stroke="#000000" stroke-width="2" stroke-opacity="0.200000" points="121.88,-143.07 128.23,-142.77 123.07,-139.05 121.88,-143.07"/>
</g>
<!-- src/react&#45;app&#45;env.d.ts -->
<g id="node25" class="node">
<title>src/react&#45;app&#45;env.d.ts</title>
<g id="a_node25"><a xlink:href="src/react-app-env.d.ts" xlink:title="react&#45;app&#45;env.d.ts">
<path fill="#ccffcc" stroke="black" d="M99.58,-96.88C99.58,-96.88 21.92,-96.88 21.92,-96.88 18.96,-96.88 16,-93.92 16,-90.96 16,-90.96 16,-85.04 16,-85.04 16,-82.08 18.96,-79.12 21.92,-79.12 21.92,-79.12 99.58,-79.12 99.58,-79.12 102.54,-79.12 105.5,-82.08 105.5,-85.04 105.5,-85.04 105.5,-90.96 105.5,-90.96 105.5,-93.92 102.54,-96.88 99.58,-96.88"/>
<text text-anchor="start" x="24" y="-84.33" font-family="Helvetica,sans-Serif" font-size="9.00">react&#45;app&#45;env.d.ts</text>
</a>
</g>
</g>
<!-- src/setupTests.ts -->
<g id="node26" class="node">
<title>src/setupTests.ts</title>
<g id="a_node26"><a xlink:href="src/setupTests.ts" xlink:title="setupTests.ts">
<path fill="#ccffcc" stroke="black" d="M89.08,-55.88C89.08,-55.88 32.42,-55.88 32.42,-55.88 29.46,-55.88 26.5,-52.92 26.5,-49.96 26.5,-49.96 26.5,-44.04 26.5,-44.04 26.5,-41.08 29.46,-38.12 32.42,-38.12 32.42,-38.12 89.08,-38.12 89.08,-38.12 92.04,-38.12 95,-41.08 95,-44.04 95,-44.04 95,-49.96 95,-49.96 95,-52.92 92.04,-55.88 89.08,-55.88"/>
<text text-anchor="start" x="34.5" y="-43.33" font-family="Helvetica,sans-Serif" font-size="9.00">setupTests.ts</text>
</a>
</g>
</g>
</g>
</svg>
